<svg xmlns="http://www.w3.org/2000/svg" fill="none" viewBox="0 0 128 128"><path fill="#153385" stroke="#101C3F" stroke-miterlimit="10" d="M88.1 63s1.06-7.65 7.85-7.85L80.32 39.52l-7.85 7.85L88.1 63Z"/><path fill="#0B64DD" stroke="#101C3F" stroke-miterlimit="10" d="M107.5 61S96.95 41.21 76.66 29.45c-1.52-.88-3.23.81-2.35 2.33 3.666 6.356 12.565 18.615 29.913 31.64a1 1 0 0 0 1.379-.173L107 61.5l.5-.5Z"/><path fill="#101C3F" d="M107.185 63.279c.934-.933 1.285-2.095.785-2.595-.5-.5-1.662-.149-2.595.785-.933.933-1.285 2.095-.785 2.595.5.5 1.662.148 2.595-.785Z"/><path fill="#48EFCF" d="M106.08 62.19c.48-.48 1.27-.48 1.75 0l.14.14c.1.1.19.22.25.35l1.56 3.34-3.24-1.7c-.11-.06-.21-.13-.3-.22l-.16-.16c-.48-.48-.48-1.27 0-1.75Z"/><path fill="#0B64DD" d="M11.54 12.68c.79 4.22 13.2 47.54 60.87 84.46l10.4-13.19.14-.14 13.61-10.82C59.64 25.32 15.9 13.33 11.68 12.54l-.14.14Z"/><path stroke="#101C3F" stroke-miterlimit="10" d="M11.54 12.68c.79 4.22 13.2 47.54 60.87 84.46l10.4-13.19.14-.14 13.61-10.82C59.64 25.32 15.9 13.33 11.68 12.54l-.14.14Z"/><path fill="#fff" stroke="#101C3F" stroke-miterlimit="10" d="M89.436 90.006c6.666-6.666 9.857-14.284 7.128-17.013-2.73-2.73-10.347.461-17.013 7.127-6.666 6.667-9.858 14.284-7.128 17.013 2.73 2.73 10.347-.461 17.013-7.127Z"/><path fill="#0B64DD" d="M88.634 89.22c5.241-5.241 8.081-10.898 6.343-12.636-1.738-1.738-7.395 1.102-12.636 6.342-5.24 5.241-8.08 10.899-6.343 12.636 1.738 1.738 7.396-1.102 12.636-6.342Z"/><mask id="illustration-aerospace.light__a" width="21" height="21" x="75" y="76" maskUnits="userSpaceOnUse" style="mask-type:luminance"><path fill="#fff" d="M88.634 89.22c5.241-5.241 8.081-10.898 6.343-12.636-1.738-1.738-7.395 1.102-12.636 6.342-5.24 5.241-8.08 10.899-6.343 12.636 1.738 1.738 7.396-1.102 12.636-6.342Z"/></mask><g mask="url(#illustration-aerospace.light__a)"><path fill="#101C3F" stroke="#101C3F" stroke-miterlimit="10" d="M86.995 87.58c5.24-5.241 8.08-10.898 6.343-12.636-1.738-1.738-7.395 1.102-12.636 6.342-5.241 5.241-8.08 10.898-6.343 12.636 1.738 1.738 7.395-1.102 12.636-6.342Z"/></g><path stroke="#101C3F" stroke-miterlimit="10" d="M88.634 89.22c5.241-5.241 8.081-10.898 6.343-12.636-1.738-1.738-7.395 1.102-12.636 6.342-5.24 5.241-8.08 10.899-6.343 12.636 1.738 1.738 7.396-1.102 12.636-6.342Z"/><path fill="#fff" d="M44.875 45.877c2.714-2.715 1.993-7.837-1.612-11.441-3.604-3.605-8.727-4.327-11.44-1.613-2.715 2.715-1.993 7.837 1.611 11.441 3.605 3.605 8.727 4.327 11.441 1.613Z"/><path fill="#48EFCF" stroke="#101C3F" stroke-miterlimit="10" d="M84.02 85.07c-3.91 3.91-3.91 10.26 0 14.17l1.14 1.14c.83.83 1.79 1.5 2.85 2l27.01 12.58-13.74-26.15c-.47-.89-1.07-1.71-1.78-2.42l-1.31-1.31c-3.91-3.91-10.26-3.91-14.17 0v-.01Z"/><path fill="#153385" stroke="#101C3F" stroke-miterlimit="10" d="M62.11 89.13s-7.65 1.06-7.85 7.85L38.63 81.35l7.85-7.85 15.63 15.63Z"/><path fill="#0B64DD" stroke="#101C3F" stroke-miterlimit="10" d="M59.5 108.5S40.32 97.98 28.56 77.69c-.88-1.52.81-3.23 2.33-2.35 6.45 3.72 18.37 12.3 31.61 30.16l-2.5 3h-.5Z"/><path fill="#101C3F" d="M62.387 108.208c.95-.949 1.313-2.124.813-2.624s-1.674-.136-2.623.813c-.95.949-1.313 2.124-.813 2.624s1.674.136 2.623-.813Z"/><path fill="#48EFCF" d="M61.29 107.11c-.48.48-.48 1.27 0 1.75l.14.14c.1.1.22.19.35.25l3.34 1.56-1.7-3.24c-.06-.11-.13-.21-.22-.3l-.16-.16c-.48-.48-1.27-.48-1.75 0Z"/></svg>