<svg xmlns="http://www.w3.org/2000/svg" fill="none" viewBox="0 0 128 128"><path fill="#101C3F" stroke="#101C3F" stroke-miterlimit="10" d="M56.29 108.2s32.74-8.74 37.78-13.77L81.23 88.7l-22.89 4.42-4.5 12.34 2.45 2.73v.01Z"/><path fill="#F5F7FA" d="m102.99 73.23 7.32-30.05c.96-3.94-1.79-7.82-5.83-8.22l-24.99-2.45-26.93-3.01a6.667 6.667 0 0 0-7.25 5.17C43.22 44 38.8 62.13 34.23 71.18c-4.75 9.38-12.97 24.22-16.78 31.04-.96 1.71.17 3.85 2.12 4.02l30.22 2.71c4.71.42 9.37-1.24 12.74-4.55 1.67-1.64 3.38-3.35 4.6-4.65 2.57-2.74 5.84-3.97 9.99-4.19 1.59-.08 3.18.02 4.75.25 3.18.47 11.32 1.19 14.08-3.27 3.46-5.59 7.04-19.33 7.04-19.33v.02Z"/><path stroke="#101C3F" stroke-miterlimit="10" d="m102.99 73.23 7.32-30.05c.96-3.94-1.79-7.82-5.83-8.22l-24.99-2.45-26.93-3.01a6.667 6.667 0 0 0-7.25 5.17C43.22 44 38.8 62.13 34.23 71.18c-4.75 9.38-12.97 24.22-16.78 31.04-.96 1.71.17 3.85 2.12 4.02l30.22 2.71c4.71.42 9.37-1.24 12.74-4.55 1.67-1.64 3.38-3.35 4.6-4.65 2.57-2.74 5.84-3.97 9.99-4.19 1.59-.08 3.18.02 4.75.25 3.18.47 11.32 1.19 14.08-3.27 3.46-5.59 7.04-19.33 7.04-19.33v.02ZM50.16 46.41l45.95 5m-44.9 5.76 30.18 3.06m-33.18 7.09 36.82 3.73m-40.61 7.03 21.66 1.94"/><path fill="#0B64DD" stroke="#101C3F" stroke-linecap="round" stroke-linejoin="round" d="M96.89 85.64c-12.66 0-22.93 4.52-22.93 10.1v10.1c0 5.58 10.27 10.1 22.93 10.1s22.93-4.52 22.93-10.1v-10.1c0-5.58-10.27-10.1-22.93-10.1Z"/><path fill="#fff" stroke="#101C3F" stroke-linecap="round" stroke-linejoin="round" d="M96.89 105.84c12.664 0 22.93-4.522 22.93-10.1 0-5.578-10.266-10.1-22.93-10.1s-22.93 4.522-22.93 10.1c0 5.578 10.266 10.1 22.93 10.1Z"/><path fill="#0B64DD" stroke="#101C3F" stroke-linecap="round" stroke-linejoin="round" d="M96.89 68.81c-12.66 0-22.93 4.52-22.93 10.1v10.1c0 5.58 10.27 10.1 22.93 10.1s22.93-4.52 22.93-10.1v-10.1c0-5.58-10.27-10.1-22.93-10.1Z"/><path fill="#fff" stroke="#101C3F" stroke-linecap="round" stroke-linejoin="round" d="M96.89 89.01c12.664 0 22.93-4.522 22.93-10.1 0-5.578-10.266-10.1-22.93-10.1s-22.93 4.522-22.93 10.1c0 5.578 10.266 10.1 22.93 10.1Z"/><path stroke="#101C3F" stroke-linecap="round" stroke-linejoin="round" d="M87.6 92.92c-4.42-.86-8.11-2.33-10.53-4.15M87.6 109.5c-4.42-.86-8.11-2.33-10.53-4.15"/><path fill="#101C3F" stroke="#101C3F" stroke-miterlimit="10" d="m65.88 25.95-4.73 1.51s-.03 0-.04.01l4.73-1.51s.03 0 .04-.01Zm5.09 17.49-1.54.22c-.1.01-.19.02-.29.01l-4.73 1.51c.1 0 .19 0 .29-.01l1.54-.22c.07 0 .13-.02.2-.05l4.73-1.51c-.06.02-.13.04-.2.05ZM26.53 20.93l4.73-1.51-.62-3.29c-.15-.83.25-1.6.93-1.81l-4.73 1.51c-.67.21-1.08.99-.93 1.81l.62 3.29Zm2.43 39.79c-4.04.57-8.06-2.79-8.94-7.46l-.49-2.62h-.02a.84.84 0 0 1-.26.07l-1.54.22c-.79.11-1.58-.56-1.75-1.46l-2.7-14.43c-.08-.45.01-.88.22-1.22l2.74-.87-.49-2.62c-.8-4.26 1.29-8.19 4.73-9.29l-4.73 1.51c-3.44 1.09-5.52 5.03-4.73 9.29l.42 2.27-1.97.63c-.67.21-1.08.99-.93 1.82l2.7 14.43c.17.91.96 1.57 1.75 1.46l1.54-.22c.09-.01.17-.03.26-.06h.02l.49 2.61c.87 4.67 4.89 8.02 8.94 7.46l34.9-4.91c.36-.05.71-.13 1.04-.24l4.74-1.51c-.33.11-.68.19-1.04.24l-34.9 4.91v-.01Z"/><path fill="#48EFCF" stroke="#101C3F" stroke-miterlimit="10" d="M44.28 12.51c.79-.11 1.57.55 1.74 1.45l.62 3.29 9.76-1.37c4.05-.57 8.07 2.78 8.94 7.45l.49 2.62c.09-.03.18-.05.28-.07l1.54-.22c.79-.11 1.58.56 1.75 1.46l2.7 14.43c.17.91-.35 1.76-1.13 1.87l-1.54.22c-.1.01-.19.02-.29.01l.49 2.62c.87 4.67-1.72 8.95-5.77 9.52l-34.9 4.91c-4.04.57-8.06-2.79-8.94-7.46l-.49-2.62c-.1.03-.19.06-.29.07l-1.54.22c-.79.11-1.58-.56-1.75-1.46l-2.7-14.43c-.17-.91.34-1.76 1.12-1.87l1.54-.22c.1-.01.19-.02.3-.01l-.49-2.62c-.87-4.67 1.72-8.95 5.76-9.52l9.76-1.37-.62-3.29c-.17-.91.34-1.75 1.13-1.86l12.5-1.76.03.01Z"/><path stroke="#101C3F" stroke-miterlimit="10" d="M57.11 19.37c2.11-.3 4.22 1.44 4.7 3.89l4.75 23.96c.49 2.45-.83 4.68-2.94 4.99l-35.55 5.06c-2.11.3-4.21-1.44-4.7-3.9l-4.75-23.96c-.48-2.44.83-4.67 2.94-4.97l35.55-5.06v-.01Z"/><path stroke="#101C3F" d="M33.41 34.625c2.223-.314 4.577 1.534 5.12 4.31v.003a.273.273 0 0 1-.023.19c-.02.034-.037.037-.04.037-.008.001-.047.001-.1-.042a.33.33 0 0 1-.099-.137l-.017-.062a5.022 5.022 0 0 0-1.702-2.91c-.841-.694-1.888-1.062-2.988-.91-1.107.154-1.972.806-2.51 1.71l-.002.002c-.537.913-.73 2.059-.5 3.25v.002c.018.085 0 .15-.022.187-.02.034-.038.039-.048.04-.011.002-.046.002-.094-.04a.344.344 0 0 1-.096-.139l-.019-.064c-.55-2.761.942-5.118 3.14-5.427Zm17.29-2.462c2.22-.307 4.568 1.54 5.11 4.313v.002a.273.273 0 0 1-.024.19c-.021.036-.038.037-.039.037-.004 0-.037.003-.09-.04a.358.358 0 0 1-.117-.203 5.02 5.02 0 0 0-1.701-2.907c-.841-.696-1.899-1.063-2.988-.91-1.099.153-1.961.806-2.508 1.706l-.006.01c-.522.907-.73 2.05-.498 3.245v.002a.274.274 0 0 1-.023.19c-.02.035-.037.037-.039.037-.003 0-.037.003-.09-.041a.346.346 0 0 1-.098-.14l-.019-.062c-.55-2.762.943-5.118 3.13-5.427v-.002Z"/></svg>