<svg xmlns="http://www.w3.org/2000/svg" fill="none" viewBox="0 0 128 128"><path fill="#fff" d="m40.47 110.09-1.62-17.66s-18.24-.1-18.95-8.72c-1.18-14.17-1.18-20.07-1.18-20.07s-7.01-1.46-6.14-6.43c.87-4.97 6.25-6.05 6.25-6.05s1.64-38.07 35.53-38.65c33.89-.58 39.48 36.91 31.23 52.25-4.88 9.06-5.57 9.77-3.49 24.17 1.81 12.56 4.18 22.09 4.18 22.09"/><path stroke="#153385" stroke-linejoin="round" d="m40.47 110.09-1.62-17.66s-18.24-.1-18.95-8.72c-1.18-14.17-1.18-20.07-1.18-20.07s-7.01-1.46-6.14-6.43c.87-4.97 6.25-6.05 6.25-6.05s1.64-38.07 35.53-38.65c33.89-.58 39.48 36.91 31.23 52.25-4.88 9.06-5.57 9.77-3.49 24.17 1.81 12.56 4.18 22.09 4.18 22.09"/><path fill="#153385" stroke="#153385" stroke-miterlimit="10" d="M63.37 116.34c12.647 0 22.9-2.386 22.9-5.33s-10.253-5.33-22.9-5.33c-12.647 0-22.9 2.386-22.9 5.33s10.253 5.33 22.9 5.33Z"/><path fill="#153385" d="m13.23 58.77 5.2 2.08c1.48.59 1.96 1.7.87 2.87 0 0-7.46-2.47-6.07-4.95Z"/><path stroke="#153385" stroke-miterlimit="10" d="M79.04 44 61.03 24.88l-19.87 22.9-17.83-14.52"/><path fill="#48EFCF" stroke="#153385" stroke-miterlimit="10" d="M41.16 49.09a3.62 3.62 0 1 0 0-7.24 3.62 3.62 0 0 0 0 7.24ZM61.33 28.5a3.62 3.62 0 1 0 0-7.24 3.62 3.62 0 0 0 0 7.24Z"/><path fill="#153385" stroke="#153385" stroke-linejoin="round" d="M75.87 79.21c-1.09-1.22-.21-2.44-.21-2.44l11.29-5.81 18.07-6.49.64 3.48 7.42.2 1.91-9.74.38 5.58-2.24 8.98-7.59-.07c-2 2.19-7.49 7.3-15.87 8.45l1.06 1.63 11.22-4.07.49 4.99L91 87.43l-3.43-5.65-.02-.22c-.72.04-1.46.05-2.22.02-2.25-.09-4-.29-5.37-.57l-5.26 4.35-9.24-5.42-.7-5.23L74 80.67l1.86-1.47.01.01Zm33.39-33.45.19 5.62-3.07 3.46-2.1-3.46 4.98-5.62ZM59.33 62.24l9.99.99 1.41 5.4-.47-.06.81 1.33-2.31 1.41-.73-.5s-.57-1-.89-2.65l-7.53-.98-.26-4.94h-.02Zm25.8-3.93c-7.86 2.26-7.67 7.72-7.67 7.72l-6.88-9.31 21.48-8.38 7.74 11.59-3.32 3.33s-3.49-7.21-11.35-4.95Z"/><path fill="#0B64DD" stroke="#153385" stroke-linejoin="round" d="m69.61 52.41-8.4.08-1.87 9.75 7.82 1.22c.27 2.08.92 4.14 1.92 6.08l-4.3 5.19 9.24 5.96 4.79-3.79c2.62.69 5.49.89 8.38.63L90.75 83l11.22-4.07-1.7-6.35c1.77-1.38 3.17-2.96 4.23-4.65l8.59.24 1.91-9.74-8.2-1.49a18.52 18.52 0 0 0-1.96-6.07l4.42-5.11-9.33-6.01-4.51 4.03c-2.81-.76-5.94-.97-9.07-.66l-3.11-5.13-11.16 3.8 1.9 5.95a18.358 18.358 0 0 0-4.37 4.65v.02Zm15.89.62c5.07-.66 9.62 2.16 10.16 6.3.54 4.14-3.12 8.05-8.19 8.71-5.07.66-9.62-2.16-10.16-6.3-.54-4.15 3.12-8.05 8.19-8.71Z"/></svg>