<svg xmlns="http://www.w3.org/2000/svg" fill="none" viewBox="0 0 128 128"><path fill="#101C3F" stroke="#101C3F" stroke-miterlimit="10" d="M83.19 17.68c-13.11-4.83-25.27.32-31.88 9.52 19.77-16.11 50.59 2.91 47.55 27.61a25.6 25.6 0 0 1-4.01 10.93c4.56-3.87 7.78-9.52 8.5-17 1.31-13.51-7.59-26.43-20.16-31.06Z"/><path fill="#0B64DD" stroke="#101C3F" stroke-miterlimit="10" d="M53.4 11.61C21.99 30.38 38.73 76.23 71.08 81.37c19.62 3.12 39.05-10 41.55-30.16C116.38 20.42 80.6-4.63 53.4 11.62v-.01Zm49.87 37.85c-1.62 13.19-13.03 22.84-26.18 23.07-24.92.43-42.65-32.35-22.18-50.16 19.77-17.21 51.45 2.04 48.36 27.09Z"/><path fill="#153385" stroke="#101C3F" stroke-miterlimit="10" d="M71.08 81.36c-25.14-3.99-40.85-32.58-31.86-53.93-7.65 10.5-9.78 25.02-1.71 39.01 14.39 24.95 53.05 27.13 66.39 3.6-8.02 8.74-20.38 13.31-32.83 11.33l.01-.01Z"/><path fill="#153385" stroke="#101C3F" stroke-miterlimit="10" d="m54.766 76.787-2.92-2.257a5.32 5.32 0 0 0-7.463.956l-26.79 34.664a5.32 5.32 0 0 0 .955 7.463l2.92 2.256a5.32 5.32 0 0 0 7.463-.956L55.72 84.25a5.32 5.32 0 0 0-.955-7.463Z"/><path fill="#0B64DD" stroke="#101C3F" stroke-miterlimit="10" d="m52.785 75.256-2.92-2.257a5.32 5.32 0 0 0-7.463.956l-26.79 34.664a5.32 5.32 0 0 0 .955 7.462l2.92 2.257a5.321 5.321 0 0 0 7.463-.956l26.79-34.664a5.32 5.32 0 0 0-.955-7.462Z"/><path stroke="#101C3F" stroke-miterlimit="10" d="m50.29 56.51 16.28-17.29 14.24 15.06 18.34-23.06"/><path fill="#48EFCF" stroke="#101C3F" stroke-miterlimit="10" d="M66.57 43.28a2.91 2.91 0 1 0 0-5.82 2.91 2.91 0 0 0 0 5.82Zm14.74 13.68a2.91 2.91 0 1 0 0-5.82 2.91 2.91 0 0 0 0 5.82Z"/></svg>