<svg xmlns="http://www.w3.org/2000/svg" fill="none" viewBox="0 0 128 128"><mask id="illustration-analytics-speed-acceleration.dark__a" width="112" height="98" x="9" y="17" maskUnits="userSpaceOnUse" style="mask-type:luminance"><path fill="#fff" stroke="#fff" d="M120.36 17.5v96.4H9.5V17.5h110.86Z"/></mask><g mask="url(#illustration-analytics-speed-acceleration.dark__a)"><path stroke="#153385" stroke-miterlimit="10" d="M16.3 22.62h27m-29.24 25.8h23.05m-19.18 25.8h27m-24.96-12.9h19.66m-21.7-25.8h16.55"/><path fill="#153385" d="M111.07 17.55H38.99c-3.08 0-5.57 2.49-5.57 5.57v54.8c0 3.08 2.49 5.57 5.57 5.57h72.08c3.08 0 5.57-2.49 5.57-5.57v-54.8c0-3.08-2.49-5.57-5.57-5.57Z"/><path fill="#153385" stroke="#153385" stroke-miterlimit="10" d="M111.07 17.55H38.99c-3.08 0-5.57 2.49-5.57 5.57v54.8c0 3.08 2.49 5.57 5.57 5.57h72.08c3.08 0 5.57-2.49 5.57-5.57v-54.8c0-3.08-2.49-5.57-5.57-5.57Z"/><path fill="#F5F7FA" d="M113.5 17.5H41.42c-3.08 0-5.57 2.49-5.57 5.57v54.8c0 3.08 2.49 5.57 5.57 5.57h72.08c3.08 0 5.57-2.49 5.57-5.57v-54.8c0-3.08-2.49-5.57-5.57-5.57Z"/><path stroke="#153385" stroke-miterlimit="10" d="M119.07 48.31c-5.9 1.82-6.32 16.12-13.02 16.12-7.15 0-7.15-16.31-14.3-16.31s-7.15 16.31-14.3 16.31S70.3 38.9 63.15 38.9 56 64.43 48.85 64.43c-6.69 0-7.12-14.27-13-16.11"/><path stroke="#153385" stroke-miterlimit="10" d="M113.5 17.5H41.42c-3.08 0-5.57 2.49-5.57 5.57v54.8c0 3.08 2.49 5.57 5.57 5.57h72.08c3.08 0 5.57-2.49 5.57-5.57v-54.8c0-3.08-2.49-5.57-5.57-5.57ZM35.91 31.46h82.98"/><path fill="#153385" d="M54.17 23.3h-9.39c-1.04 0-1.89.85-1.89 1.89s.85 1.89 1.89 1.89h9.39c1.04 0 1.89-.85 1.89-1.89s-.85-1.89-1.89-1.89Z"/><path stroke="#153385" stroke-miterlimit="10" d="M42.89 77.33h24.87m-24.87-4.81h10.5"/><path fill="#153385" stroke="#153385" stroke-miterlimit="10" d="M9.5 113.9v-4.53c0-22.39 18.22-40.61 40.61-40.61s40.61 18.22 40.61 40.61v4.53H9.5Z"/><path fill="#0B64DD" stroke="#153385" stroke-miterlimit="10" d="M14.03 113.9v-4.53c0-22.39 18.22-40.61 40.61-40.61s40.61 18.22 40.61 40.61v4.53H14.03Z"/><path fill="#153385" d="M18.56 109.37c0-19.93 16.15-36.08 36.08-36.08s36.08 16.15 36.08 36.08H18.56Z"/><path stroke="#153385" stroke-miterlimit="10" d="M88.07 109.37h2.65c0-19.93-16.15-36.08-36.08-36.08-6.37 0-12.35 1.66-17.54 4.55 4.55-2.07 9.6-3.23 14.92-3.23 19.49 0 35.35 15.44 36.05 34.76Z"/><path fill="#fff" stroke="#153385" stroke-miterlimit="10" d="M18.56 109.37h69.51c-.7-19.32-16.56-34.76-36.05-34.76-5.32 0-10.37 1.16-14.92 3.23C26.04 84 18.56 95.81 18.56 109.37Z"/><path fill="#48EFCF" stroke="#153385" stroke-miterlimit="10" d="m41.12 102.89-2.19-4.35 31.84-13.9.85 1.8-30.5 16.45Z"/><path fill="#153385" stroke="#153385" stroke-miterlimit="10" d="M52.97 90.353a3.547 3.547 0 0 0-1.78 2.003c-.624 1.826.337 3.829 2.164 4.454 1.827.624 3.83-.337 4.455-2.163.625-1.827-.336-3.83-2.163-4.454a3.505 3.505 0 0 0-2.677.16Z"/><path fill="#153385" d="m54.92 90.96 1.03.35-1.63 4.46-1.23-.42 1.83-4.39Z"/><path fill="#153385" stroke="#153385" stroke-miterlimit="10" d="M57.083 94.148c.413-1.322-.074-2.713-1.101-3.096s-2.192.371-2.605 1.705c-.413 1.322.074 2.713 1.101 3.096s2.192-.37 2.605-1.704Z"/></g></svg>