<svg xmlns="http://www.w3.org/2000/svg" fill="none" viewBox="0 0 128 128"><path stroke="#153385" stroke-miterlimit="10" d="M43.41 57.46v27.21l7.81 8.03v12.55"/><path fill="#48EFCF" stroke="#153385" stroke-miterlimit="10" d="M51.22 112.6c2.16 0 3.9-1.75 3.9-3.9s-1.75-3.9-3.9-3.9-3.9 1.75-3.9 3.9 1.75 3.9 3.9 3.9Z"/><path stroke="#153385" stroke-miterlimit="10" d="M21.21 53.8v19.55l-7.81 8.02-.24 6.07"/><path fill="#48EFCF" stroke="#153385" stroke-miterlimit="10" d="M13.15 94.79c2.16 0 3.9-1.75 3.9-3.9s-1.75-3.9-3.9-3.9-3.9 1.75-3.9 3.9 1.75 3.9 3.9 3.9Zm18.95 4.27c2.16 0 3.9-1.75 3.9-3.9s-1.75-3.9-3.9-3.9-3.9 1.75-3.9 3.9 1.75 3.9 3.9 3.9Z"/><path stroke="#153385" stroke-miterlimit="10" d="M32.1 60.51v31.23"/><path fill="#153385" stroke="#153385" stroke-miterlimit="10" d="M84.18 25.44c-1.47 0-2.91.11-4.32.31-4.57-6.79-12.32-11.25-21.11-11.25-11.11 0-20.56 7.13-24.02 17.06-1.6-.38-3.27-.59-4.99-.59-11.73 0-21.24 9.51-21.24 21.25 0 2.39.4 4.69 1.13 6.83h104.76c.11-1.06.17-2.14.17-3.24 0-16.78-13.6-30.38-30.38-30.38v.01Z"/><path fill="#fff" stroke="#153385" stroke-miterlimit="10" d="M84.18 30.26c-1.47 0-2.91.11-4.32.31-4.57-6.78-12.32-11.25-21.11-11.25-11.11 0-20.56 7.13-24.02 17.06-1.6-.38-3.27-.59-4.99-.59-11.73 0-21.24 9.51-21.24 21.25 0 2.39.4 4.69 1.13 6.83h104.76c.11-1.06.17-2.14.17-3.24 0-16.78-13.6-30.38-30.38-30.38v.01Z"/><path fill="#153385" stroke="#153385" stroke-linejoin="round" d="M85.02 97.98c-1.72-.64-1.49-2.31-1.49-2.31l8.16-11.7 14.53-15.94 2.46 3.12 7.47-3.7-3.23-10.67 3.31 5.35 2.5 10.09-7.57 3.92c-.83 3.22-3.6 11.19-11.31 16.72l1.91 1.06 9-9.94 3.11 4.7-9.5 9.51-6.37-3.8-.14-.21c-.7.42-1.42.82-2.19 1.19-2.28 1.1-4.12 1.81-5.63 2.25l-2.93 7.08-12.02-.52-3.45-4.82 12.3 1.06 1.07-2.44h.01Zm15.55-50.75 3.14 5.48-1.23 5.04-3.9-2.33 1.99-8.19Zm-40.89 42.6 10.43-4.27 4.24 4.63-.5.19 1.5.9-1.56 2.61-.99-.11s-1.09-.69-2.28-2.16l-7.99 2.98-2.86-4.77h.01Zm23.53-17.47c-6.61 6.38-3.56 11.69-3.56 11.69l-11.73-5.62 16.92-19.61 13.78 7.43-1.55 5.06s-7.25-5.32-13.86 1.05Z"/><path fill="#0B64DD" stroke="#153385" stroke-linejoin="round" d="m64.71 74.67-8.3 4.5 3.26 10.66 8.4-2.9c1.36 1.92 3.08 3.62 5.11 5.02l-1.54 7.41 12.3 1.06 2.76-6.28c2.96-.69 5.92-2 8.65-3.78l6.41 3.56 9-9.94-5.02-5.41c1.03-2.3 1.59-4.6 1.75-6.84l8.65-4.28-3.23-10.67-8.92 2.83c-1.38-1.91-3.11-3.6-5.14-4.99l1.7-7.39-12.41-1.06-2.36 6.37c-3.19.72-6.41 2.15-9.35 4.12l-5.78-3.45-9.08 9.63 5.01 4.91c-1.1 2.33-1.69 4.65-1.89 6.92h.02Zm16.1-7.74c4.68-3.32 10.68-2.91 13.4.92 2.72 3.83 1.13 9.63-3.55 12.95-4.68 3.32-10.68 2.91-13.4-.92-2.72-3.83-1.13-9.63 3.55-12.95Z"/></svg>