<svg xmlns="http://www.w3.org/2000/svg" fill="none" viewBox="0 0 128 128"><path fill="#153385" stroke="#153385" stroke-miterlimit="10" d="M102.28 17.56H25.07a5.57 5.57 0 0 0-5.57 5.57V94.5a5.57 5.57 0 0 0 5.57 5.57h77.21a5.57 5.57 0 0 0 5.57-5.57V23.13a5.57 5.57 0 0 0-5.57-5.57Z"/><path fill="#fff" d="M104.85 17.5H27.64a5.57 5.57 0 0 0-5.57 5.57v71.37a5.57 5.57 0 0 0 5.57 5.57h77.21a5.57 5.57 0 0 0 5.57-5.57V23.07a5.57 5.57 0 0 0-5.57-5.57Z"/><path stroke="#153385" stroke-miterlimit="10" d="M104.85 17.5H27.64a5.57 5.57 0 0 0-5.57 5.57v71.37a5.57 5.57 0 0 0 5.57 5.57h77.21a5.57 5.57 0 0 0 5.57-5.57V23.07a5.57 5.57 0 0 0-5.57-5.57Z"/><path fill="#153385" d="M60.04 121.41V58.07l-9.79.03 15.63-13.51h1.81v1.94L79.6 57.59h-9.14v63.82H60.04Z"/><path fill="#153385" d="M67.19 45.09v1.66l.32.3L78.32 57.1h-8.36v63.82h-9.42V57.58h-1l-7.94.03 14.47-12.5h1.12m1-1.02H65.7L48.9 58.6l10.64-.03v63.34h11.42V58.09h9.91L68.19 46.31v-2.22Z"/><path fill="#0B64DD" stroke="#153385" stroke-miterlimit="10" d="M62.04 58.09v63.3h11.42v-63.3h9.91L68.18 44.75 52.57 58.09h9.47Z"/><path fill="#153385" d="M38.35 110.53V72.96l-7.42.03 11.88-10.27h1.26v1.44l9.07 8.43h-6.92v37.94h-7.87Z"/><path fill="#153385" d="M43.57 63.22v1.16l.32.3 7.98 7.42h-6.15v37.93h-6.87V72.47h-1l-5.57.02L43 63.23h.57m1-1.01h-1.94L29.58 73.49l8.27-.03v37.56h8.87V73.09h7.7l-9.85-9.15v-1.72Z"/><path fill="#48EFCF" stroke="#153385" stroke-miterlimit="10" d="M39.79 73.09v37.54h8.87V73.09h7.69L44.56 62.73 32.43 73.09h7.36Z"/><path fill="#153385" d="M84.91 110.53V72.96l-7.42.03 11.89-10.27h1.25v1.44l9.08 8.43h-6.93v37.94h-7.87Z"/><path fill="#153385" d="M90.13 63.22v1.16l.32.3 7.98 7.42h-6.15v37.93h-6.87V72.47h-1l-5.57.02 10.72-9.26h.57m1-1.01h-1.94L76.14 73.49l8.27-.03v37.56h8.87V73.09h7.7l-9.85-9.15v-1.72Z"/><path fill="#48EFCF" stroke="#153385" stroke-miterlimit="10" d="M86.35 73.09v37.54h8.87V73.09h7.7L91.13 62.73 78.99 73.09h7.36Z"/><path stroke="#153385" stroke-miterlimit="10" stroke-width="2" d="m36.85 25.66-7.22 7.2 7 7m14.34 0 7.2-7.2-7-7m-2.54 2.37-9.45 9.45"/></svg>