<svg xmlns="http://www.w3.org/2000/svg" fill="none" viewBox="0 0 128 128"><path fill="#153385" stroke="#153385" stroke-miterlimit="10" d="M108.03 21.94H36.96a4.98 4.98 0 0 0-4.98 4.98v39.71a4.98 4.98 0 0 0 4.98 4.98h71.07a4.98 4.98 0 0 0 4.98-4.98V26.92a4.98 4.98 0 0 0-4.98-4.98Z"/><path fill="#0B64DD" stroke="#153385" stroke-miterlimit="10" d="M105.33 21.5H36.96a4.98 4.98 0 0 0-4.98 4.98v38.06a4.98 4.98 0 0 0 4.98 4.98h68.37a4.98 4.98 0 0 0 4.98-4.98V26.48a4.98 4.98 0 0 0-4.98-4.98Z"/><path fill="#153385" stroke="#153385" stroke-miterlimit="10" d="M95.77 32.27H13.48a4.98 4.98 0 0 0-4.98 4.98v48.9a4.98 4.98 0 0 0 4.98 4.98h82.29a4.98 4.98 0 0 0 4.98-4.98v-48.9a4.98 4.98 0 0 0-4.98-4.98Z"/><path fill="#F5F7FA" stroke="#153385" stroke-miterlimit="10" d="M92.8 32.27H13.48a4.98 4.98 0 0 0-4.98 4.98v46.37a4.98 4.98 0 0 0 4.98 4.98H92.8a4.98 4.98 0 0 0 4.98-4.98V37.25a4.98 4.98 0 0 0-4.98-4.98Z"/><path stroke="#153385" stroke-miterlimit="10" d="M17.7 42.69h50.43M18.04 54.73h33.01m8.43 0h25.86M17.83 79.78h50.44"/><path fill="#153385" d="M79.11 46.36a3.67 3.67 0 1 0 0-7.34 3.67 3.67 0 0 0 0 7.34Z"/><path stroke="#153385" stroke-miterlimit="10" d="M82.78 68.12H32.35"/><path fill="#153385" d="M21.37 71.79a3.67 3.67 0 1 0 0-7.34 3.67 3.67 0 0 0 0 7.34Z"/><path fill="#153385" stroke="#153385" stroke-miterlimit="10" d="M117.83 94.3s-15.63 21.44-34.91 21.44c-19.28 0-34.91-21.44-34.91-21.44s15.63-21.48 34.91-21.48c19.28 0 34.91 21.48 34.91 21.48Z"/><path fill="#fff" stroke="#153385" stroke-miterlimit="10" d="M120.25 91.72s-15.63 21.44-34.91 21.44c-19.28 0-34.91-21.44-34.91-21.44s15.63-21.48 34.91-21.48c19.28 0 34.91 21.48 34.91 21.48Z"/><path fill="#48EFCF" stroke="#153385" stroke-miterlimit="10" d="M85.34 106.95c8.422 0 15.25-6.828 15.25-15.25s-6.828-15.25-15.25-15.25-15.25 6.828-15.25 15.25 6.828 15.25 15.25 15.25Z"/><path fill="#153385" d="M85.34 100.12a8.42 8.42 0 1 0 0-16.84 8.42 8.42 0 0 0 0 16.84Z"/></svg>