<svg xmlns="http://www.w3.org/2000/svg" fill="none" viewBox="0 0 128 128"><path fill="#153385" d="M94.56 15.55H18.07a5.57 5.57 0 0 0-5.57 5.57v58.3a5.57 5.57 0 0 0 5.57 5.57h76.49a5.57 5.57 0 0 0 5.57-5.57v-58.3a5.57 5.57 0 0 0-5.57-5.57Z"/><path stroke="#153385" stroke-miterlimit="10" d="M94.56 15.55H18.07a5.57 5.57 0 0 0-5.57 5.57v58.3a5.57 5.57 0 0 0 5.57 5.57h76.49a5.57 5.57 0 0 0 5.57-5.57v-58.3a5.57 5.57 0 0 0-5.57-5.57Z"/><path fill="#F5F7FA" d="M97.11 15.5H20.62a5.57 5.57 0 0 0-5.57 5.57v58.3a5.57 5.57 0 0 0 5.57 5.57h76.49a5.57 5.57 0 0 0 5.57-5.57v-58.3a5.57 5.57 0 0 0-5.57-5.57Z"/><mask id="illustration-behavioral-analysis-monitors-meeting.dark__a" width="88" height="70" x="15" y="15" maskUnits="userSpaceOnUse" style="mask-type:luminance"><path fill="#fff" d="M97.11 15.5H20.62a5.57 5.57 0 0 0-5.57 5.57v58.3a5.57 5.57 0 0 0 5.57 5.57h76.49a5.57 5.57 0 0 0 5.57-5.57v-58.3a5.57 5.57 0 0 0-5.57-5.57Z"/></mask><g mask="url(#illustration-behavioral-analysis-monitors-meeting.dark__a)"><path stroke="#0B64DD" stroke-miterlimit="10" d="m14.17 83.14-.48-35.4c7.53 0 7.53 17.18 15.06 17.18s7.53-26.89 15.05-26.89c7.52 0 7.53 26.89 15.06 26.89s7.53-17.18 15.06-17.18 7.53 17.18 15.06 17.18 7.53-17.18 15.06-17.18v35.4"/></g><path stroke="#153385" stroke-miterlimit="10" d="M97.11 15.5H20.62a5.57 5.57 0 0 0-5.57 5.57v58.3a5.57 5.57 0 0 0 5.57 5.57h76.49a5.57 5.57 0 0 0 5.57-5.57v-58.3a5.57 5.57 0 0 0-5.57-5.57ZM15.12 30.2h87.38"/><path fill="#153385" d="M34.37 21.61h-9.96a1.95 1.95 0 0 0-1.95 1.95v.08a1.95 1.95 0 0 0 1.95 1.95h9.96a1.95 1.95 0 0 0 1.95-1.95v-.08a1.95 1.95 0 0 0-1.95-1.95Z"/><path stroke="#153385" stroke-miterlimit="10" d="M22.46 78.5h26.2m-26.2-5.07h11.07"/><path fill="#153385" stroke="#153385" stroke-miterlimit="10" d="M108.92 58.24H63.01a4.29 4.29 0 0 0-4.29 4.29v45.91a4.29 4.29 0 0 0 4.29 4.29h45.91a4.29 4.29 0 0 0 4.29-4.29V62.53a4.29 4.29 0 0 0-4.29-4.29Z"/><path fill="#fff" stroke="#153385" stroke-miterlimit="10" d="M111.36 58.24H65.45a4.29 4.29 0 0 0-4.29 4.29v45.91a4.29 4.29 0 0 0 4.29 4.29h45.91a4.29 4.29 0 0 0 4.29-4.29V62.53a4.29 4.29 0 0 0-4.29-4.29Z"/><path fill="#48EFCF" stroke="#153385" stroke-miterlimit="10" d="M75.31 101.81c1.12-4.12 2.06-7.21 2.06-7.21.12-.66-.03-1.34-.42-1.89l-3.05-4.25S66.81 76.77 77.37 68c10.45-8.08 20.32.03 21.61 1.16 1.29 1.13 4.3 4.01 4.29 11.62l3.52 5.18c.65.96.26 2.27-.8 2.72l-2.33.98v6.23c0 2.04-1.66 3.7-3.7 3.7h-4.73s-.62 3.17-1.55 7.02a2.307 2.307 0 0 1-2.82 1.69l-13.92-3.66a2.29 2.29 0 0 1-1.63-2.82v-.01Z"/><path stroke="#fff" stroke-miterlimit="10" d="M85.81 86.15a9.12 9.12 0 1 0 0-18.24 9.12 9.12 0 0 0 0 18.24Z"/><path stroke="#fff" stroke-miterlimit="10" d="M85.81 82.99a5.96 5.96 0 1 0 0-11.92 5.96 5.96 0 0 0 0 11.92Z"/><path stroke="#fff" stroke-miterlimit="10" d="M85.81 80.37a3.34 3.34 0 1 0 0-6.68 3.34 3.34 0 0 0 0 6.68Z"/></svg>