<svg xmlns="http://www.w3.org/2000/svg" fill="none" viewBox="0 0 128 128"><path fill="#153385" stroke="#153385" stroke-miterlimit="10" d="m66.26 112.11-5.34-5.28C48.51 94.42 38.77 79.95 26.49 67.38c-7.14-7.21-9.26-16.01-6.14-25.74 3.12-9.73 9.89-15.44 19.81-17.21 8.6-1.55 16.16.94 22.47 6.99 1.78 1.74 3.5 3.5 5.28 5.28.22.27.42.57.59.87 1.26-1.27 2.33-2.33 3.38-3.41 2.03-2.24 4.3-4.26 6.75-6.04A25.45 25.45 0 0 1 90.42 24c4.21-.37 8.45.31 12.33 1.98 3.88 1.67 7.29 4.29 9.9 7.6 2.62 3.32 4.37 7.23 5.1 11.4a24.595 24.595 0 0 1-7.2 22.7c-13.79 13.86-27.6 27.68-41.44 41.47l-2.85 2.95v.01Z"/><path fill="#fff" stroke="#153385" stroke-miterlimit="10" d="m64.66 110.41-4.89-4.96C47.36 93.04 34.88 80.72 22.6 68.16c-7.14-7.21-9.26-16.01-6.14-25.74 3.12-9.73 9.89-15.44 19.81-17.21 8.6-1.55 16.16.94 22.47 6.99 1.78 1.74 3.5 3.5 5.28 5.28.22.27.42.57.59.87 1.26-1.27 2.33-2.33 3.38-3.41 2.03-2.24 4.3-4.26 6.75-6.04a25.45 25.45 0 0 1 11.79-4.12c4.21-.37 8.45.31 12.33 1.98 3.88 1.67 7.29 4.29 9.9 7.6 2.62 3.32 4.37 7.23 5.1 11.4a24.595 24.595 0 0 1-7.2 22.7c-13.79 13.86-27.6 27.68-41.44 41.47l-.55.48h-.01Z"/><path fill="#153385" stroke="#153385" stroke-linejoin="round" d="M18.05 88.33c.07-1.65 1.56-1.91 1.56-1.91l12.23 3.73 17.6 8-1.98 2.96 5.21 5.35 8.21-5.69-3.65 4.3-7.92 4.92-5.43-5.37c-2.97.18-10.53.02-17.38-5.03l-.38 1.92 10.96 4.93-3.15 3.94-10.73-5.48 1.48-6.48.14-.18c-.55-.48-1.09-.99-1.62-1.54-1.56-1.64-2.68-3.02-3.48-4.18l-6.85-.55L10 81.58l3.16-4.27 2.49 10.79 2.38.24.02-.01Zm47.57-.74-3.81 4.19-4.64.34.91-3.97 7.54-.56ZM18.01 64.47l6.52 7.72-2.78 4.89-.3-.37-.35 1.53-2.66-.61-.18-.87s.29-1.12 1.21-2.54l-4.75-5.99L18 64.48l.01-.01ZM39.4 79.72c-7.26-3.88-10.95.19-10.95.19l1.56-11.55 21.39 9.02-2.54 13.8-4.74.08s2.54-7.65-4.72-11.53v-.01Z"/><path fill="#0B64DD" stroke="#153385" stroke-linejoin="round" d="m32.33 64.58-6.12-5.83-8.19 5.72 4.79 6.36a18.652 18.652 0 0 0-2.88 5.74l-6.75.73 2.49 10.79 6.12.62c1.41 2.33 3.34 4.49 5.61 6.34l-1.27 6.45 10.96 4.93 3.23-5.77c2.25.24 4.37.09 6.32-.39l6.04 6.2 8.21-5.69-4.87-6.82c1.25-1.7 2.22-3.65 2.84-5.76l6.78-.59-2.52-10.88-6.09-.25c-1.49-2.52-3.6-4.87-6.09-6.84l1.35-5.89-10.72-5.08-2.8 5.63c-2.29-.29-4.44-.16-6.42.3l-.02-.02Zm11.04 11.59c4.13 3.08 5.43 8.31 2.92 11.68-2.52 3.38-7.9 3.62-12.03.54-4.13-3.08-5.43-8.31-2.92-11.68 2.52-3.38 7.9-3.62 12.03-.54Z"/><path fill="#153385" stroke="#153385" stroke-linejoin="round" d="M95.05 40.02c-.64-.71-.12-1.42-.12-1.42l6.59-3.39 10.54-3.78.37 2.03 4.33.12 1.11-5.68.22 3.26-1.3 5.24-4.42-.04c-1.16 1.27-4.37 4.26-9.25 4.92l.62.95 6.54-2.37.28 2.91-6.67 2.06-2-3.29v-.13c-.43.02-.86.03-1.31.01-1.31-.05-2.33-.17-3.13-.33l-3.07 2.54-5.39-3.16-.41-3.05 5.39 3.48 1.09-.86-.01-.02Zm19.46-19.51.11 3.28-1.79 2.01-1.22-2.01 2.9-3.28ZM85.4 30.12l5.82.58.82 3.15-.27-.04.47.78-1.35.82-.43-.29s-.33-.58-.52-1.54l-4.39-.57-.15-2.88v-.01Zm15.04-2.29c-4.58 1.32-4.47 4.5-4.47 4.5l-4.01-5.43 12.53-4.89 4.51 6.76-1.94 1.94s-2.03-4.2-6.62-2.88Z"/><path fill="#48EFCF" stroke="#153385" stroke-linejoin="round" d="m91.39 24.39-4.9.05-1.09 5.68 4.56.71c.16 1.21.54 2.41 1.12 3.55l-2.51 3.02 5.39 3.48 2.79-2.21c1.53.4 3.2.52 4.89.37l2.08 3.19 6.54-2.37-.99-3.7c1.03-.81 1.85-1.72 2.47-2.71l5.01.14 1.11-5.68-4.78-.87c-.17-1.21-.55-2.41-1.14-3.54l2.58-2.98-5.44-3.5-2.63 2.35c-1.64-.44-3.46-.57-5.29-.38L99.34 16l-6.51 2.21 1.11 3.47c-1.07.8-1.91 1.72-2.55 2.71Zm9.27.36c2.96-.39 5.61 1.26 5.93 3.68.32 2.42-1.82 4.69-4.78 5.08-2.96.39-5.61-1.26-5.93-3.68-.32-2.42 1.82-4.69 4.78-5.08Z"/></svg>