<svg xmlns="http://www.w3.org/2000/svg" fill="none" viewBox="0 0 128 128"><path fill="#153385" stroke="#101C3F" stroke-miterlimit="10" d="M84.74 25a38.51 38.51 0 0 0-20.5 5.88A38.535 38.535 0 0 0 43.74 25C22.34 25 5 42.34 5 63.73c0 21.39 17.34 38.73 38.73 38.73 7.53 0 14.56-2.16 20.5-5.88a38.535 38.535 0 0 0 20.5 5.88c21.39 0 38.73-17.34 38.73-38.73 0-21.39-17.34-38.73-38.72-38.73Z"/><path fill="#48EFCF" stroke="#101C3F" stroke-miterlimit="10" d="M44.57 63.32c0-13.37 7.03-25.09 17.58-31.69a37.185 37.185 0 0 0-19.78-5.67C21.73 25.95 5 42.68 5 63.32s16.73 37.37 37.37 37.37c7.27 0 14.04-2.08 19.78-5.67-10.56-6.6-17.58-18.33-17.58-31.69v-.01Zm37.36-37.37c-7.27 0-14.04 2.08-19.78 5.67 10.56 6.6 17.58 18.33 17.58 31.69 0 13.36-7.03 25.09-17.58 31.69a37.185 37.185 0 0 0 19.78 5.67c20.64 0 37.37-16.73 37.37-37.37 0-20.64-16.73-37.35-37.37-37.35Z"/><path fill="#0B64DD" stroke="#101C3F" stroke-miterlimit="10" d="M79.73 63.32c0-13.37-7.03-25.09-17.58-31.69-10.56 6.6-17.58 18.33-17.58 31.69 0 13.36 7.03 25.09 17.58 31.69 10.56-6.6 17.58-18.33 17.58-31.69Z"/><path fill="#101C3F" stroke="#101C3F" stroke-miterlimit="10" d="M72.65 61.62h-6.6v-6.6H60.4v6.6h-6.6v5.65h6.6v6.6h5.65v-6.6h6.6v-5.65Z"/><path fill="#48EFCF" stroke="#101C3F" stroke-miterlimit="10" d="M71.57 60.91h-6.6v-6.6h-5.64v6.6h-6.6v5.64h6.6v6.6h5.64v-6.6h6.6v-5.64Z"/></svg>