<svg xmlns="http://www.w3.org/2000/svg" fill="none" viewBox="0 0 128 128"><path fill="#48EFCF" d="M75.778 74.908c16.927 0 30.65-13.722 30.65-30.65 0-16.927-13.722-30.65-30.65-30.65-16.928 0-30.65 13.723-30.65 30.65 0 16.928 13.722 30.65 30.65 30.65Z"/><path fill="#153385" stroke="#101C3F" stroke-miterlimit="10" d="m53.295 72.966 2.833 2.19a5.16 5.16 0 0 1 .927 7.238l-25.977 33.611a5.16 5.16 0 0 1-7.239.927l-2.832-2.189a5.16 5.16 0 0 1-.927-7.238l25.977-33.611a5.16 5.16 0 0 1 7.238-.928Z"/><path fill="#101C3F" stroke="#101C3F" stroke-miterlimit="10" d="M83.678 17.838c-12.71-4.68-24.51.31-30.92 9.23 19.17-15.63 49.06 2.82 46.11 26.77-.48 3.91-1.85 7.49-3.89 10.59 4.42-3.75 7.55-9.23 8.24-16.48 1.27-13.1-7.36-25.63-19.55-30.12l.01.01Z"/><path fill="#0B64DD" stroke="#101C3F" stroke-miterlimit="10" d="M54.788 11.948c-30.46 18.2-14.23 62.66 17.14 67.65 19.03 3.02 37.87-9.7 40.29-29.25 3.64-29.85-31.06-54.15-57.44-38.4h.01Zm48.36 36.71c-1.57 12.79-12.64 22.15-25.39 22.37-24.17.42-41.36-31.37-21.51-48.64 19.17-16.69 49.89 1.98 46.9 26.27Z"/><path fill="#153385" stroke="#101C3F" stroke-miterlimit="10" d="M71.928 79.598c-24.38-3.87-39.61-31.59-30.89-52.3-7.42 10.18-9.48 24.26-1.66 37.83 13.96 24.19 51.44 26.31 64.39 3.49-7.78 8.48-19.77 12.9-31.83 10.99l-.01-.01Z"/><path fill="#0B64DD" stroke="#101C3F" stroke-miterlimit="10" d="m51.371 71.491 2.833 2.19a5.16 5.16 0 0 1 .927 7.238L29.153 114.53a5.16 5.16 0 0 1-7.238.927l-2.832-2.189a5.16 5.16 0 0 1-.928-7.238l25.978-33.612a5.16 5.16 0 0 1 7.238-.927Zm33.127-17.703c0 5.96-21.56 5.96-21.56 0 0-3.9 2.08-7.32 5.18-9.21a7.767 7.767 0 0 1-2.05-5.26c0-4.31 3.49-7.8 7.8-7.8s7.8 3.49 7.8 7.8c0 2.09-.82 4-2.17 5.39a10.76 10.76 0 0 1 4.98 9.08h.02Z"/></svg>