<svg xmlns="http://www.w3.org/2000/svg" fill="none" viewBox="0 0 128 128"><path fill="#fff" stroke="#101C3F" stroke-miterlimit="10" stroke-width="1.04" d="M120.92 100.88V23.52H6.52v77.36h114.4Z"/><path fill="#0B64DD" stroke="#101C3F" stroke-miterlimit="10" stroke-width="1.04" d="M115.36 29.08H12.08v66.24h103.28V29.08Z"/><path fill="#153385" stroke="#101C3F" stroke-miterlimit="10" d="m65.98 64.9-.49 54.07-2.59.4-.13 3.53h2.68l19.26-16.64 14.76 16.11h2.69V64.9H65.98Z"/><path fill="#48EFCF" d="M62.77 70.45v51.24l18.73-15.43 17.45 15.43V70.45H62.77Z"/><mask id="illustration-certificate.light__a" width="37" height="52" x="62" y="70" maskUnits="userSpaceOnUse" style="mask-type:luminance"><path fill="#fff" d="M62.77 70.45v51.24l18.73-15.43 17.45 15.43V70.45H62.77Z"/></mask><g mask="url(#illustration-certificate.light__a)"><path fill="#fff" d="M89.53 68.1H72.19v50.39h17.34V68.1Z"/></g><path stroke="#101C3F" stroke-miterlimit="10" stroke-width="1.04" d="M62.77 70.45v51.24l18.73-15.43 17.45 15.43V70.45H62.77Z"/><path fill="#153385" stroke="#101C3F" stroke-miterlimit="10" stroke-width="1.04" d="M82.14 89.08c14.895 0 26.97-12.218 26.97-27.29S97.035 34.5 82.14 34.5 55.17 46.718 55.17 61.79s12.075 27.29 26.97 27.29Z"/><path fill="#48EFCF" stroke="#101C3F" stroke-miterlimit="10" stroke-width="1.04" d="M79.57 88.76c14.895 0 26.97-12.075 26.97-26.97S94.465 34.82 79.57 34.82 52.6 46.895 52.6 61.79s12.075 26.97 26.97 26.97Z"/><path fill="#101C3F" d="M79.57 83.06c11.747 0 21.27-9.523 21.27-21.27s-9.523-21.27-21.27-21.27S58.3 50.043 58.3 61.79s9.523 21.27 21.27 21.27Z"/><mask id="illustration-certificate.light__b" width="43" height="44" x="58" y="40" maskUnits="userSpaceOnUse" style="mask-type:luminance"><path fill="#fff" d="M79.57 83.06c11.747 0 21.27-9.523 21.27-21.27s-9.523-21.27-21.27-21.27S58.3 50.043 58.3 61.79s9.523 21.27 21.27 21.27Z"/></mask><g mask="url(#illustration-certificate.light__b)"><path fill="#fff" stroke="#101C3F" stroke-miterlimit="10" stroke-width="1.04" d="M82.41 83.71c11.747 0 21.27-9.523 21.27-21.27s-9.523-21.27-21.27-21.27-21.27 9.523-21.27 21.27 9.523 21.27 21.27 21.27Z"/></g><path stroke="#101C3F" stroke-miterlimit="10" stroke-width="1.04" d="M79.57 83.06c11.747 0 21.27-9.523 21.27-21.27s-9.523-21.27-21.27-21.27S58.3 50.043 58.3 61.79s9.523 21.27 21.27 21.27ZM19.43 44.94h27.63M19.43 55.29h27.63M20.08 79.96c.25-3.4.94-6.95 3.13-9.56 2.19-2.61 6.26-3.9 9.13-2.06 3.14 2.02 3.41 6.58 2.34 10.15-.41 1.36-1 2.74-2.1 3.63-1.1.89-2.85 1.12-3.92.19-1.52-1.33-.76-3.9.61-5.37 2.92-3.13 8.17-3.73 11.72-1.34 1.47.99 2.63 2.38 4.12 3.33 1.49.95 3.58 1.35 4.96.24"/><path fill="#0B64DD" d="m81.27 46.38 3.28 10.08c.19.59.75 1 1.37 1h10.6c.42 0 .6.54.26.79l-8.57 6.23c-.51.37-.72 1.02-.52 1.61l3.28 10.08c.13.4-.33.74-.67.49l-8.57-6.23a1.44 1.44 0 0 0-1.7 0l-8.57 6.23c-.34.25-.8-.09-.67-.49l3.28-10.08c.19-.59-.02-1.25-.52-1.61l-8.57-6.23a.437.437 0 0 1 .26-.79h10.6c.63 0 1.18-.4 1.37-1l3.28-10.08c.13-.4.7-.4.83 0h-.05Z"/></svg>