<svg xmlns="http://www.w3.org/2000/svg" fill="none" viewBox="0 0 128 128"><path fill="#153385" stroke="#153385" stroke-miterlimit="10" d="M91.74 31.76H21.5v83.85h70.24V31.76Z"/><path fill="#F5F7FA" stroke="#153385" stroke-linecap="round" stroke-linejoin="round" d="M105.62 37.82 86.36 18.5H30.34v89.62h75.28v-70.3Z"/><path fill="#48EFCF" stroke="#153385" stroke-linejoin="round" d="M86.33 18.5v19.64l19.29-.32L86.33 18.5Z"/><path fill="#153385" d="m86.33 38.5 19.29 5.68v-6.04l-19.29.36Z"/><path stroke="#153385" stroke-miterlimit="10" d="M53.08 33.02H38.61v14.47h14.47V33.02Z"/><path fill="#0B64DD" d="m45.9 45.1-5.88-6.55 2.35-2.1 3.71 4.13 10.05-9.53 2.17 2.28L45.9 45.1Z"/><path stroke="#153385" stroke-miterlimit="10" d="M61.91 41.23h20.91m-20.91 6.31h31.96m-55.26 6.31h55.26m-55.26 6.49h55.26m-40.79 7.92H38.61v14.47h14.47V68.26Z"/><path fill="#0B64DD" d="m45.9 80.34-5.88-6.54 2.35-2.11 3.71 4.13 10.05-9.53 2.17 2.28-12.4 11.77Z"/><path stroke="#153385" stroke-miterlimit="10" d="M61.91 76.47h20.91m-20.91 6.31h31.96m-55.26 6.31h55.26m-55.26 6.49h55.26"/><path fill="#153385" d="M88.39 63.95 79 57.66l.51 11.29 7.36 2.68 1.52-7.68Z"/><mask id="illustration-checklist-doc.dark__a" width="10" height="15" x="79" y="57" maskUnits="userSpaceOnUse" style="mask-type:luminance"><path fill="#fff" d="M88.39 63.95 79 57.66l.51 11.29 7.36 2.68 1.52-7.68Z"/></mask><g mask="url(#illustration-checklist-doc.dark__a)"><path fill="#153385" stroke="#153385" stroke-miterlimit="10" d="m77.93 62.129 4.948-2.788-1.654-2.937-4.948 2.789 1.654 2.936Z"/></g><path stroke="#153385" stroke-miterlimit="10" d="M88.39 63.95 79 57.66l.51 11.29 7.36 2.68 1.52-7.68Z"/><path fill="#153385" d="m79.51 68.95 6.2.62 2.68-5.62 26.82 47.59c.49.87.18 1.98-.69 2.47l-5.72 3.22c-.87.49-1.98.18-2.47-.69L79.51 68.95Z"/><path stroke="#153385" stroke-linecap="round" stroke-linejoin="round" d="m79.51 68.95 6.2.62 2.68-5.62 26.82 47.59c.49.87.18 1.98-.69 2.47l-5.72 3.22c-.87.49-1.98.18-2.47-.69L79.51 68.95Z"/><path fill="#fff" d="m91.08 61.74-9.39-6.28.52 11.29 7.35 2.67 1.52-7.68Z"/><mask id="illustration-checklist-doc.dark__b" width="11" height="15" x="81" y="55" maskUnits="userSpaceOnUse" style="mask-type:luminance"><path fill="#fff" d="m91.08 61.74-9.39-6.28.52 11.29 7.35 2.67 1.52-7.68Z"/></mask><g mask="url(#illustration-checklist-doc.dark__b)"><path fill="#153385" stroke="#153385" stroke-miterlimit="10" d="m80.626 59.916 4.949-2.788-1.654-2.936-4.949 2.788 1.654 2.936Z"/></g><path stroke="#153385" stroke-miterlimit="10" d="m91.08 61.74-9.39-6.28.52 11.29 7.35 2.67 1.52-7.68Z"/><path fill="#fff" d="m82.21 66.75 6.2.62 2.68-5.62 26.82 47.59c.49.87.18 1.98-.69 2.47l-5.72 3.22c-.87.49-1.98.18-2.47-.69L82.21 66.75Z"/><mask id="illustration-checklist-doc.dark__c" width="37" height="55" x="82" y="61" maskUnits="userSpaceOnUse" style="mask-type:luminance"><path fill="#fff" d="m82.21 66.75 6.2.62 2.68-5.62 26.82 47.59c.49.87.18 1.98-.69 2.47l-5.72 3.22c-.87.49-1.98.18-2.47-.69L82.21 66.75Z"/></mask><g mask="url(#illustration-checklist-doc.dark__c)"><path fill="#fff" stroke="#153385" stroke-linecap="round" stroke-linejoin="round" d="m107.171 111.042 8.877-5.002-1.507-2.675-8.877 5.002 1.507 2.675Z"/><path fill="#48EFCF" d="m105.2 110.17 12.4-6.87 4.32 5.87-5.04 9.43-11.39-3.13-.29-5.3Z"/></g><path stroke="#153385" stroke-linecap="round" stroke-linejoin="round" d="m82.21 66.75 6.2.62 2.68-5.62 26.82 47.59c.49.87.18 1.98-.69 2.47l-5.72 3.22c-.87.49-1.98.18-2.47-.69L82.21 66.75Z"/><path stroke="#153385" stroke-miterlimit="10" d="m88.4 67.37 21.7 38.5"/></svg>