<svg xmlns="http://www.w3.org/2000/svg" fill="none" viewBox="0 0 128 128"><path fill="#153385" stroke="#101C3F" stroke-miterlimit="10" d="M25 60.92c.7 0 1.39.05 2.06.15 2.18-3.24 5.88-5.37 10.08-5.37 5.3 0 9.81 3.4 11.46 8.15.76-.18 1.56-.28 2.38-.28 5.6 0 10.14 4.54 10.14 10.14 0 1.14-.19 2.24-.54 3.26h-50c-.05-.51-.08-1.02-.08-1.54 0-8.01 6.49-14.5 14.5-14.5v-.01Z"/><path fill="#fff" stroke="#101C3F" stroke-miterlimit="10" d="M25 63.22c.7 0 1.39.05 2.06.15C29.24 60.13 32.94 58 37.14 58c5.3 0 9.81 3.4 11.46 8.15.76-.18 1.56-.28 2.38-.28 5.6 0 10.14 4.54 10.14 10.14 0 1.14-.19 2.24-.54 3.26h-50c-.05-.51-.08-1.02-.08-1.54 0-8.01 6.49-14.5 14.5-14.5v-.01Z"/><path fill="#153385" stroke="#101C3F" stroke-miterlimit="10" d="M71.92 17.38c.79 0 1.56.06 2.32.17 2.45-3.64 6.62-6.04 11.34-6.04 5.97 0 11.04 3.83 12.9 9.17a11.3 11.3 0 0 1 2.68-.32c6.3 0 11.41 5.11 11.41 11.41 0 1.28-.22 2.52-.61 3.67H55.69c-.06-.57-.09-1.15-.09-1.74 0-9.01 7.3-16.32 16.32-16.32Z"/><path fill="#fff" stroke="#101C3F" stroke-miterlimit="10" d="M71.92 19.96c.79 0 1.56.06 2.32.17 2.45-3.64 6.62-6.04 11.34-6.04 5.97 0 11.04 3.83 12.9 9.17a11.3 11.3 0 0 1 2.68-.32c6.3 0 11.41 5.11 11.41 11.41 0 1.28-.22 2.52-.61 3.67H55.69c-.06-.57-.09-1.15-.09-1.74 0-9.01 7.3-16.32 16.32-16.32Z"/><path fill="#153385" stroke="#101C3F" stroke-miterlimit="10" d="M63 99.73c20.04-8.13 34.58-25.34 34.58-41.54V37L63 24.76h-.1L31.33 36.22v21.97c0 16.2 11.53 33.41 31.57 41.54h.1Z"/><path fill="#0B64DD" stroke="#101C3F" stroke-miterlimit="10" d="M62.99 99.73c19.13-8.13 31.57-25.34 31.57-41.54V36.22L62.99 24.76h-.09L31.33 36.22v21.97c0 16.2 12.44 33.41 31.57 41.54h.09Z"/><path fill="#101C3F" stroke="#101C3F" stroke-miterlimit="10" d="M59.77 76.95 48.24 64.12l4.6-4.14 7.28 8.11 19.71-18.7 4.25 4.49-24.31 23.07Z"/><path fill="#48EFCF" stroke="#101C3F" stroke-miterlimit="10" d="M57.98 75.38 46.45 62.55l4.59-4.14 7.29 8.11 19.71-18.7 4.25 4.49-24.31 23.07Z"/><path fill="#153385" stroke="#101C3F" stroke-miterlimit="10" d="M57.99 89.28c1.07 0 2.12.08 3.15.22 3.33-4.95 8.99-8.21 15.41-8.21 8.11 0 15.01 5.21 17.53 12.46 1.17-.28 2.39-.43 3.64-.43 8.57 0 15.51 6.94 15.51 15.51 0 1.75-.29 3.42-.82 4.99H35.94c-.08-.78-.13-1.56-.13-2.36 0-12.25 9.93-22.18 22.18-22.18Z"/><path fill="#fff" stroke="#101C3F" stroke-miterlimit="10" d="M57.99 92.8c1.07 0 2.12.08 3.15.22 3.33-4.95 8.99-8.21 15.41-8.21 8.11 0 15.01 5.21 17.53 12.46 1.17-.28 2.39-.43 3.64-.43 8.57 0 15.51 6.94 15.51 15.51 0 1.75-.29 3.42-.82 4.99H35.94c-.08-.78-.13-1.56-.13-2.36 0-12.25 9.93-22.18 22.18-22.18Z"/></svg>