<svg xmlns="http://www.w3.org/2000/svg" fill="none" viewBox="0 0 128 128"><path fill="#101C3F" stroke="#101C3F" stroke-miterlimit="10" d="M100.06 19.27c-1.04 0-2.07.08-3.07.22a18.041 18.041 0 0 0-15-7.99c-7.89 0-14.6 5.07-17.06 12.12-1.14-.27-2.32-.42-3.54-.42-8.34 0-15.09 6.76-15.09 15.09 0 1.7.28 3.33.8 4.85h74.41c.08-.76.12-1.52.12-2.3 0-11.92-9.66-21.58-21.58-21.58l.01.01Z"/><path fill="#fff" stroke="#101C3F" stroke-miterlimit="10" d="M100.06 22.69c-1.04 0-2.07.08-3.07.22a18.041 18.041 0 0 0-15-7.99c-7.89 0-14.6 5.07-17.06 12.12-1.14-.27-2.32-.42-3.54-.42-8.34 0-15.09 6.76-15.09 15.09 0 1.7.28 3.33.8 4.85h74.41c.08-.76.12-1.52.12-2.3 0-11.92-9.66-21.58-21.58-21.58l.01.01Z"/><path fill="#101C3F" stroke="#101C3F" stroke-miterlimit="10" d="M56.14 37.83c-.93 0-1.85.07-2.75.2-2.9-4.31-7.83-7.15-13.43-7.15-7.07 0-13.07 4.54-15.28 10.85-1.02-.24-2.08-.38-3.17-.38C14.05 41.35 8 47.4 8 54.86c0 1.52.25 2.98.72 4.35h66.63c.07-.68.11-1.36.11-2.06 0-10.67-8.65-19.32-19.32-19.32Z"/><path fill="#fff" stroke="#101C3F" stroke-miterlimit="10" d="M56.14 40.89c-.93 0-1.85.07-2.75.2-2.9-4.31-7.83-7.15-13.43-7.15-7.07 0-13.07 4.54-15.28 10.85-1.02-.24-2.08-.38-3.17-.38C14.05 44.41 8 50.46 8 57.92c0 1.52.25 2.98.72 4.35h66.63c.07-.68.11-1.36.11-2.06 0-10.67-8.65-19.32-19.32-19.32Z"/><path fill="#153385" d="M57.47 115.65V52.31l-9.8.03 15.64-13.51h1.81v1.94l11.9 11.06h-9.13v63.82H57.47Z"/><path fill="#101C3F" d="M64.62 39.33v1.66l.32.3 10.81 10.05h-8.36v63.82h-9.42V51.82h-1l-7.94.03 14.47-12.5h1.12m1-1.02h-2.49l-16.8 14.51 10.64-.03v63.34h11.42V52.33h9.91L65.62 40.55v-2.22Z"/><path fill="#0B64DD" stroke="#101C3F" stroke-miterlimit="10" d="M59.46 52.33v63.3h11.42v-63.3h9.91L65.61 38.99 49.99 52.33h9.47Z"/><path fill="#153385" d="M35.77 104.76V67.2l-7.42.02 11.89-10.26h1.25v1.44l9.08 8.43h-6.93v37.93h-7.87Z"/><path fill="#101C3F" d="M40.99 57.46v1.16l.32.3 7.98 7.42h-6.15v37.93h-6.87V66.71h-1l-5.57.02 10.72-9.26h.57m1-1.01h-1.94L27 67.73l8.27-.03v37.56h8.87V67.33h7.7l-9.85-9.15v-1.72Z"/><path fill="#0B64DD" stroke="#101C3F" stroke-miterlimit="10" d="M37.21 67.33v37.53h8.87V67.33h7.7L41.99 56.97 29.85 67.33h7.36Z"/><path fill="#153385" d="M82.34 104.76V67.2l-7.42.02L86.8 56.96h1.26v1.44l9.07 8.43h-6.92v37.93h-7.87Z"/><path fill="#101C3F" d="M87.56 57.46v1.16l.32.3 7.98 7.42h-6.15v37.93h-6.87V66.71h-1l-5.57.02 10.72-9.26h.57m1-1.01h-1.94L73.57 67.73l8.27-.03v37.56h8.87V67.33h7.7l-9.85-9.15v-1.72Z"/><path fill="#0B64DD" stroke="#101C3F" stroke-miterlimit="10" d="M83.78 67.33v37.53h8.87V67.33h7.69L88.55 56.97 76.42 67.33h7.36Z"/></svg>