<svg xmlns="http://www.w3.org/2000/svg" fill="none" viewBox="0 0 128 128"><path fill="#153385" stroke="#153385" stroke-miterlimit="10" d="M100.06 16.27c-1.04 0-2.07.08-3.07.22a18.041 18.041 0 0 0-15-7.99c-7.89 0-14.6 5.07-17.06 12.12-1.14-.27-2.32-.42-3.54-.42-8.34 0-15.09 6.76-15.09 15.09 0 1.7.28 3.33.8 4.85h74.41c.08-.76.12-1.52.12-2.3 0-11.92-9.66-21.58-21.58-21.58l.01.01Z"/><path fill="#F5F7FA" stroke="#153385" stroke-miterlimit="10" d="M100.06 19.69c-1.04 0-2.07.08-3.07.22a18.041 18.041 0 0 0-15-7.99c-7.89 0-14.6 5.07-17.06 12.12-1.14-.27-2.32-.42-3.54-.42-8.34 0-15.09 6.76-15.09 15.09 0 1.7.28 3.33.8 4.85h74.41c.08-.76.12-1.52.12-2.3 0-11.92-9.66-21.58-21.58-21.58l.01.01Z"/><path fill="#153385" stroke="#153385" stroke-miterlimit="10" d="M53.64 34.83c-.93 0-1.85.07-2.75.2-2.9-4.31-7.83-7.15-13.43-7.15-7.07 0-13.07 4.54-15.28 10.85-1.02-.24-2.08-.38-3.17-.38-7.46 0-13.51 6.05-13.51 13.51 0 1.52.25 2.98.72 4.35h66.63c.07-.68.11-1.36.11-2.06 0-10.67-8.65-19.32-19.32-19.32Z"/><path fill="#F5F7FA" stroke="#153385" stroke-miterlimit="10" d="M53.64 37.89c-.93 0-1.85.07-2.75.2-2.9-4.31-7.83-7.15-13.43-7.15-7.07 0-13.07 4.54-15.28 10.85-1.02-.24-2.08-.38-3.17-.38-7.46 0-13.51 6.05-13.51 13.51 0 1.52.25 2.98.72 4.35h66.63c.07-.68.11-1.36.11-2.06 0-10.67-8.65-19.32-19.32-19.32Z"/><path fill="#153385" stroke="#153385" stroke-miterlimit="10" d="M81.32 81.01s4.75-3.59 8.57 0V63.95h-8.57v17.06Z"/><path fill="#0B64DD" stroke="#153385" stroke-miterlimit="10" d="M93.25 90.28s4.8-16.34.14-33.83c-.35-1.31-2.21-1.32-2.56-.01-1.49 5.55-3.39 16.87-.87 33.84h3.29Z"/><path fill="#153385" d="M91.59 91.57c1.022 0 1.85-.439 1.85-.98 0-.541-.828-.98-1.85-.98-1.022 0-1.85.439-1.85.98 0 .541.828.98 1.85.98Z"/><path fill="#48EFCF" d="M91.58 90.38c.53 0 .96.43.96.96v.15c0 .11-.02.22-.06.33l-.97 2.67-.84-2.69a.903.903 0 0 1-.04-.28v-.18c0-.53.43-.96.96-.96h-.01Z"/><path fill="#fff" d="M67.01 11.76c-1.87 2.74-18.74 33.15-12.87 79.32l12.87-1.52h.15l13.33 1.52c5.87-46.17-11.46-76.58-13.33-79.32h-.15Z"/><path fill="#fff" stroke="#153385" stroke-miterlimit="10" d="M67.01 11.76c-1.87 2.74-18.74 33.15-12.87 79.32l12.87-1.52h.15l13.33 1.52c5.87-46.17-11.46-76.58-13.33-79.32h-.15Z"/><path fill="#fff" stroke="#153385" stroke-miterlimit="10" d="M67.31 96.48c7.28 0 13.18-2.418 13.18-5.4s-5.9-5.4-13.18-5.4c-7.28 0-13.18 2.418-13.18 5.4s5.9 5.4 13.18 5.4Z"/><path fill="#fff" d="M67.31 95.61c5.716 0 10.35-1.536 10.35-3.43 0-1.894-4.634-3.43-10.35-3.43-5.716 0-10.35 1.536-10.35 3.43 0 1.894 4.634 3.43 10.35 3.43Z"/><mask id="illustration-cloud-rocket-deploy.dark__a" width="22" height="8" x="56" y="88" maskUnits="userSpaceOnUse" style="mask-type:luminance"><path fill="#fff" d="M67.31 95.61c5.716 0 10.35-1.536 10.35-3.43 0-1.894-4.634-3.43-10.35-3.43-5.716 0-10.35 1.536-10.35 3.43 0 1.894 4.634 3.43 10.35 3.43Z"/></mask><g mask="url(#illustration-cloud-rocket-deploy.dark__a)"><path fill="#153385" stroke="#153385" stroke-miterlimit="10" d="M67.31 93.81c5.716 0 10.35-1.536 10.35-3.43 0-1.894-4.634-3.43-10.35-3.43-5.716 0-10.35 1.536-10.35 3.43 0 1.894 4.634 3.43 10.35 3.43Z"/></g><path stroke="#153385" stroke-miterlimit="10" d="M67.31 95.61c5.716 0 10.35-1.536 10.35-3.43 0-1.894-4.634-3.43-10.35-3.43-5.716 0-10.35 1.536-10.35 3.43 0 1.894 4.634 3.43 10.35 3.43Z"/><path fill="#153385" d="M67.08 48.06c2.96 0 5.36-3.188 5.36-7.12s-2.4-7.12-5.36-7.12c-2.96 0-5.36 3.188-5.36 7.12s2.4 7.12 5.36 7.12Z"/><path fill="#48EFCF" stroke="#153385" stroke-miterlimit="10" d="M67.05 90.83c-4.27 0-7.73 3.46-7.73 7.73v1.24c0 .9.16 1.8.47 2.65l7.88 21.61 6.77-21.77c.23-.74.35-1.52.35-2.3v-1.43c0-4.27-3.46-7.73-7.73-7.73h-.01Z"/><path fill="#153385" stroke="#153385" stroke-miterlimit="10" d="M52.88 81.08s-4.75-3.59-8.57 0V64.02h8.57v17.06Z"/><path fill="#0B64DD" stroke="#153385" stroke-miterlimit="10" d="M40.95 90.36s-4.8-16.34-.14-33.83c.35-1.31 2.21-1.32 2.56-.01 1.49 5.55 3.39 16.87.87 33.84h-3.29Z"/><path fill="#153385" d="M42.62 91.64c1.038 0 1.88-.439 1.88-.98 0-.541-.842-.98-1.88-.98-1.038 0-1.88.439-1.88.98 0 .541.842.98 1.88.98Z"/><path fill="#48EFCF" d="M42.62 90.45a.96.96 0 0 0-.96.96v.15c0 .11.02.22.06.33l.97 2.67.84-2.69c.03-.09.04-.19.04-.28v-.18a.96.96 0 0 0-.96-.96h.01Z"/></svg>