<svg xmlns="http://www.w3.org/2000/svg" fill="none" viewBox="0 0 128 128"><path fill="#153385" stroke="#153385" stroke-miterlimit="10" d="M114.91 27.5H42.97c-1.93 0-3.49 1.56-3.49 3.49V76.4c0 1.93 1.56 3.49 3.49 3.49h46.29l16.54 12.94v2.73h3.94l-.25-15.38 5.41-.28c1.93 0 3.49-1.56 3.49-3.49V30.99c0-1.93-1.56-3.49-3.49-3.49h.01Z"/><path fill="#48EFCF" stroke="#153385" stroke-miterlimit="10" d="M111.74 27.5H39.8c-1.93 0-3.49 1.56-3.49 3.49V76.4c0 1.93 1.56 3.49 3.49 3.49h46.29l19.26 15.57c.28.22.69.03.69-.33V79.89h5.69c1.93 0 3.49-1.56 3.49-3.49V30.99c0-1.93-1.56-3.49-3.49-3.49h.01Z"/><path fill="#153385" stroke="#153385" stroke-miterlimit="10" d="M56.67 48.02H29.29c-12.34 0-22.68 9.82-22.79 22.16-.09 9.73 5.45 18.02 14.04 21.22v15.41c0 .21.17.38.38.38h4.86c.21 0 .38-.17.38-.38v-3.24l12.95-10.75h17.02c12.15 0 22.49-9.44 22.92-21.58.45-12.74-9.74-23.22-22.39-23.22h.01Z"/><path fill="#fff" stroke="#153385" stroke-linejoin="round" d="M61.44 48.02H33.67c-12.37 0-22.4 10.03-22.4 22.4 0 9.63 6.09 17.81 14.61 20.98v15.79l18.01-14.37h17.55c12.37 0 22.4-10.03 22.4-22.4s-10.03-22.4-22.4-22.4Z"/><path fill="#0B64DD" d="M31.2 73.38a3.81 3.81 0 1 0 0-7.62 3.81 3.81 0 0 0 0 7.62Zm16.36 0a3.81 3.81 0 1 0 0-7.62 3.81 3.81 0 0 0 0 7.62Zm16.36 0a3.81 3.81 0 1 0 0-7.62 3.81 3.81 0 0 0 0 7.62Z"/></svg>