<svg xmlns="http://www.w3.org/2000/svg" fill="none" viewBox="0 0 128 128"><path fill="#0B64DD" stroke="#101C3F" stroke-miterlimit="10" d="M54.35 41.1h45.54c8.08 0 14.65 6.57 14.65 14.65v40.03c0 8.08-6.57 14.65-14.65 14.65H34c-8.08 0-14.65-6.57-14.65-14.65S25.92 81.13 34 81.13h51.99v8H34c-3.67 0-6.65 2.98-6.65 6.65 0 3.67 2.98 6.65 6.65 6.65h65.9c3.67 0 6.65-2.98 6.65-6.65V55.75c0-3.67-2.98-6.65-6.65-6.65H54.36v-8h-.01Z"/><path fill="#fff" stroke="#101C3F" stroke-linejoin="round" d="M13.25 38.69H4.5l2.82-6.05h8.33v6.05h-2.4Z"/><path fill="#101C3F" stroke="#101C3F" stroke-linejoin="round" d="M15.65 38.69H4.5v2.15h11.15v-2.15Z"/><path fill="#fff" stroke="#101C3F" stroke-linejoin="round" d="M13.25 52.34H4.5l2.82-6.05h8.33v6.05h-2.4Z"/><path fill="#101C3F" stroke="#101C3F" stroke-linejoin="round" d="M15.65 52.34H4.5v2.15h11.15v-2.15Z"/><path fill="#0B64DD" stroke="#101C3F" stroke-miterlimit="10" d="M21.86 64.04c5.015 0 9.08-8.628 9.08-19.27 0-10.643-4.065-19.27-9.08-19.27s-9.08 8.627-9.08 19.27c0 10.642 4.065 19.27 9.08 19.27Zm35.76-24.05H44.5v11.02h13.12V39.99Z"/><path fill="#0B64DD" stroke="#101C3F" stroke-miterlimit="10" d="m21.86 25.61 4.17-.21c2.48-.13 4.88.83 6.6 2.62l11.88 12.42v10.57L32.36 61.96a8.534 8.534 0 0 1-5.7 2.19h-4.79s-9.08-16.14 0-38.54h-.01Z"/><path fill="#153385" stroke="#101C3F" stroke-linejoin="round" stroke-width=".99" d="m83.21 113.64 1.35-15.28 4.61.65V72.99H55.52l27.05-47.33.42-11.16h6.18v41.42h34.09l-33.73 57.72h-6.32Z"/><path fill="#48EFCF" stroke="#101C3F" stroke-linejoin="round" d="M82.99 14.5 49.34 74.29h33.65v39.35l34.09-56.69H82.99V14.5Z"/></svg>