<svg xmlns="http://www.w3.org/2000/svg" fill="none" viewBox="0 0 128 128"><path fill="#0B64DD" stroke="#101C3F" stroke-miterlimit="10" d="M111.68 64.28H54.75a3.71 3.71 0 0 0-3.71 3.71v42.13a3.71 3.71 0 0 0 3.71 3.71h56.93a3.71 3.71 0 0 0 3.71-3.71V67.99a3.71 3.71 0 0 0-3.71-3.71Z"/><path stroke="#fff" stroke-miterlimit="10" d="M58.2 95.39h50.4M61.7 83.66h46.9m-50.4 21h50.4"/><path fill="#0B64DD" stroke="#101C3F" stroke-miterlimit="10" d="M73.14 14.5H16.21a3.71 3.71 0 0 0-3.71 3.71v42.13a3.71 3.71 0 0 0 3.71 3.71h56.93a3.71 3.71 0 0 0 3.71-3.71V18.21a3.71 3.71 0 0 0-3.71-3.71Z"/><path fill="#0B64DD" stroke="#101C3F" stroke-miterlimit="10" d="M41.98 20.51H18.41v15.98h23.57V20.51Zm0 22.05H18.41v15.98h23.57V42.56Z"/><path fill="#101C3F" d="M41.98 42.71H18.41v3.12h23.57v-3.12Z"/><path fill="#0B64DD" stroke="#101C3F" stroke-miterlimit="10" d="M69.29 20.51H45.72v15.98h23.57V20.51Z"/><path fill="#101C3F" d="M41.98 20.51H18.41v3.12h23.57v-3.12Zm27.31 0H45.72v3.12h23.57v-3.12Z"/><path fill="#153385" stroke="#101C3F" stroke-miterlimit="10" d="M94.42 39.49H36.08a3.71 3.71 0 0 0-3.71 3.71v43.81a3.71 3.71 0 0 0 3.71 3.71h58.34a3.71 3.71 0 0 0 3.71-3.71V43.2a3.71 3.71 0 0 0-3.71-3.71Z"/><path fill="#153385" d="m104.34 56.25-.42-9.88h.45l.15 1.25 1.65 1.65.17-.94c1.21-6.77-.97-13.73-5.85-18.6-3.39-3.39-7.69-5.48-12.44-6.03l.62-5.66c5.87.69 11.3 3.38 15.71 7.79 7.17 7.17 9.65 18 6.31 27.57l-.1.3 2.86 2.86-9.12-.31h.01Z"/><path fill="#101C3F" d="M89.12 18.61c5.56.77 10.71 3.38 14.91 7.59 7.04 7.04 9.47 17.66 6.19 27.05l-.21.59.44.44 1.74 1.74-7.39-.25-.32-7.45.64.64 1.35 1.35.34-1.88c1.24-6.93-1-14.05-5.99-19.05-3.35-3.35-7.58-5.46-12.24-6.11l.52-4.66m-.86-1.12-.74 6.65.49.06c4.64.54 8.83 2.58 12.14 5.89 4.8 4.8 6.9 11.53 5.71 18.16l-.86-.86-.18-1.52h-1.34l-.07-.07.46 10.94 10.85.37-3.54-3.54c3.41-9.77.9-20.76-6.43-28.09-4.49-4.49-10.02-7.24-16-7.94l-.5-.06.01.01Z"/><path fill="#fff" stroke="#101C3F" stroke-miterlimit="10" d="M111.98 53.71a26.54 26.54 0 0 0-6.21-27.86c-4.27-4.27-9.7-6.91-15.69-7.61l-.64 5.47c4.75.56 9.05 2.64 12.44 6.03a21.042 21.042 0 0 1 5.66 19.53l-2.2-2.2.39 9.19 9.12.31-2.86-2.86h-.01Z"/><path fill="#153385" d="M40.81 110.56c-5.87-.69-11.3-3.38-15.71-7.79-7.17-7.17-9.65-18-6.31-27.57l.1-.3-2.86-2.86 9.12.31.42 9.88h-.45l-.15-1.25-1.65-1.65-.17.94c-1.21 6.77.97 13.73 5.85 18.6 3.39 3.39 7.69 5.48 12.44 6.03l-.62 5.66h-.01Z"/><path fill="#101C3F" d="m17.28 72.59 7.39.25.32 7.45-.64-.64L23 78.3l-.34 1.88c-1.24 6.93 1 14.05 5.99 19.05 3.35 3.35 7.58 5.46 12.24 6.11l-.52 4.66c-5.56-.77-10.71-3.38-14.91-7.59-7.04-7.04-9.47-17.66-6.19-27.05l.21-.59-.44-.44-1.74-1.74m-2.52-1.09 3.54 3.54c-3.41 9.77-.9 20.76 6.43 28.09 4.49 4.49 10.02 7.24 16 7.94l.5.06.74-6.65-.49-.06c-4.64-.54-8.83-2.58-12.14-5.89-4.8-4.8-6.9-11.53-5.71-18.16l.86.86.18 1.52h1.34l.07.07-.46-10.94-10.85-.37-.01-.01Z"/><path fill="#fff" stroke="#101C3F" stroke-miterlimit="10" d="M17.51 74.9a26.54 26.54 0 0 0 6.21 27.86c4.27 4.27 9.7 6.91 15.69 7.61l.64-5.47c-4.75-.56-9.05-2.64-12.44-6.03a21.042 21.042 0 0 1-5.66-19.53l2.2 2.2-.39-9.19-9.12-.31 2.86 2.86h.01Z"/><path fill="#48EFCF" stroke="#101C3F" stroke-miterlimit="10" d="M93.01 39.48H36.08a3.71 3.71 0 0 0-3.71 3.71v42.13a3.71 3.71 0 0 0 3.71 3.71h56.93a3.71 3.71 0 0 0 3.71-3.71V43.19a3.71 3.71 0 0 0-3.71-3.71Z"/><path fill="#0B64DD" d="m74.8 61.56-13.98 21H88.8l-13.99-21h-.01ZM58.21 80.82l7.74-11.6-9.43-14.17-18.31 27.51h18.85l1.15-1.74ZM69.3 58.44a5.26 5.26 0 0 0 5.26-5.26c0-2.9-2.36-5.26-5.26-5.26s-5.26 2.36-5.26 5.26 2.36 5.26 5.26 5.26Z"/></svg>