<svg xmlns="http://www.w3.org/2000/svg" fill="none" viewBox="0 0 128 128"><path fill="#fff" d="M80.15 95.06H61.2a4.74 4.74 0 1 0 0 9.48h18.95a4.74 4.74 0 1 0 0-9.48Z"/><path fill="#153385" stroke="#101C3F" stroke-miterlimit="10" d="M92.73 14.5H19.62a6.08 6.08 0 0 0-6.08 6.08V62.6a6.08 6.08 0 0 0 6.08 6.08h73.11a6.08 6.08 0 0 0 6.08-6.08V20.58a6.08 6.08 0 0 0-6.08-6.08Z"/><path fill="#0B64DD" d="M90.69 14.5H17.58a6.08 6.08 0 0 0-6.08 6.08V62.6a6.08 6.08 0 0 0 6.08 6.08h73.11a6.08 6.08 0 0 0 6.08-6.08V20.58a6.08 6.08 0 0 0-6.08-6.08Z"/><path stroke="#101C3F" stroke-miterlimit="10" d="M90.69 14.5H17.58a6.08 6.08 0 0 0-6.08 6.08V62.6a6.08 6.08 0 0 0 6.08 6.08h73.11a6.08 6.08 0 0 0 6.08-6.08V20.58a6.08 6.08 0 0 0-6.08-6.08ZM21.9 52.38H42m2.08 0h20.11m2.08 0h20.1m-64.47-6.4h22.51"/><path fill="#fff" d="M37.01 28.96H23.76a1.86 1.86 0 0 0-1.86 1.86v7.08a1.86 1.86 0 0 0 1.86 1.86h13.25a1.86 1.86 0 0 0 1.86-1.86v-7.08a1.86 1.86 0 0 0-1.86-1.86Z"/><path fill="#153385" stroke="#101C3F" stroke-miterlimit="10" d="M111.16 59H38.05a6.08 6.08 0 0 0-6.08 6.08v42.02a6.08 6.08 0 0 0 6.08 6.08h73.11a6.08 6.08 0 0 0 6.08-6.08V65.08a6.08 6.08 0 0 0-6.08-6.08Z"/><path fill="#48EFCF" d="M109.12 59H36.01a6.08 6.08 0 0 0-6.08 6.08v42.02a6.08 6.08 0 0 0 6.08 6.08h73.11a6.08 6.08 0 0 0 6.08-6.08V65.08a6.08 6.08 0 0 0-6.08-6.08Z"/><mask id="illustration-credit-card.light__a" width="87" height="55" x="29" y="59" maskUnits="userSpaceOnUse" style="mask-type:luminance"><path fill="#fff" d="M109.12 59H36.01a6.08 6.08 0 0 0-6.08 6.08v42.02a6.08 6.08 0 0 0 6.08 6.08h73.11a6.08 6.08 0 0 0 6.08-6.08V65.08a6.08 6.08 0 0 0-6.08-6.08Z"/></mask><g mask="url(#illustration-credit-card.light__a)"><path fill="#101C3F" d="M114.91 66.81h-84.7v11.53h84.7V66.81Z"/></g><path stroke="#101C3F" stroke-miterlimit="10" d="M109.12 59H36.01a6.08 6.08 0 0 0-6.08 6.08v42.02a6.08 6.08 0 0 0 6.08 6.08h73.11a6.08 6.08 0 0 0 6.08-6.08V65.08a6.08 6.08 0 0 0-6.08-6.08Z"/><path fill="#fff" d="M62.56 90.51H43.61a4.74 4.74 0 0 0 0 9.48h18.95a4.74 4.74 0 0 0 0-9.48Zm12.66 8.99a4.49 4.49 0 1 0 0-8.98 4.49 4.49 0 0 0 0 8.98Z"/><path stroke="#101C3F" stroke-miterlimit="10" d="M40.33 105.08h20.1m2.41 0h7.89"/></svg>