<svg xmlns="http://www.w3.org/2000/svg" fill="none" viewBox="0 0 128 128"><path stroke="#153385" stroke-miterlimit="10" stroke-width="1.03" d="m72.13 57.71 8.53-8.88m1.39 18.8 9.93-10.33m1.22 18.22 3.63-3.71M61.58 46.24l9.93-10.34m-19.67.74 5.24-5.46"/><path fill="#153385" stroke="#153385" stroke-miterlimit="10" stroke-width="1.03" d="M95.98 84.35 79 67.5 66.64 80.43l.11.11L55 92.36a10.27 10.27 0 0 1-7.28 2.95c-2.72-.01-5.33-1.1-7.25-3.03a10.388 10.388 0 0 1-3.03-7.25c-.01-2.72 1.05-5.34 2.95-7.28L53.2 64.94l-.02-.02 11.81-11.81-16.48-16.48-12.86 12.86.02.02L23.91 61.3a33.586 33.586 0 0 0-9.16 17.2 33.603 33.603 0 0 0 1.92 19.39 33.625 33.625 0 0 0 31 20.75 33.514 33.514 0 0 0 23.78-9.85l11.62-11.63 1.22-1.12 11.69-11.69Z"/><path fill="#fff" stroke="#153385" stroke-miterlimit="10" stroke-width="1.03" d="M44.08 115.14a33.6 33.6 0 0 1-18.64-5.68 33.599 33.599 0 0 1-12.36-15.07A33.603 33.603 0 0 1 11.16 75a33.66 33.66 0 0 1 9.16-17.2l12.81-12.84 16.48 16.48L36.8 74.25a10.27 10.27 0 0 0-2.95 7.28c.01 2.72 1.1 5.33 3.03 7.25 1.93 1.93 4.53 3.01 7.25 3.03 2.72.01 5.34-1.05 7.28-2.95l12.77-12.85 16.48 16.48-12.8 12.81a33.329 33.329 0 0 1-10.91 7.29 33.422 33.422 0 0 1-12.87 2.55Z"/><path fill="#F5F7FA" stroke="#153385" stroke-miterlimit="10" stroke-width="1.03" d="M44.92 33.13 32.06 45.99l16.48 16.48L61.4 49.61 44.92 33.13Zm30.99 30.93L63.05 76.92l16.48 16.8 12.86-12.86-16.48-16.8Z"/><path fill="#153385" stroke="#153385" stroke-miterlimit="10" stroke-width="1.03" d="M93.76 50.8c-10.42 0-18.88-8.46-18.88-18.9 0-10.44 8.45-18.9 18.88-18.9s18.88 8.46 18.88 18.9c0 10.44-8.45 18.9-18.88 18.9Z"/><path fill="#fff" stroke="#153385" stroke-linecap="round" stroke-linejoin="round" stroke-width="1.03" d="M92.58 48.8c-10.42 0-18.88-8.46-18.88-18.9 0-10.44 8.45-18.9 18.88-18.9 10.42 0 18.88 8.46 18.88 18.9 0 10.44-8.45 18.9-18.88 18.9Z"/><path fill="#0B64DD" d="M101.83 37.35c0 4.96-17.93 4.96-17.93 0 0-3.25 1.73-6.09 4.31-7.66a6.437 6.437 0 0 1-1.7-4.38 6.49 6.49 0 1 1 12.98 0c0 1.74-.68 3.33-1.81 4.48a8.947 8.947 0 0 1 4.14 7.55l.01.01Z"/><path fill="#153385" stroke="#153385" stroke-miterlimit="10" stroke-width="1.03" d="M60.03 29.47c-5.49 0-9.94-4.45-9.94-9.95 0-5.5 4.45-9.95 9.94-9.95 5.49 0 9.94 4.45 9.94 9.95 0 5.5-4.45 9.95-9.94 9.95Z"/><path fill="#48EFCF" stroke="#153385" stroke-linecap="round" stroke-linejoin="round" stroke-width="1.03" d="M59.41 28.42c-5.49 0-9.94-4.45-9.94-9.95 0-5.5 4.45-9.95 9.94-9.95 5.49 0 9.94 4.45 9.94 9.95 0 5.5-4.45 9.95-9.94 9.95Z"/><path fill="#0B64DD" d="M64.28 22.39c0 2.61-9.44 2.61-9.44 0 0-1.71.91-3.2 2.27-4.03-.56-.61-.9-1.42-.9-2.3 0-1.89 1.53-3.42 3.42-3.42a3.418 3.418 0 0 1 2.47 5.78c1.31.84 2.18 2.3 2.18 3.98v-.01Z"/><path fill="#153385" stroke="#153385" stroke-miterlimit="10" stroke-width="1.03" d="M106.77 75.17c-5.49 0-9.94-4.45-9.94-9.95 0-5.5 4.45-9.95 9.94-9.95 5.49 0 9.94 4.45 9.94 9.95 0 5.5-4.45 9.95-9.94 9.95Z"/><path fill="#48EFCF" stroke="#153385" stroke-linecap="round" stroke-linejoin="round" stroke-width="1.03" d="M106.15 74.11c-5.49 0-9.94-4.45-9.94-9.95 0-5.5 4.45-9.95 9.94-9.95 5.49 0 9.94 4.45 9.94 9.95 0 5.5-4.45 9.95-9.94 9.95Z"/><path fill="#0B64DD" d="M111.02 68.09c0 2.61-9.44 2.61-9.44 0 0-1.71.91-3.2 2.27-4.03-.56-.61-.9-1.42-.9-2.3 0-1.89 1.53-3.42 3.42-3.42a3.418 3.418 0 0 1 2.47 5.78c1.31.84 2.18 2.3 2.18 3.98v-.01Z"/></svg>