<svg xmlns="http://www.w3.org/2000/svg" fill="none" viewBox="0 0 128 128"><g clip-path="url(#illustraion-dashboard.dark__a)"><path fill="#153385" stroke="#153385" stroke-linecap="round" stroke-linejoin="round" stroke-width="1.01" d="M32.218 39.107 20.849 92.963c-.458 2.161.89 4.02 3.01 4.148l87.407 5.386c2.12.128 4.202-1.514 4.661-3.675l11.369-53.856c.459-2.161-.895-4.02-3.01-4.148l-87.407-5.386c-2.12-.128-4.202 1.514-4.661 3.675Z"/><path fill="#DAE0E8" stroke="#153385" stroke-linecap="round" stroke-linejoin="round" stroke-width="1.01" d="m126.213 43.988-2.381 11.282-8.988 42.58c-.458 2.151-2.541 3.798-4.661 3.674l-80.332-4.955-5.639-.344-1.436-.091c-2.115-.138-3.468-1.992-3.01-4.152l.253-1.207.656-3.106.041-.22 1.753-8.318 8.662-41.01c.45-2.166 2.541-3.804 4.652-3.675l82.562 5.083.179.01 3.656.224 1.014.064c2.115.129 3.469 1.982 3.01 4.148l.009.009v.004Z"/><path fill="#DAE0E8" stroke="#153385" stroke-linecap="round" stroke-linejoin="round" stroke-width="1.01" d="m31.13 38.125-.307 1.468 95.078 5.864.307-1.468c.459-2.161-.894-4.02-3.009-4.148l-87.407-5.386c-2.12-.128-4.203 1.514-4.661 3.675v-.005Z"/><path fill="#DAE0E8" d="m122.185 39.777-.697 3.312-2.863 13.516-7.552 35.826c-.468 2.166-2.541 3.804-4.661 3.675l-72.12-4.436-2.987-.184-1.748-.11-1.652-.11-4.05-.248-.207-.018-3.638-.216.656-3.106.041-.22 1.753-8.318 8.661-41.01c.45-2.166 2.542-3.803 4.652-3.675l82.563 5.083.179.01 3.656.224.014.005Z"/><path fill="#153385" stroke="#153385" stroke-linecap="round" stroke-linejoin="round" stroke-width="1.01" d="M25.3 29.936 13.93 83.792c-.458 2.161.89 4.02 3.01 4.148l87.408 5.386c2.119.128 4.202-1.514 4.661-3.675l11.368-53.856c.459-2.161-.894-4.02-3.009-4.148l-87.407-5.39c-2.12-.129-4.203 1.513-4.662 3.674v.005Z"/><path fill="#fff" stroke="#153385" stroke-linecap="round" stroke-linejoin="round" stroke-width="1.01" d="m119.304 35.001-.95 4.533-2.858 13.515-7.556 35.818c-.464 2.174-2.547 3.807-4.661 3.674l-72.116-4.436-2.992-.184-1.743-.11-1.652-.11-4.046-.243-.207-.018-4.642-.28a3.639 3.639 0 0 1-.67-.11c-1.73-.427-2.748-2.115-2.358-4.028l.628-2.955 1.358-6.464 7.836-37.083 1.56-7.373c.445-2.152 2.546-3.808 4.661-3.675l33.867 2.078 45.695 2.822 7.836.482c2.115.128 3.473 1.986 3.01 4.138V35Z"/><path fill="#fff" stroke="#153385" stroke-linecap="round" stroke-linejoin="round" stroke-width="1.01" d="m119.308 35.01-.307 1.468-18.237-1.124-55.108-3.395-21.737-1.34.307-1.468c.459-2.16 2.546-3.803 4.661-3.674l18.677 1.151 53.668 3.308 15.062.927c2.12.128 3.468 1.986 3.01 4.147h.004Z"/><path fill="#DAE0E8" d="M26.304 81.778a3.1 3.1 0 0 0 .56.087l8.864.547 61.568 3.867c1.78.11 3.528-1.27 3.913-3.083l8.671-40.744c.381-1.813-.747-3.372-2.523-3.483L62.433 36.2l-25.508-1.643c-1.775-.11-3.528 1.266-3.913 3.083l-1.303 6.184-7.368 34.565c-.34 1.615.518 3.028 1.968 3.395l-.005-.005Z"/><g fill="#DAE0E8" style="mix-blend-mode:multiply"><path d="M76.087 72.804c11.364 8.965 27.88-3.362 26.058-15.9C101.04 49.3 93.401 43.96 84.95 45.767c-12.891 2.79-18.709 19.278-8.868 27.036h.005Zm9.4-22.42c5.051-1.087 9.878 1.537 11.41 5.913 2.904 8.29-7.258 18.278-16.094 13.63-8.538-4.49-4.909-17.474 4.684-19.543Z"/><path d="m74.793 60.197-4.749-.087c.33-4.634 2.799-9.304 6.8-12.405l3.4 3.01c-3.313 2.201-5.3 5.9-5.451 9.487v-.005Zm21.049-5.262c-1.542-4.404-6.405-7.052-11.493-5.955-1.528.33-2.9.931-4.101 1.73l-3.4-3.01a17.285 17.285 0 0 1 6.978-3.262c8.446-1.812 16.09 3.528 17.195 11.135.5 3.463-.399 6.913-2.197 9.9l-4.065-1.936c1.541-2.62 2.106-5.712 1.092-8.602h-.01Z"/><path d="M74.958 71.479a14.77 14.77 0 0 0 2.523 1.61c.308.151.615.294.927.422 7.602 3.138 16.323-1.266 20.411-8.033l-4.065-1.936c-2.908 4.95-9.3 8.194-15.121 5.129-3.505-1.844-4.978-5.106-4.831-8.474l-4.748-.087c-.303 4.23 1.179 8.428 4.909 11.369h-.005Z"/></g><path fill="#fff" d="M34.695 57.82a.95.95 0 0 0 .211.033l3.322.206 22.223 1.491c.666.042 1.322-.477 1.464-1.156l3.248-15.259c.147-.679-.28-1.261-.945-1.303l-16.824-1.037-8.721-.656c-.665-.041-1.321.477-1.464 1.156l-.486 2.317-2.762 12.942c-.128.606.198 1.134.739 1.271l-.005-.004Z"/><path stroke="#fff" stroke-miterlimit="10" stroke-width="1.34" d="M30.57 78.681c.065.019.139.028.212.033l3.321.206 22.224 1.491c.665.041 1.321-.477 1.463-1.156l3.248-15.26c.147-.678-.28-1.26-.945-1.302L43.27 61.656 34.548 61c-.665-.041-1.32.477-1.463 1.156l-.486 2.317-2.762 12.942c-.129.606.197 1.133.738 1.271l-.004-.005Z"/><path fill="#153385" stroke="#153385" stroke-linecap="round" stroke-linejoin="round" stroke-width="1.01" d="m14.637 81.723-9.07.909 3.565-7.841 9.07-.908-3.565 7.84Z"/><path fill="#fff" stroke="#153385" stroke-linecap="round" stroke-linejoin="round" stroke-width="1.01" d="m.232 75.268 5.335 7.364 3.565-7.84-5.336-7.415-3.564 7.891Z"/><path fill="#DAE0E8" stroke="#153385" stroke-linecap="round" stroke-linejoin="round" stroke-width="1.01" d="m12.922 66.446-9.07.913 5.28 7.432 9.07-.908-5.28-7.437Z"/><path stroke="#153385" stroke-miterlimit="10" stroke-width="1.01" d="M28.8 31 16.353 87.375"/><path fill="#153385" stroke="#153385" stroke-linecap="round" stroke-linejoin="round" stroke-width="1.01" d="M28.993 28.215c0 .436-.358.813-.803.85a.723.723 0 0 1-.803-.726c0-.435.358-.812.803-.848a.723.723 0 0 1 .803.724Zm3.27.244c0 .436-.357.812-.802.848a.723.723 0 0 1-.803-.724c0-.436.358-.813.803-.85a.723.723 0 0 1 .803.726Zm3.272.32c0 .437-.358.813-.803.85a.723.723 0 0 1-.803-.725c0-.436.358-.812.803-.85a.723.723 0 0 1 .803.726Z"/><path fill="#153385" stroke="#153385" stroke-linecap="round" stroke-linejoin="round" stroke-width=".76" d="M74.916 70.864c11.364 8.964 27.88-3.363 26.059-15.902-1.106-7.602-8.744-12.942-17.195-11.134-12.892 2.79-18.71 19.278-8.868 27.036h.004Zm9.4-22.42c5.052-1.088 9.878 1.536 11.41 5.913 2.905 8.29-7.257 18.278-16.094 13.63-8.537-4.491-4.908-17.475 4.685-19.544Z"/><path fill="#7DEBCF" stroke="#153385" stroke-linecap="round" stroke-linejoin="round" stroke-width=".76" d="m73.623 58.257-4.749-.088c.33-4.633 2.8-9.304 6.8-12.405l3.4 3.01c-3.313 2.202-5.3 5.9-5.451 9.487v-.005Z"/><path fill="#fff" stroke="#153385" stroke-linecap="round" stroke-linejoin="round" stroke-width="1.01" d="M94.667 52.994c-1.541-4.404-6.404-7.051-11.492-5.955-1.528.33-2.9.932-4.102 1.73l-3.4-3.01a17.285 17.285 0 0 1 6.979-3.262c8.446-1.812 16.09 3.528 17.195 11.135.5 3.464-.4 6.914-2.197 9.9l-4.065-1.936c1.541-2.62 2.106-5.711 1.092-8.602h-.01Z"/><path fill="#2C62D4" stroke="#153385" stroke-miterlimit="10" stroke-width=".76" d="M73.783 69.538a14.218 14.218 0 0 0 3.451 2.032c7.602 3.139 16.323-1.266 20.41-8.033l-4.064-1.936c-2.909 4.95-9.3 8.194-15.122 5.13-3.505-1.845-4.977-5.107-4.83-8.474l-4.749-.088c-.303 4.23 1.18 8.428 4.909 11.369h-.005Z"/><path fill="#153385" stroke="#153385" stroke-linecap="round" stroke-linejoin="round" stroke-width="1.01" d="M110.188 74.576 92.892 66.67l4.822 14.92c.087.265.436.33.605.105l3.203-4.143 6.799 7.074 2.771-1.573-6.299-7.176 5.34-.858c.229-.036.271-.348.059-.44l-.004-.004Z"/><path fill="#153385" stroke="#153385" stroke-linecap="round" stroke-linejoin="round" stroke-width="1.01" d="m112.638 81.053-1.546 2-3.872-.036.679-4.156 4.739 2.192ZM93.516 63.808l-.629 2.863 4.767 3.459-4.138-6.322Zm18.388 8.625-1.377 2.624-6.175-1.748 7.552-.876Z"/><path fill="#fff" stroke="#153385" stroke-linecap="round" stroke-linejoin="round" stroke-width="1.01" d="m111.766 72.148-18.25-8.34 5.087 15.745a.37.37 0 0 0 .643.11l3.381-4.372 7.175 7.465 2.84-1.703-7.372-7.4 6.436-1.037c.243-.04.285-.367.065-.468h-.005Z"/><path fill="#153385" stroke="#153385" stroke-linecap="round" stroke-linejoin="round" stroke-width=".7" d="M59.8 60.234 35.737 58.72c-1.06-.069-1.73-.918-1.491-1.9l3.83-15.727c.24-.981 1.294-1.72 2.354-1.656l24.063 1.514c1.06.069 1.73.918 1.491 1.9l-3.83 15.727c-.24.981-1.294 1.72-2.354 1.656Z"/><path fill="#fff" stroke="#153385" stroke-miterlimit="10" stroke-width=".7" d="m58.676 59.21-24.063-1.513c-1.06-.069-1.73-.918-1.491-1.9l3.83-15.726c.24-.982 1.294-1.72 2.354-1.657l24.063 1.514c1.06.07 1.73.918 1.491 1.9l-3.83 15.727c-.24.981-1.294 1.72-2.354 1.656Z"/><path fill="#DD5A95" stroke="#153385" stroke-miterlimit="10" stroke-width=".7" d="m43.311 55.463 3.216.201 1.028-4.211a.32.32 0 0 0-.159-.361.322.322 0 0 0-.135-.038l-2.564-.16a.318.318 0 0 0-.33.242l-1.051 4.322-.005.005Z"/><path fill="#DAE0E8" stroke="#153385" stroke-linecap="round" stroke-linejoin="round" stroke-width=".7" d="m38.37 55.15 3.216.202 2.72-11.157a.321.321 0 0 0-.293-.4l-2.564-.16a.318.318 0 0 0-.33.243L38.37 55.146v.005Zm9.882.625 3.216.201 1.904-7.804a.322.322 0 0 0-.293-.399l-2.565-.16a.318.318 0 0 0-.33.243l-1.932 7.914v.005Zm4.937.307 3.216.202 2.523-10.36a.32.32 0 0 0-.158-.36.32.32 0 0 0-.136-.039l-2.564-.16a.318.318 0 0 0-.33.243l-2.556 10.474h.005Z"/><path stroke="#153385" stroke-miterlimit="10" stroke-width=".7" d="m37.058 55.068 20.508 1.289"/><path fill="#DAE0E8" d="m91.658 70.13 1.23-4.381.862 3.592-2.092 1.362"/></g><defs><clipPath id="illustraion-dashboard.dark__a"><path fill="#fff" d="M0 0h128v128H0z"/></clipPath></defs></svg>