<svg xmlns="http://www.w3.org/2000/svg" fill="none" viewBox="0 0 128 128"><path fill="#153385" stroke="#101C3F" stroke-miterlimit="10" d="M78.51 31.29c-1.42 0-2.81.1-4.17.3-4.41-6.54-11.88-10.85-20.37-10.85-10.72 0-19.83 6.88-23.17 16.46-1.54-.37-3.15-.57-4.81-.57C14.68 36.62 5.5 45.8 5.5 57.12c0 2.31.39 4.52 1.09 6.59h101.05c.11-1.03.17-2.07.17-3.12 0-16.18-13.12-29.3-29.3-29.3Z"/><path fill="#fff" stroke="#101C3F" stroke-miterlimit="10" d="M78.51 35.94c-1.42 0-2.81.1-4.17.3-4.41-6.54-11.88-10.85-20.37-10.85-10.72 0-19.83 6.88-23.17 16.46-1.54-.37-3.15-.57-4.81-.57C14.68 41.27 5.5 50.45 5.5 61.77c0 2.31.39 4.52 1.09 6.59h101.05c.11-1.03.17-2.07.17-3.12 0-16.18-13.12-29.3-29.3-29.3Z"/><path fill="#153385" stroke="#101C3F" stroke-miterlimit="10" d="M58.16 65.13s2.99-4.91 7.69-3.05l-6.06-15.32-7.69 3.05 6.06 15.32Z"/><path fill="#0B64DD" stroke="#101C3F" stroke-miterlimit="10" d="M72.16 69.22s-1.5-16.37-11.9-30.42c-.78-1.05-2.45-.4-2.3.9.63 5.51 2.95 16.35 11.24 30.69l2.95-1.17h.01Z"/><path fill="#101C3F" d="M71.13 70.96c.914-.363 1.498-1.051 1.305-1.54-.193-.487-1.09-.59-2.005-.227-.914.362-1.498 1.05-1.305 1.538.193.488 1.09.59 2.005.228Z"/><path fill="#48EFCF" d="M70.7 69.89a.921.921 0 0 1 1.2.52l.05.14c.04.1.06.21.06.31l.08 2.75-1.71-2.12a.722.722 0 0 1-.14-.24l-.06-.16a.921.921 0 0 1 .52-1.2Z"/><path fill="#0B64DD" d="M20.7 8.06c-.71 3.12-5.04 36.42 16.63 75.78l11.02-5.94.13-.05 12.51-3.37C49.85 30.94 23.48 9.79 20.83 8l-.13.05v.01Z"/><path stroke="#101C3F" stroke-miterlimit="10" d="M20.7 8.06c-.71 3.12-5.04 36.42 16.63 75.78l11.02-5.94.13-.05 12.51-3.37C49.85 30.94 23.48 9.79 20.83 8l-.13.05v.01Z"/><path fill="#fff" stroke="#101C3F" stroke-miterlimit="10" d="M51.085 83.992c6.532-2.586 10.968-6.851 9.909-9.527-1.06-2.675-7.213-2.747-13.745-.161-6.532 2.586-10.968 6.851-9.909 9.526 1.06 2.676 7.213 2.748 13.745.162Z"/><path fill="#0B64DD" d="M50.769 83.203c5.135-2.033 8.752-5.059 8.08-6.759-.674-1.7-5.382-1.43-10.517.604-5.135 2.033-8.752 5.06-8.08 6.759.674 1.7 5.382 1.43 10.517-.604Z"/><mask id="illustration-deploy-video.light__a" width="19" height="10" x="40" y="75" maskUnits="userSpaceOnUse" style="mask-type:luminance"><path fill="#fff" d="M50.769 83.203c5.135-2.033 8.752-5.059 8.08-6.759-.674-1.7-5.382-1.43-10.517.604-5.135 2.033-8.752 5.06-8.08 6.759.674 1.7 5.382 1.43 10.517-.604Z"/></mask><g mask="url(#illustration-deploy-video.light__a)"><path fill="#101C3F" stroke="#101C3F" stroke-miterlimit="10" d="M50.131 81.592c5.135-2.033 8.752-5.06 8.08-6.759-.673-1.7-5.382-1.43-10.517.604-5.135 2.033-8.752 5.059-8.079 6.758.673 1.7 5.381 1.43 10.516-.603Z"/></g><path stroke="#101C3F" stroke-miterlimit="10" d="M50.769 83.203c5.135-2.033 8.752-5.059 8.08-6.759-.674-1.7-5.382-1.43-10.517.604-5.135 2.033-8.752 5.06-8.08 6.759.674 1.7 5.382 1.43 10.517-.604Z"/><path fill="#fff" d="M33.68 40.623c2.659-1.053 3.681-4.771 2.283-8.304-1.4-3.533-4.69-5.543-7.35-4.49-2.66 1.053-3.682 4.77-2.283 8.304 1.399 3.533 4.69 5.543 7.35 4.49Z"/><path fill="#48EFCF" stroke="#101C3F" stroke-miterlimit="10" d="M48.83 79.01c-3.83 1.52-5.71 5.86-4.19 9.69l.44 1.12c.32.81.78 1.56 1.36 2.21l14.75 16.6-1.66-21.95c-.06-.75-.23-1.49-.5-2.19l-.51-1.29c-1.52-3.83-5.86-5.71-9.69-4.19Z"/><path fill="#153385" stroke="#101C3F" stroke-miterlimit="10" d="M32.65 75.3s-5.54-1.54-7.69 3.05L18.9 63.03l7.69-3.05 6.06 15.32Z"/><path fill="#0B64DD" stroke="#101C3F" stroke-miterlimit="10" d="M25.24 87.86S15.13 74.9 13.09 57.54c-.15-1.3 1.51-1.97 2.29-.92 3.31 4.45 9.04 13.94 12.8 30.07l-2.95 1.17h.01Z"/><path fill="#101C3F" d="M27.193 88.418c.93-.368 1.526-1.061 1.333-1.55-.193-.487-1.103-.584-2.033-.216-.93.368-1.526 1.062-1.333 1.55.193.487 1.103.584 2.033.216Z"/><path fill="#48EFCF" d="M26.77 87.36c-.47.19-.71.72-.52 1.2l.05.14c.04.1.1.19.17.27l1.83 2.05-.2-2.72c0-.09-.03-.18-.06-.27l-.06-.16a.926.926 0 0 0-1.2-.52l-.01.01Z"/><path fill="#153385" stroke="#101C3F" stroke-miterlimit="10" d="M93.61 117.96c-14.94 0-27.06-12.13-27.06-27.09 0-14.96 12.12-27.09 27.06-27.09s27.06 12.13 27.06 27.09c0 14.96-12.12 27.09-27.06 27.09Z"/><path fill="#fff" stroke="#101C3F" stroke-linecap="round" stroke-linejoin="round" d="M96.15 117.96c-14.94 0-27.06-12.13-27.06-27.09 0-14.96 12.12-27.09 27.06-27.09s27.06 12.13 27.06 27.09c0 14.96-12.12 27.09-27.06 27.09Z"/><path fill="#0B64DD" d="M111.36 89.05 89.09 75.73c-1.47-.88-3.41.09-3.41 1.69v26.88c0 1.61 1.96 2.58 3.43 1.68l22.27-13.56c1.32-.8 1.31-2.58-.02-3.37Z"/></svg>