<svg xmlns="http://www.w3.org/2000/svg" fill="none" viewBox="0 0 128 128"><path fill="#153385" stroke="#153385" stroke-miterlimit="10" d="M78.567 31.158c-1.42 0-2.81.1-4.17.3-4.41-6.54-11.88-10.85-20.37-10.85-10.72 0-19.83 6.88-23.17 16.46-1.54-.37-3.15-.57-4.81-.57-11.31-.01-20.49 9.17-20.49 20.49 0 2.31.39 4.52 1.09 6.59h101.049c.11-1.03.17-2.07.17-3.12 0-16.18-13.12-29.3-29.3-29.3Z"/><path fill="#F5F7FA" stroke="#153385" stroke-miterlimit="10" d="M78.567 35.808c-1.42 0-2.81.1-4.17.3-4.41-6.54-11.88-10.85-20.37-10.85-10.72 0-19.83 6.88-23.17 16.46-1.54-.37-3.15-.57-4.81-.57-11.31-.01-20.49 9.17-20.49 20.49 0 2.31.39 4.52 1.09 6.59h101.049c.11-1.03.17-2.07.17-3.12 0-16.18-13.12-29.3-29.3-29.3Z"/><path fill="#153385" stroke="#153385" stroke-miterlimit="10" d="M58.16 65.13s2.99-4.91 7.69-3.05l-6.06-15.32-7.69 3.05 6.06 15.32Z"/><path fill="#fff" stroke="#153385" stroke-miterlimit="10" d="M72.151 69.22c.005 0 .01.003.009-.002-.017-.181-1.558-16.447-11.9-30.418-.78-1.05-2.45-.4-2.3.9.619 5.413 2.869 15.97 10.809 29.937a.999.999 0 0 0 1.233.435l2.147-.852h.002Z"/><path fill="#153385" d="M71.147 70.53c1.022-.404 1.676-1.175 1.46-1.721-.216-.546-1.22-.66-2.243-.255s-1.677 1.175-1.46 1.721c.215.546 1.22.66 2.243.255Z"/><path fill="#fff" d="M20.7 8.06c-.71 3.12-5.04 36.42 16.63 75.78l11.02-5.94.13-.05 12.51-3.37C49.85 30.94 23.48 9.79 20.83 8l-.13.05v.01Z"/><path stroke="#153385" stroke-miterlimit="10" d="M20.7 8.06c-.71 3.12-5.04 36.42 16.63 75.78l11.02-5.94.13-.05 12.51-3.37C49.85 30.94 23.48 9.79 20.83 8l-.13.05v.01Z"/><path fill="#F5F7FA" stroke="#153385" stroke-miterlimit="10" d="M51.085 83.992c6.532-2.586 10.968-6.851 9.909-9.527-1.06-2.675-7.213-2.747-13.745-.161-6.532 2.586-10.968 6.851-9.909 9.526 1.06 2.676 7.213 2.748 13.745.162Z"/><path fill="#153385" d="M50.769 83.203c5.135-2.033 8.752-5.059 8.08-6.759-.674-1.7-5.382-1.43-10.517.604-5.135 2.033-8.752 5.06-8.08 6.759.674 1.7 5.382 1.43 10.517-.604Z"/><path stroke="#153385" stroke-miterlimit="10" d="M50.769 83.203c5.135-2.033 8.752-5.059 8.08-6.759-.674-1.7-5.382-1.43-10.517.604-5.135 2.033-8.752 5.06-8.08 6.759.674 1.7 5.382 1.43 10.517-.604Z"/><path fill="#153385" d="M33.68 40.623c2.659-1.053 3.681-4.771 2.283-8.304-1.4-3.533-4.69-5.543-7.35-4.49-2.66 1.053-3.682 4.77-2.283 8.304 1.399 3.533 4.69 5.543 7.35 4.49Z"/><path fill="#48EFCF" stroke="#153385" stroke-miterlimit="10" d="M48.83 79.01c-3.83 1.52-5.71 5.86-4.19 9.69l.44 1.12c.32.81.78 1.56 1.36 2.21l14.75 16.6-1.66-21.95c-.06-.75-.23-1.49-.5-2.19l-.51-1.29c-1.52-3.83-5.86-5.71-9.69-4.19Z"/><path fill="#153385" stroke="#153385" stroke-miterlimit="10" d="M32.65 75.3s-5.54-1.54-7.69 3.05L18.9 63.03l7.69-3.05 6.06 15.32Z"/><path fill="#fff" stroke="#153385" stroke-miterlimit="10" d="M25.237 87.86h.003c-.037-.048-10.114-12.992-12.15-30.32-.15-1.3 1.51-1.97 2.29-.92 3.28 4.41 8.936 13.767 12.696 29.63.06.25-.073.51-.313.605l-2.526 1.002c-.002 0-.001.003 0 .003Z"/><path fill="#153385" d="M27.084 88.208c1.048-.415 1.721-1.197 1.504-1.747-.218-.55-1.244-.66-2.293-.245-1.048.415-1.72 1.198-1.503 1.748.218.55 1.244.66 2.292.244Z"/><path fill="#153385" stroke="#153385" stroke-miterlimit="10" d="M93.61 117.96c-14.94 0-27.06-12.13-27.06-27.09 0-14.96 12.12-27.09 27.06-27.09s27.06 12.13 27.06 27.09c0 14.96-12.12 27.09-27.06 27.09Z"/><path fill="#fff" stroke="#153385" stroke-linecap="round" stroke-linejoin="round" d="M96.15 117.96c-14.94 0-27.06-12.13-27.06-27.09 0-14.96 12.12-27.09 27.06-27.09s27.06 12.13 27.06 27.09c0 14.96-12.12 27.09-27.06 27.09Z"/><path fill="#0B64DD" d="M111.36 89.05 89.09 75.73c-1.47-.88-3.41.09-3.41 1.69v26.88c0 1.61 1.96 2.58 3.43 1.68l22.27-13.56c1.32-.8 1.31-2.58-.02-3.37Z"/></svg>