<svg xmlns="http://www.w3.org/2000/svg" fill="none" viewBox="0 0 128 128"><path fill="#153385" stroke="#153385" stroke-miterlimit="10" d="M101.5 11.57H31.04a7 7 0 0 0-7 7v90.39a7 7 0 0 0 7 7h70.46a7 7 0 0 0 7-7V18.57a7 7 0 0 0-7-7Z"/><path fill="#fff" stroke="#153385" stroke-miterlimit="10" d="M96.96 11.5H26.5a7 7 0 0 0-7 7v90.39a7 7 0 0 0 7 7h70.46a7 7 0 0 0 7-7V18.5a7 7 0 0 0-7-7Z"/><path fill="#0B64DD" stroke="#153385" stroke-miterlimit="10" d="M68.26 108.29H55.03c-.98 0-1.77.79-1.77 1.77s.79 1.78 1.77 1.78h13.23c.98 0 1.77-.79 1.77-1.77s-.79-1.78-1.77-1.78Z"/><path fill="#F5F7FA" stroke="#153385" stroke-miterlimit="10" d="M90.02 19.3H33.44a6 6 0 0 0-6 6v73.08a6 6 0 0 0 6 6h56.58a6 6 0 0 0 6-6V25.3a6 6 0 0 0-6-6Z"/><path fill="#153385" d="M65.18 50.85h1.96l10.38-7.54-4.62-3.56-7.72 11.1Zm18.45-39.04-.84 29.52 4.82 9.26h1.8V11.81h-5.78Z"/><path fill="#48EFCF" stroke="#153385" stroke-miterlimit="10" d="M65.78 11.81v37.85l10.79-7.79L87 49.4V11.81H65.78Z"/><path stroke="#153385" stroke-linecap="round" stroke-miterlimit="10" d="M37.6 69.46h48.26M37.6 60.2h48.26M37.6 78.71h48.26M37.6 87.97h48.26"/></svg>