<svg xmlns="http://www.w3.org/2000/svg" fill="none" viewBox="0 0 128 128"><path fill="#153385" stroke="#153385" stroke-linejoin="round" d="m27.12 61.65-7.82 9.89 92.92-.11-8.08-9.63c-1.11-1.32-3.27-2.14-5.63-2.14h-65.9c-2.25 0-4.34.75-5.49 1.98v.01Z"/><path fill="#F5F7FA" stroke="#153385" stroke-miterlimit="10" d="M108.51 68.84H23.22a4.47 4.47 0 0 0-4.47 4.47v22.72a4.47 4.47 0 0 0 4.47 4.47h85.29a4.47 4.47 0 0 0 4.47-4.47V73.31a4.47 4.47 0 0 0-4.47-4.47Z"/><path fill="#153385" stroke="#153385" stroke-linejoin="round" d="m27.12 24.83-7.62 9.9 92.73-.11-8.08-9.63c-1.11-1.32-3.27-2.14-5.63-2.14H32.61c-2.25 0-4.34.75-5.49 1.98Z"/><path fill="#F5F7FA" stroke="#153385" stroke-miterlimit="10" d="M108.52 32.03H23.23a4.47 4.47 0 0 0-4.47 4.47v22.72a4.47 4.47 0 0 0 4.47 4.47h85.29a4.47 4.47 0 0 0 4.47-4.47V36.5a4.47 4.47 0 0 0-4.47-4.47Z"/><path fill="#48EFCF" d="M34.89 54.7a6.08 6.08 0 1 0 0-12.16 6.08 6.08 0 0 0 0 12.16Z"/><path fill="#153385" d="M94.34 40.91h-4.27v15.91h4.27V40.91Zm-8.23 0h-4.27v15.91h4.27V40.91ZM34.89 92.19a6.08 6.08 0 1 0 0-12.16 6.08 6.08 0 0 0 0 12.16Z"/><path fill="#48EFCF" d="M94.34 78.4h-4.27v15.91h4.27V78.4Zm-8.23 0h-4.27v15.91h4.27V78.4Z"/><path fill="#153385" stroke="#153385" stroke-miterlimit="10" d="M15.75 54.1c-1.91 0-3.66-1.14-4.57-2.97-.91-1.83-.82-4.06.22-5.8l16.3-27.26c.96-1.61 2.59-2.57 4.35-2.57 1.76 0 3.36.95 4.32 2.53l16.59 27.25a6.105 6.105 0 0 1 .25 5.82c-.91 1.85-2.66 2.99-4.58 2.99H15.75v.01Z"/><path fill="#153385" d="M32.01 15.36h-2.18v1.52h2.18v-1.52Z"/><path fill="#0B64DD" stroke="#153385" stroke-miterlimit="10" d="M13.69 54.1c-1.91 0-3.66-1.14-4.57-2.97-.91-1.83-.82-4.06.22-5.8l16.31-27.26c.96-1.61 2.59-2.57 4.35-2.57 1.76 0 3.36.95 4.32 2.53l16.59 27.25a6.105 6.105 0 0 1 .25 5.82c-.91 1.85-2.66 2.99-4.58 2.99H13.69v.01Z"/><path fill="#fff" stroke="#153385" stroke-miterlimit="10" d="m27.92 19.7-16.3 27.25c-1.07 1.8.11 4.18 2.07 4.18h32.89c1.97 0 3.15-2.4 2.06-4.2L32.05 19.68c-.98-1.61-3.16-1.61-4.13.02Z"/><path fill="#153385" d="m28.3 40.05-.8-11.89h4.73l-.77 11.89H28.3Zm-.57 1.73h4.24v4.4h-4.24v-4.4Z"/><path fill="#153385" stroke="#153385" stroke-miterlimit="10" d="m111.98 75.75 1.88-11.45c.67-3.27.07-6.6-1.68-9.37-1.76-2.77-4.44-4.62-7.56-5.21-6.18-1.16-12.08 3.01-13.42 9.51v.04l-.11 1.12 5.64.79.07-.72c.69-3.28 3.67-5.38 6.8-4.8 1.58.3 2.94 1.23 3.83 2.64a6.42 6.42 0 0 1 .85 4.75L106.4 74.5l5.59 1.25h-.01Z"/><path fill="#48EFCF" stroke="#153385" stroke-miterlimit="10" d="m110.23 74.3 1.96-11.45c.7-3.27.06-6.6-1.8-9.38-1.86-2.78-4.7-4.63-7.99-5.23a12.192 12.192 0 0 0-14.14 9.47v.04l-.18 1.12L94 60.06l.17-1.1a6.178 6.178 0 0 1 7.16-4.78c1.67.3 3.11 1.24 4.05 2.65s1.27 3.1.91 4.75l-1.96 11.45 5.9 1.26v.01Z"/><path fill="#153385" stroke="#153385" stroke-miterlimit="10" d="m108.61 72.15 5.94.99c1.05.18 2.06.62 2.8 1.39.11.11.21.23.31.36.55.69 1.03 1.65 1.03 2.9 0 2.92-4.3 30.56-4.3 30.56s-.77 4.49-3.48 4.49-8.44-1.06-8.44-1.06l6.14-39.63Z"/><path fill="#fff" stroke="#153385" stroke-miterlimit="10" d="m77.7 108.38 27.14 3.78c2.1.29 4.03-1.14 4.32-3.19l5.03-32.61c.29-2.05-1.18-3.96-3.28-4.25l-27.12-1.84c-2.1-.29-4.03 1.14-4.32 3.19l-5.05 30.67c-.29 2.05 1.18 3.96 3.28 4.25Z"/><path fill="#153385" d="m87.22 99.68 3.95-10.62a4.19 4.19 0 0 1-1.77-3.42 4.2 4.2 0 1 1 8.4 0c0 1.64-.95 3.06-2.32 3.76l.49 11.61-8.75-1.33Z"/><path fill="#153385" stroke="#153385" stroke-miterlimit="10" d="M96.734 61.403c.143-.675-1.702-1.64-4.121-2.156-2.42-.516-4.499-.386-4.643.289-.144.675 1.701 1.64 4.121 2.156 2.42.516 4.499.386 4.643-.289Z"/></svg>