<svg xmlns="http://www.w3.org/2000/svg" fill="none" viewBox="0 0 128 128"><path fill="#153385" stroke="#101C3F" stroke-linejoin="round" d="M105.21 59.73 63.69 42.15 22.16 59.73l41.53 18.65 41.52-18.65Z"/><path fill="#fff" stroke="#101C3F" stroke-linejoin="round" d="M63.69 42.15 49.42 31.37 7.81 48.77l14.35 10.96 41.53-17.58Z"/><path fill="#101C3F" stroke="#101C3F" stroke-linejoin="round" d="M7.81 49.7v-.93l14.35 10.96v1.03L7.81 49.7Z"/><path fill="#fff" stroke="#101C3F" stroke-linejoin="round" d="m63.69 42.15 14.26-10.78 41.61 17.4-14.35 10.96-41.52-17.58Z"/><path fill="#101C3F" stroke="#101C3F" stroke-linejoin="round" d="M42.03 66.5c-1.36-.41-1.26-1.71-1.26-1.71l5.73-9.42 10.44-12.99 2.05 2.29 5.58-3.21-3-8.07 2.81 3.96 2.42 7.66-5.65 3.39c-.49 2.52-2.23 8.8-7.91 13.44l1.52.73 6.46-8.1 2.62 3.47-6.87 7.79-5.1-2.62-.12-.16c-.52.35-1.06.7-1.63 1.02-1.7.96-3.09 1.6-4.23 2.01l-1.92 5.6-9.29.18-2.89-3.55 9.54.23.71-1.94h-.01Zm9.54-39.89 2.69 4.07-.71 3.95-3.12-1.61 1.14-6.41ZM22.09 61.43l7.84-3.79L33.42 61l-.37.17 1.2.62-1.07 2.09-.77-.04s-.87-.48-1.86-1.56l-6.02 2.69-2.43-3.54h-.01Zm17.31-14.6c-4.79 5.24-2.18 9.19-2.18 9.19l-9.31-3.77 12.1-15.94 10.98 5.07-.95 3.97s-5.85-3.75-10.64 1.48Z"/><path fill="#48EFCF" stroke="#101C3F" stroke-linejoin="round" d="m25.24 49.5-6.18 3.87 3.03 8.06 6.34-2.64c1.14 1.42 2.55 2.64 4.18 3.63l-.83 5.79 9.54.23 1.83-4.98c2.25-.68 4.47-1.83 6.49-3.33l5.11 2.44 6.46-8.1-4.13-3.93c.68-1.83 1.01-3.63 1.02-5.36l6.47-3.72-3-8.07L54.83 36a15.898 15.898 0 0 0-4.2-3.6l.95-5.78-9.62-.22-1.51 5.03c-2.42.71-4.84 1.97-7.01 3.63l-4.63-2.38-6.54 7.87 4.1 3.54c-.73 1.85-1.08 3.67-1.12 5.42l-.01-.01Zm12.04-6.74c3.45-2.79 8.1-2.76 10.38.06 2.28 2.82 1.33 7.37-2.12 10.16s-8.1 2.76-10.38-.06c-2.28-2.82-1.33-7.37 2.12-10.16Z"/><path fill="#101C3F" stroke="#101C3F" stroke-linejoin="round" d="M119.56 49.7v-.93l-14.35 10.96v1.03l14.35-11.06Zm-38.98-2.665-1.684-1.079a2.75 2.75 0 0 0-3.799.833L62.692 66.156a2.75 2.75 0 0 0 .833 3.8l1.684 1.078a2.75 2.75 0 0 0 3.799-.833l12.405-19.367a2.75 2.75 0 0 0-.832-3.8ZM92.64 14.88c-7.06-1.91-13.16 1.34-16.18 6.44 9.56-9.32 26.51-.82 26.07 12.2-.07 2.12-.64 4.12-1.58 5.88 2.2-2.23 3.62-5.32 3.65-9.26.06-7.1-5.18-13.43-11.95-15.26h-.01Z"/><path fill="#48EFCF" stroke="#101C3F" stroke-linejoin="round" d="M76.83 13.09c-15.51 11.24-4.66 34.37 12.44 35.55 10.37.72 19.89-7.02 20.27-17.65.53-16.22-19.28-27.63-32.71-17.91v.01Zm27.75 17.43c-.24 6.95-5.74 12.51-12.58 13.24-12.97 1.38-23.73-14.89-13.88-25.12 9.51-9.88 26.92-1.31 26.47 11.89l-.01-.01Z"/><path fill="#101C3F" stroke="#101C3F" stroke-linejoin="round" d="M89.27 48.64c-13.29-.92-22.8-15.1-19.1-26.64-3.51 5.83-3.94 13.5.91 20.41 8.66 12.34 28.91 11.69 34.78-1.19-3.78 4.93-10.01 7.88-16.59 7.42Z"/><path fill="#48EFCF" stroke="#101C3F" stroke-linejoin="round" d="m79.487 46.324-1.684-1.079a2.75 2.75 0 0 0-3.799.832L61.6 65.445a2.75 2.75 0 0 0 .832 3.8l1.684 1.078a2.75 2.75 0 0 0 3.8-.833L80.32 50.123a2.75 2.75 0 0 0-.833-3.8Z"/><path fill="#0B64DD" stroke="#101C3F" stroke-linejoin="round" d="M63.69 78.38v39.98l41.52-18.43v-40.2L63.69 78.38Z"/><path fill="#fff" stroke="#101C3F" stroke-linejoin="round" d="m63.69 78.38 16.16 1.59 40.02-17.95-14.66-2.29-41.52 18.65Z"/><path fill="#153385" stroke="#101C3F" stroke-linejoin="round" d="M63.69 79.15v-.77l16.16 1.59 40.02-17.95v.79L80.03 80.8l-16.34-1.65Z"/><path fill="#0B64DD" stroke="#101C3F" stroke-linejoin="round" d="M63.69 78.38v39.98L22.16 99.93v-40.2l41.53 18.65Z"/><path fill="#fff" stroke="#101C3F" stroke-linejoin="round" d="m63.69 78.38-16.17 1.59L7.5 62.02l14.66-2.29 41.53 18.65Z"/><path fill="#101C3F" stroke="#101C3F" stroke-linejoin="round" d="M63.69 79.15v-.77l-16.17 1.59L7.5 62.02v.79L47.34 80.8l16.35-1.65Z"/></svg>