<svg xmlns="http://www.w3.org/2000/svg" fill="none" viewBox="0 0 128 128"><path fill="#153385" stroke="#101C3F" stroke-miterlimit="10" d="M89.47 20.92H15.5v92.77h73.97V20.92Z"/><path fill="#fff" stroke="#101C3F" stroke-linecap="round" stroke-linejoin="round" d="M98.82 28.23 80.15 9.5H25.84v93.14h72.98V28.23Z"/><path fill="#0B64DD" d="M59.6 38.98H37.92v24.48H59.6V38.98Z"/><path stroke="#101C3F" stroke-linecap="round" stroke-miterlimit="10" d="M65.36 52.25H86.1m-20.74-9.52H86.1M65.36 61.77H86.1m-48.18 9.52H86.1m-48.18 9.52H86.1"/><path fill="#48EFCF" stroke="#101C3F" stroke-linejoin="round" d="M80.12 9.5v19.04l18.7-.31L80.12 9.5Z"/><path fill="#101C3F" d="m79.73 28.89 18.69 5.51v-5.86l-18.69.35Z"/><path fill="#153385" stroke="#101C3F" stroke-miterlimit="10" d="M89.23 118.08c13.32 0 24.12-10.81 24.12-24.15 0-13.34-10.8-24.15-24.12-24.15S65.11 80.59 65.11 93.93c0 13.34 10.8 24.15 24.12 24.15Z"/><path fill="#48EFCF" stroke="#101C3F" stroke-linecap="round" stroke-linejoin="round" d="M86.13 118.08c13.32 0 24.12-10.81 24.12-24.15 0-13.34-10.8-24.15-24.12-24.15S62.01 80.59 62.01 93.93c0 13.34 10.8 24.15 24.12 24.15Z"/><path stroke="#101C3F" stroke-miterlimit="10" stroke-width="5" d="m73.96 96.83 8.64 6.79L96.72 84.6"/></svg>