<svg xmlns="http://www.w3.org/2000/svg" fill="none" viewBox="0 0 128 128"><path fill="#153385" stroke="#153385" stroke-miterlimit="10" d="m102.18 52.29-.03 58.8c0 1.76-1.43 3.2-3.2 3.2H21.74c-1.76 0-3.2-1.43-3.2-3.2l.02-57.95h-.03l-.03-5.83c0-1.77 1.43-3.21 3.2-3.21h23.22c1.5 0 2.8 1.04 3.12 2.5a3.19 3.19 0 0 0 3.12 2.5h47.82c1.76 0 3.2 1.43 3.2 3.2v-.01Z"/><path fill="#F5F7FA" stroke="#153385" stroke-linecap="round" stroke-linejoin="round" d="M105.21 40.49 86.15 21.36H30.68v79.04h74.53V40.49Z"/><path fill="#0B64DD" stroke="#153385" stroke-linejoin="round" d="M86.12 21.36v19.45l19.09-.32-19.09-19.13Z"/><path fill="#153385" d="m86.12 41.16 19.09 5.63v-5.98l-19.09.35Z"/><path fill="#fff" stroke="#153385" stroke-miterlimit="10" d="M19.18 113.38 35.1 72.26c1.17-3.01 4.06-5 7.29-5h70.11c3.46 0 5.82 3.49 4.55 6.7l-16.03 40.32H19.63c-.47 0-.73-.53-.46-.91l.01.01Z"/><path fill="#153385" stroke="#153385" stroke-miterlimit="10" d="M70.62 46.09V8.5h-9.69v37.59h-8.41L65.4 57.41l13.26-11.32h-8.04Z"/><path fill="#153385" d="M65.4 58.05h-2.12v-2.42h2.06l.06 2.42Z"/><path fill="#48EFCF" stroke="#153385" stroke-miterlimit="10" d="M68.5 46.09V8.5h-9.69v37.59H50.4l12.88 11.32 13.26-11.32H68.5Z"/></svg>