<svg xmlns="http://www.w3.org/2000/svg" fill="none" viewBox="0 0 128 128"><path fill="#153385" stroke="#101C3F" stroke-miterlimit="10" d="m25.32 12.19-13.8.44-.02 13.38 4.08-4.08 14.46 14.45 5.66-5.65-14.46-14.46 4.08-4.08Z"/><path fill="#101C3F" d="m11.76 13.53-.73-1.37.68-.68m0 0 1.4 1.4-1.35.65"/><path fill="#48EFCF" stroke="#101C3F" stroke-miterlimit="10" d="m25.97 11.54-13.8.44-.02 13.38 4.08-4.08 14.46 14.45 5.66-5.65-14.46-14.46 4.08-4.08Z"/><path fill="#153385" stroke="#101C3F" stroke-miterlimit="10" d="m102.48 12.19 13.8.44.02 13.38-4.08-4.08-14.45 14.45-5.66-5.65 14.45-14.46-4.08-4.08Z"/><path fill="#101C3F" d="m116.05 13.53.73-1.37-.69-.68"/><path fill="#101C3F" d="m116.09 11.48-1.39 1.4 1.35.65"/><path fill="#48EFCF" stroke="#101C3F" stroke-miterlimit="10" d="m101.83 11.54 13.8.44.02 13.38-4.08-4.08-14.46 14.45-5.65-5.65 14.45-14.46-4.08-4.08Z"/><path fill="#153385" stroke="#101C3F" stroke-miterlimit="10" d="m25.32 104.21-13.8-.44-.02-13.38 4.08 4.08 14.46-14.46 5.66 5.66-14.46 14.46 4.08 4.08Z"/><path fill="#101C3F" d="m11.76 102.87-.73 1.37.68.68m0 0 1.4-1.4-1.35-.65"/><path fill="#48EFCF" stroke="#101C3F" stroke-miterlimit="10" d="m25.97 104.86-13.8-.44-.02-13.38 4.08 4.08 14.46-14.46 5.66 5.66-14.46 14.46 4.08 4.08Z"/><path fill="#153385" stroke="#101C3F" stroke-miterlimit="10" d="m102.48 104.21 13.8-.44.02-13.38-4.08 4.08-14.45-14.46-5.66 5.66 14.45 14.46-4.08 4.08Z"/><path fill="#101C3F" d="m116.05 102.87.73 1.37-.69.68"/><path fill="#101C3F" d="m116.09 104.92-1.39-1.4 1.35-.65"/><path fill="#48EFCF" stroke="#101C3F" stroke-miterlimit="10" d="m101.83 104.86 13.8-.44.02-13.38-4.08 4.08-14.46-14.46-5.65 5.66 14.45 14.46-4.08 4.08Z"/><path fill="#0B64DD" stroke="#101C3F" stroke-miterlimit="10" d="M23.69 22.01s5.2 13.88 5.2 36.8c0 22.92-5.2 33.65-5.2 33.65s14.36-4.54 40.71-4.54 39.72 4.54 39.72 4.54-4.94-13.1-4.94-35.16c0-22.06 4.94-35.27 4.94-35.27s-16 4.54-38.76 4.54c-13.98-.06-27.93-1.59-41.67-4.56Z"/><path fill="#fff" d="M51.54 52.3h-7.87v26.67h7.87V52.3Z"/><path fill="#48EFCF" d="M51.54 48.07h-7.87v11.49h7.87V48.07Zm32.59-10.65h-7.87v10.9h7.87v-10.9Z"/><path fill="#fff" d="M67.8 44.53h-7.87v34.44h7.87V44.53Zm16.25 3.83h-7.87v30.62h7.87V48.36Z"/><path fill="#48EFCF" d="M67.84 40.41h-7.87v25.47h7.87V40.41Z"/><path fill="#153385" stroke="#101C3F" stroke-miterlimit="10" d="M67.12 115.57C80.85 110 90.81 98.21 90.81 87.12V72.07l-23.69-7.85h-.07l-21.62 7.85v15.05c0 11.1 7.9 22.88 21.62 28.45h.07Z"/><path fill="#48EFCF" stroke="#101C3F" stroke-miterlimit="10" d="M67.12 115.57c13.1-5.57 21.62-17.36 21.62-28.45V72.07l-21.62-7.85h-.06l-21.62 7.85v15.05c0 11.1 8.52 22.88 21.62 28.45h.06Z"/><path stroke="#0B64DD" stroke-miterlimit="10" d="M66.67 77.16c2.59 0 4.69 2.1 4.69 4.69v5.27h-9.38v-5.27c0-2.59 2.1-4.69 4.69-4.69Z"/><path fill="#0B64DD" d="M76.08 84.86h-18.7v14.49h18.7V84.86Z"/><path fill="#101C3F" d="M66.73 92.92a2.4 2.4 0 1 0 0-4.8 2.4 2.4 0 0 0 0 4.8Z"/><path fill="#101C3F" d="M67.82 89.46h-2.18v7.19h2.18v-7.19Z"/></svg>