<svg xmlns="http://www.w3.org/2000/svg" fill="none" viewBox="0 0 128 128"><path fill="#153385" stroke="#101C3F" stroke-miterlimit="10" d="m25.32 18.19-13.8.44-.02 13.38 4.08-4.08 14.46 14.45 5.66-5.65-14.46-14.46 4.08-4.08Z"/><path fill="#101C3F" d="m11.76 19.53-.73-1.37.68-.68m0 0 1.4 1.4-1.35.65"/><path fill="#48EFCF" stroke="#101C3F" stroke-miterlimit="10" d="m25.97 17.54-13.8.44-.02 13.38 4.08-4.08 14.46 14.45 5.66-5.65-14.46-14.46 4.08-4.08Z"/><path fill="#153385" stroke="#101C3F" stroke-miterlimit="10" d="m102.48 18.19 13.8.44.02 13.38-4.08-4.08-14.45 14.45-5.66-5.65 14.45-14.46-4.08-4.08Z"/><path fill="#101C3F" d="m116.05 19.53.73-1.37-.69-.68m0 0-1.39 1.4 1.35.65"/><path fill="#48EFCF" stroke="#101C3F" stroke-miterlimit="10" d="m101.83 17.54 13.8.44.02 13.38-4.08-4.08-14.46 14.45-5.65-5.65 14.45-14.46-4.08-4.08Z"/><path fill="#153385" stroke="#101C3F" stroke-miterlimit="10" d="m25.32 110.21-13.8-.44-.02-13.38 4.08 4.08 14.46-14.46 5.66 5.66-14.46 14.46 4.08 4.08Z"/><path fill="#101C3F" d="m11.76 108.87-.73 1.37.68.68m0 0 1.4-1.4-1.35-.65"/><path fill="#48EFCF" stroke="#101C3F" stroke-miterlimit="10" d="m25.97 110.86-13.8-.44-.02-13.38 4.08 4.08 14.46-14.46 5.66 5.66-14.46 14.46 4.08 4.08Z"/><path fill="#153385" stroke="#101C3F" stroke-miterlimit="10" d="m102.48 110.21 13.8-.44.02-13.38-4.08 4.08-14.45-14.46-5.66 5.66 14.45 14.46-4.08 4.08Z"/><path fill="#101C3F" d="m116.05 108.87.73 1.37-.69.68"/><path fill="#101C3F" d="m116.09 110.92-1.39-1.4 1.35-.65"/><path fill="#48EFCF" stroke="#101C3F" stroke-miterlimit="10" d="m101.83 110.86 13.8-.44.02-13.38-4.08 4.08-14.46-14.46-5.65 5.66 14.45 14.46-4.08 4.08Z"/><path fill="#0B64DD" stroke="#101C3F" stroke-miterlimit="10" d="M23.69 28.01s5.2 13.88 5.2 36.8c0 22.92-5.2 33.65-5.2 33.65s14.36-4.54 40.71-4.54 39.72 4.54 39.72 4.54-4.94-13.1-4.94-35.16c0-22.06 4.94-35.27 4.94-35.27s-16 4.54-38.76 4.54c-13.98-.06-27.93-1.59-41.67-4.56Z"/><path fill="#fff" d="M51.54 58.3h-7.87v26.67h7.87V58.3Z"/><path fill="#48EFCF" d="M51.54 54.07h-7.87v11.49h7.87V54.07Zm32.59-10.65h-7.87v10.9h7.87v-10.9Z"/><path fill="#fff" d="M67.8 50.53h-7.87v34.44h7.87V50.53Zm16.25 3.83h-7.87v30.62h7.87V54.36Z"/><path fill="#48EFCF" d="M67.84 46.41h-7.87v25.47h7.87V46.41Z"/></svg>