<svg xmlns="http://www.w3.org/2000/svg" fill="none" viewBox="0 0 128 128"><path fill="#153385" stroke="#153385" stroke-miterlimit="10" stroke-width=".99" d="M63.52 58.86c28.178 0 51.02-5.368 51.02-11.99S91.698 34.88 63.52 34.88c-28.178 0-51.02 5.368-51.02 11.99s22.842 11.99 51.02 11.99Z"/><path fill="#153385" stroke="#153385" stroke-miterlimit="10" d="M70.13 64.4h13.51V14.18H70.13V64.4Z"/><path fill="#F5F7FA" stroke="#153385" stroke-miterlimit="10" d="M67.69 64.4H81.2V14.18H67.69V64.4Z"/><path fill="#153385" stroke="#153385" stroke-miterlimit="10" d="M89.2 64.4h13.51V27.51H89.2V64.4Z"/><path fill="#0B64DD" stroke="#153385" stroke-miterlimit="10" d="M86.77 64.4h13.51V27.51H86.77V64.4Z"/><path fill="#153385" stroke="#153385" stroke-miterlimit="10" d="M51.04 64.4h13.51V39.29H51.04V64.4Z"/><path fill="#F5F7FA" stroke="#153385" stroke-miterlimit="10" d="M48.61 64.4h13.51V39.29H48.61V64.4Z"/><path fill="#fff" stroke="#153385" stroke-miterlimit="10" d="M63.48 58.85c-25.91 0-47.35-4.45-50.98-10.24v9.91c0 3.36 1.43 6.55 3.92 8.8L49.21 96.8a8.283 8.283 0 0 1 2.75 6.23l-.12 15.41h23.14l-.11-15.4c-.02-2.38.99-4.65 2.76-6.24l32.94-29.48c2.51-2.24 3.94-5.45 3.94-8.82V48.47c-3.39 5.85-24.95 10.37-51.05 10.37l.02.01Z"/><path stroke="#153385" stroke-miterlimit="10" d="M12.5 58.53s48.88 20.51 102.03 0"/><path fill="#153385" stroke="#153385" stroke-miterlimit="10" stroke-width=".99" d="M75.01 119.15c0 1.37-5.29 2.48-11.8 2.48-6.51 0-11.39-1.11-11.39-2.48 0-1.37 4.87-2.48 11.39-2.48 6.52 0 11.8 1.11 11.8 2.48Z"/><path fill="#153385" stroke="#153385" stroke-linejoin="round" d="M22.65 32.67c.06-1.45 1.37-1.69 1.37-1.69l10.79 3.29 15.52 7.05-1.75 2.61 4.6 4.72 7.24-5.02-3.22 3.79-6.98 4.34-4.79-4.74c-2.62.16-9.29.02-15.33-4.44l-.33 1.69 9.66 4.35-2.78 3.48-9.47-4.83 1.31-5.72.13-.16c-.48-.42-.96-.87-1.43-1.36-1.38-1.45-2.37-2.66-3.06-3.69l-6.04-.48-2.53-9.17 2.79-3.77 2.19 9.51 2.1.21.01.03Zm41.96-.65-3.36 3.7-4.09.3.8-3.51 6.65-.49ZM22.62 11.63l5.75 6.81-2.45 4.31-.26-.33-.31 1.35-2.34-.54-.16-.77s.26-.98 1.07-2.24l-4.19-5.29 2.89-3.31v.01Zm18.86 13.45c-6.41-3.42-9.66.17-9.66.17l1.38-10.19 18.87 7.95-2.24 12.17-4.18.07s2.24-6.75-4.17-10.17Z"/><path fill="#48EFCF" stroke="#153385" stroke-linejoin="round" d="m35.24 11.72-5.4-5.14-7.22 5.05 4.22 5.61c-1.11 1.49-1.97 3.2-2.54 5.06l-5.95.64 2.19 9.51 5.4.55c1.24 2.05 2.94 3.96 4.95 5.59l-1.12 5.69 9.66 4.35 2.85-5.09c1.98.21 3.85.08 5.57-.35l5.33 5.47 7.24-5.02-4.3-6.02a16.3 16.3 0 0 0 2.51-5.08l5.98-.52-2.22-9.59-5.37-.22c-1.32-2.22-3.18-4.29-5.37-6.03l1.19-5.19-9.46-4.49-2.47 4.96c-2.02-.26-3.91-.14-5.66.26h-.01Zm9.74 10.23c3.64 2.71 4.79 7.32 2.57 10.3-2.22 2.98-6.97 3.19-10.61.48-3.64-2.71-4.79-7.32-2.57-10.3 2.22-2.98 6.97-3.19 10.61-.48Z"/></svg>