<svg xmlns="http://www.w3.org/2000/svg" fill="none" viewBox="0 0 128 128"><path fill="#F5F7FA" stroke="#153385" stroke-linejoin="round" d="M67.41 89.02c16.077 0 29.11-13.033 29.11-29.11 0-16.077-13.033-29.11-29.11-29.11-16.077 0-29.11 13.033-29.11 29.11 0 16.077 13.033 29.11 29.11 29.11Z"/><path fill="#153385" stroke="#153385" stroke-linejoin="round" d="M98.64 74.1c-5.37-6.97-12.39-14.22-20.66-21.05a152.83 152.83 0 0 0-5.33-4.2c1.53 1.16 3.05 2.37 4.57 3.62 8.51 7.02 15.83 14.44 21.43 21.63h-.01Z"/><path fill="#153385" stroke="#153385" stroke-linejoin="round" d="M98.64 74.1c10.45 13.56 14.65 26.04 9.59 32.17-7.66 9.28-33.62.5-57.99-19.61-24.37-20.11-37.91-43.94-30.25-53.22 7.1-8.61 29.94-1.68 52.65 15.4-24-18.22-48.85-25.07-57.01-15.18-8.68 10.52 4.82 35.99 30.15 56.89s52.66 29.12 61.58 18.81c6.66-7.69 2.34-21.04-8.72-35.26Z"/><path stroke="#153385" stroke-linejoin="round" d="M107.36 109.36c-8.92 10.31-36.25 2.1-61.58-18.81-25.33-20.9-38.83-46.38-30.15-56.89 8.68-10.52 36.25-2.1 61.58 18.81s40.17 45.31 30.15 56.89Z"/><path fill="#0B64DD" stroke="#153385" stroke-linejoin="round" d="M82.08 47.51C54.74 24.94 24.55 16.37 14.66 28.36c-6.25 7.57-2.91 21.53 7.28 36.47-8.69-12.98-11.56-24.81-6.31-31.17 8.68-10.52 36.25-2.1 61.58 18.81 25.33 20.9 40.17 45.31 30.15 56.89-8.89 10.28-36.08 2.15-61.34-18.61.08.06.15.13.23.19 27.34 22.57 57.53 31.14 67.43 19.14 9.9-11.99-4.25-40.01-31.59-62.57h-.01Z"/><mask id="illustration-genai.dark__a" width="94" height="139" x="18" y="-3" maskUnits="userSpaceOnUse" style="mask-type:luminance"><path fill="#fff" d="M91.76 43.97s4.86 7.33 4.75 15.94l11.55-5.1L111.95-3 75.16.88 29.84 44.52 22.38 77.9l-4.34 47.5 18.05 9.82 42.5-43.64-.69-4.57S74.49 89 64.65 89c-8.48 0-21.71-1.31-21.71-1.31l13.73-41.05 21.91-13.1 13.17 10.41.01.02Z"/></mask><g stroke="#153385" stroke-linejoin="round" mask="url(#illustration-genai.dark__a)"><path fill="#153385" d="M100.97 13.4c-9.19-6.09-31.32 11.08-49.73 38.45C68.55 26.24 88.58 9.81 96.38 14.98c7.95 5.27.19 30.98-17.34 57.43s-38.18 43.62-46.13 38.35c-1.86-1.23-2.86-3.58-3.08-6.8-.07 5.13 1.21 8.9 4 10.75 9.31 6.17 31.88-11.51 50.42-39.48 18.54-27.97 26.02-55.65 16.71-61.82l.01-.01Z"/><path fill="#0B64DD" d="m51.25 51.85-.99 1.47c-13.43 20.26-21.12 40.09-20.41 50.63.16-12.01 7.72-31.47 20.71-51.07.23-.35.46-.69.69-1.03Z"/><path fill="#48EFCF" d="M99.67 9.31C89.22 2.07 64.69 19.39 44.89 47.99c-19.81 28.6-27.78 59.95-15 69.4 10.22 7.56 33.05-14.6 52.85-43.19 19.81-28.6 27.39-57.65 16.94-64.89h-.01Zm-20.62 63.1c-17.53 26.45-38.18 43.62-46.13 38.35-7.95-5.27-.19-30.98 17.34-57.43S88.44 9.71 96.39 14.98c7.95 5.27.19 30.98-17.34 57.43Z"/></g><path fill="#153385" stroke="#153385" stroke-linecap="round" stroke-linejoin="round" d="m51.61 59.09-.55-.26 2.73-1.25c10.64 4.92 16.6 11.73 20.84 22.61l-2.75 1.22c-4.14-10.63-9.87-17.45-20.27-22.32Z"/><path fill="#153385" stroke="#153385" stroke-linejoin="round" d="m90.59 60.59.55.26 2.77-1.24C83.3 54.69 77.37 47.89 73.14 37.04l-2.75 1.27c4.13 10.6 9.84 17.42 20.2 22.28Z"/><path stroke="#153385" stroke-linecap="round" stroke-linejoin="round" d="M91.14 60.85c-10.42 3.89-15.78 10.08-19.27 20.56l2.75-1.22C78.11 69.7 83.47 63.5 93.9 59.61l-2.77 1.24h.01Z"/><path fill="#fff" stroke="#153385" stroke-linejoin="round" d="M93.91 59.61C83.48 63.5 78.12 69.7 74.63 80.19 70.39 69.3 64.43 62.5 53.79 57.58c10.45-3.88 15.85-10.04 19.36-20.54 4.23 10.85 10.16 17.65 20.77 22.57h-.01Z"/><path fill="#153385" stroke="#153385" stroke-linejoin="round" d="m70.2 38.88.2-.57 2.75-1.27c-4.17 12.48-10.61 16.52-22.09 21.79 10.19-3.78 15.67-9.69 19.14-19.95Z"/><path fill="#153385" stroke="#153385" stroke-linecap="round" stroke-linejoin="round" d="m79.71 38.34-.22-.1 1.08-.49c4.19 1.94 6.54 4.62 8.21 8.91l-1.08.48c-1.63-4.19-3.89-6.88-7.99-8.8Z"/><path fill="#153385" stroke="#153385" stroke-linejoin="round" d="m95.08 38.93.22.1 1.09-.49c-4.18-1.94-6.52-4.62-8.18-8.9l-1.08.5c1.63 4.18 3.88 6.86 7.96 8.78l-.01.01Z"/><path stroke="#153385" stroke-linecap="round" stroke-linejoin="round" d="M95.29 39.03c-4.11 1.53-6.22 3.97-7.59 8.1l1.08-.48c1.38-4.13 3.49-6.58 7.6-8.11l-1.09.49Z"/><path fill="#fff" stroke="#153385" stroke-linejoin="round" d="M96.38 38.54c-4.11 1.53-6.22 3.98-7.6 8.11-1.67-4.29-4.02-6.97-8.21-8.91 4.12-1.53 6.25-3.96 7.63-8.1 1.67 4.28 4 6.96 8.18 8.9Z"/><path fill="#153385" stroke="#153385" stroke-linejoin="round" d="m87.04 30.37.08-.22 1.08-.5c-1.64 4.92-4.18 6.51-8.7 8.59 4.01-1.49 6.18-3.82 7.54-7.86v-.01Z"/></svg>