<svg xmlns="http://www.w3.org/2000/svg" fill="none" viewBox="0 0 128 128"><path fill="#F5F7FA" d="M64.82 107.18c23.11 0 41.85-18.74 41.85-41.85 0-23.11-18.74-41.85-41.85-41.85-23.11 0-41.85 18.74-41.85 41.85 0 23.11 18.74 41.85 41.85 41.85Z"/><path stroke="#153385" stroke-miterlimit="10" d="M65.57 36.31c-.12.06-.24.13-.36.19 4.89 2.55 9.46 5.87 13.44 9.85a58.592 58.592 0 0 1 12.14 17.73c3.86-3.1 6.8-6.99 8.97-11.47-8.16-9.85-20.43-16.16-34.19-16.31v.01Z"/><path stroke="#153385" stroke-miterlimit="10" d="M65.21 36.51s-.09.05-.13.07v35.54c11.22-.18 19.61-3.12 25.71-8.03a58.592 58.592 0 0 0-12.14-17.73c-3.98-3.98-8.56-7.3-13.44-9.85Z"/><path stroke="#153385" stroke-miterlimit="10" d="M65.08 94.49c.15 0 .3.01.45.01 11.02 0 21.21-3.1 29.54-8.36.41-7.33-1.15-14.93-4.28-22.05-6.1 4.91-14.49 7.84-25.71 8.03v22.37Zm-1.1-22.35c-10.27 0-18.42-2.64-24.66-7.17-2.75 6.79-4.05 13.99-3.63 20.98 8.28 5.3 18.42 8.45 29.39 8.53V72.11c-.37 0-.73.02-1.1.02v.01Zm1.1-35.57s.09-.05.13-.07c-.04-.02-.09-.04-.13-.07v.14Zm37.09 9.87c-.66 2.16-1.46 4.23-2.4 6.18 2.82 3.41 4.73 6.38 6.73 10.38"/><path stroke="#153385" stroke-miterlimit="10" d="M65.21 36.51c.12-.06.24-.13.36-.19-.16 0-.33-.01-.49-.01v.14s.09.04.13.07v-.01Zm-.13.06v-.13a3.15 3.15 0 0 0-.26-.13c-14.39.08-27.18 6.92-35.37 17.5 2.49 4.41 5.77 8.19 9.87 11.17 2.7-6.68 6.8-12.96 12.06-18.22 4.07-4.07 8.73-7.5 13.7-10.18v-.01Z"/><path stroke="#153385" stroke-miterlimit="10" d="M65.08 72.12V36.57a58.79 58.79 0 0 0-13.7 10.18 55.071 55.071 0 0 0-12.06 18.22c6.24 4.53 14.4 7.17 24.66 7.17.37 0 .73-.02 1.1-.02Zm0-35.82h-.26c.09.04.17.09.26.13v-.14.01Zm-.26.01c-7.38-3.78-15.46-5.81-23.35-5.71a41.993 41.993 0 0 0-14.73 17.39c.77 2.04 1.67 3.98 2.71 5.82 8.19-10.58 20.98-17.42 35.37-17.5Zm.71 58.19c-.15 0-.3 0-.45-.01v12.68a41.683 41.683 0 0 0 28.12-11.1c1.07-3.21 1.68-6.54 1.87-9.93-8.33 5.25-18.53 8.36-29.54 8.36Zm-29.84-8.54c.24 3.97 1.02 7.87 2.41 11.58a41.678 41.678 0 0 0 26.72 9.64h.26V94.5c-10.97-.08-21.12-3.24-29.39-8.53v-.01Z"/><path stroke="#153385" stroke-miterlimit="10" d="M24.34 75.95A41.883 41.883 0 0 0 38.1 97.53c-1.39-3.71-2.18-7.61-2.41-11.58-4.35-2.79-8.19-6.16-11.35-10Zm70.73 10.19c-.19 3.39-.8 6.73-1.87 9.93a41.758 41.758 0 0 0 11.38-17.7c-2.78 2.93-5.98 5.54-9.51 7.77ZM64.82 36.31h.26V23.5h-.26c-8.65 0-16.68 2.62-23.35 7.12 7.89-.1 15.97 1.93 23.35 5.71v-.02Zm.75 0c7.01-3.68 14.62-5.84 22.09-6.04a41.655 41.655 0 0 0-22.58-6.78V36.3c.16 0 .33.01.49.01Z"/><path stroke="#153385" stroke-miterlimit="10" d="M99.76 52.63c.95-1.96 1.74-4.02 2.4-6.18a42.087 42.087 0 0 0-14.5-16.17c-7.47.21-15.08 2.36-22.09 6.04 13.75.15 26.03 6.46 34.19 16.31ZM35.69 85.96c-.42-6.99.88-14.2 3.63-20.98-4.1-2.97-7.38-6.76-9.87-11.17a45.045 45.045 0 0 0-6.48 11.56c0 3.66.48 7.21 1.36 10.59 3.17 3.84 7 7.22 11.35 10h.01Z"/><path stroke="#153385" stroke-miterlimit="10" d="M26.74 47.98a41.737 41.737 0 0 0-3.77 17.35v.03c1.59-4.19 3.78-8.07 6.48-11.56a41.794 41.794 0 0 1-2.71-5.82Z"/><path stroke="#153385" stroke-miterlimit="10" d="M64.82 107.18c23.11 0 41.85-18.74 41.85-41.85 0-23.11-18.74-41.85-41.85-41.85-23.11 0-41.85 18.74-41.85 41.85 0 23.11 18.74 41.85 41.85 41.85Z"/><path stroke="#153385" stroke-miterlimit="10" d="M78.01 25.64c19.82-1.47 36.64 4.51 41.64 17.17 7.19 18.18-11.74 42.71-42.28 54.78S16.25 104.7 9.06 86.52c-4.8-12.15 1.52-27.8 18.29-39.49"/><path fill="#153385" stroke="#153385" stroke-miterlimit="10" d="M44.25 114.98c9.31 0 16.86-7.55 16.86-16.86 0-9.31-7.55-16.86-16.86-16.86-9.31 0-16.86 7.55-16.86 16.86 0 9.31 7.55 16.86 16.86 16.86Z"/><path fill="#fff" stroke="#153385" stroke-miterlimit="10" d="M41.62 113.93c9.31 0 16.86-7.55 16.86-16.86 0-9.31-7.55-16.86-16.86-16.86-9.31 0-16.86 7.55-16.86 16.86 0 9.31 7.55 16.86 16.86 16.86Z"/><path fill="#48EFCF" d="M50.18 104.14c0 4.73-17.12 4.73-17.12 0 0-3.1 1.65-5.81 4.12-7.31a6.167 6.167 0 0 1-1.63-4.18c0-3.42 2.77-6.2 6.2-6.2s6.2 2.77 6.2 6.2c0 1.66-.65 3.17-1.72 4.28a8.544 8.544 0 0 1 3.96 7.21h-.01Z"/><path fill="#153385" stroke="#153385" stroke-miterlimit="10" d="M87.24 48.27c9.31 0 16.86-7.55 16.86-16.86 0-9.31-7.55-16.86-16.86-16.86-9.31 0-16.86 7.55-16.86 16.86 0 9.31 7.55 16.86 16.86 16.86Z"/><path fill="#fff" stroke="#153385" stroke-miterlimit="10" d="M84.61 47.22c9.31 0 16.86-7.55 16.86-16.86 0-9.31-7.55-16.86-16.86-16.86-9.31 0-16.86 7.55-16.86 16.86 0 9.31 7.55 16.86 16.86 16.86Z"/><path fill="#0B64DD" d="M93.17 37.43c0 4.73-17.12 4.73-17.12 0 0-3.1 1.65-5.81 4.12-7.31a6.167 6.167 0 0 1-1.63-4.18c0-3.42 2.77-6.2 6.2-6.2s6.2 2.77 6.2 6.2c0 1.66-.65 3.17-1.72 4.28a8.544 8.544 0 0 1 3.96 7.21h-.01Z"/></svg>