<svg xmlns="http://www.w3.org/2000/svg" fill="none" viewBox="0 0 128 128"><path fill="#153385" stroke="#101C3F" stroke-miterlimit="10" d="M114.314 61.621c.867-.497-1.912-6.97-6.208-14.458-4.295-7.488-8.48-13.154-9.347-12.657-.867.497 1.912 6.97 6.207 14.458 4.296 7.488 8.48 13.155 9.348 12.657ZM21.688 51.417c4.109-7.592 6.727-14.132 5.847-14.607-.879-.476-4.922 5.293-9.03 12.884-4.109 7.592-6.726 14.133-5.847 14.608.879.476 4.922-5.293 9.03-12.885Z"/><path fill="#48EFCF" d="m72.55 89.45 2.64 2.43a3.69 3.69 0 0 1 1.17 3.1l-.03.3a3.67 3.67 0 0 1-2.85 3.2c-.88.2-1.81.07-2.6-.37l-9.45-5.23 11.12-3.43Z"/><mask id="illustration-handshake.light__a" width="16" height="10" x="61" y="89" maskUnits="userSpaceOnUse" style="mask-type:luminance"><path fill="#fff" d="m72.55 89.45 2.64 2.43a3.69 3.69 0 0 1 1.17 3.1l-.03.3a3.67 3.67 0 0 1-2.85 3.2c-.88.2-1.81.07-2.6-.37l-9.45-5.23 11.12-3.43Z"/></mask><g mask="url(#illustration-handshake.light__a)"><path fill="#101C3F" stroke="#101C3F" stroke-miterlimit="10" d="m74.24 90.12-9.64 3.89-1.34-.81 9.72-4.21 1.26 1.13Z"/></g><path stroke="#101C3F" stroke-miterlimit="10" d="m72.55 89.45 2.64 2.43a3.69 3.69 0 0 1 1.17 3.1l-.03.3a3.67 3.67 0 0 1-2.85 3.2c-.88.2-1.81.07-2.6-.37l-9.45-5.23 11.12-3.43Z"/><path fill="#48EFCF" d="m82.55 83.05 5.74 4.23c.98.9 1.48 2.22 1.34 3.55l-.04.34a4.201 4.201 0 0 1-3.26 3.66c-1.01.23-2.06.08-2.97-.42l-10.81-5.98 10-5.37v-.01Z"/><mask id="illustration-handshake.light__b" width="18" height="12" x="72" y="83" maskUnits="userSpaceOnUse" style="mask-type:luminance"><path fill="#fff" d="m82.55 83.05 5.74 4.23c.98.9 1.48 2.22 1.34 3.55l-.04.34a4.201 4.201 0 0 1-3.26 3.66c-1.01.23-2.06.08-2.97-.42l-10.81-5.98 10-5.37v-.01Z"/></mask><g mask="url(#illustration-handshake.light__b)"><path fill="#101C3F" stroke="#101C3F" stroke-miterlimit="10" d="m85.62 85.36-9.64 4.42-1.86-.8 9.73-4.78 1.77 1.16Z"/></g><path stroke="#101C3F" stroke-miterlimit="10" d="m82.55 83.05 5.74 4.23c.98.9 1.48 2.22 1.34 3.55l-.04.34a4.201 4.201 0 0 1-3.26 3.66c-1.01.23-2.06.08-2.97-.42l-10.81-5.98 10-5.37v-.01Z"/><path fill="#48EFCF" d="m92.85 76.44 5.74 4.23c.98.9 1.48 2.22 1.34 3.55l-.04.34a4.201 4.201 0 0 1-3.26 3.66c-1.01.23-2.06.08-2.97-.42l-10.81-5.98 10-5.37v-.01Z"/><mask id="illustration-handshake.light__c" width="18" height="13" x="82" y="76" maskUnits="userSpaceOnUse" style="mask-type:luminance"><path fill="#fff" d="m92.85 76.44 5.74 4.23c.98.9 1.48 2.22 1.34 3.55l-.04.34a4.201 4.201 0 0 1-3.26 3.66c-1.01.23-2.06.08-2.97-.42l-10.81-5.98 10-5.37v-.01Z"/></mask><g mask="url(#illustration-handshake.light__c)"><path fill="#101C3F" stroke="#101C3F" stroke-miterlimit="10" d="m96.61 78.82-9.65 4.99-1.66-1.35 9.21-4.8 2.1 1.16Z"/></g><path stroke="#101C3F" stroke-miterlimit="10" d="m92.85 76.44 5.74 4.23c.98.9 1.48 2.22 1.34 3.55l-.04.34a4.201 4.201 0 0 1-3.26 3.66c-1.01.23-2.06.08-2.97-.42l-10.81-5.98 10-5.37v-.01Z"/><path fill="#48EFCF" d="m97.59 65.13 4.98 3.66c.85.78 1.28 1.92 1.16 3.07l-.03.3a3.648 3.648 0 0 1-2.83 3.17c-.87.2-1.79.07-2.57-.37l-9.37-5.19 8.67-4.66-.01.02Z"/><mask id="illustration-handshake.light__d" width="16" height="11" x="88" y="65" maskUnits="userSpaceOnUse" style="mask-type:luminance"><path fill="#fff" d="m97.59 65.13 4.98 3.66c.85.78 1.28 1.92 1.16 3.07l-.03.3a3.648 3.648 0 0 1-2.83 3.17c-.87.2-1.79.07-2.57-.37l-9.37-5.19 8.67-4.66-.01.02Z"/></mask><g mask="url(#illustration-handshake.light__d)"><path fill="#101C3F" stroke="#101C3F" stroke-miterlimit="10" d="m102.93 69.18-6.36 6.52-2.33-2.01 7.91-5.46.78.95Z"/></g><path stroke="#101C3F" stroke-miterlimit="10" d="m97.59 65.13 4.98 3.66c.85.78 1.28 1.92 1.16 3.07l-.03.3a3.648 3.648 0 0 1-2.83 3.17c-.87.2-1.79.07-2.57-.37l-9.37-5.19 8.67-4.66-.01.02Z"/><path fill="#0B64DD" stroke="#101C3F" stroke-miterlimit="10" d="M95.7 37.52s-4.78 1.55-9.69 0c-4.91-1.55-12.02-4.13-18.73-3.1-6.72 1.03-46.91 33.02-46.91 33.02s-3.87 1.98-1.78 6.27c2.28 4.68 7.98 1.64 7.98 1.64s-5.85 2.27-5.67 5.89c.19 3.78 2.87 5.91 6.39 4.95 3.51-.96 10.54-3.59 10.54-3.59s-6.15 2.25-5.82 5.57c.35 3.61 2.55 5.21 5.59 4.57 3.03-.64 10.54-3.43 10.54-3.43s-2.19 1.97-.07 5.71c1.17 2.06 5.58 2.27 11.01.12s27.07-10.29 33.7-15.88c3.29-2.78 11.3-15.21 15.01-16.52.77-.27 1.52-.58 2.26-.95l3.78-1.88-14.16-24.43-3.93 2.04h-.04Z"/><path fill="#48EFCF" stroke="#101C3F" stroke-miterlimit="10" d="M114.52 61.42 99.15 34.36l8.88-4.7 15.84 26.62-9.35 5.14Z"/><path fill="#48EFCF" d="M25.94 38.08s4.5 1.91 9.95.32c5.46-1.58 18.23-7.74 26.45-5.98 0 0 12.19 1.68 14.7 6.69 2.51 5.01-2.5 8.31-10.93 6.49 0 0-4.55-.81-5.58.51 0 0-.88.84-3.01 2.11s-3.93.11-27.14 13.09l-10.01 6.15s-4.78-5.12-7.06-5.8L25.94 38.1v-.02Z"/><mask id="illustration-handshake.light__e" width="65" height="36" x="13" y="32" maskUnits="userSpaceOnUse" style="mask-type:luminance"><path fill="#fff" d="M25.94 38.08s4.5 1.91 9.95.32c5.46-1.58 18.23-7.74 26.45-5.98 0 0 12.19 1.68 14.7 6.69 2.51 5.01-2.5 8.31-10.93 6.49 0 0-4.55-.81-5.58.51 0 0-.88.84-3.01 2.11s-3.93.11-27.14 13.09l-10.01 6.15s-4.78-5.12-7.06-5.8L25.94 38.1v-.02Z"/></mask><g mask="url(#illustration-handshake.light__e)"><path fill="#101C3F" d="M67.7 45.66s-10.71-2.33-14.28-.2c-7.22 4.31-6.34 6.93-6.34 6.93l5.34.65 11.7-7.67"/></g><path stroke="#101C3F" stroke-miterlimit="10" d="M25.94 38.08s4.5 1.91 9.95.32c5.46-1.58 18.23-7.74 26.45-5.98 0 0 12.19 1.68 14.7 6.69 2.51 5.01-2.5 8.31-10.93 6.49 0 0-4.55-.81-5.58.51 0 0-.88.84-3.01 2.11s-3.93.11-27.14 13.09l-10.01 6.15s-4.78-5.12-7.06-5.8L25.94 38.1v-.02Zm10.69 44.97 17.24-7.99m-6.62 14.72 12.35-5.71m-33.19-8.64L48.5 64.04"/><path fill="#0B64DD" stroke="#101C3F" stroke-miterlimit="10" d="M27.26 36.73 12.33 64.04l-8.67-5.08 14.3-27.47 9.3 5.24Z"/></svg>