<svg xmlns="http://www.w3.org/2000/svg" fill="none" viewBox="0 0 128 128"><path fill="#153385" stroke="#101C3F" stroke-miterlimit="10" d="m63.99 115.36-5.68-5.62C45.1 96.53 34.75 81.13 21.68 67.77c-7.6-7.68-9.86-17.04-6.53-27.39 3.32-10.36 10.52-16.44 21.07-18.32 9.15-1.65 17.2 1 23.91 7.44 1.9 1.85 3.72 3.72 5.62 5.62.24.29.45.6.63.93 1.34-1.35 2.48-2.48 3.6-3.63 2.16-2.38 4.57-4.54 7.18-6.42a26.98 26.98 0 0 1 12.54-4.38c4.48-.39 8.99.33 13.12 2.11a27.112 27.112 0 0 1 15.97 20.22 26.2 26.2 0 0 1-7.67 24.16 14112.39 14112.39 0 0 1-44.09 44.13L64 115.38l-.01-.02Z"/><path fill="#48EFCF" stroke="#101C3F" stroke-miterlimit="10" d="m62.29 113.55-5.21-5.28C43.87 95.06 30.59 81.96 17.52 68.59c-7.6-7.68-9.85-17.04-6.53-27.4 3.32-10.35 10.53-16.43 21.08-18.31 9.15-1.65 17.2 1 23.91 7.44 1.9 1.85 3.72 3.72 5.62 5.62.24.29.45.6.63.93 1.34-1.35 2.48-2.48 3.6-3.63 2.16-2.38 4.57-4.54 7.18-6.42a26.98 26.98 0 0 1 12.54-4.38c4.48-.39 8.99.33 13.12 2.11a27.112 27.112 0 0 1 15.97 20.22c.87 4.35.62 8.84-.72 13.07a26.14 26.14 0 0 1-6.95 11.09 14112.39 14112.39 0 0 1-44.09 44.13l-.58.51-.01-.02Z"/><path fill="#101C3F" stroke="#101C3F" stroke-miterlimit="10" d="m80.72 87.34-3.69-2.39a.677.677 0 0 1-.2-.24.765.765 0 0 1-.06-.3c.09-.67.12-1.35.1-2.02-.02-.68-.09-1.36-.21-2.02a.578.578 0 0 1 .22-.56l3.5-2.62a.59.59 0 0 0 .22-.35c.03-.14 0-.28-.07-.4l-4.39-6.16a.569.569 0 0 0-.32-.25.508.508 0 0 0-.4.04l-3.91 1.97c-.1.05-.21.07-.31.05a.744.744 0 0 1-.29-.12c-1.08-.82-1.37-1.05-2.64-1.5l-.35-.42-.54-4.36a.544.544 0 0 0-.18-.36.535.535 0 0 0-.38-.13l-6.77.2c-.14 0-.28.06-.38.16-.1.1-.16.23-.17.37l-.25 4.37c0 .1-.04.19-.1.28-.06.08-.14.14-.23.18-1.25.53-2.41 1.25-3.44 2.14-.08.07-.18.12-.28.14-.1.02-1.54-.15-1.64-.2l-4.02-1.73a.553.553 0 0 0-.4-.01.53.53 0 0 0-.3.27l-1.89 6.12a.582.582 0 0 0 .2.74l3.64 2.41c.09.06.16.14.21.23.05.09.06.2.05.31-.17 1.35-.13 2.71.13 4.05.01.1 0 .2-.04.3a.55.55 0 0 1-.19.24l-3.48 2.63c-.11.08-.19.2-.22.34s0 .28.08.4l2.32 6.14a.574.574 0 0 0 .74.2l3.91-1.95c.09-.06 1.42-.46 1.53-.46.11 0 .21.03.3.08 1.08.82 2.28 1.47 3.57 1.93.09.03.18.09.24.16s.1.17.12.26l.52 4.36c.02.14.09.27.19.36.11.09.25.14.39.14l6.75-.21c.14 0 .28-.05.38-.15.1-.1.16-.23.17-.37l.25-4.39c0-.1.04-.19.1-.27.06-.08.13-.14.22-.18 1.26-.52 2.43-1.24 3.45-2.14.08-.07.18-.11.29-.13.11-.02-.11.56-.01.61l4.01 1.77c.13.06.6-.5.73-.54.13-.04-.08.43 0 .3l3.52-6.52c.06-.13.07-.28.03-.42a.537.537 0 0 0-.26-.33l-.07-.05ZM63.8 89.39c-3.74 0-6.78-3.04-6.78-6.78s3.04-6.78 6.78-6.78 6.78 3.04 6.78 6.78-3.04 6.78-6.78 6.78Zm-6.33-39.18L61 55l-.26.38-8.26 5.59-8.55 5.8a13.177 13.177 0 0 1-7.4 2.27c-.83.02-1.67-.04-2.49-.17a13.16 13.16 0 0 1-9.85-8.24l-4.7-12.06 5.67-2.29 4.7 12.06c.35.91.88 1.75 1.57 2.45.69.7 1.52 1.25 2.43 1.61.91.37 1.89.54 2.87.5.98-.03 1.95-.27 2.83-.7-1.59-.7-3.03-1.7-4.23-2.96a13.32 13.32 0 0 1-2.77-4.36l-6.98-17.41 5.71-2.29 7 17.44c.35.92.88 1.76 1.57 2.46.69.7 1.52 1.25 2.43 1.62.91.36 1.89.53 2.87.5.98-.04 1.94-.27 2.83-.7-1.59-.7-3.02-1.71-4.22-2.97a13.13 13.13 0 0 1-2.76-4.36l-7.4-19.6 5.75-2.15L46.76 47c.38.99.98 1.88 1.76 2.61.77.73 1.7 1.27 2.72 1.59a7.1 7.1 0 0 0 3.14.25 6.98 6.98 0 0 0 2.94-1.14l.15-.1Z"/><path fill="#0B64DD" stroke="#101C3F" stroke-miterlimit="10" d="m59.07 56.11.14-.1L56 51.5c-1 .4-2.28.5-3.33.65a7.1 7.1 0 0 1-3.14-.25 6.982 6.982 0 0 1-2.72-1.59 7.014 7.014 0 0 1-1.76-2.61l-7.4-19.58-5.75 2.15 7.4 19.6c.62 1.62 1.56 3.1 2.76 4.36 1.2 1.26 2.63 2.27 4.22 2.97-.89.43-1.85.66-2.83.7-.98.03-1.96-.14-2.87-.5-.91-.37-1.74-.92-2.43-1.62-.69-.7-1.22-1.54-1.57-2.46l-7-17.44-5.71 2.29 6.98 17.41c.63 1.62 1.57 3.1 2.77 4.36 1.2 1.26 2.64 2.26 4.23 2.96-.88.43-1.85.67-2.83.7a6.88 6.88 0 0 1-2.87-.5 7.07 7.07 0 0 1-2.43-1.61c-.69-.7-1.22-1.54-1.57-2.45l-4.7-12.06-5.67 2.29 4.7 12.06a13.16 13.16 0 0 0 9.85 8.24c.82.13 1.66.19 2.49.17 2.64 0 5.22-.79 7.4-2.27l8.55-5.8 8.26-5.59.04.02v.01Zm20.05 31.23-3.69-2.39a.677.677 0 0 1-.2-.24.765.765 0 0 1-.06-.3c.09-.67.12-1.35.1-2.02-.02-.68-.09-1.36-.21-2.02a.578.578 0 0 1 .22-.56l3.5-2.62a.59.59 0 0 0 .22-.35c.03-.14 0-.28-.07-.4l-3.48-5.75a.569.569 0 0 0-.32-.25.508.508 0 0 0-.4.04l-3.91 1.97c-.1.05-.21.07-.31.05a.744.744 0 0 1-.29-.12c-1.08-.82-2.28-1.46-3.55-1.91l-.35-.42-.54-4.36a.544.544 0 0 0-.18-.36.535.535 0 0 0-.38-.13l-6.77.2c-.14 0-.28.06-.38.16-.1.1-.16.23-.17.37l-.25 4.37c0 .1-.04.19-.1.28-.06.08-.14.14-.23.18-1.25.53-2.41 1.25-3.44 2.14-.08.07-.18.12-.28.14-.1.02-.21 0-.31-.04l-4.02-1.73a.553.553 0 0 0-.4-.01.53.53 0 0 0-.3.27l-3.21 5.96a.582.582 0 0 0 .2.74l3.64 2.41c.09.06.16.14.21.23.05.09.06.2.05.31-.17 1.35-.13 2.71.13 4.05.01.1 0 .2-.04.3a.55.55 0 0 1-.19.24l-3.48 2.63c-.11.08-.19.2-.22.34s0 .28.08.4l3.55 5.76a.574.574 0 0 0 .74.2l3.91-1.95a.61.61 0 0 1 .6 0c1.08.82 2.28 1.47 3.57 1.93.09.03.18.09.24.16s.1.17.12.26l.52 4.36c.02.14.09.27.19.36.11.09.25.14.39.14l6.75-.21c.14 0 .28-.05.38-.15.1-.1.16-.23.17-.37l.25-4.39c0-.1.04-.19.1-.27.06-.08.13-.14.22-.18 1.26-.52 2.43-1.24 3.45-2.14.08-.07.18-.11.29-.13.11-.02.21 0 .31.04l4.01 1.77c.13.06.27.06.41.02.13-.04.25-.14.31-.26l3.2-5.96c.06-.13.07-.28.03-.42a.537.537 0 0 0-.26-.33l-.07-.04ZM62.2 89.39c-3.74 0-6.78-3.04-6.78-6.78s3.04-6.78 6.78-6.78 6.78 3.04 6.78 6.78-3.04 6.78-6.78 6.78Z"/><path fill="#101C3F" stroke="#101C3F" stroke-miterlimit="10" d="m94.46 62.1 3.59 2.85c.16.1.35.14.53.11.18-.03.35-.13.47-.27l5.08-5.12c.13-.13.21-.3.23-.49a.743.743 0 0 0-.15-.52l-2.83-3.86.51-1.41 4.73-.72a.778.778 0 0 0 .66-.76v-6.03a.778.778 0 0 0-.66-.76l-4.73-.72-.47-1.45 2.83-3.86c.09-.15.14-.32.12-.5a.796.796 0 0 0-.22-.46l-5.2-4.87a.804.804 0 0 0-.49-.23.813.813 0 0 0-.52.15L94 36.07l-.48.08-.72-4.73a.778.778 0 0 0-.76-.66h-6.03a.778.778 0 0 0-.76.66l-.72 4.73-1.45.42-5.23-3.06a.796.796 0 0 0-.52-.15c-.18.01-.36.09-.49.23l-2.94 4.53c-.13.13-.21.3-.23.49-.02.19.04.37.15.52l2.83 3.86-.47 1.45-4.73.72a.778.778 0 0 0-.66.76v6.03a.778.778 0 0 0 .66.76l4.73.72.47 1.45-2.83 3.86c-.11.15-.16.33-.15.52.01.18.38 2.51.51 2.64l2.99 2.97c.13.13.3.21.49.23.18.01.37-.04.52-.15l4.89-3.64 1.45.42.72 4.73a.778.778 0 0 0 .76.66h6.03a.778.778 0 0 0 .76-.66l.72-4.73.94.37h.01Zm.9-10.21a6.984 6.984 0 0 1-9.31 3.3 6.984 6.984 0 0 1-3.3-9.31 6.967 6.967 0 0 1 9.3-3.3 6.975 6.975 0 0 1 3.3 9.3l.01.01Z"/><path fill="#0B64DD" stroke="#101C3F" stroke-miterlimit="10" d="m93.11 61.31 3.86 2.83c.16.1.35.14.53.11.18-.03.35-.13.47-.27l4.31-4.31c.13-.13.21-.3.23-.49a.743.743 0 0 0-.15-.52l-2.83-3.86.51-1.41 4.73-.72a.778.778 0 0 0 .66-.76v-6.03a.778.778 0 0 0-.66-.76l-4.73-.72-.47-1.45 2.83-3.86c.09-.15.14-.32.12-.5a.796.796 0 0 0-.22-.46l-4.31-4.31a.804.804 0 0 0-.49-.23.813.813 0 0 0-.52.15l-3.86 2.83-1.45-.42-.72-4.73a.778.778 0 0 0-.76-.66h-6.03a.778.778 0 0 0-.76.66l-.72 4.73-1.45.42-3.86-2.83a.796.796 0 0 0-.52-.15c-.18.01-.36.09-.49.23l-4.31 4.31c-.13.13-.21.3-.23.49-.02.19.04.37.15.52L74.8 43l-.47 1.45-4.73.72a.778.778 0 0 0-.66.76v6.03a.778.778 0 0 0 .66.76l4.73.72.47 1.45-2.83 3.86c-.11.15-.16.33-.15.52.01.18.09.36.23.49l4.31 4.31c.13.13.3.21.49.23.18.01.37-.04.52-.15l3.86-2.83 1.45.42.72 4.73a.778.778 0 0 0 .76.66h6.03a.778.778 0 0 0 .76-.66l.72-4.73 1.33-.43h.11Zm.39-9.42a6.984 6.984 0 0 1-9.31 3.3 6.984 6.984 0 0 1-3.3-9.31 6.967 6.967 0 0 1 9.3-3.3 6.975 6.975 0 0 1 3.3 9.3l.01.01Z"/></svg>