<svg xmlns="http://www.w3.org/2000/svg" fill="none" viewBox="0 0 128 128"><path fill="#F5F7FA" stroke="#153385" stroke-miterlimit="10" d="M86.387 83.774v13.955c0 6.943-17.695 12.568-39.511 12.568-21.816 0-39.501-5.625-39.501-12.568V83.774h79.012Z"/><path fill="#F5F7FA" stroke="#153385" stroke-miterlimit="10" d="M86.386 68.774V82.73c0 6.943-17.694 12.568-39.51 12.568S7.366 89.662 7.366 82.73V68.774h79.019Z"/><path fill="#F5F7FA" stroke="#153385" stroke-miterlimit="10" d="M86.387 54.097v13.955c0 6.943-17.695 12.568-39.511 12.568-21.816 0-39.501-5.625-39.501-12.568V54.097h79.012Z"/><path fill="#F5F7FA" stroke="#153385" stroke-miterlimit="10" d="M86.386 54.107V66.02c-3.623 2.226-7.831 3.515-12.343 3.437-9.424-.166-17.714-6.425-20.175-15.351h32.518Z"/><path fill="#fff" stroke="#153385" stroke-miterlimit="10" d="M46.876 66.655c21.82 0 39.51-5.622 39.51-12.558S68.696 41.54 46.876 41.54c-21.821 0-39.51 5.622-39.51 12.558s17.689 12.558 39.51 12.558Z"/><path fill="#0B64DD" stroke="#153385" stroke-miterlimit="10" stroke-width=".81" d="M86.386 54.107V66.02c-3.623 2.226-7.831 3.515-12.343 3.437-9.424-.166-17.714-6.425-20.175-15.351h32.518Z"/><path fill="#153385" stroke="#153385" stroke-miterlimit="10" d="M77.666 54.097c0 .674-.45 1.338-1.27 1.953-3.788-2.822-15.565-4.892-29.51-4.892-13.945 0-25.732 2.06-29.521 4.892-.83-.615-1.27-1.279-1.27-1.953 0-3.76 13.78-6.816 30.79-6.816 17.012 0 30.781 3.047 30.781 6.816Z"/><path fill="#0B64DD" stroke="#153385" stroke-miterlimit="10" stroke-width=".81" d="M86.386 54.097c0 5.215-9.97 9.687-24.179 11.582a20.882 20.882 0 0 1-5.263-5.137c9.326-.713 16.61-2.392 19.443-4.492.83-.615 1.27-1.28 1.27-1.953 0-3.281-10.508-6.035-24.502-6.68a21.43 21.43 0 0 1 1.035-5.663c18.33 1.093 32.196 6.2 32.196 12.343Z"/><path fill="#F5F7FA" stroke="#153385" stroke-miterlimit="10" d="M76.387 56.05c-3.79 2.813-15.566 4.863-29.511 4.863-13.945 0-25.732-2.05-29.52-4.863 3.788-2.822 15.565-4.892 29.52-4.892s25.722 2.06 29.51 4.892Z"/><path fill="#153385" stroke="#153385" stroke-miterlimit="10" stroke-width=".81" d="M77.656 54.097c0 .674-.44 1.338-1.27 1.953-3.193-2.382-12.04-4.218-23.075-4.746-.01-.049-.01-.087-.02-.136a21.094 21.094 0 0 1-.136-3.75c13.994.644 24.501 3.398 24.501 6.68Z"/><path fill="#0B64DD" stroke="#153385" stroke-miterlimit="10" stroke-width=".81" d="M76.387 56.05c-2.832 2.1-10.117 3.78-19.443 4.492a20.178 20.178 0 0 1-3.633-9.238c11.035.527 19.882 2.363 23.076 4.746Z"/><path fill="#153385" stroke="#153385" stroke-miterlimit="10" stroke-width=".81" d="M53.223 50.591c.567 5.928 3.125 10.41 6.738 13.477a20.42 20.42 0 0 1-3.183-8.662c-2.412-19.58 22.02-34.657 37.694-21.884-5.244-7.295-14.882-11.377-25.272-7.55-9.961 3.673-17.022 13.917-15.977 24.62Z"/><path fill="#48EFCF" stroke="#153385" stroke-miterlimit="10" stroke-width=".81" d="M92.822 21.168C71.26 8.288 42.902 28.141 45.87 52.554 47.852 68.53 63.252 78.93 78.809 76.46c25.643-4.072 38.915-40.419 14.013-55.301v.01Zm-1.201 8.526c16.23 14.12 2.168 40.106-17.578 39.764-10.42-.186-19.472-7.832-20.751-18.29C50.84 31.304 75.957 16.05 91.62 29.693Z"/><path fill="#153385" stroke="#153385" stroke-miterlimit="10" stroke-width=".81" d="M78.818 76.46c-9.872 1.572-19.667-2.05-26.024-8.984 10.576 18.652 41.22 16.923 52.625-2.852 6.397-11.093 4.707-22.597-1.357-30.926 7.129 16.923-5.322 39.588-25.253 42.752l.01.01Z"/><path fill="#153385" stroke="#153385" stroke-miterlimit="10" d="M110.263 100.717a5.204 5.204 0 0 0 7.285.937 5.204 5.204 0 0 0 .937-7.285l-17.792-23.017c-1.758-2.265-5.02-2.685-7.285-.937-2.266 1.758-2.686 5.02-.938 7.285l17.793 23.017Z"/><path fill="#48EFCF" stroke="#153385" stroke-miterlimit="10" d="M111.698 99.613c1.758 2.266 5.02 2.686 7.285.938 2.266-1.758 2.686-5.02.938-7.285l-17.793-23.017a5.203 5.203 0 0 0-7.285-.938c-2.265 1.758-2.685 5.02-.937 7.285l17.792 23.017Z"/></svg>