<svg xmlns="http://www.w3.org/2000/svg" fill="none" viewBox="0 0 128 128"><path fill="#F5F7FA" d="M83.92 116.26c13.42 4.98 23.32-4.16 23.32-4.16-1.15-2.67-1.72-4.67-2.23-6.42-3.18-10.82-.02-16.59 3.26-23.44 2.25-4.7-.12-9.16 6.82-23.31 3.01-6.13-3.88-10.4-9.35 1.9-.97 2.19-2.94 3.89-5.15 5.55l-.18.16c-1.79-6.05-4.61-26.35-5.61-32.58-1.12-6.97-8.88-6.57-7.65 1.05l-1.02-6.21c-1.07-5.51-7.62-5.1-8.52.52l-.04.43c-.5-.47-7.56-1.35-6.56 6.83.1.83.82 6.02.82 6.02-.44-.58-6.51-1.48-4.98 6.81.64 3.46 3.2 17.89 3.64 24.44 1.67 24.47 9.32 23.22 11.29 31.08.35 1.4 2.13 11.34 2.13 11.34l.01-.01Zm6.29-54.57C89.82 50.01 87.16 35 87.16 35l3.05 26.69Zm-7.77 1.08c-.08-6.18-4.78-31.66-4.99-33.05l4.99 33.05Zm-7.17 1.99c-.21-5.8-3.43-22.03-3.43-22.03l3.43 22.03Z"/><path stroke="#153385" stroke-miterlimit="10" d="M90.21 61.69C89.82 50.01 87.16 35 87.16 35m-4.72 27.77c-.08-6.18-4.78-31.66-4.99-33.05m-2.18 35.04c-.21-5.8-3.43-22.03-3.43-22.03m12.08 73.53c13.42 4.98 23.32-4.16 23.32-4.16-1.15-2.67-1.72-4.67-2.23-6.42-3.18-10.82-.02-16.59 3.26-23.44 2.25-4.7-.12-9.16 6.82-23.31 3.01-6.13-3.88-10.4-9.35 1.9-.97 2.19-2.94 3.89-5.15 5.55l-.18.16c-1.79-6.05-4.61-26.35-5.61-32.58-1.12-6.97-8.88-6.57-7.65 1.05l-1.02-6.21c-1.07-5.51-7.62-5.1-8.52.52l-.04.43c-.5-.47-7.56-1.35-6.56 6.83.1.83.82 6.02.82 6.02-.44-.58-6.51-1.48-4.98 6.81.64 3.46 3.2 17.89 3.64 24.44 1.67 24.47 9.32 23.22 11.29 31.08.35 1.4 2.13 11.34 2.13 11.34l.01-.01Z"/><path stroke="#153385" stroke-miterlimit="10" d="M100.36 66.6c-1.31 1.53-10.51 5.68-9.28 13.74"/><path fill="#48EFCF" stroke="#153385" stroke-miterlimit="10" d="M25.34 85.31c-.77 8.64 4.4 9.48 1.16 20.95-.6 2.14-3.03 8.78-3.03 8.78s8.2 11.47 22.72 3.86c0 0 4.73-14.85 7.81-17.23 3.51-2.72 6.16-6.61 7.62-16.05C63.08 76.09 63.08 67 63.42 61c.44-7.65-.24-11.29-2.41-11.64-1.42-.23-2.81.27-3.77 1.87.14-2.07.27-7.45-.01-11.29-.17-2.3-.66-5.01-3.52-5.35-1.25-.15-2.14.47-2.78 1.49.4-3.48-.73-7.8-3.55-8.15-1.45-.18-3.45.33-4.13 4.84-.19 1.24-.43 4.3-.72 8.1.31-6.44-1.81-10.04-4.97-7.95-2.47 1.62-2.86 9.75-3.36 16.95-.46 6.47-1.46 13.23-2.38 18.75-2.07-7.58-5.17-12.52-8.3-11.54-3.5 1.1-1.97 6.33-.93 10.7 1.03 4.37 3.17 12.86 2.75 17.52v.01Z"/><path fill="#48EFCF" d="M30.04 77.25c.76-2.34 1.81-8.34 2.02-10.11l-2.02 10.11Z"/><path stroke="#153385" stroke-miterlimit="10" d="M30.04 77.25c.76-2.34 1.81-8.34 2.02-10.11"/><path fill="#48EFCF" d="M42.55 40.88s-1.27 16.86-2.96 26.66l2.96-26.66Z"/><path stroke="#153385" stroke-miterlimit="10" d="M42.55 40.88s-1.27 16.86-2.96 26.66"/><path fill="#48EFCF" d="M51 35.68s-1.44 24.14-3.86 34.3L51 35.68Z"/><path stroke="#153385" stroke-miterlimit="10" d="M51 35.68s-1.44 24.14-3.86 34.3"/><path fill="#48EFCF" d="M57.35 50.85c-.66 7.01-1.88 16.17-3.02 20.96l3.02-20.96Z"/><path stroke="#153385" stroke-miterlimit="10" d="M57.35 50.85c-.66 7.01-1.88 16.17-3.02 20.96"/><path stroke="#153385" stroke-linecap="round" stroke-miterlimit="10" d="M62.46 29.17 61.05 9.4M47.77 22.66l-2.79-7.92m30.25 8.35 2.53-11.77"/><path fill="#153385" d="M104.91 113.62s-4.77-11.14-1.01-20.54c0 0-.97 12.31 3.35 19.03l-2.34 1.51Zm-63.83 7.14s7.74-11.67 10.21-15.6c.2-.33.37-.6.5-.81 1.63-2.71-5.59 14.55-5.59 14.55l-5.12 1.85v.01Z"/></svg>