<svg xmlns="http://www.w3.org/2000/svg" fill="none" viewBox="0 0 128 128"><path fill="#153385" stroke="#101C3F" stroke-miterlimit="10" d="m116.09 33.74-14.9 60.79a3.295 3.295 0 0 1-3.2 2.51H19.73c-2.15 0-3.73-2.04-3.19-4.12l15.42-59.08h-.03l-.03-6.03c0-1.82 1.47-3.3 3.29-3.3h23.56c1.55 0 2.88 1.08 3.21 2.58a3.285 3.285 0 0 0 3.21 2.58h47.7c2.14 0 3.71 2 3.2 4.08l.096-.75-.076.74Z"/><path fill="#0B64DD" stroke="#101C3F" stroke-miterlimit="10" d="m100.84 33.01-.03 60.67c0 1.82-1.48 3.3-3.3 3.3H17.84c-1.82 0-3.3-1.48-3.3-3.3l.02-59.79h-.03l-.03-6.02c0-1.83 1.47-3.31 3.3-3.31h23.96c1.55 0 2.88 1.07 3.22 2.58a3.287 3.287 0 0 0 3.22 2.58h49.34c1.82 0 3.3 1.48 3.3 3.3v-.01Z"/><path fill="#101C3F" stroke="#101C3F" stroke-miterlimit="10" d="M58.25 46.59c9.31-3.43 17.96.23 22.65 6.76-14.05-11.45-35.95 2.06-33.78 19.62.35 2.86 1.36 5.49 2.85 7.76-3.24-2.75-5.53-6.76-6.04-12.08-.93-9.6 5.39-18.78 14.32-22.06Z"/><path fill="#48EFCF" stroke="#101C3F" stroke-miterlimit="10" d="M37.34 70.4c1.78 14.32 15.58 23.64 29.52 21.43 22.98-3.65 34.88-36.23 12.56-49.56C60.1 30.73 34.67 48.53 37.34 70.4Zm41.01-20.48c14.54 12.65 1.95 35.94-15.76 35.64-9.34-.16-17.45-7.02-18.6-16.39C41.8 51.38 64.31 37.7 78.35 49.92Z"/><path fill="#153385" stroke="#101C3F" stroke-miterlimit="10" d="M66.86 91.83c17.86-2.84 29.02-23.15 22.63-38.32 5.44 7.46 6.95 17.78 1.22 27.71-10.22 17.72-37.69 19.28-47.17 2.55 5.7 6.21 14.48 9.45 23.32 8.05v.01Z"/><path fill="#153385" stroke="#101C3F" stroke-miterlimit="10" d="M95.998 117.455a5.09 5.09 0 0 0 8.055-6.225L86.624 88.68a5.09 5.09 0 0 0-8.055 6.225l17.429 22.55Z"/><path fill="#48EFCF" stroke="#101C3F" stroke-miterlimit="10" d="M97.409 116.37a5.09 5.09 0 0 0 8.054-6.226l-17.428-22.55a5.09 5.09 0 0 0-8.055 6.226l17.429 22.55Z"/><path stroke="#fff" stroke-linecap="round" stroke-miterlimit="10" d="M56 59.94h18.95M56 66.98h18.95M56 74.03h18.95"/></svg>