<svg xmlns="http://www.w3.org/2000/svg" fill="none" viewBox="0 0 128 128"><path fill="#101C3F" stroke="#101C3F" stroke-miterlimit="10" d="M95.77 21.5H13.48a4.98 4.98 0 0 0-4.98 4.98v48.9a4.98 4.98 0 0 0 4.98 4.98h82.29a4.98 4.98 0 0 0 4.98-4.98v-48.9a4.98 4.98 0 0 0-4.98-4.98Z"/><path fill="#F5F7FA" stroke="#101C3F" stroke-miterlimit="10" d="M92.8 21.5H13.48a4.98 4.98 0 0 0-4.98 4.98v46.37a4.98 4.98 0 0 0 4.98 4.98H92.8a4.98 4.98 0 0 0 4.98-4.98V26.48a4.98 4.98 0 0 0-4.98-4.98Z"/><path fill="#48EFCF" stroke="#101C3F" stroke-miterlimit="10" d="M69.13 31.73H54.69v37.16h14.44V31.73ZM49.8 39.86H35.36v26.2H49.8v-26.2Zm-19.33 8.67H16.03v20.36h14.44V48.53Z"/><path stroke="#101C3F" stroke-miterlimit="10" d="M13.28 68.89h79"/><path fill="#48EFCF" stroke="#101C3F" stroke-miterlimit="10" d="M88.46 48.53H74.02v20.36h14.44V48.53Z"/><path fill="#101C3F" stroke="#101C3F" stroke-miterlimit="10" d="M115.39 59.35H37.01a4.29 4.29 0 0 0-4.29 4.29v37.83a4.29 4.29 0 0 0 4.29 4.29h78.38a4.29 4.29 0 0 0 4.29-4.29V63.64a4.29 4.29 0 0 0-4.29-4.29Z"/><path fill="#fff" stroke="#101C3F" stroke-miterlimit="10" d="M112.59 59.35H37.01a4.29 4.29 0 0 0-4.29 4.29v35.83a4.29 4.29 0 0 0 4.29 4.29h75.58a4.29 4.29 0 0 0 4.29-4.29V63.64a4.29 4.29 0 0 0-4.29-4.29Z"/><path fill="#0B64DD" stroke="#101C3F" stroke-miterlimit="10" d="M47.88 68.97h-7.44c-.63 0-1.14.51-1.14 1.14v.05c0 .63.51 1.14 1.14 1.14h7.44c.63 0 1.14-.51 1.14-1.14v-.05c0-.63-.51-1.14-1.14-1.14Zm-.24 2.33h-6.97v6.97h6.97V71.3Z"/><path stroke="#101C3F" stroke-miterlimit="10" d="M39.3 78.27h9.71m-4.86 0v4.09"/><path stroke="#101C3F" stroke-linecap="round" stroke-miterlimit="10" d="M53.92 74.78h41.17M39.3 88.27h16.47m7.06-.09h43.15m-66.68 8.1h32.95m7.16-.09h20.17"/></svg>