<svg xmlns="http://www.w3.org/2000/svg" fill="none" viewBox="0 0 128 128"><mask id="illustration-insights-files.dark__a" width="112" height="100" x="-3" y="16" maskUnits="userSpaceOnUse" style="mask-type:luminance"><path fill="#fff" d="M108.1 16H-3v99.14h111.1V16Z"/></mask><g mask="url(#illustration-insights-files.dark__a)"><path fill="#F5F7FA" stroke="#153385" stroke-linecap="round" stroke-linejoin="round" d="M107.6 36.23 87.93 16.5H30.7v98.14h76.9V36.23Z"/><path fill="#0B64DD" stroke="#153385" stroke-linejoin="round" d="M87.9 16.5v20.06l19.7-.33L87.9 16.5Z"/><path fill="#153385" d="m87.9 36.93 19.7 5.81v-6.18l-19.7.37Zm-67.08 65.29h63.23c3.57 0 6.46-2.89 6.46-6.46V51.57c0-3.57-2.89-6.46-6.46-6.46H20.82c-3.57 0-6.46 2.89-6.46 6.46v44.19c0 3.57 2.89 6.46 6.46 6.46Z"/><path stroke="#153385" stroke-miterlimit="10" d="M20.82 102.22h63.23c3.57 0 6.46-2.89 6.46-6.46V51.57c0-3.57-2.89-6.46-6.46-6.46H20.82c-3.57 0-6.46 2.89-6.46 6.46v44.19c0 3.57 2.89 6.46 6.46 6.46Z"/><path fill="#fff" d="M20.64 100.02H83c3.46 0 6.27-2.81 6.27-6.27V51.6c0-3.46-2.81-6.27-6.27-6.27H20.64c-3.46 0-6.27 2.81-6.27 6.27v42.15c0 3.46 2.81 6.27 6.27 6.27Z"/><path fill="#0B64DD" stroke="#153385" stroke-miterlimit="10" d="M106.12 63.17h.01-.01Z"/><path stroke="#153385" stroke-miterlimit="10" d="M33.72 63.17c9.06 0 9.06 20.65 18.11 20.65 9.05 0 9.05-32.32 18.1-32.32s9.05 32.32 18.1 32.32c.44 0 .84-.06 1.24-.15V51.6c0-3.46-2.81-6.27-6.27-6.27H20.64c-3.46 0-6.27 2.81-6.27 6.27v32.07c.4.09.8.15 1.24.15 9.06 0 9.06-20.65 18.11-20.65Z"/><path fill="#48EFCF" stroke="#153385" stroke-miterlimit="10" d="M20.64 100.02H83c3.46 0 6.27-2.81 6.27-6.27V83.67c-.4.09-.8.15-1.24.15-9.05 0-9.05-32.32-18.1-32.32s-9.05 32.32-18.1 32.32-9.05-20.65-18.11-20.65c-9.06 0-9.05 20.65-18.11 20.65-.44 0-.84-.06-1.24-.15v10.08c0 3.46 2.81 6.27 6.27 6.27Z"/><path stroke="#153385" stroke-miterlimit="10" d="M40.67 26.54h21.86m-21.86 9.29h35.3"/></g></svg>