<svg xmlns="http://www.w3.org/2000/svg" fill="none" viewBox="0 0 128 128"><mask id="illustration-lateral-movement.light__a" width="115" height="92" x="5" y="20" maskUnits="userSpaceOnUse" style="mask-type:luminance"><path fill="#fff" d="M119.71 20H5v91.35h114.71V20Z"/></mask><g mask="url(#illustration-lateral-movement.light__a)"><path fill="#153385" stroke="#101C3F" stroke-miterlimit="10" d="m75.86 67.1-3.44 12.12h25.2L93.61 67.1H75.86Z"/><path fill="#153385" stroke="#101C3F" stroke-miterlimit="10" d="M108.48 20.5H63.3c-5.93 0-10.73 4.8-10.73 10.73v25.14c0 5.93 4.8 10.73 10.73 10.73h45.18c5.93 0 10.73-4.8 10.73-10.73V31.23c0-5.93-4.8-10.73-10.73-10.73Z"/><path fill="#48EFCF" d="M104.87 20.5H59.69c-5.93 0-10.73 4.8-10.73 10.73v25.14c0 5.93 4.8 10.73 10.73 10.73h45.18c5.93 0 10.73-4.8 10.73-10.73V31.23c0-5.93-4.8-10.73-10.73-10.73Zm10.51 38.05h-66.2 66.2Z"/><path stroke="#101C3F" stroke-miterlimit="10" d="M115.38 58.55h-66.2m55.69-38.05H59.69c-5.93 0-10.73 4.8-10.73 10.73v25.14c0 5.93 4.8 10.73 10.73 10.73h45.18c5.93 0 10.73-4.8 10.73-10.73V31.23c0-5.93-4.8-10.73-10.73-10.73Z"/><path fill="#48EFCF" stroke="#101C3F" stroke-miterlimit="10" d="m73.12 67.1-3.44 12.12h25.2L90.87 67.1H73.12Z"/><path fill="#0B64DD" d="M59.91 23.4h44.67c4.49 0 8.14 3.65 8.14 8.14V57.1H51.77V31.54c0-4.49 3.65-8.14 8.14-8.14Z"/><path fill="#101C3F" d="M81.25 65.46c1.39 0 2.52-1.13 2.52-2.52 0-1.39-1.13-2.52-2.52-2.52-1.39 0-2.52 1.13-2.52 2.52 0 1.39 1.13 2.52 2.52 2.52Z"/><path fill="#153385" stroke="#101C3F" stroke-miterlimit="10" d="m36.67 98.73-3.44 12.12h25.2l-4.01-12.12H36.67Zm32.62-46.6H24.11c-5.93 0-10.73 4.8-10.73 10.73V88c0 5.93 4.8 10.73 10.73 10.73h45.18c5.93 0 10.73-4.8 10.73-10.73V62.86c0-5.93-4.8-10.73-10.73-10.73Z"/><path fill="#fff" d="M65.68 52.13H20.5c-5.93 0-10.73 4.8-10.73 10.73V88c0 5.93 4.8 10.73 10.73 10.73h45.18c5.93 0 10.73-4.8 10.73-10.73V62.86c0-5.93-4.8-10.73-10.73-10.73Zm10.26 38.05H10.07h65.87Z"/><path stroke="#101C3F" stroke-miterlimit="10" d="M75.94 90.18H10.07m55.61-38.05H20.5c-5.93 0-10.73 4.8-10.73 10.73V88c0 5.93 4.8 10.73 10.73 10.73h45.18c5.93 0 10.73-4.8 10.73-10.73V62.86c0-5.93-4.8-10.73-10.73-10.73Z"/><path fill="#fff" stroke="#101C3F" stroke-miterlimit="10" d="m33.93 98.73-3.44 12.12h25.2l-4.01-12.12H33.93Z"/><path fill="#0B64DD" d="M20.72 55.03h44.67c4.49 0 8.14 3.65 8.14 8.14v25.56H12.58V63.17c0-4.49 3.65-8.14 8.14-8.14Z"/><path fill="#101C3F" d="M42.06 97.09c1.39 0 2.52-1.13 2.52-2.52 0-1.39-1.13-2.52-2.52-2.52-1.39 0-2.52 1.13-2.52 2.52 0 1.39 1.13 2.52 2.52 2.52Z"/><path stroke="#fff" stroke-linecap="round" stroke-miterlimit="10" d="M24.98 66.61h25.81m-25.81 6.55h34.17m-34.17 6.55h23.98m17.73-46.02H92.5m-25.81 6.56h34.17M66.69 46.8h23.98"/><path fill="#153385" stroke="#101C3F" stroke-miterlimit="10" d="m22.62 24.81-9.03 9.63 9.03 9.05v-5.52h19.54v-7.64H22.62v-5.52Z"/><path fill="#101C3F" d="m14.36 34.88-1.42-.43v-.92"/><path fill="#101C3F" d="M12.94 33.53h1.89l-.47 1.35"/><path fill="#48EFCF" stroke="#101C3F" stroke-miterlimit="10" d="m22.62 23.93-9.03 9.63 9.03 9.05v-5.52h19.54v-7.64H22.62v-5.52Z"/><path fill="#153385" stroke="#101C3F" stroke-miterlimit="10" d="m102.55 104.23 9.03-9.62-9.03-9.06v5.52H83.01v7.65h19.54v5.51Z"/><path fill="#101C3F" d="m110.81 94.16 1.42.43v.92m0 0h-1.89l.47-1.35"/><path fill="#48EFCF" stroke="#101C3F" stroke-miterlimit="10" d="m102.55 105.11 9.03-9.62-9.03-9.05v5.51H83.01v7.65h19.54v5.51Z"/></g></svg>