<svg xmlns="http://www.w3.org/2000/svg" fill="none" viewBox="0 0 128 128"><path fill="#153385" stroke="#101C3F" stroke-miterlimit="10" d="M55.42 17.74c-.5 0-.98.17-1.37.49a2.1 2.1 0 0 0-.72 1.26L51.4 32.12l-.19.06-.6.23-.29.1-.5.2-.4.16-.39.17-.49.22-.28.12-.59.27-.17.08-11.97-9.96c-.4-.29-.89-.43-1.38-.39-.49.04-.96.25-1.31.59l-11.8 10.47c-.34.35-.55.81-.59 1.3-.04.49.1.98.38 1.38l9.64 13.68c-.02.06-.05.12-.08.18-.08.2-.18.4-.27.58l-.13.28-.22.5-.16.39-.17.4c-.05.14-.12.33-.2.5-.07.17-.07.19-.1.29l-.22.6-.06.19-12.64 1.87c-.49.08-.94.33-1.26.72-.32.39-.49.87-.49 1.37v16.12c0 .5.17.98.49 1.37.32.38.77.64 1.26.72l12.64 1.93.06.19.22.61.1.28c.07.17.14.33.2.5.06.17.1.26.17.4l.16.39 1.33-.65.4.86c-.793.633-1.163 1.017-1.11 1.15.03.06-2.14-2.12-2.12-2.06l-7.56 10.3c-.29.4-.42.89-.38 1.38.04.49.25.95.59 1.3l13.59 13.69c.35.35.81.56 1.31.59.49.04.98-.1 1.38-.39l10.3-7.56.17.08.59.27.28.12.49.22.39.17.4.16.5.2.29.1.6.23.19.06 1.93 12.63c.08.49.33.94.72 1.26.38.32.87.49 1.37.49h8.06V17.74h-8.06Z"/><path fill="#0B64DD" stroke="#101C3F" stroke-miterlimit="10" d="M55.42 12.5c-.5 0-.98.17-1.37.49a2.1 2.1 0 0 0-.72 1.26L51.4 26.88l-.19.06-.6.23-.29.1-.5.2-.4.16-.39.17-.49.22-.28.12-.59.27-.17.08-10.3-7.56c-.4-.29-.89-.43-1.38-.39-.49.04-.96.25-1.31.59L23.12 32.58c-.34.35-.55.81-.59 1.3-.04.49.1.98.38 1.38l7.56 10.3c-.02.06-.05.12-.08.18-.08.2-.18.4-.27.58l-.13.28-.22.5-.16.39-.17.4c-.05.14-.12.33-.2.5-.07.17-.07.19-.1.29l-.22.6-.06.19-12.64 1.87c-.49.08-.94.33-1.26.72-.32.39-.49.87-.49 1.37v16.12c0 .5.17.98.49 1.37.32.38.77.64 1.26.72l12.64 1.93.06.19.22.61.1.28c.07.17.14.33.2.5.06.17.1.26.17.4l.16.39.22.5.13.28c.09.19.19.39.27.58.03.06.06.12.08.18l-7.56 10.3c-.29.4-.42.89-.38 1.38.04.49.25.95.59 1.3l11.39 11.45c.35.35.81.56 1.31.59.49.04.98-.1 1.38-.39l10.3-7.56.17.08.59.27.28.12.49.22.39.17.4.16.5.2.29.1.6.23.19.06 1.93 12.63c.08.49.33.94.72 1.26.38.32.87.49 1.37.49h8.06V12.5h-8.06Z"/><path stroke="#101C3F" stroke-miterlimit="10" d="M35.84 102.46v4.56m11.84-12.43v5.51m16.2 15.64 7.22.28c.5 0 .98-.17 1.37-.49.38-.32.64-.77.72-1.26l1.93-12.63 1.03-.34.6-.23.29-.1.5-.2.4-.16.39-.17.49-.22.28-.12.59-.27.17-.08 10.3 7.56c.4.29.89.43 1.38.39.49-.04.96-.25 1.31-.59l13.59-13.69c.34-.35.55-.81.59-1.3.04-.49-.1-.98-.38-1.38l-7.56-10.3m-.24-31.5 7.48-11.55c.29-.4.42-.89.38-1.38-.04-.49-.25-.95-.59-1.3l-1.44-1.48M98.4 78.97l.06-.19 12.64-1.93c.49-.08.94-.33 1.26-.72.32-.38.49-.87.49-1.37v-4.64"/><path fill="#fff" d="M63.88 110.5h8.06c.5 0 .98-.17 1.37-.49.38-.32.64-.77.72-1.26l1.93-12.63.19-.06.6-.23.29-.1.5-.2.4-.16.39-.17.49-.22.28-.12.59-.27.17-.08 10.3 7.56c.4.29.89.43 1.38.39.49-.04.96-.25 1.31-.59l11.39-11.45c.34-.35.55-.81.59-1.3.04-.49-.1-.98-.38-1.38l-7.56-10.3c.02-.06.05-.12.08-.18.08-.2.18-.4.27-.58l.13-.28.22-.5.16-.39c.06-.14.1-.23.17-.4.06-.17.12-.33.2-.5l.1-.28.22-.61.06-.19 12.64-1.93c.49-.08.94-.33 1.26-.72.32-.38.49-.87.49-1.37V53.39c0-.5-.17-.98-.49-1.37-.32-.39-.77-.64-1.26-.72L98.5 49.43l-.06-.19-.22-.6c-.03-.1-.03-.12-.1-.29-.07-.17-.15-.36-.2-.5-.05-.14-.1-.26-.17-.4l-.16-.39-.22-.5-.13-.28c-.09-.19-.19-.39-.27-.58-.03-.06-.06-.12-.08-.18l7.56-10.3c.29-.4.42-.89.38-1.38-.04-.49-.25-.95-.59-1.3L92.85 21.09c-.35-.35-.81-.56-1.31-.59-.5-.03-.98.1-1.38.39l-10.3 7.56-.17-.08-.59-.27-.28-.12-.49-.22-.39-.17-.4-.16-.5-.2-.29-.1-.6-.23-.19-.06-1.93-12.63c-.08-.49-.33-.94-.72-1.26a2.13 2.13 0 0 0-1.37-.49h-8.06"/><path stroke="#101C3F" stroke-miterlimit="10" d="M63.88 110.5h8.06c.5 0 .98-.17 1.37-.49.38-.32.64-.77.72-1.26l1.93-12.63.19-.06.6-.23.29-.1.5-.2.4-.16.39-.17.49-.22.28-.12.59-.27.17-.08 10.3 7.56c.4.29.89.43 1.38.39.49-.04.96-.25 1.31-.59l11.39-11.45c.34-.35.55-.81.59-1.3.04-.49-.1-.98-.38-1.38l-7.56-10.3c.02-.06.05-.12.08-.18.08-.2.18-.4.27-.58l.13-.28.22-.5.16-.39c.06-.14.1-.23.17-.4.06-.17.12-.33.2-.5l.1-.28.22-.61.06-.19 12.64-1.93c.49-.08.94-.33 1.26-.72.32-.38.49-.87.49-1.37V53.39c0-.5-.17-.98-.49-1.37-.32-.39-.77-.64-1.26-.72L98.5 49.43l-.06-.19-.22-.6c-.03-.1-.03-.12-.1-.29-.07-.17-.15-.36-.2-.5-.05-.14-.1-.26-.17-.4l-.16-.39-.22-.5-.13-.28c-.09-.19-.19-.39-.27-.58-.03-.06-.06-.12-.08-.18l7.56-10.3c.29-.4.42-.89.38-1.38-.04-.49-.25-.95-.59-1.3L92.85 21.09c-.35-.35-.81-.56-1.31-.59-.5-.03-.98.1-1.38.39l-10.3 7.56-.17-.08-.59-.27-.28-.12-.49-.22-.39-.17-.4-.16-.5-.2-.29-.1-.6-.23-.19-.06-1.93-12.63c-.08-.49-.33-.94-.72-1.26a2.13 2.13 0 0 0-1.37-.49h-8.06m27.63 90v5.24M79.67 94.59v5.51M54.49 39 37.35 49.75v24.59l17.14 12.17"/><path stroke="#101C3F" stroke-miterlimit="10" d="m37.35 74.34 17.14-6.61v-7.65"/><path fill="#48EFCF" stroke="#101C3F" stroke-miterlimit="10" d="M54.49 61.05a3.519 3.519 0 1 0 0-7.04c-1.94 0-3.52 1.58-3.52 3.52s1.58 3.52 3.52 3.52Zm0 28.99a3.519 3.519 0 1 0 0-7.04c-1.94 0-3.52 1.58-3.52 3.52s1.58 3.52 3.52 3.52Zm0-47.52a3.519 3.519 0 1 0 0-7.04c-1.94 0-3.52 1.58-3.52 3.52s1.58 3.52 3.52 3.52Z"/><path stroke="#101C3F" stroke-miterlimit="10" d="m73 39 17.15 10.75v24.59L73 86.51"/><path stroke="#101C3F" stroke-miterlimit="10" d="M90.15 74.34 73 67.73v-7.65"/><path fill="#48EFCF" stroke="#101C3F" stroke-miterlimit="10" d="M76.53 57.52a3.519 3.519 0 1 0-7.04 0c0 1.95 1.58 3.52 3.52 3.52 1.95 0 3.52-1.58 3.52-3.52Zm0 28.99a3.519 3.519 0 1 0-7.04 0 3.519 3.519 0 1 0 7.04 0Zm0-47.51a3.519 3.519 0 1 0-7.04 0 3.519 3.519 0 1 0 7.04 0Z"/></svg>