<svg xmlns="http://www.w3.org/2000/svg" fill="none" viewBox="0 0 128 128"><g clip-path="url(#illustration-machine-learning.dark__a)"><path fill="#153385" stroke="#153385" stroke-miterlimit="10" d="M75.76 18.93c.48 0 .94.16 1.31.47.37.31.61.73.68 1.21l1.84 12.07.18.06.58.22.28.1.48.19.38.15.37.16.47.21.27.12.57.26.16.08 11.45-9.52c.38-.28.85-.41 1.32-.38.47.03.91.24 1.25.57l11.28 10.01c.33.33.53.77.57 1.24.04.47-.09.93-.37 1.32l-9.22 13.07c.02.06.05.12.08.17.08.19.17.38.26.56l.12.27.21.48.15.37c.06.13.11.25.16.38s.12.32.19.48c.07.16.07.18.1.28l.21.58.06.18 12.08 1.79c.47.08.9.32 1.21.68.31.36.47.83.47 1.31v15.41c0 .48-.16.94-.47 1.31-.31.37-.73.61-1.21.68l-12.08 1.84-.06.18-.21.59-.1.27c-.07.16-.13.32-.19.48-.06.16-.1.25-.16.38l-.15.37-1.27-.62-.38.83c.76.607 1.113.973 1.06 1.1-.03.05 2.05-2.03 2.03-1.97l7.23 9.84c.27.38.4.85.37 1.32-.03.47-.24.91-.57 1.24l-12.99 13.09c-.34.33-.78.53-1.25.57-.47.03-.94-.1-1.32-.38l-9.84-7.23-.16.08-.57.26-.27.12-.47.21-.37.16-.38.15-.48.19-.28.1-.58.22-.18.06-1.84 12.07c-.08.47-.32.9-.68 1.21-.37.31-.83.47-1.31.47h-7.7V18.93h7.7-.02Z"/><path fill="#fff" stroke="#153385" stroke-miterlimit="10" d="M75.76 13.92c.48 0 .94.16 1.31.47.37.31.61.73.68 1.21l1.84 12.07.18.06.58.22.28.1.48.19.38.15.37.16.47.21.27.12.57.26.16.08 9.84-7.23c.38-.28.85-.41 1.32-.38.47.03.91.24 1.25.57l10.89 10.95c.33.33.53.77.57 1.24.04.47-.09.93-.37 1.32l-7.23 9.84c.02.06.05.12.08.17.08.19.17.38.26.56l.12.27.21.48.15.37c.06.13.11.25.16.38s.12.32.19.48c.07.16.07.18.1.28l.21.58.06.18 12.08 1.79c.47.08.9.32 1.21.68.31.36.47.83.47 1.31v15.41c0 .48-.16.94-.47 1.31-.31.37-.73.61-1.21.68l-12.08 1.84-.06.18-.21.59-.1.27c-.07.16-.13.32-.19.48-.06.16-.1.25-.16.38l-.15.37-.21.48-.12.27c-.09.18-.18.37-.26.56-.03.05-.06.11-.08.17l7.23 9.84c.27.38.4.85.37 1.32-.03.47-.24.91-.57 1.24L95.74 99.4c-.34.33-.78.53-1.25.57-.47.03-.94-.1-1.32-.38l-9.84-7.23-.16.08-.57.26-.27.12-.47.21-.37.16-.38.15-.48.19-.28.1-.58.22-.18.06-1.84 12.07c-.08.47-.32.9-.68 1.21-.37.31-.83.47-1.31.47h-7.7V13.92h7.7Z"/><path stroke="#153385" stroke-miterlimit="10" d="M94.47 99.91v4.36M83.15 92.39v5.27m-6.51-58.41 16.39 10.28v23.5L76.64 84.67"/><path stroke="#153385" stroke-miterlimit="10" d="m93.03 73.03-16.39-6.31V59.4"/><path fill="#0B64DD" stroke="#153385" stroke-miterlimit="10" d="M76.64 60.33c-1.86 0-3.37-1.51-3.37-3.37s1.51-3.37 3.37-3.37 3.37 1.51 3.37 3.37-1.51 3.37-3.37 3.37Zm0 27.71c-1.86 0-3.37-1.51-3.37-3.37s1.51-3.37 3.37-3.37 3.37 1.51 3.37 3.37-1.51 3.37-3.37 3.37Zm0-45.42c-1.86 0-3.37-1.51-3.37-3.37s1.51-3.37 3.37-3.37 3.37 1.51 3.37 3.37-1.51 3.37-3.37 3.37Z"/><path fill="#153385" d="M63.58 24.12s1.21-10.61-9.88-9.8C41.62 15.2 40.91 26.9 40.91 26.9s-16.42.92-15.49 19.42c0 0-20.69 10.98-6.24 36.4 0 0-2 18.92 21.83 24.11 0 0 11.72 15.07 22.57 1.78V24.12Z"/><path stroke="#153385" stroke-miterlimit="10" d="M63.58 24.12s1.21-10.61-9.88-9.8C41.62 15.2 40.91 26.9 40.91 26.9s-16.42.92-15.49 19.42c0 0-20.69 10.98-6.24 36.4 0 0-2 18.92 21.83 24.11 0 0 11.72 15.07 22.57 1.78V24.12Z"/><path fill="#48EFCF" d="M62.03 23.35s1.2-10.61-9.88-9.81c-12.08.88-12.79 12.58-12.79 12.58s-16.42.92-15.49 19.42c0 0-20.69 10.98-6.24 36.4 0 0-2 18.92 21.83 24.11 0 0 11.72 15.07 22.57 1.78V23.35Z"/><path stroke="#153385" stroke-miterlimit="10" d="M62.03 23.35s1.2-10.61-9.88-9.81c-12.08.88-12.79 12.58-12.79 12.58s-16.42.92-15.49 19.42c0 0-20.69 10.98-6.24 36.4 0 0-2 18.92 21.83 24.11 0 0 11.72 15.07 22.57 1.78V23.35Z"/><path stroke="#153385" stroke-miterlimit="10" d="M39.46 106.05s-11.24-11.99-.25-22.79c0 0 1.01-9.89 8.36-9.67m-8.21-47.47S37.99 43.3 56.24 41.97"/><path stroke="#153385" stroke-miterlimit="10" d="M34.98 92.39S23.87 90.6 28.1 80.51c0 0-9.55-4.52-5.48-14.23m39.59-1.98s-10.36-10.73-23.42.64M23.87 45.55s12.48-4.88 19.94.92m18.4 42.28s-12.49-1.24-13.16 13.67m12.87-68.4s-8.24.06-9.07-9.08"/><path stroke="#153385" stroke-miterlimit="10" d="M44.83 60.61S42.51 50.57 28 54.51m30.73 7.26s1.57-7.45-4.34-10.47m-5.34 30.36s7.45-1.06 9.27 7.89"/></g><defs><clipPath id="illustration-machine-learning.dark__a"><path fill="#fff" d="M0 0h103.37v101.58H0z" transform="translate(12 13)"/></clipPath></defs></svg>