<svg xmlns="http://www.w3.org/2000/svg" fill="none" viewBox="0 0 128 128"><path fill="#48EFCF" d="m32.17 96.94 21.27 20.99a6.34 6.34 0 0 0 8.01.73c3.29-2.23 3.74-6.91.92-9.72L43.02 89.58l-14.6 1.83 3.75 5.53Z"/><mask id="illustration-megaphone.light__a" width="37" height="31" x="28" y="89" maskUnits="userSpaceOnUse" style="mask-type:luminance"><path fill="#fff" d="m32.17 96.94 21.27 20.99a6.34 6.34 0 0 0 8.01.73c3.29-2.23 3.74-6.91.92-9.72L43.02 89.58l-14.6 1.83 3.75 5.53Z"/></mask><g mask="url(#illustration-megaphone.light__a)"><path fill="#101C3F" stroke="#101C3F" stroke-miterlimit="10" d="m26.42 101.25 32.33-2.74-11.69-14.44L25 91.5l1.42 9.75Z"/></g><path stroke="#101C3F" stroke-miterlimit="10" d="m32.17 96.94 21.27 20.99a6.34 6.34 0 0 0 8.01.73c3.29-2.23 3.74-6.91.92-9.72L43.02 89.58l-14.6 1.83 3.75 5.53Z"/><path fill="#0B64DD" d="M66.03 15.4 11.57 87.23a8.428 8.428 0 0 0-.26 9.82 8.428 8.428 0 0 0 9.4 3.34l85.51-25.74L66.03 15.4Z"/><mask id="illustration-megaphone.light__b" width="98" height="86" x="9" y="15" maskUnits="userSpaceOnUse" style="mask-type:luminance"><path fill="#fff" d="M66.03 15.4 11.57 87.23a8.428 8.428 0 0 0-.26 9.82 8.428 8.428 0 0 0 9.4 3.34l85.51-25.74L66.03 15.4Z"/></mask><g mask="url(#illustration-megaphone.light__b)"><path fill="#0B64DD" d="M53.19 16.09s.94 49.5 48.04 67.49L53.19 16.09Z"/><path stroke="#101C3F" stroke-miterlimit="10" d="M53.19 16.09s.94 49.5 48.04 67.49"/><path fill="#0B64DD" stroke="#101C3F" stroke-miterlimit="10" d="m9.59 77.31 19.44 28.66-28-5.37s-3.14-21.79-2.42-22.28c.72-.49 10.99-1.01 10.99-1.01h-.01Z"/></g><path stroke="#101C3F" stroke-miterlimit="10" d="M66.03 15.4 11.57 87.23a8.428 8.428 0 0 0-.26 9.82 8.428 8.428 0 0 0 9.4 3.34l85.51-25.74L66.03 15.4Z"/><path fill="#153385" d="M108.515 73.847c5.695-3.988.978-20.553-10.537-36.998-11.515-16.444-25.467-26.543-31.162-22.554-5.696 3.988-.979 20.552 10.536 36.997 11.515 16.445 25.467 26.543 31.163 22.555Z"/><mask id="illustration-megaphone.light__c" width="47" height="62" x="64" y="13" maskUnits="userSpaceOnUse" style="mask-type:luminance"><path fill="#fff" d="M108.515 73.847c5.695-3.988.978-20.553-10.537-36.998-11.515-16.444-25.467-26.543-31.162-22.554-5.696 3.988-.979 20.552 10.536 36.997 11.515 16.445 25.467 26.543 31.163 22.555Z"/></mask><g mask="url(#illustration-megaphone.light__c)"><path fill="#48EFCF" d="M73.11 64.38c6.174 0 11.18-5.243 11.18-11.71 0-6.467-5.006-11.71-11.18-11.71-6.174 0-11.18 5.243-11.18 11.71 0 6.467 5.006 11.71 11.18 11.71Z"/></g><path stroke="#101C3F" stroke-miterlimit="10" stroke-width=".99" d="M108.515 73.847c5.695-3.988.978-20.553-10.537-36.998-11.515-16.444-25.467-26.543-31.162-22.554-5.696 3.988-.979 20.552 10.536 36.997 11.515 16.445 25.467 26.543 31.163 22.555Z"/><path stroke="#48EFCF" stroke-miterlimit="10" d="M79.08 30.75 89.61 6.2M86.3 39.82l16.42-18.14m-10.7 27.67 21.38-3.74M92.02 58.07l26.77 6.69"/></svg>