<svg xmlns="http://www.w3.org/2000/svg" fill="none" viewBox="0 0 128 128"><path fill="#153385" stroke="#153385" stroke-miterlimit="10" d="M106.61 33.1H30.46a5.38 5.38 0 0 0-5.38 5.38v43.23a5.38 5.38 0 0 0 5.38 5.38h76.15a5.38 5.38 0 0 0 5.38-5.38V38.48a5.38 5.38 0 0 0-5.38-5.38Z"/><path fill="#F5F7FA" stroke="#153385" stroke-miterlimit="10" d="M103.75 32.63H30.42a5.34 5.34 0 0 0-5.34 5.34v40.82a5.34 5.34 0 0 0 5.34 5.34h73.33a5.34 5.34 0 0 0 5.34-5.34V37.97a5.34 5.34 0 0 0-5.34-5.34Z"/><path fill="#153385" stroke="#153385" stroke-miterlimit="10" d="M91.77 48.16H9.48a4.98 4.98 0 0 0-4.98 4.98v48.9a4.98 4.98 0 0 0 4.98 4.98h82.29a4.98 4.98 0 0 0 4.98-4.98v-48.9a4.98 4.98 0 0 0-4.98-4.98Z"/><path fill="#fff" stroke="#153385" stroke-miterlimit="10" d="M88.8 48.16H9.48a4.98 4.98 0 0 0-4.98 4.98v46.37a4.98 4.98 0 0 0 4.98 4.98H88.8a4.98 4.98 0 0 0 4.98-4.98V53.14a4.98 4.98 0 0 0-4.98-4.98Z"/><path fill="#0B64DD" stroke="#153385" stroke-miterlimit="10" d="M65.13 58.39H50.69v37.16h14.44V58.39ZM45.8 69.35H31.36v26.2H45.8v-26.2Zm-19.33 5.84H12.03v20.36h14.44V75.19Z"/><path stroke="#153385" stroke-miterlimit="10" d="M9.28 95.54h79"/><path fill="#0B64DD" stroke="#153385" stroke-miterlimit="10" d="M84.46 72.36H70.02v23.19h14.44V72.36Z"/><path fill="#48EFCF" stroke="#153385" stroke-miterlimit="10" d="M26.47 82.9H12.03v12.65h14.44V82.9ZM45.8 77H31.36v18.54H45.8V77Zm38.66 3.11H70.02v15.43h14.44V80.11Zm-19.33-9.65H50.69v25.08h14.44V70.46Z"/><path fill="#153385" stroke="#153385" stroke-miterlimit="10" d="M85.09 60.1c-1.91 0-3.66-1.14-4.57-2.97-.91-1.83-.82-4.06.22-5.8l16.3-27.26c.96-1.61 2.59-2.57 4.35-2.57 1.76 0 3.36.95 4.32 2.53l16.59 27.25a6.105 6.105 0 0 1 .25 5.82c-.91 1.85-2.66 2.99-4.58 2.99H85.08l.01.01Z"/><path fill="#153385" d="M101.36 21.36h-2.18v1.52h2.18v-1.52Z"/><path fill="#fff" stroke="#153385" stroke-miterlimit="10" d="M83.04 60.1c-1.91 0-3.66-1.14-4.57-2.97-.91-1.83-.82-4.06.22-5.8l16.3-27.26c.96-1.61 2.59-2.57 4.35-2.57 1.76 0 3.36.95 4.32 2.53l16.59 27.25a6.105 6.105 0 0 1 .25 5.82c-.91 1.85-2.66 2.99-4.58 2.99H83.03l.01.01Z"/><path fill="#fff" stroke="#153385" stroke-miterlimit="10" d="m97.27 25.7-16.3 27.25c-1.07 1.8.11 4.18 2.07 4.18h32.89c1.97 0 3.15-2.4 2.06-4.2L101.4 25.68c-.98-1.61-3.16-1.61-4.13.02Z"/><path fill="#153385" d="m97.64 46.05-.8-11.89h4.73l-.77 11.89h-3.16Zm-.57 1.73h4.24v4.4h-4.24v-4.4Z"/></svg>