<svg xmlns="http://www.w3.org/2000/svg" fill="none" viewBox="0 0 128 128"><mask id="illustration-monitor-graph-cogs.dark__a" width="117" height="104" x="6" y="11" maskUnits="userSpaceOnUse" style="mask-type:luminance"><path fill="#fff" d="M122.2 11.1H6v103.3h116.2V11.1Z"/></mask><g mask="url(#illustration-monitor-graph-cogs.dark__a)"><path fill="#153385" stroke="#153385" stroke-miterlimit="10" d="m53 96.7-4.9 17.2h35.7l-5.7-17.2H53Zm50.7-66h-73c-5.9 0-10.7 4.8-10.7 10.7V86c0 5.9 4.8 10.7 10.7 10.7h73c5.9 0 10.7-4.8 10.7-10.7V41.4c0-5.9-4.8-10.7-10.7-10.7Z"/><path fill="#fff" d="M98.6 30.7h-73c-5.9 0-10.7 4.8-10.7 10.7V86c0 5.9 4.8 10.7 10.7 10.7h73c5.9 0 10.7-4.8 10.7-10.7V41.4c0-5.9-4.8-10.7-10.7-10.7Zm10.7 53.9H14.9h94.4Z"/><path stroke="#153385" stroke-miterlimit="10" d="M109.3 84.6H14.9m83.7-53.9h-73c-5.9 0-10.7 4.8-10.7 10.7V86c0 5.9 4.8 10.7 10.7 10.7h73c5.9 0 10.7-4.8 10.7-10.7V41.4c0-5.9-4.8-10.7-10.7-10.7Z"/><path fill="#fff" stroke="#153385" stroke-miterlimit="10" d="m49.1 96.7-4.9 17.2h35.7l-5.7-17.2H49h.1Z"/><path fill="#F5F7FA" d="M27 34.8h70.1c4.5 0 8.1 3.6 8.1 8.1v39.6H18.9V42.9c0-4.5 3.6-8.1 8.1-8.1Z"/><path fill="#153385" d="M60.6 94.4c2 0 3.6-1.6 3.6-3.6s-1.6-3.6-3.6-3.6-3.6 1.6-3.6 3.6 1.6 3.6 3.6 3.6ZM51 57.6h-7.7v18.1H51V57.6Zm14.9-5.8h-7.7v23.9h7.7V51.8Zm15-7.6h-7.7v31.6h7.7V44.2Z"/><path fill="#153385" stroke="#153385" stroke-linejoin="round" d="M25.8 50.8c1.4-.1 1.5-1.4 1.5-1.4l-3.6-9.9-7.4-14.1-2.3 1.8-4.7-4 4.3-7-3.4 3.2-3.7 6.7 4.7 4.2c0 2.5.5 8.7 5 14.1l-1.6.4L10 36l-3.1 2.8 5 8.6 5.3-1.5h.1c.4.3.9.7 1.4 1.1 1.4 1.2 2.6 2.1 3.6 2.7l.8 5.6 8.7 1.9 3.4-2.8-9-1.5-.3-1.9-.1-.2Zm-1.6-39.2-3.3 3.3v3.8l3.2-.9v-6.2h.1Zm21.3 38.1-6.7-5-3.9 2.5.3.2-1.2.4.6 2.2h.7c0 .1.9-.2 2-1l5.2 3.6 2.9-2.9h.1ZM31.9 32.8c3.5 5.8.4 9 .4 9l9.5-1.8-8.5-17.2-11.2 2.8.2 3.9s6.2-2.5 9.7 3.3h-.1Z"/><path fill="#48EFCF" stroke="#153385" stroke-linejoin="round" d="m44.7 32.6 4.5-2.6-4.7-8.6-4.8 1.4c-1.7-2-3.8-3.6-5.9-4.7l-.5-5-9.1-1.6-.2 5.6c-1.7.6-3.3 1.5-4.6 2.6L13.6 16l-4.3 7 5.4 4.7c-.3 1.6-.3 3.4 0 5.2l-4.6 2.9 4.6 8.8 5.2-1.4c1.6 1.8 3.5 3.3 5.5 4.3l.8 5 9 1.5.3-5.6c1.7-.6 3.3-1.5 4.6-2.6l5.5 3.6 4.3-7-5.1-4.8c.3-1.7.3-3.4 0-5.3l-.1.3Zm-9.9 6.7c-2.7 2.2-7 1.4-9.8-1.8-2.7-3.2-2.8-7.7-.1-9.9 2.7-2.2 7-1.4 9.8 1.9 2.7 3.2 2.8 7.7.1 9.9v-.1Z"/><path fill="#153385" stroke="#153385" stroke-linejoin="round" d="M98.7 101.7c-.6-.7-.1-1.4-.1-1.4l6.6-3.4 10.5-3.8.4 2h4.3c0 .1 1.1-5.6 1.1-5.6l.2 3.3-1.3 5.2H116c-1.2 1.2-4.4 4.2-9.2 4.9l.6 1 6.5-2.4.3 2.9-6.7 2.1-2-3.3c-.4-.1-.9 0-1.3-.1-1.3 0-2.3-.2-3.1-.3l-3.1 2.5-5.4-3.2-.4-3.1 5.4 3.5 1.1-.9v.1Zm19.5-19.5v3.3c.1 0-1.7 2-1.7 2l-1.2-2 2.9-3.3Zm-29.1 9.6 5.8.6.8 3.2h-.3l.5.7-1.4.8-.4-.3s-.3-.6-.5-1.5l-4.4-.6-.2-2.9h.1Zm15-2.3c-4.6 1.3-4.5 4.5-4.5 4.5l-4-5.4 12.5-4.9 4.5 6.8-1.9 1.9s-2-4.2-6.6-2.9Z"/><path fill="#0B64DD" stroke="#153385" stroke-linejoin="round" d="M95.1 86.1h-4.9l-1.1 5.7 4.6.7c.2 1.2.5 2.4 1.1 3.5l-2.5 3 5.4 3.5 2.8-2.2c1.5.4 3.2.5 4.9.4l2.1 3.2 6.5-2.4-1-3.7c1-.8 1.8-1.7 2.5-2.7h5c0 .1 1.1-5.5 1.1-5.5l-4.8-.9c-.2-1.2-.6-2.4-1.1-3.5l2.6-3-5.4-3.5-2.6 2.4c-1.6-.4-3.5-.6-5.3-.4l-1.8-3-6.5 2.2 1.1 3.5c-1.1.8-1.9 1.7-2.6 2.7h-.1Zm9.2.3c3-.4 5.6 1.3 5.9 3.7.3 2.4-1.8 4.7-4.8 5.1-3 .4-5.6-1.3-5.9-3.7-.3-2.4 1.8-4.7 4.8-5.1Z"/></g></svg>