<svg xmlns="http://www.w3.org/2000/svg" fill="none" viewBox="0 0 128 128"><mask id="illustration-network-activity.dark__a" width="117" height="91" x="4" y="23" maskUnits="userSpaceOnUse" style="mask-type:luminance"><path fill="#fff" d="M120.2 23H4v90.2h116.2V23Z"/></mask><g mask="url(#illustration-network-activity.dark__a)"><path fill="#153385" stroke="#153385" stroke-miterlimit="10" d="m51.85 94.29-5.22 18.41h38.28l-6.1-18.41H51.85Zm55.12-70.79H27.19c-5.93 0-10.73 4.8-10.73 10.73v49.33c0 5.93 4.8 10.73 10.73 10.73h79.78c5.93 0 10.73-4.8 10.73-10.73V34.23c0-5.93-4.8-10.73-10.73-10.73Z"/><path fill="#fff" d="M101.5 23.5H21.72c-5.93 0-10.73 4.8-10.73 10.73v49.33c0 5.93 4.8 10.73 10.73 10.73h79.78c5.93 0 10.73-4.8 10.73-10.73V34.23c0-5.93-4.8-10.73-10.73-10.73Zm10.73 57.8H10.99h101.24Z"/><path stroke="#153385" stroke-miterlimit="10" d="M112.23 81.3H10.99"/><path fill="#F5F7FA" stroke="#153385" stroke-miterlimit="10" d="M101.5 23.5H21.72c-5.93 0-10.73 4.8-10.73 10.73v49.33c0 5.93 4.8 10.73 10.73 10.73h79.78c5.93 0 10.73-4.8 10.73-10.73V34.23c0-5.93-4.8-10.73-10.73-10.73Z"/><path fill="#fff" stroke="#153385" stroke-miterlimit="10" d="m47.69 94.29-5.22 18.41h38.28l-6.1-18.41H47.69Z"/><path fill="#fff" stroke="#153385" d="M23.39 28.4H99.7c4.214 0 7.64 3.426 7.64 7.64v42.55H15.75V36.04c0-4.214 3.426-7.64 7.64-7.64Z"/><path stroke="#153385" stroke-miterlimit="10" d="M15 46.71c8.17 0 5.71 18.63 13.87 18.63s8.16-29.16 16.33-29.16c8.17 0 8.17 29.16 16.33 29.16 8.16 0 8.17-18.63 16.34-18.63s8.17 18.63 16.34 18.63S99.33 47 107.5 47"/><path fill="#153385" d="M60.04 91.79a3.82 3.82 0 1 0 0-7.64 3.82 3.82 0 0 0 0 7.64Z"/><path fill="#153385" stroke="#153385" stroke-miterlimit="10" d="M71.76 37.83c9.17-3.38 17.69.23 22.32 6.66-13.84-11.28-35.41 2.03-33.28 19.32.35 2.82 1.34 5.41 2.8 7.65-3.19-2.71-5.45-6.66-5.95-11.9-.91-9.45 5.31-18.5 14.11-21.74v.01Z"/><path fill="#48EFCF" stroke="#153385" stroke-miterlimit="10" d="M51.16 61.29C52.91 75.4 66.51 84.58 80.24 82.4c22.64-3.6 34.36-35.69 12.37-48.82-19.03-11.37-44.08 6.17-41.45 27.71Zm40.39-20.18c14.32 12.47 1.92 35.41-15.53 35.11-9.2-.16-17.19-6.92-18.32-16.15-2.16-17.53 20.01-31 33.85-18.96Z"/><path fill="#153385" stroke="#153385" stroke-miterlimit="10" d="M80.24 82.4c17.6-2.8 28.59-22.8 22.3-37.75 5.36 7.35 6.84 17.51 1.2 27.3-10.07 17.46-37.13 18.99-46.47 2.52 5.61 6.12 14.27 9.31 22.98 7.93h-.01Z"/><path fill="#153385" stroke="#153385" stroke-miterlimit="10" d="m115.22 109.13 1.51-1.17a4.07 4.07 0 0 0 .73-5.7L99.12 78.53a4.059 4.059 0 0 0-5.69-.73l-1.51 1.17a4.07 4.07 0 0 0-.73 5.7l18.34 23.73a4.059 4.059 0 0 0 5.69.73Z"/><path fill="#0B64DD" stroke="#153385" stroke-miterlimit="10" d="m116.61 108.06 1.51-1.17c1.77-1.37 2.1-3.92.73-5.69l-18.34-23.73a4.07 4.07 0 0 0-5.7-.73l-1.51 1.17a4.07 4.07 0 0 0-.73 5.7l18.34 23.73a4.059 4.059 0 0 0 5.69.73l.01-.01Z"/></g></svg>