<svg xmlns="http://www.w3.org/2000/svg" fill="none" viewBox="0 0 128 128"><path fill="#F5F7FA" stroke="#101C3F" stroke-linecap="round" stroke-linejoin="round" d="M96.643 38.906v71.783H18V20.844h57.804l20.839 5.95v12.112Z"/><path fill="#fff" stroke="#101C3F" stroke-linecap="round" stroke-linejoin="round" d="M103.013 30.063 85.011 12H28.735v89.845h74.278V30.063Z"/><path fill="#0B64DD" stroke="#101C3F" stroke-linejoin="round" d="M84.983 12v18.365l18.03-.303L84.983 12Z"/><path fill="#101C3F" stroke="#101C3F" d="m102.513 35.353-14.275-4.211 14.275-.269v4.48Z"/><path fill="#0B64DD" d="m75.841 56.24-2.737-2.74-15.79 15.796 2.737 2.738L75.84 56.24Z"/><path fill="#0B64DD" d="m60.054 53.501-2.737 2.738 15.79 15.795 2.738-2.738-15.79-15.795Z"/><path fill="#101C3F" stroke="#101C3F" stroke-miterlimit="10" d="M58.305 40.666c10.086-3.716 19.439.248 24.527 7.324-15.201-12.395-38.914 2.234-36.57 21.24a19.723 19.723 0 0 0 3.083 8.404c-3.505-2.976-5.985-7.324-6.534-13.083-1.007-10.39 5.839-20.332 15.503-23.894l-.009.01Z"/><path fill="#48EFCF" stroke="#101C3F" stroke-miterlimit="10" d="M35.663 66.456C37.585 81.963 52.53 92.06 67.622 89.662c24.884-3.955 37.752-39.228 13.6-53.666C60.31 23.501 32.78 42.772 35.663 66.465v-.01ZM80.06 44.273C95.801 57.978 82.164 83.2 63 82.861c-10.113-.174-18.89-7.599-20.134-17.751-2.37-19.271 21.992-34.075 37.193-20.837Z"/><path fill="#101C3F" stroke="#101C3F" stroke-miterlimit="10" d="M67.622 89.663c19.338-3.076 31.419-25.066 24.5-41.49 5.885 8.084 7.523 19.253 1.318 30.01-11.065 19.197-40.8 20.873-51.068 2.765 6.168 6.728 15.677 10.235 25.25 8.715Z"/><path fill="#101C3F" stroke="#101C3F" stroke-miterlimit="10" d="m106.074 119.056 1.666-1.287a4.46 4.46 0 0 0 .801-6.254l-20.16-26.091a4.456 4.456 0 0 0-6.252-.802l-1.665 1.288a4.46 4.46 0 0 0-.801 6.254l20.159 26.091a4.456 4.456 0 0 0 6.252.801Z"/><path fill="#48EFCF" stroke="#101C3F" stroke-miterlimit="10" d="m107.593 117.864 1.665-1.287a4.46 4.46 0 0 0 .801-6.254l-20.16-26.091a4.456 4.456 0 0 0-6.251-.802l-1.666 1.288a4.46 4.46 0 0 0-.8 6.254l20.159 26.091a4.456 4.456 0 0 0 6.252.801Z"/></svg>