<svg xmlns="http://www.w3.org/2000/svg" fill="none" viewBox="0 0 128 128"><path fill="#153385" stroke="#153385" stroke-miterlimit="10" d="M94.32 14H22.11a6.18 6.18 0 0 0-6.18 6.18v57.5a6.18 6.18 0 0 0 6.18 6.18h72.21a6.18 6.18 0 0 0 6.18-6.18v-57.5A6.18 6.18 0 0 0 94.32 14Z"/><path fill="#F5F7FA" d="M91.89 14H16.92a4.8 4.8 0 0 0-4.8 4.8v60.26a4.8 4.8 0 0 0 4.8 4.8h74.97a4.8 4.8 0 0 0 4.8-4.8V18.8a4.8 4.8 0 0 0-4.8-4.8Z"/><mask id="illustration-observability-graphs.dark__a" width="85" height="70" x="12" y="14" maskUnits="userSpaceOnUse" style="mask-type:luminance"><path fill="#fff" d="M91.89 14H16.92a4.8 4.8 0 0 0-4.8 4.8v60.26a4.8 4.8 0 0 0 4.8 4.8h74.97a4.8 4.8 0 0 0 4.8-4.8V18.8a4.8 4.8 0 0 0-4.8-4.8Z"/></mask><g mask="url(#illustration-observability-graphs.dark__a)"><path stroke="#153385" stroke-miterlimit="10" d="M97.49 13.5H11.5v12.24h85.99V13.5Z"/></g><path stroke="#153385" stroke-miterlimit="10" d="M91.89 14H16.92a4.8 4.8 0 0 0-4.8 4.8v60.26a4.8 4.8 0 0 0 4.8 4.8h74.97a4.8 4.8 0 0 0 4.8-4.8V18.8a4.8 4.8 0 0 0-4.8-4.8Z"/><path fill="#153385" stroke="#153385" stroke-miterlimit="10" d="M61.01 37.37h2.36v21.51H59.8l1.21-21.51Z"/><path stroke="#153385" stroke-miterlimit="10" d="M31.9 25.71v58.15"/><path fill="#48EFCF" stroke="#153385" stroke-miterlimit="10" d="M61.59 37.37c-10.16 0-18.39 8.23-18.39 18.39s8.23 18.39 18.39 18.39 18.39-8.23 18.39-18.39H61.59V37.37Z"/><path fill="#fff" stroke="#153385" stroke-miterlimit="10" d="M66.18 32.49c10.16 0 18.39 8.23 18.39 18.39H66.18V32.49Z"/><path stroke="#153385" stroke-miterlimit="10" d="M15.8 32.49h11.26M15.8 37.37h11.26M15.8 42.25h11.26M15.8 47.13h7.53m-7.53 4.88h7.53m-7.53 4.88h7.53"/><path fill="#153385" stroke="#153385" stroke-miterlimit="10" d="M112.07 68.23H58.34a4.29 4.29 0 0 0-4.29 4.29v37.96a4.29 4.29 0 0 0 4.29 4.29h53.73a4.29 4.29 0 0 0 4.29-4.29V72.52a4.29 4.29 0 0 0-4.29-4.29Z"/><path fill="#fff" stroke="#153385" stroke-miterlimit="10" d="M108.19 68.23H54.46a4.29 4.29 0 0 0-4.29 4.29v37.96a4.29 4.29 0 0 0 4.29 4.29h53.73a4.29 4.29 0 0 0 4.29-4.29V72.52a4.29 4.29 0 0 0-4.29-4.29Z"/><path fill="#0B64DD" stroke="#153385" stroke-miterlimit="10" d="M72.39 108.16h7.18V97.1h-7.18v11.06Zm-11.02 0h7.18V80.33h-7.18v27.83Zm22.05 0h7.18V88.42h-7.18v19.74Zm11.03 0h7.18V82.25h-7.18v25.91Z"/><path stroke="#153385" stroke-miterlimit="10" d="M58.43 108.16h45.79"/><path fill="#153385" d="M19.56 22.2a2.36 2.36 0 1 0 0-4.72 2.36 2.36 0 0 0 0 4.72Z"/><path stroke="#153385" stroke-miterlimit="10" d="M75.68 19.84h9.27m2.36 0h3.85"/></svg>