<svg xmlns="http://www.w3.org/2000/svg" fill="none" viewBox="0 0 128 128"><path fill="#153385" stroke="#153385" stroke-miterlimit="10" d="M100.34 13H20.1a6.87 6.87 0 0 0-6.87 6.87v63.89a6.87 6.87 0 0 0 6.87 6.87h80.24a6.87 6.87 0 0 0 6.87-6.87V19.87a6.87 6.87 0 0 0-6.87-6.87Z"/><path fill="#F5F7FA" d="M97.65 13H14.33A5.33 5.33 0 0 0 9 18.33V85.3a5.33 5.33 0 0 0 5.33 5.33h83.32a5.33 5.33 0 0 0 5.33-5.33V18.33A5.33 5.33 0 0 0 97.65 13Z"/><mask id="illustration-observability-video.dark__a" width="94" height="78" x="9" y="13" maskUnits="userSpaceOnUse" style="mask-type:luminance"><path fill="#fff" d="M97.65 13H14.33A5.33 5.33 0 0 0 9 18.33V85.3a5.33 5.33 0 0 0 5.33 5.33h83.32a5.33 5.33 0 0 0 5.33-5.33V18.33A5.33 5.33 0 0 0 97.65 13Z"/></mask><g mask="url(#illustration-observability-video.dark__a)"><path stroke="#153385" stroke-miterlimit="10" d="M103.86 12.45H8.31v13.6h95.55v-13.6Z"/></g><path stroke="#153385" stroke-miterlimit="10" d="M97.65 13H14.33A5.33 5.33 0 0 0 9 18.33V85.3a5.33 5.33 0 0 0 5.33 5.33h83.32a5.33 5.33 0 0 0 5.33-5.33V18.33A5.33 5.33 0 0 0 97.65 13ZM30.98 26.02v64.61m-17.9-57.08H25.6m-12.52 5.42H25.6m-12.52 5.42H25.6m-12.52 5.42h8.37m-8.37 5.43h8.37m-8.37 5.42h8.37"/><path fill="#153385" d="M27.39 18h-10.8A1.59 1.59 0 0 0 15 19.59v.84c0 .878.712 1.59 1.59 1.59h10.8a1.59 1.59 0 0 0 1.59-1.59v-.84A1.59 1.59 0 0 0 27.39 18Z"/><path stroke="#fff" stroke-miterlimit="10" d="M79.62 19.49h10.31m2.62 0h4.28"/><path fill="#48EFCF" stroke="#153385" stroke-miterlimit="10" d="M54.02 76.93h9.93v-15.3h-9.93v15.3Zm-15.24 0h9.93V38.45h-9.93v38.48Zm30.49-.01h9.93V49.63h-9.93v27.29Zm15.26 0h9.93V41.1h-9.93v35.82Z"/><path stroke="#153385" stroke-miterlimit="10" d="M34.73 76.93h63.31"/><path fill="#153385" stroke="#153385" stroke-miterlimit="10" d="M91.28 117.72c-14.94 0-27.06-12.13-27.06-27.09 0-14.96 12.12-27.09 27.06-27.09s27.06 12.13 27.06 27.09c0 14.96-12.12 27.09-27.06 27.09Z"/><path fill="#fff" stroke="#153385" stroke-linecap="round" stroke-linejoin="round" d="M93.81 117.72c-14.94 0-27.06-12.13-27.06-27.09 0-14.96 12.12-27.09 27.06-27.09s27.06 12.13 27.06 27.09c0 14.96-12.12 27.09-27.06 27.09Z"/><path fill="#0B64DD" d="M109.03 88.82 86.76 75.5c-1.47-.88-3.41.09-3.41 1.69v26.88c0 1.61 1.96 2.58 3.43 1.68l22.27-13.56c1.32-.8 1.31-2.58-.02-3.37Z"/></svg>