<svg xmlns="http://www.w3.org/2000/svg" fill="none" viewBox="0 0 128 128"><path fill="#153385" d="m35.48 106.04 72.22 15.56-25.09-15.56H35.48Z"/><path fill="#48EFCF" stroke="#153385" stroke-miterlimit="10" d="M82.61 22.04H35.48v84h47.13v-84Z"/><path fill="#153385" stroke="#153385" stroke-linejoin="round" d="m22.38 63.4-6.42 8.13 76.37-.09-6.64-7.91c-.91-1.08-2.69-1.76-4.62-1.76H26.89c-1.85 0-3.57.62-4.51 1.63Z"/><path fill="#fff" stroke="#153385" stroke-miterlimit="10" d="M88.47 69.31h-68.5a4.47 4.47 0 0 0-4.47 4.47v17.08a4.47 4.47 0 0 0 4.47 4.47h68.5a4.47 4.47 0 0 0 4.47-4.47V73.78a4.47 4.47 0 0 0-4.47-4.47Z"/><path fill="#0B64DD" d="M28.76 88.51a5 5 0 1 0 0-10 5 5 0 0 0 0 10Zm48.86-11.34h-3.51v13.08h3.51V77.17Zm-6.76 0h-3.51v13.08h3.51V77.17Z"/><path fill="#153385" stroke="#153385" stroke-linejoin="round" d="m22.38 34.67-6.43 8.13 76.37-.09-6.64-7.91c-.91-1.08-2.69-1.76-4.62-1.76H26.89c-1.85 0-3.57.62-4.51 1.63Z"/><path fill="#fff" stroke="#153385" stroke-miterlimit="10" d="M88.47 40.59h-68.5a4.47 4.47 0 0 0-4.47 4.47v17.08a4.47 4.47 0 0 0 4.47 4.47h68.5a4.47 4.47 0 0 0 4.47-4.47V45.06a4.47 4.47 0 0 0-4.47-4.47Z"/><path fill="#0B64DD" d="M28.76 59.78a5 5 0 1 0 0-10 5 5 0 0 0 0 10Zm48.86-11.34h-3.51v13.08h3.51V48.44Zm-6.76 0h-3.51v13.08h3.51V48.44Z"/><path fill="#F5F7FA" stroke="#153385" stroke-linejoin="round" d="M82.61 22.04 107.2 6.5v114.24l-24.59-14.7v-84Z"/><path fill="#153385" d="M112.21 121.6h-4.51l.01-115.49 4.5 1.99v113.5Z"/><path stroke="#153385" stroke-linejoin="round" d="m107.2 6.5 5.01 1.6v113.5l-5.17-.6"/><path fill="#153385" d="M100.99 66.22c1.342 0 2.43-1.544 2.43-3.45 0-1.905-1.088-3.45-2.43-3.45s-2.43 1.545-2.43 3.45c0 1.905 1.088 3.45 2.43 3.45Z"/><path fill="#153385" d="m100.99 59.32 2.91 1.48c.65.33 1.07 1 1.07 1.74 0 .65-.33 1.26-.87 1.62l-3.11 2.07v-6.91Z"/></svg>