<svg xmlns="http://www.w3.org/2000/svg" fill="none" viewBox="0 0 128 128"><path fill="#101C3F" stroke="#101C3F" stroke-linejoin="round" d="M106.77 57.54 64.16 39.5 21.54 57.54l42.62 19.13 42.61-19.13Z"/><path fill="#F5F7FA" stroke="#101C3F" stroke-linejoin="round" d="M64.16 39.5 49.52 28.44 6.82 46.29l14.72 11.25L64.16 39.5Z"/><path fill="#101C3F" stroke="#101C3F" stroke-linejoin="round" d="M6.82 47.24v-.95l14.72 11.25v1.05L6.82 47.24Z"/><path fill="#F5F7FA" stroke="#101C3F" stroke-linejoin="round" d="m64.16 39.5 14.63-11.06 42.7 17.85-14.72 11.25L64.16 39.5Z"/><path fill="#101C3F" stroke="#101C3F" stroke-linejoin="round" d="m57.27 27.38 4.67-2.42c.08-.04.15-.09.2-.15l-1.57 1.72c-.05.06-.12.11-.2.15L55.7 29.1a14.25 14.25 0 0 0-3.95 3.02l1.57-1.72c1.11-1.21 2.44-2.24 3.95-3.02Zm-19.55-10.7v.51c0 .1-.01.2-.02.31 0 .15-.02.3-.03.45-.01.11-.03.21-.04.32-.02.14-.03.29-.05.43-.02.11-.04.22-.05.33-.02.14-.04.27-.07.41-.02.11-.05.22-.07.33l-.09.4-.09.33c-.03.13-.07.26-.11.38-.03.11-.07.22-.11.33-.04.12-.08.25-.12.37 0 .02-.02.05-.02.07-.03.09-.07.18-.1.26-.04.11-.09.23-.13.34-.05.11-.1.22-.14.33l-.15.33c-.05.11-.11.21-.16.32-.05.11-.11.22-.17.32-.06.1-.12.21-.18.31s-.12.21-.18.31c-.01.02-.03.04-.04.07-.02.04-.05.08-.08.12-.13.21-.26.41-.4.61l-.14.2c-.18.24-.36.48-.55.72v.01c-.15.17-.29.35-.45.51l-1.57 1.72c.16-.17.31-.35.46-.53.19-.23.38-.47.55-.72l.14-.2c.14-.2.27-.4.4-.61l.12-.18c.06-.1.12-.21.18-.31s.12-.21.17-.31c.06-.11.11-.21.17-.32.05-.11.11-.21.16-.32l.15-.33c.05-.11.1-.22.14-.33.05-.11.09-.23.13-.34.04-.11.09-.22.13-.34.04-.12.08-.25.12-.37.04-.11.07-.22.11-.33.04-.13.07-.26.11-.38l.09-.33c.03-.13.06-.26.09-.4.02-.11.05-.22.07-.33.03-.14.05-.27.07-.41.02-.11.04-.22.05-.33.02-.14.04-.28.05-.43.01-.11.03-.21.04-.32l.03-.45c0-.1.02-.2.02-.31v-.76c0-.26 0-.52-.02-.77l-.3-5.4v-.16c0-.02 0-.03.01-.05 0-.03.01-.06.02-.09 0-.02.02-.05.03-.07 0-.02.01-.03.02-.05.02-.03.03-.05.05-.08 0 0 .01-.02.02-.02l1.57-1.72s-.05.07-.08.1c0 .02-.02.03-.02.05-.01.02-.02.05-.03.07-.01.03-.02.06-.02.09 0 .02 0 .03-.01.05v.16l.3 5.4c.01.26.02.52.02.77v.26ZM23.39 34.3v-.19c0-.05.02-.11.04-.16 0 0 0-.02.01-.02 0-.01.01-.02.02-.03 0-.02.02-.04.03-.06.02-.03.03-.05.06-.08 0 0 .01-.02.02-.03l1.57-1.72a.62.62 0 0 0-.11.17c0 .01-.01.02-.02.03-.02.06-.04.12-.05.18v.24c.01.06.03.12.05.17v.02a.731.731 0 0 0 .27.31s.01 0 .02.01c.05.03.1.05.15.07.02 0 .04.02.07.03.07.02.15.04.23.04l5.43.09c.36 0 .72.02 1.07.05.12 0 .24.03.35.04.24.03.47.05.71.08.14.02.28.05.42.08.21.04.42.07.63.12.15.03.29.07.44.11.2.05.4.1.59.15.15.04.3.09.45.14.19.06.38.12.57.19.15.05.3.11.45.17.18.07.36.14.54.22.15.06.29.13.44.2.18.08.35.16.52.25.15.07.29.15.43.23.1.06.21.1.31.16.06.03.12.07.17.11.19.11.38.23.57.35.14.09.27.17.41.26.19.13.38.27.57.4.09.07.19.13.29.2.03.02.06.05.09.08.11.08.21.17.32.26.17.13.33.27.49.41l.32.29c.09.08.18.16.27.25.07.06.13.13.19.19l.26.26.48.51c.07.08.15.16.22.25.03.03.06.06.09.1.19.22.37.45.55.68.01.02.02.03.03.05.16.21.32.43.47.65.02.03.04.07.06.1.24.35.47.71.68 1.08l2.78 4.83c.05.09.11.16.18.22h.01c.06.05.13.09.19.12.01 0 .03.01.04.02.07.03.14.04.21.05h.04c.07 0 .15 0 .22-.02.14-.03.27-.1.37-.21l-1.57 1.72c-.1.11-.23.18-.37.21-.07.02-.14.02-.22.02h-.04c-.07 0-.14-.02-.21-.05-.01 0-.03-.01-.04-.02-.02 0-.04-.02-.07-.03l-.09-.06c-.01 0-.02-.02-.04-.03h-.01l-.02-.02-.06-.06a.304.304 0 0 1-.05-.07c-.01-.02-.03-.04-.04-.07l-2.78-4.83c-.21-.37-.44-.73-.68-1.08-.17-.25-.35-.5-.53-.75-.01-.02-.02-.03-.03-.05-.2-.27-.42-.53-.64-.78-.07-.08-.15-.16-.22-.25-.16-.17-.31-.35-.48-.51-.08-.09-.17-.17-.26-.26-.15-.15-.31-.3-.47-.44-.11-.1-.21-.2-.32-.29-.16-.14-.33-.28-.49-.41l-.32-.26c-.12-.1-.25-.19-.38-.28-.19-.14-.38-.27-.57-.4-.13-.09-.27-.18-.41-.26-.19-.12-.38-.24-.57-.35l-.48-.27c-.14-.08-.29-.15-.43-.23-.17-.09-.35-.17-.52-.25-.15-.07-.29-.14-.44-.2-.18-.08-.36-.15-.54-.22-.15-.06-.3-.12-.45-.17-.19-.07-.38-.13-.57-.19-.15-.05-.3-.1-.45-.14-.2-.06-.39-.1-.59-.15-.15-.04-.29-.08-.44-.11-.21-.05-.42-.08-.63-.12-.14-.02-.28-.05-.42-.08-.23-.04-.47-.06-.71-.08-.12-.01-.24-.03-.36-.04-.36-.03-.71-.05-1.07-.05L24.16 35c-.08 0-.16-.02-.23-.04-.02 0-.04-.02-.07-.03a.355.355 0 0 1-.09-.04.21.21 0 0 1-.06-.04s-.01 0-.02-.01c0 0-.01 0-.02-.01-.02-.02-.05-.04-.07-.06l-.06-.06c-.01-.02-.03-.03-.04-.05-.02-.02-.03-.05-.05-.07 0-.02-.01-.03-.02-.05v-.02s0-.01-.01-.02c-.01-.03-.03-.07-.04-.11v-.1l.01.01Z"/><path fill="#0B64DD" stroke="#101C3F" stroke-linejoin="round" d="M37.95 9.52c-.31.07-.57.33-.54.73l.3 5.4c.33 5.85-2.64 11.16-7.7 13.78l-4.67 2.42c-.69.36-.37 1.44.44 1.45l5.43.09c5.88.1 11.45 3.44 14.46 8.67l2.78 4.83c.2.36.57.48.89.4.32-.08.57-.33.54-.73l-.3-5.4c-.33-5.85 2.64-11.16 7.7-13.78l4.67-2.42c.69-.36.37-1.44-.44-1.45l-5.43-.09c-5.88-.09-11.45-3.43-14.46-8.66l-2.78-4.83a.787.787 0 0 0-.89-.4v-.01Z"/><path fill="#101C3F" stroke="#101C3F" stroke-linejoin="round" d="M121.49 47.24v-.95l-14.72 11.25v1.05l14.72-11.35ZM75.04 29.86l-.7 5.14-3.54-.24a1.4 1.4 0 0 0-.47.04c-.04 0-.08.03-.12.04-.05.02-.1.03-.15.05-.04.02-.09.05-.12.08-.02.02-.04.03-.06.05h-.01s-.02.01-.02.02c-.03.03-.06.06-.08.09-.03.03-.05.07-.08.11-.03.04-.05.09-.08.14v.02s0 .02-.01.03c-.02.06-.05.11-.07.17-.03.11-.06.23-.08.36l-1.56 11.52c-.03.24-.08.46-.15.68-.01.03-.03.06-.04.1-.06.17-.13.33-.21.49-.02.04-.04.08-.07.12-.1.17-.2.33-.32.48-.14.17-.3.33-.47.48-.18.14-.36.27-.56.37-.27.14-.55.23-.85.3-.07.02-.15.03-.22.04-.31.05-.63.08-.96.05l-.27-.02-.1.77 3.08 4.6-1.43 10.52c0 .07-.02.13-.02.2s.01.12.02.18c0 .08 0 .15.02.22v.07c.02.08.05.16.09.23l.03.06 3.62 5.39c-.07-.1-.1-.22-.13-.35-.01-.07-.01-.15-.02-.22 0-.12-.02-.24 0-.38l1.56-11.52c.02-.11.03-.22.03-.33v-.41c0-.11-.02-.23-.04-.34-.01-.07-.02-.15-.04-.22 0-.03 0-.06-.02-.09-.01-.04-.04-.08-.05-.12-.05-.15-.11-.3-.18-.45-.02-.04-.03-.08-.05-.11-.04-.07-.08-.13-.12-.19l-1.43-2.13h.01c.08-.01.15-.03.22-.04.3-.07.59-.16.85-.3.15-.08.29-.17.43-.27l.13-.1c.07-.06.13-.11.19-.17.1-.1.19-.2.28-.3.08-.1.16-.21.23-.32.03-.05.06-.11.09-.16.02-.04.05-.08.07-.12.02-.03.04-.06.05-.09.06-.13.11-.26.15-.39.01-.03.03-.06.04-.1v-.02c.06-.21.11-.43.14-.66l1.56-11.52c.03-.21.08-.39.14-.54 0 0 0-.02.01-.03.07-.15.16-.28.27-.38h.01c.09-.08.21-.13.33-.18.04-.01.08-.03.12-.04.14-.03.3-.05.47-.04l3.54.24.7-5.14L75 29.89l.04-.03Z"/><path fill="#101C3F" stroke="#101C3F" stroke-linejoin="round" d="M63.89 59.26c.21.01.38.06.53.12.14.07.26.16.34.29l-3.62-5.39c-.16-.25-.45-.38-.87-.41l-2.75-.18 3.62 5.39 2.75.18Zm5.26 13.98-5.77-.38c-1.31-.09-2.33-.57-3.05-1.44-.08-.1-.16-.2-.23-.31l3.62 5.39c.07.11.15.21.23.31.72.87 1.73 1.35 3.05 1.44l5.76.38.7-5.14-3.62-5.39-.7 5.14h.01Z"/><path fill="#48EFCF" stroke="#101C3F" stroke-linejoin="round" d="m75.04 29.86-.7 5.14-3.54-.24c-.79-.05-1.24.35-1.35 1.21l-1.56 11.52c-.13.97-.56 1.75-1.26 2.34-.71.59-1.59.84-2.6.77l-.27-.02-.1.77.27.02c1.01.07 1.8.44 2.34 1.11.53.67.74 1.49.61 2.46l-1.56 11.52c-.12.86.22 1.32 1.01 1.37l3.54.24-.7 5.14-5.77-.38c-1.31-.09-2.33-.57-3.05-1.44-.72-.87-.99-1.96-.82-3.23l1.76-12.99c.11-.83-.22-1.27-1.01-1.32l-2.75-.18.84-6.17 2.75.18c.79.05 1.24-.33 1.35-1.17l1.76-12.98c.17-1.29.73-2.31 1.68-3.07.94-.76 2.07-1.1 3.38-1.01l5.77.38-.02.03Z"/><path fill="#101C3F" stroke="#101C3F" stroke-linejoin="round" d="M91.35 41.29c.41.03.7.16.86.41l-3.62-5.39c-.16-.25-.45-.38-.86-.41l-3.54-.24 3.62 5.39 3.54.24Z"/><path fill="#101C3F" stroke="#101C3F" stroke-linejoin="round" d="m96.85 50.53 1.3-9.57c.02-.15.03-.3.04-.44v-.53c0-.15-.02-.29-.05-.43-.01-.1-.03-.19-.05-.29 0-.04-.01-.08-.02-.12-.01-.06-.05-.1-.06-.16-.06-.19-.14-.38-.23-.56-.02-.05-.03-.1-.06-.15-.05-.08-.1-.17-.15-.25l-3.62-5.39c.08.13.14.26.21.39.09.18.17.37.23.56.03.09.06.19.09.28.02.09.04.19.05.29.02.14.04.28.05.43v.32c0 .21 0 .43-.04.65l-1.76 12.98c0 .07-.01.13-.02.19 0 .07.01.12.01.18 0 .07 0 .15.02.21v.07c.02.08.05.15.09.21.01.02.02.04.03.05l3.08 4.59-.29 2.17-2.75-.18h-.09l-2.47-3.68-.26-.02c-1.02-.07-1.8-.43-2.35-1.1-.06-.07-.11-.14-.16-.22l3.62 5.39c.05.07.1.15.16.22.08.09.17.17.26.25-.03.1-.05.2-.07.31l-1.76 12.99c-.04.31-.11.61-.2.89-.01.04-.04.09-.05.13-.08.22-.16.43-.27.64-.03.05-.06.1-.08.15-.13.22-.27.43-.43.63-.01.02-.03.03-.04.05-.18.21-.38.41-.6.59-.23.19-.48.35-.73.49-.02 0-.03.01-.05.02-.22.11-.44.2-.68.28-.08.02-.16.04-.23.06-.19.05-.38.09-.58.11l-.24.03c-.28.02-.56.03-.86.01l-5.76-.38 3.62 5.39 5.77.38c.3.02.58.01.86-.01.08 0 .16-.02.24-.03a5.404 5.404 0 0 0 .81-.17c.23-.08.46-.17.68-.28.02 0 .03-.01.05-.02.2-.11.39-.23.58-.37.05-.04.1-.07.14-.11.11-.09.21-.18.31-.27.1-.1.2-.21.29-.32.01-.02.03-.03.04-.05l.02-.02c.11-.13.21-.27.3-.41.04-.06.07-.13.11-.2.03-.05.06-.1.08-.15.02-.05.05-.09.08-.14.08-.16.13-.33.19-.5.02-.04.04-.09.05-.13 0 0 0-.02.01-.03.08-.27.15-.56.19-.86l1.76-12.99c.03-.2.08-.38.14-.53v-.02c.07-.15.16-.27.27-.36l.01-.01c.09-.08.21-.13.32-.17.04-.01.08-.03.12-.04.14-.03.3-.05.48-.04l2.75.18.84-6.17-3.3-4.92.01.03Z"/><path fill="#48EFCF" stroke="#101C3F" stroke-linejoin="round" d="M90.66 30.91c1.31.09 2.33.57 3.05 1.44.72.87.99 1.94.82 3.23l-1.76 12.98c-.11.84.22 1.27 1.01 1.32l2.75.18-.84 6.17-2.75-.18c-.79-.05-1.24.34-1.35 1.17l-1.76 12.99c-.17 1.28-.73 2.31-1.68 3.07-.94.76-2.07 1.1-3.38 1.01L79 73.91l.7-5.14 3.54.24c.79.05 1.24-.35 1.35-1.21l1.56-11.52c.13-.97.54-1.75 1.26-2.34.72-.59 1.58-.85 2.6-.78l.26.02.1-.77-.26-.02c-1.02-.07-1.8-.43-2.35-1.1-.55-.67-.74-1.49-.61-2.46l1.56-11.52c.12-.86-.22-1.32-1.01-1.37l-3.54-.24.7-5.14 5.77.38.03-.03Z"/><path fill="#fff" stroke="#101C3F" stroke-linejoin="round" d="M64.16 76.67v41.03l42.61-18.92V57.54L64.16 76.67Z"/><path fill="#F5F7FA" stroke="#101C3F" stroke-linejoin="round" d="m64.16 76.67 16.58 1.63 41.07-18.42-15.04-2.34-42.61 19.13Z"/><path fill="#101C3F" stroke="#101C3F" stroke-linejoin="round" d="M64.16 77.47v-.8l16.58 1.63 41.07-18.42v.81L80.93 79.16l-16.77-1.69Z"/><path fill="#fff" stroke="#101C3F" stroke-linejoin="round" d="M64.16 76.67v41.03L21.54 98.78V57.54l42.62 19.13Z"/><path fill="#F5F7FA" stroke="#101C3F" stroke-linejoin="round" d="M64.16 76.67 47.57 78.3 6.5 59.88l15.04-2.34 42.62 19.13Z"/><path fill="#101C3F" stroke="#101C3F" stroke-linejoin="round" d="M64.16 77.47v-.8L47.57 78.3 6.5 59.88v.81l40.88 18.47 16.78-1.69Z"/></svg>