<svg xmlns="http://www.w3.org/2000/svg" fill="none" viewBox="0 0 128 128"><path fill="#153385" stroke="#153385" stroke-miterlimit="10" d="M117.87 66.2s-25.13 34.47-56.12 34.47S5.62 66.2 5.62 66.2s25.13-34.54 56.12-34.54 56.12 34.54 56.12 34.54h.01Z"/><path fill="#fff" stroke="#153385" stroke-miterlimit="10" d="M121.75 62.04S96.62 96.51 65.63 96.51 9.5 62.04 9.5 62.04 34.63 27.5 65.63 27.5c31 0 56.12 34.54 56.12 34.54Z"/><path fill="#48EFCF" stroke="#153385" stroke-miterlimit="10" d="M65.63 86.53c13.542 0 24.52-10.978 24.52-24.52S79.172 37.49 65.63 37.49 41.11 48.468 41.11 62.01s10.978 24.52 24.52 24.52Z"/><path fill="#0B64DD" d="M65.63 75.55c7.478 0 13.54-6.062 13.54-13.54 0-7.478-6.062-13.54-13.54-13.54-7.478 0-13.54 6.062-13.54 13.54 0 7.478 6.062 13.54 13.54 13.54Z"/></svg>