<svg xmlns="http://www.w3.org/2000/svg" fill="none" viewBox="0 0 128 128"><mask id="illustration-organize-files-folders.dark__a" width="110" height="100" x="9" y="14" maskUnits="userSpaceOnUse" style="mask-type:luminance"><path fill="#fff" d="M118.59 14H9v99.67h109.59V14Z"/></mask><g mask="url(#illustration-organize-files-folders.dark__a)"><path stroke="#153385" stroke-miterlimit="10" stroke-width="1.04" d="M83.87 64.91a12.3 12.3 0 0 1 6.74-7.01c5.34-2.26 11.37-.47 14.7 3.97 5.31-.61 10.6 2.29 12.79 7.46"/><path fill="#153385" stroke="#153385" stroke-miterlimit="10" stroke-width="1.04" d="M92.58 34.25 81.41 79.81a2.666 2.666 0 0 1-2.6 2.04h-63.5c-1.75 0-3.03-1.65-2.59-3.35l12.51-47.94h-.03l-.02-4.9c0-1.48 1.19-2.68 2.67-2.68h19.12c1.26 0 2.34.87 2.61 2.1.27 1.22 1.36 2.1 2.61 2.1h38.7c1.73 0 3.04 1.12 2.63 2.8l-.94 4.27Z"/><path fill="#F5F7FA" stroke="#153385" stroke-miterlimit="10" stroke-width="1.04" d="M82.1 14.52h-58c-2.71 0-4.91 2.2-4.91 4.91v45.52c0 2.71 2.2 4.91 4.91 4.91h58c2.71 0 4.91-2.2 4.91-4.91V19.43c0-2.71-2.2-4.91-4.91-4.91Z"/><path fill="#F5F7FA" stroke="#153385" stroke-miterlimit="10" stroke-width="1.04" d="M77.36 18.49h-58c-2.71 0-4.91 2.2-4.91 4.91v45.52c0 2.71 2.2 4.91 4.91 4.91h58c2.71 0 4.91-2.2 4.91-4.91V23.4c0-2.71-2.2-4.91-4.91-4.91Z"/><path fill="#fff" stroke="#153385" stroke-miterlimit="10" stroke-width="1.04" d="m78.71 30.58-.02 48.63c0 1.46-1.19 2.64-2.64 2.64H12.2c-1.46 0-2.64-1.19-2.64-2.64l.02-47.92h-.03l-.02-4.82c0-1.46 1.18-2.65 2.64-2.65h19.2c1.24 0 2.31.86 2.58 2.07a2.643 2.643 0 0 0 2.58 2.07h39.55c1.46 0 2.64 1.19 2.64 2.64v-.02h-.01Z"/><path fill="#0B64DD" d="m109.77 83.37-55.68-.23c-1.67 17.69-23.19 30.23-23.19 30.23l16.5.07c5.77-4.55 17.64-14.59 20.16-22.2 0 0 0 13.17-7.12 22.25l39.11.17c7.85-8.82 11.47-19.56 10.21-30.3l.01.01Z"/><path fill="#153385" stroke="#153385" stroke-miterlimit="10" stroke-width="1.04" d="M114.19 76.42H94.9c.09-.18.14-.38.14-.6v-4.53c0-.79-.64-1.43-1.43-1.43H69.18c-.79 0-1.43.64-1.43 1.43v4.53c0 .21.05.42.14.6H48.83c-.79 0-1.43.64-1.43 1.43v3.51c0 .79.64 1.43 1.43 1.43h65.36c.79 0 1.43-.64 1.43-1.43v-3.51c0-.79-.64-1.43-1.43-1.43Z"/><path fill="#48EFCF" stroke="#153385" stroke-miterlimit="10" stroke-width="1.04" d="M114.19 78.43H95.03V73.3c0-.79-.64-1.43-1.43-1.43H69.17c-.79 0-1.43.64-1.43 1.43v5.13H48.82c-.79 0-1.43.64-1.43 1.43v3.51c0 .79.64 1.43 1.43 1.43h65.36c.79 0 1.43-.64 1.43-1.43v-3.51c0-.79-.64-1.43-1.43-1.43h.01ZM81.12 37.45h.55a5.45 5.45 0 0 1 5.45 5.45v27.5H75.67V42.9a5.45 5.45 0 0 1 5.45-5.45Z"/><path fill="#153385" d="M56.36 42.19H31.88c-1.15 0-2.08.93-2.08 2.08v.21c0 1.15.93 2.08 2.08 2.08h24.48c1.15 0 2.08-.93 2.08-2.08v-.21c0-1.15-.93-2.08-2.08-2.08Z"/><path stroke="#153385" stroke-miterlimit="10" stroke-width="1.04" d="M46.39 93.95a13.97 13.97 0 0 0-10.13-4.33c-6.57 0-12.07 4.53-13.58 10.63-5.8 1.71-10.04 7.07-10.04 13.43"/></g></svg>