<svg xmlns="http://www.w3.org/2000/svg" fill="none" viewBox="0 0 128 128"><path stroke="#153385" stroke-miterlimit="10" d="m26.63 28.37 78.69 76.97m-77.83.86 76.97-78.69m-41.04 87.83c28.122 0 50.92-22.798 50.92-50.92 0-28.122-22.798-50.92-50.92-50.92-28.122 0-50.92 22.798-50.92 50.92 0 28.122 22.798 50.92 50.92 50.92Z"/><path fill="#153385" stroke="#101C3F" stroke-miterlimit="10" d="M64.58 88.97c13.398 0 24.26-10.991 24.26-24.55 0-13.559-10.862-24.55-24.26-24.55-13.398 0-24.26 10.991-24.26 24.55 0 13.559 10.862 24.55 24.26 24.55Z"/><path fill="#48EFCF" stroke="#101C3F" stroke-miterlimit="10" d="M62.27 88.68c13.398 0 24.26-10.862 24.26-24.26 0-13.398-10.862-24.26-24.26-24.26-13.398 0-24.26 10.862-24.26 24.26 0 13.398 10.862 24.26 24.26 24.26Z"/><path fill="#101C3F" d="M62.27 83.55c10.565 0 19.13-8.565 19.13-19.13s-8.565-19.13-19.13-19.13-19.13 8.565-19.13 19.13 8.565 19.13 19.13 19.13Z"/><mask id="illustration-people-channels.light__a" width="39" height="39" x="43" y="45" maskUnits="userSpaceOnUse" style="mask-type:luminance"><path fill="#fff" d="M62.27 83.55c10.565 0 19.13-8.565 19.13-19.13s-8.565-19.13-19.13-19.13-19.13 8.565-19.13 19.13 8.565 19.13 19.13 19.13Z"/></mask><g mask="url(#illustration-people-channels.light__a)"><path fill="#0B64DD" stroke="#101C3F" stroke-miterlimit="10" d="M64.82 84.14c10.565 0 19.13-8.565 19.13-19.13s-8.565-19.13-19.13-19.13-19.13 8.565-19.13 19.13 8.565 19.13 19.13 19.13Z"/></g><path stroke="#101C3F" stroke-miterlimit="10" d="M62.27 83.55c10.565 0 19.13-8.565 19.13-19.13s-8.565-19.13-19.13-19.13-19.13 8.565-19.13 19.13 8.565 19.13 19.13 19.13Z"/><path fill="#48EFCF" d="M71.39 71.14c0 4.49-16.26 4.49-16.26 0 0-2.94 1.57-5.52 3.91-6.94a5.836 5.836 0 0 1-1.54-3.97c0-3.25 2.63-5.88 5.88-5.88s5.88 2.63 5.88 5.88c0 1.58-.62 3.01-1.64 4.07a8.11 8.11 0 0 1 3.76 6.85l.01-.01Z"/><path fill="#101C3F" stroke="#101C3F" stroke-miterlimit="10" d="M28.13 41.99c7.522 0 13.62-6.098 13.62-13.62 0-7.522-6.098-13.62-13.62-13.62-7.522 0-13.62 6.098-13.62 13.62 0 7.522 6.098 13.62 13.62 13.62Z"/><path fill="#48EFCF" stroke="#101C3F" stroke-miterlimit="10" d="M26.63 41.99c7.522 0 13.62-6.098 13.62-13.62 0-7.522-6.098-13.62-13.62-13.62-7.522 0-13.62 6.098-13.62 13.62 0 7.522 6.098 13.62 13.62 13.62Z"/><path fill="#0B64DD" d="M32.38 33.13c0 3.18-11.51 3.18-11.51 0 0-2.08 1.11-3.91 2.77-4.92a4.141 4.141 0 0 1-1.09-2.81c0-2.3 1.87-4.17 4.17-4.17s4.17 1.87 4.17 4.17c0 1.12-.44 2.13-1.16 2.88a5.74 5.74 0 0 1 2.66 4.85h-.01Z"/><path fill="#101C3F" stroke="#101C3F" stroke-miterlimit="10" d="M101.07 41.99c7.522 0 13.62-6.098 13.62-13.62 0-7.522-6.098-13.62-13.62-13.62-7.522 0-13.62 6.098-13.62 13.62 0 7.522 6.098 13.62 13.62 13.62Z"/><path fill="#48EFCF" stroke="#101C3F" stroke-miterlimit="10" d="M99.57 41.99c7.522 0 13.62-6.098 13.62-13.62 0-7.522-6.098-13.62-13.62-13.62-7.522 0-13.62 6.098-13.62 13.62 0 7.522 6.098 13.62 13.62 13.62Z"/><path fill="#0B64DD" d="M105.32 33.13c0 3.18-11.51 3.18-11.51 0 0-2.08 1.11-3.91 2.77-4.92a4.141 4.141 0 0 1-1.09-2.81c0-2.3 1.87-4.17 4.17-4.17s4.17 1.87 4.17 4.17c0 1.12-.44 2.13-1.16 2.88a5.74 5.74 0 0 1 2.66 4.85h-.01Z"/><path fill="#101C3F" stroke="#101C3F" stroke-miterlimit="10" d="M28.13 114.2c7.522 0 13.62-6.098 13.62-13.62 0-7.522-6.098-13.62-13.62-13.62-7.522 0-13.62 6.098-13.62 13.62 0 7.522 6.098 13.62 13.62 13.62Z"/><path fill="#48EFCF" stroke="#101C3F" stroke-miterlimit="10" d="M26.63 114.2c7.522 0 13.62-6.098 13.62-13.62 0-7.522-6.098-13.62-13.62-13.62-7.522 0-13.62 6.098-13.62 13.62 0 7.522 6.098 13.62 13.62 13.62Z"/><path fill="#0B64DD" d="M32.38 105.34c0 3.18-11.51 3.18-11.51 0 0-2.08 1.11-3.91 2.77-4.92a4.141 4.141 0 0 1-1.09-2.81c0-2.3 1.87-4.17 4.17-4.17s4.17 1.87 4.17 4.17c0 1.12-.44 2.13-1.16 2.88a5.74 5.74 0 0 1 2.66 4.85h-.01Z"/><path fill="#101C3F" stroke="#101C3F" stroke-miterlimit="10" d="M101.07 114.2c7.522 0 13.62-6.098 13.62-13.62 0-7.522-6.098-13.62-13.62-13.62-7.522 0-13.62 6.098-13.62 13.62 0 7.522 6.098 13.62 13.62 13.62Z"/><path fill="#48EFCF" stroke="#101C3F" stroke-miterlimit="10" d="M99.57 114.2c7.522 0 13.62-6.098 13.62-13.62 0-7.522-6.098-13.62-13.62-13.62-7.522 0-13.62 6.098-13.62 13.62 0 7.522 6.098 13.62 13.62 13.62Z"/><path fill="#0B64DD" d="M105.32 105.34c0 3.18-11.51 3.18-11.51 0 0-2.08 1.11-3.91 2.77-4.92a4.141 4.141 0 0 1-1.09-2.81c0-2.3 1.87-4.17 4.17-4.17s4.17 1.87 4.17 4.17c0 1.12-.44 2.13-1.16 2.88a5.74 5.74 0 0 1 2.66 4.85h-.01Z"/></svg>