<svg xmlns="http://www.w3.org/2000/svg" fill="none" viewBox="0 0 128 128"><path fill="#153385" stroke="#101C3F" stroke-miterlimit="10" d="M14.5 102.06h94.83v4.64c0 3.77-3.06 6.82-6.82 6.82H21.32c-3.77 0-6.82-3.06-6.82-6.82v-4.64Zm0-16.63V44.04c0-1.51.87-2.95 2.36-3.89l40.4-25.56c2.26-1.43 5.47-1.45 7.77-.05l41.86 25.61c1.54.94 2.44 2.4 2.44 3.94v41.34c0 2.75-2.81 4.98-6.29 4.98H20.79c-3.47 0-6.29-2.23-6.29-4.98Z"/><path fill="#fff" stroke="#101C3F" stroke-miterlimit="10" d="M91.46 22.58H32.38a7.54 7.54 0 0 0-7.54 7.54V89.2a7.54 7.54 0 0 0 7.54 7.54h59.08A7.54 7.54 0 0 0 99 89.2V30.12a7.54 7.54 0 0 0-7.54-7.54Z"/><path fill="#0B64DD" stroke="#101C3F" stroke-miterlimit="10" d="m14.5 62.05 47.41 17.24 47.41-17.24v42.28c0 3.46-2.81 6.27-6.27 6.27H20.77c-3.46 0-6.27-2.81-6.27-6.27V62.05Z"/><path fill="#0B64DD" stroke="#101C3F" stroke-miterlimit="10" d="m16.22 103.09 43.25-31.1a4.19 4.19 0 0 1 4.89 0l43.25 31.1c1.08.78 1.72 2.03 1.72 3.36 0 2.29-1.85 4.14-4.14 4.14H18.64c-2.29 0-4.14-1.85-4.14-4.14 0-1.33.64-2.59 1.72-3.36Z"/><path fill="#153385" stroke="#101C3F" stroke-miterlimit="10" d="M74.47 90.57c-1.99 0-3.82-1.19-4.77-3.1-.95-1.91-.86-4.23.23-6.06l17.01-28.44c1-1.68 2.7-2.68 4.54-2.68 1.84 0 3.51.99 4.51 2.64l17.32 28.44c1.11 1.82 1.21 4.15.26 6.08-.95 1.93-2.78 3.12-4.78 3.12H74.47Z"/><path fill="#101C3F" d="M91.44 50.14h-2.27v1.58h2.27v-1.58Z"/><path fill="#48EFCF" stroke="#101C3F" stroke-miterlimit="10" d="M72.33 90.57c-1.99 0-3.82-1.19-4.77-3.1-.95-1.91-.86-4.23.23-6.06L84.8 52.97c1-1.68 2.7-2.68 4.54-2.68 1.84 0 3.51.99 4.51 2.64l17.32 28.44c1.11 1.82 1.21 4.15.26 6.08-.95 1.93-2.78 3.12-4.78 3.12H72.33Z"/><path fill="#48EFCF" stroke="#101C3F" stroke-miterlimit="10" d="M87.18 54.67 70.17 83.11c-1.12 1.87.11 4.36 2.16 4.36h34.32c2.06 0 3.29-2.51 2.15-4.38L91.48 54.65c-1.03-1.69-3.3-1.67-4.31.02h.01Z"/><path fill="#101C3F" d="M90.872 78.06H87.57l-.833-12.405h4.94l-.805 12.405Zm-3.893 6.39v-4.591h4.43v4.591h-4.43Z"/><path fill="#0B64DD" d="m38.868 63.642-1.835-3.327-1.865 3.327-2.798-2.052 2.456-2.798-3.544-.715 1.088-3.39 3.327 1.649-.467-3.669h3.607l-.467 3.669 3.296-1.648 1.12 3.389-3.545.715 2.456 2.798-2.83 2.052Zm12.752 0-1.835-3.327-1.865 3.327-2.798-2.052 2.456-2.798-3.544-.715 1.088-3.39 3.326 1.649-.466-3.669h3.607l-.467 3.669 3.296-1.648 1.119 3.389-3.544.715 2.456 2.798-2.83 2.052Zm12.751 0-1.834-3.327-1.865 3.327-2.798-2.052 2.456-2.798-3.545-.715 1.089-3.39 3.326 1.649-.466-3.669h3.606l-.466 3.669 3.295-1.648 1.12 3.389-3.545.715 2.457 2.798-2.83 2.052Z"/><path stroke="#101C3F" stroke-miterlimit="10" d="M30.22 41.26h48.91m-48.91-8.04h31.69"/></svg>