<svg xmlns="http://www.w3.org/2000/svg" fill="none" viewBox="0 0 128 128"><path fill="#153385" stroke="#101C3F" stroke-miterlimit="10" d="M74.95 9.5H27.01c-6.373 0-11.54 5.167-11.54 11.54v86c0 6.373 5.167 11.54 11.54 11.54h47.94c6.373 0 11.54-5.167 11.54-11.54v-86c0-6.373-5.167-11.54-11.54-11.54Z"/><path fill="#fff" stroke="#101C3F" stroke-miterlimit="10" d="M79.75 10.12H31.81c-6.373 0-11.54 5.167-11.54 11.54v86c0 6.373 5.167 11.54 11.54 11.54h47.94c6.373 0 11.54-5.167 11.54-11.54v-86c0-6.373-5.167-11.54-11.54-11.54Z"/><path fill="#0B64DD" d="M80.11 14.36H32.05a7.9 7.9 0 0 0-7.9 7.9v84.8a7.9 7.9 0 0 0 7.9 7.9h48.06a7.9 7.9 0 0 0 7.9-7.9v-84.8a7.9 7.9 0 0 0-7.9-7.9Z"/><path fill="#101C3F" d="m48.19 85.6 39.82 13.73-.02-13.57-39.8-.16Z"/><path fill="#101C3F" stroke="#101C3F" stroke-miterlimit="10" d="M109.62 40.08H48.19a5.11 5.11 0 0 0-5.11 5.11V80.5a5.11 5.11 0 0 0 5.11 5.11h61.43a5.11 5.11 0 0 0 5.11-5.11V45.19a5.11 5.11 0 0 0-5.11-5.11Z"/><path fill="#48EFCF" d="M107.9 40.08H46.47a5.11 5.11 0 0 0-5.11 5.11V80.5a5.11 5.11 0 0 0 5.11 5.11h61.43a5.11 5.11 0 0 0 5.11-5.11V45.19a5.11 5.11 0 0 0-5.11-5.11Z"/><mask id="illustration-phone-credit-card.light__a" width="73" height="46" x="41" y="40" maskUnits="userSpaceOnUse" style="mask-type:luminance"><path fill="#fff" d="M107.9 40.08H46.47a5.11 5.11 0 0 0-5.11 5.11V80.5a5.11 5.11 0 0 0 5.11 5.11h61.43a5.11 5.11 0 0 0 5.11-5.11V45.19a5.11 5.11 0 0 0-5.11-5.11Z"/></mask><g mask="url(#illustration-phone-credit-card.light__a)"><path fill="#101C3F" d="M112.78 46.64H41.61v9.69h71.17v-9.69Z"/></g><path stroke="#101C3F" stroke-miterlimit="10" d="M107.9 40.08H46.47a5.11 5.11 0 0 0-5.11 5.11V80.5a5.11 5.11 0 0 0 5.11 5.11h61.43a5.11 5.11 0 0 0 5.11-5.11V45.19a5.11 5.11 0 0 0-5.11-5.11Z"/><path fill="#fff" d="M68.79 66.24H52.86a3.98 3.98 0 1 0 0 7.96h15.93a3.98 3.98 0 1 0 0-7.96Zm10.63 7.55a3.78 3.78 0 1 0 0-7.56 3.78 3.78 0 0 0 0 7.56Z"/><path stroke="#101C3F" stroke-miterlimit="10" d="M50.1 78.8H67m2.02 0h6.63"/><path fill="#101C3F" d="M65.36 19.03H46.21a2.94 2.94 0 0 0-2.94 2.94v.01a2.94 2.94 0 0 0 2.94 2.94h19.15a2.94 2.94 0 0 0 2.94-2.94v-.01a2.94 2.94 0 0 0-2.94-2.94Z"/><path fill="#153385" d="M17.2 23.81v18.26c-2.04 0-3.7-1.66-3.7-3.7V27.52c0-2.04 1.66-3.7 3.7-3.7v-.01Z"/><path stroke="#101C3F" stroke-miterlimit="10" d="M17.2 42.07c-2.05 0-3.7-1.66-3.7-3.7V27.52c0-2.05 1.66-3.7 3.7-3.7"/></svg>