<svg xmlns="http://www.w3.org/2000/svg" fill="none" viewBox="0 0 128 128"><path fill="#153385" stroke="#153385" d="m121.11 86.191-46.82 27.69a8.526 8.526 0 0 1-8.57-.03L6.7 79.091c-2.28-1.34-2.26-4.64.04-5.95l46.83-27.42a8.51 8.51 0 0 1 8.51.04l59.05 34.48c2.28 1.33 2.27 4.62-.01 5.94l-.01.01Z"/><path fill="#153385" d="M122.83 83.491v-3.21h-3.87"/><path stroke="#153385" d="M122.83 83.491v-3.21h-3.87"/><path fill="#153385" d="M8.88 73.181H5v3.21"/><path stroke="#153385" d="M8.88 73.181H5v3.21"/><path fill="#F5F7FA" stroke="#153385" stroke-miterlimit="10" d="m121.11 83.321-48.18 28.48a5.84 5.84 0 0 1-5.87-.02L6.7 76.231c-2.28-1.34-2.26-4.64.04-5.95l48.18-28.19a5.818 5.818 0 0 1 5.82.03l60.39 35.26c2.28 1.33 2.27 4.62-.01 5.94h-.01Z"/><path fill="#fff" stroke="#153385" stroke-linecap="round" stroke-linejoin="round" d="m91.17 94.501-20.15 11.65c-.82.47-1.82.47-2.63-.01l-27.08-15.94c-1.02-.6-1.01-2.08.02-2.67l20.15-11.52c.81-.46 1.81-.46 2.61.01l27.09 15.81c1.02.6 1.02 2.07 0 2.67h-.01Z"/><path fill="#fff" stroke="#153385" stroke-miterlimit="10" d="m94.22 33.211-52.57 31.42c-.9.52-2 .51-2.9-.01l-28.72-17.57c-1.12-.66-1.11-2.29.02-2.94l52.37-30.73c.89-.51 1.99-.51 2.88.01l28.93 16.88c1.13.66 1.12 2.28 0 2.94h-.01Z"/><path fill="#0B64DD" stroke="#153385" stroke-miterlimit="10" d="m122.05 65.861-21.54 12.45c-.87.5-1.95.5-2.81-.01l-28.94-17.04c-1.09-.64-1.08-2.22.02-2.85l21.54-12.31c.87-.5 1.93-.49 2.79.01l28.95 16.9c1.09.64 1.09 2.22 0 2.85h-.01Z"/><path stroke="#fff" stroke-miterlimit="10" d="m74.67 59.441 12.59-.17.35 4.55 16.44-3.32v8.52l8.47-2.85"/><path stroke="#0B64DD" stroke-miterlimit="10" d="m61.27 18.951 22.76 13.29m-28.86-9.55 14.21 8.44m-20.4-4.63 9.82 5.74m-14.97-2.2 22.68 13.24m-28.99-9.49 19.52 11.13m-25.52-7.7 9.02 5.27m-14.97-1.42 21.37 12.48m-27.41-8.6 9.82 5.73"/><path fill="#48EFCF" d="m60.69 79.311-2.79 1.59 24.55 14.34 2.8-1.63-24.56-14.3Z"/><mask id="illustration-platform.dark__a" width="29" height="17" x="57" y="79" maskUnits="userSpaceOnUse" style="mask-type:luminance"><path fill="#fff" d="m60.69 79.311-2.79 1.59 24.55 14.34 2.8-1.63-24.56-14.3Z"/></mask><g mask="url(#illustration-platform.dark__a)"><path fill="#153385" d="m84.35 92.261-4.15 2.68 2.3 1.62 3.82-2.92-1.97-1.38Z"/></g><path fill="#48EFCF" d="m55.2 82.581-2.79 1.59 17.34 10.15 2.94-1.72-17.49-10.02Z"/><mask id="illustration-platform.dark__b" width="21" height="13" x="52" y="82" maskUnits="userSpaceOnUse" style="mask-type:luminance"><path fill="#fff" d="m55.2 82.581-2.79 1.59 17.34 10.15 2.94-1.72-17.49-10.02Z"/></mask><g mask="url(#illustration-platform.dark__b)"><path fill="#153385" d="m69.32 90.071-4.3 2.69 5.39 3.54 4.1-3.33-5.19-2.9Z"/></g><path fill="#48EFCF" d="m49.91 85.791-2.83 1.48 17.96 10.56 2.69-1.47-17.82-10.57Z"/><mask id="illustration-platform.dark__c" width="21" height="13" x="47" y="85" maskUnits="userSpaceOnUse" style="mask-type:luminance"><path fill="#fff" d="m49.91 85.791-2.83 1.48 17.96 10.56 2.69-1.47-17.82-10.57Z"/></mask><g mask="url(#illustration-platform.dark__c)"><path fill="#153385" d="m61.17 91.751-3.64 2.12 7.73 4.69 5.49-2.73-9.58-4.08Z"/></g></svg>