<svg xmlns="http://www.w3.org/2000/svg" fill="none" viewBox="0 0 128 128"><path fill="#153385" stroke="#153385" stroke-miterlimit="10" d="M94.458 31.148c.284-1.193-3.227-3.051-7.842-4.15-4.615-1.1-8.586-1.025-8.87.168-.285 1.193 3.226 3.051 7.841 4.15 4.615 1.1 8.587 1.024 8.87-.168Z"/><path fill="#F5F7FA" stroke="#153385" stroke-miterlimit="10" d="m72.782 64.035 9.786 2.331 10.03-42.102-9.786-2.331-10.03 42.102Z"/><path fill="#F5F7FA" stroke="#153385" stroke-miterlimit="10" d="M92.697 24.019c.184-.774-1.879-1.928-4.608-2.578-2.73-.65-5.091-.55-5.275.223-.185.774 1.879 1.928 4.608 2.578 2.729.65 5.09.55 5.275-.223Z"/><path fill="#0B64DD" stroke="#153385" stroke-linejoin="round" d="M94.11 32.01s-6.95 1.96-16.39-3.91l-.97 4.06c-.2.83.13 1.7.83 2.17 2.14 1.44 7.15 4.13 13.79 3.29.86-.11 1.58-.73 1.78-1.57l.96-4.04Z"/><path fill="#153385" stroke="#153385" stroke-miterlimit="10" d="M41.86 31.232c4.616-1.1 8.127-2.958 7.842-4.15-.284-1.193-4.255-1.269-8.87-.17-4.615 1.1-8.126 2.958-7.842 4.15.284 1.193 4.256 1.27 8.87.17Z"/><path fill="#F5F7FA" stroke="#153385" stroke-miterlimit="10" d="m44.665 21.938-9.786 2.331 10.03 42.102 9.786-2.331-10.03-42.102Z"/><path fill="#153385" stroke="#153385" stroke-miterlimit="10" d="M34.5 48.91h59.37c4.86 0 8.81 3.95 8.81 8.81v48.71H25.69V57.72c0-4.86 3.95-8.81 8.81-8.81Z"/><path fill="#fff" stroke="#153385" stroke-miterlimit="10" d="M33.86 48.91h60.06c2.48 0 4.5 2.02 4.5 4.5v53.01H29.36V53.41c0-2.48 2.02-4.5 4.5-4.5Z"/><path fill="#F5F7FA" stroke="#153385" stroke-miterlimit="10" d="M40.055 24.26c2.73-.65 4.792-1.805 4.608-2.578-.184-.774-2.546-.874-5.275-.224-2.73.65-4.793 1.805-4.608 2.578.184.774 2.546.874 5.275.224Z"/><path fill="#0B64DD" stroke="#153385" stroke-linejoin="round" d="M33.36 31.93s6.95 1.96 16.39-3.91l.97 4.06c.2.83-.13 1.7-.83 2.17-2.14 1.44-7.15 4.13-13.79 3.29-.86-.11-1.58-.73-1.78-1.57l-.96-4.04Z"/><path fill="#fff" stroke="#153385" stroke-miterlimit="10" d="M104.36 106.42h-80.4a1.46 1.46 0 0 0-1.46 1.46v5.23c0 .806.654 1.46 1.46 1.46h80.4a1.46 1.46 0 0 0 1.46-1.46v-5.23a1.46 1.46 0 0 0-1.46-1.46Z"/><path stroke="#153385" stroke-miterlimit="10" d="m39.52 22.44 6.64-10.58 8.76 6 9.91-9.14 6.68 8.01 8.59-5.86 7.01 11.56"/><path fill="#153385" stroke="#153385" stroke-linejoin="round" d="m65.48 121.21.85-9.62 2.9.4V95.6h-21.2l17.05-29.82.26-7.03h3.89v26.1h21.48l-21.25 36.36h-3.98Z"/><path fill="#48EFCF" stroke="#153385" stroke-linejoin="round" d="m65.34 58.75-21.2 37.67h21.2v24.79l21.48-35.72H65.34V58.75Z"/></svg>