<svg xmlns="http://www.w3.org/2000/svg" fill="none" viewBox="0 0 128 128"><path fill="#0B64DD" stroke="#153385" stroke-miterlimit="10" d="M28.5 110.5c0 4.78 16.01 8.65 35.75 8.65S100 115.28 100 110.5v-5.34H28.5v5.34Z"/><path fill="#153385" stroke="#153385" stroke-miterlimit="10" d="M64.25 113.82c19.744 0 35.75-3.873 35.75-8.65s-16.006-8.65-35.75-8.65-35.75 3.873-35.75 8.65 16.006 8.65 35.75 8.65Z"/><path fill="#fff" d="M79.33 79.83c-6.97-5.68-12.45-7.64-12.45-13.45s3.31-7.73 5.82-8.73c19.97-7.9 19.09-29.98 19.09-29.98l-27.52 1.8-27.52-1.8s-.88 22.08 19.09 29.98c2.51.99 5.82 2.91 5.82 8.73s-5.48 7.78-12.45 13.45c-4.45 3.62-13.54 16.54-12.45 25.81 0 0 9.19 5.43 27.46 5.45h.12c18.27-.03 27.46-5.45 27.46-5.45 1.09-9.27-8-22.19-12.45-25.81h-.02Z"/><mask id="illustration-powerful-hour-glass.dark__a" width="56" height="85" x="36" y="27" maskUnits="userSpaceOnUse" style="mask-type:luminance"><path fill="#fff" d="M79.33 79.83c-6.97-5.68-12.45-7.64-12.45-13.45s3.31-7.73 5.82-8.73c19.97-7.9 19.09-29.98 19.09-29.98l-27.52 1.8-27.52-1.8s-.88 22.08 19.09 29.98c2.51.99 5.82 2.91 5.82 8.73s-5.48 7.78-12.45 13.45c-4.45 3.62-13.54 16.54-12.45 25.81 0 0 9.19 5.43 27.46 5.45h.12c18.27-.03 27.46-5.45 27.46-5.45 1.09-9.27-8-22.19-12.45-25.81h-.02Z"/></mask><g mask="url(#illustration-powerful-hour-glass.dark__a)"><path fill="#48EFCF" d="M44.72 53.11h35.9L66.87 66.38h-5.23L44.72 53.11Zm-8.08 42.57h55.23l3.27 20.77-63.92-2.08 5.42-18.69Z"/><path stroke="#48EFCF" stroke-miterlimit="10" d="M64.25 64.26v15.01m0 1.75v4.59m0 2.92v11.4"/></g><path stroke="#153385" stroke-miterlimit="10" d="M79.33 79.83c-6.97-5.68-12.45-7.64-12.45-13.45s3.31-7.73 5.82-8.73c19.97-7.9 19.09-29.98 19.09-29.98l-27.52 1.8-27.52-1.8s-.88 22.08 19.09 29.98c2.51.99 5.82 2.91 5.82 8.73s-5.48 7.78-12.45 13.45c-4.45 3.62-13.54 16.54-12.45 25.81 0 0 9.19 5.43 27.46 5.45h.12c18.27-.03 27.46-5.45 27.46-5.45 1.09-9.27-8-22.19-12.45-25.81h-.02Z"/><path fill="#0B64DD" stroke="#153385" stroke-miterlimit="10" d="M28.5 23.49c0 4.78 16.01 8.65 35.75 8.65S100 28.27 100 23.49v-5.34H28.5v5.34Z"/><path fill="#fff" stroke="#153385" stroke-miterlimit="10" d="M64.25 26.8c19.744 0 35.75-3.873 35.75-8.65S83.994 9.5 64.25 9.5 28.5 13.373 28.5 18.15s16.006 8.65 35.75 8.65Z"/></svg>