<svg xmlns="http://www.w3.org/2000/svg" fill="none" viewBox="0 0 128 128"><g clip-path="url(#illustration-pricing-model.light__a)"><path fill="#101C3F" stroke="#101C3F" stroke-miterlimit="10" stroke-width=".84" d="M117.624 32.585H79.371c-3.83 0-6.935 3.09-6.935 6.904v69.158c0 3.813 3.104 6.904 6.935 6.904h38.253c3.83 0 6.935-3.091 6.935-6.904V39.489c0-3.813-3.105-6.904-6.935-6.904Zm-68.439 0H10.418c-3.854 0-6.977 3.11-6.977 6.946v69.074c0 3.836 3.123 6.946 6.977 6.946h38.767c3.854 0 6.978-3.11 6.978-6.946V39.531c0-3.836-3.124-6.946-6.978-6.946Z"/><path fill="#F5F7FA" stroke="#101C3F" stroke-miterlimit="10" stroke-width=".8" d="M115.652 32.585H79.046c-3.651 0-6.61 2.946-6.61 6.58v65.721c0 3.635 2.959 6.581 6.61 6.581h36.606c3.65 0 6.61-2.946 6.61-6.581v-65.72c0-3.635-2.96-6.581-6.61-6.581Zm-68.995 0H10.05c-3.651 0-6.61 2.946-6.61 6.58v65.721c0 3.635 2.959 6.581 6.61 6.581h36.606c3.65 0 6.61-2.946 6.61-6.581v-65.72c0-3.635-2.96-6.581-6.61-6.581Z"/><path fill="#48EFCF" stroke="#101C3F" stroke-miterlimit="10" d="m31.16 46.8 2.959 9.077a1.42 1.42 0 0 0 1.353.982h9.59c1.385 0 1.952 1.755.84 2.57l-7.754 5.609a1.414 1.414 0 0 0-.514 1.588l2.959 9.076c.43 1.306-1.081 2.392-2.193 1.588l-7.754-5.609a1.422 1.422 0 0 0-1.678 0l-7.754 5.609c-1.112.804-2.623-.282-2.193-1.588l2.959-9.076a1.43 1.43 0 0 0-.514-1.588l-7.754-5.61c-1.112-.803-.545-2.569.84-2.569h9.59a1.42 1.42 0 0 0 1.353-.982l2.958-9.077c.43-1.305 2.288-1.305 2.707 0Zm69.058 0 2.959 9.077a1.42 1.42 0 0 0 1.353.982h9.59c1.385 0 1.951 1.755.839 2.57l-7.753 5.609a1.413 1.413 0 0 0-.514 1.588l2.958 9.076c.431 1.306-1.08 2.392-2.192 1.588l-7.754-5.609a1.422 1.422 0 0 0-1.679 0l-7.753 5.609c-1.112.804-2.623-.282-2.193-1.588l2.959-9.076a1.43 1.43 0 0 0-.514-1.588l-7.754-5.61c-1.112-.803-.545-2.569.84-2.569h9.59a1.42 1.42 0 0 0 1.352-.982l2.96-9.077c.43-1.305 2.287-1.305 2.706 0Z"/><path fill="#101C3F" stroke="#101C3F" stroke-miterlimit="10" stroke-width=".93" d="M84.46 16.374H40.056c-4.23 0-7.659 3.414-7.659 7.625V97.02c0 4.211 3.43 7.625 7.66 7.625h44.401c4.23 0 7.66-3.414 7.66-7.625V24c0-4.211-3.43-7.625-7.66-7.625Z"/><path fill="#fff" stroke="#101C3F" stroke-miterlimit="10" stroke-width=".93" d="M84.46 13.48H40.056c-4.23 0-7.659 3.414-7.659 7.625v73.023c0 4.21 3.43 7.625 7.66 7.625h44.401c4.23 0 7.66-3.414 7.66-7.625V21.105c0-4.21-3.43-7.625-7.66-7.625Z"/><path fill="#fff" d="M80.62 18.275H43.886c-3.65 0-6.61 2.946-6.61 6.58v65.533c0 3.635 2.96 6.58 6.61 6.58h36.732c3.65 0 6.61-2.945 6.61-6.58V24.855c0-3.634-2.96-6.58-6.61-6.58Z"/><path stroke="#101C3F" stroke-linecap="round" stroke-miterlimit="10" stroke-width="1.91" d="M45.534 77.28H78.91"/><path fill="#101C3F" stroke="#101C3F" stroke-miterlimit="10" d="m63.58 32.063 2.96 9.076a1.42 1.42 0 0 0 1.352.982h9.59c1.385 0 1.952 1.755.84 2.57L70.567 50.3a1.414 1.414 0 0 0-.514 1.588l2.959 9.076c.43 1.306-1.081 2.392-2.193 1.588l-7.754-5.61a1.422 1.422 0 0 0-1.678 0l-7.754 5.61c-1.112.804-2.623-.282-2.193-1.588l2.959-9.076a1.43 1.43 0 0 0-.514-1.588l-7.754-5.61c-1.112-.804-.545-2.569.84-2.569h9.59a1.42 1.42 0 0 0 1.353-.982l2.958-9.077c.43-1.305 2.288-1.305 2.707 0Z"/><path fill="#0B64DD" stroke="#101C3F" stroke-miterlimit="10" d="m63.58 30.517 2.96 9.076a1.42 1.42 0 0 0 1.352.982h9.59c1.385 0 1.952 1.755.84 2.57l-7.754 5.609a1.414 1.414 0 0 0-.514 1.588l2.959 9.076c.43 1.306-1.081 2.392-2.193 1.588l-7.754-5.609a1.422 1.422 0 0 0-1.678 0l-7.754 5.61c-1.112.803-2.623-.283-2.193-1.589l2.959-9.076a1.43 1.43 0 0 0-.514-1.588l-7.754-5.61c-1.112-.803-.545-2.569.84-2.569h9.59a1.42 1.42 0 0 0 1.353-.982l2.958-9.076c.43-1.306 2.288-1.306 2.707 0Z"/><path fill="#101C3F" d="m92.391 99.027 6.474-66.442h-6.747l.273 66.442Z"/></g><defs><clipPath id="illustration-pricing-model.light__a"><path fill="#fff" d="M0 0h122v103H0z" transform="translate(3 13)"/></clipPath></defs></svg>