<svg xmlns="http://www.w3.org/2000/svg" fill="none" viewBox="0 0 128 128"><path fill="#153385" stroke="#101C3F" stroke-miterlimit="10" d="M99.38 41.67H12.86a7.36 7.36 0 0 0-7.36 7.36v14.78a7.36 7.36 0 0 0 7.36 7.36h86.52a7.36 7.36 0 0 0 7.36-7.36V49.03a7.36 7.36 0 0 0-7.36-7.36Z"/><path fill="#0B64DD" stroke="#101C3F" stroke-miterlimit="10" d="M99.38 38.56H12.86a7.36 7.36 0 0 0-7.36 7.36V60.7a7.36 7.36 0 0 0 7.36 7.36h86.52a7.36 7.36 0 0 0 7.36-7.36V45.92a7.36 7.36 0 0 0-7.36-7.36Z"/><path fill="#48EFCF" d="M28.29 58.23c0 3.3-11.93 3.3-11.93 0 0-2.16 1.15-4.05 2.87-5.1-.7-.77-1.13-1.79-1.13-2.91 0-2.39 1.93-4.32 4.32-4.32a4.315 4.315 0 0 1 3.12 7.3 5.946 5.946 0 0 1 2.76 5.02l-.01.01Z"/><path fill="#fff" d="M44.14 57.49a3.42 3.42 0 1 0 0-6.84 3.42 3.42 0 0 0 0 6.84Zm14.68 0a3.42 3.42 0 1 0 0-6.84 3.42 3.42 0 0 0 0 6.84Zm14.68 0a3.42 3.42 0 1 0 0-6.84 3.42 3.42 0 0 0 0 6.84Zm14.69 0a3.42 3.42 0 1 0 0-6.84 3.42 3.42 0 0 0 0 6.84Z"/><path fill="#153385" stroke="#101C3F" stroke-miterlimit="10" d="M78.12 60.78c-2.19 0-4.2-1.31-5.24-3.41s-.95-4.65.25-6.66l18.7-31.26c1.1-1.85 2.97-2.95 4.99-2.95s3.85 1.09 4.96 2.9l19.04 31.26c1.22 2 1.33 4.56.29 6.68s-3.05 3.43-5.25 3.43H78.13l-.01.01Z"/><path fill="#101C3F" d="M96.79 16.34h-2.5v1.74h2.5v-1.74Z"/><path fill="#48EFCF" stroke="#101C3F" stroke-miterlimit="10" d="M75.77 60.78c-2.19 0-4.2-1.31-5.24-3.41s-.95-4.65.25-6.66l18.7-31.26c1.1-1.85 2.97-2.95 4.99-2.95s3.85 1.09 4.96 2.9l19.04 31.26c1.22 2 1.33 4.56.29 6.68s-3.05 3.43-5.25 3.43H75.78l-.01.01Z"/><path fill="#48EFCF" stroke="#101C3F" stroke-miterlimit="10" d="M92.1 21.31 73.4 52.57c-1.23 2.06.12 4.79 2.37 4.79h37.73c2.26 0 3.62-2.76 2.36-4.81L96.82 21.29c-1.13-1.85-3.62-1.84-4.74.02h.02Z"/><path fill="#101C3F" d="m92.52 44.67-.91-13.63h5.43l-.89 13.63h-3.63Zm-.65 1.97h4.87v5.05h-4.87v-5.05Z"/><path fill="#153385" stroke="#101C3F" stroke-miterlimit="10" d="M113.07 78.61H26.55a7.36 7.36 0 0 0-7.36 7.36v14.78a7.36 7.36 0 0 0 7.36 7.36h86.52a7.36 7.36 0 0 0 7.36-7.36V85.97a7.36 7.36 0 0 0-7.36-7.36Z"/><path fill="#0B64DD" stroke="#101C3F" stroke-miterlimit="10" d="M113.07 75.49H26.55a7.36 7.36 0 0 0-7.36 7.36v14.78a7.36 7.36 0 0 0 7.36 7.36h86.52a7.36 7.36 0 0 0 7.36-7.36V82.85a7.36 7.36 0 0 0-7.36-7.36Z"/><path fill="#48EFCF" d="M42.18 94.84c0 3.3-11.93 3.3-11.93 0 0-2.16 1.15-4.05 2.87-5.1-.7-.77-1.13-1.79-1.13-2.91 0-2.39 1.93-4.32 4.32-4.32a4.315 4.315 0 0 1 3.12 7.3 5.946 5.946 0 0 1 2.76 5.02l-.01.01Z"/><path fill="#fff" d="M58.02 94.1a3.42 3.42 0 1 0 0-6.84 3.42 3.42 0 0 0 0 6.84Zm14.69 0a3.42 3.42 0 1 0 0-6.84 3.42 3.42 0 0 0 0 6.84Zm14.68 0a3.42 3.42 0 1 0 0-6.84 3.42 3.42 0 0 0 0 6.84Zm14.68 0a3.42 3.42 0 1 0 0-6.84 3.42 3.42 0 0 0 0 6.84Z"/></svg>