<svg xmlns="http://www.w3.org/2000/svg" fill="none" viewBox="0 0 128 128"><path fill="#153385" stroke="#153385" stroke-miterlimit="10" d="M117.87 65.94s-25.13 34.47-56.12 34.47S5.62 65.94 5.62 65.94 30.75 31.4 61.74 31.4s56.12 34.54 56.12 34.54h.01Z"/><path fill="#fff" stroke="#153385" stroke-miterlimit="10" d="M121.75 61.78S96.62 96.25 65.63 96.25 9.5 61.78 9.5 61.78s25.13-34.54 56.12-34.54 56.12 34.54 56.12 34.54h.01Z"/><path fill="#48EFCF" stroke="#153385" stroke-miterlimit="10" d="M65.63 86.27c13.542 0 24.52-10.978 24.52-24.52S79.172 37.23 65.63 37.23 41.11 48.208 41.11 61.75s10.978 24.52 24.52 24.52Z"/><path fill="#0B64DD" d="M65.63 75.29c7.478 0 13.54-6.062 13.54-13.54 0-7.478-6.062-13.54-13.54-13.54-7.478 0-13.54 6.062-13.54 13.54 0 7.478 6.062 13.54 13.54 13.54Z"/><path fill="#153385" stroke="#153385" stroke-miterlimit="10" d="m104.867 29.827-5.806-5.805L23.783 99.3l5.805 5.806 75.279-75.279Z"/><path fill="#fff" stroke="#153385" stroke-miterlimit="10" d="m103.549 28.507-5.805-5.805L22.465 97.98l5.806 5.805 75.278-75.279Z"/></svg>