<svg xmlns="http://www.w3.org/2000/svg" fill="none" viewBox="0 0 128 128"><path fill="#153385" stroke="#153385" stroke-miterlimit="10" d="M99.68 18.74H28.86a6.82 6.82 0 0 0-6.82 6.82v85.38a6.82 6.82 0 0 0 6.82 6.82h70.82a6.82 6.82 0 0 0 6.82-6.82V25.56a6.82 6.82 0 0 0-6.82-6.82Z"/><path fill="#F5F7FA" stroke="#153385" stroke-miterlimit="10" d="M98.14 18.8H27.32a6.82 6.82 0 0 0-6.82 6.82V111a6.82 6.82 0 0 0 6.82 6.82h70.82a6.82 6.82 0 0 0 6.82-6.82V25.62a6.82 6.82 0 0 0-6.82-6.82Z"/><path fill="#fff" stroke="#153385" stroke-miterlimit="10" d="M94.13 24.4H31.32a6.05 6.05 0 0 0-6.05 6.05v75.73a6.05 6.05 0 0 0 6.05 6.05h62.81a6.05 6.05 0 0 0 6.05-6.05V30.45a6.05 6.05 0 0 0-6.05-6.05Z"/><path fill="#153385" d="M91.92 27.06H34.45v2.58h57.47v-2.58Z"/><path fill="#153385" stroke="#153385" stroke-miterlimit="10" d="M65.71 18.01a2.49 2.49 0 0 0 0-4.98h5.31v4.99h-5.31v-.01Z"/><path fill="#48EFCF" stroke="#153385" stroke-miterlimit="10" d="M87.9 15.61H75.24v-2.59c0-1.95-1.58-3.52-3.52-3.52H54.66c-1.95 0-3.52 1.58-3.52 3.52v2.59H38.48c-1.95 0-3.52 1.58-3.52 3.52v8.92h56.47v-8.92c0-1.95-1.58-3.52-3.52-3.52h-.01Zm-20.3 2.4h-8.83a2.49 2.49 0 0 1-2.49-2.49c0-1.37 1.12-2.49 2.49-2.49h8.83a2.49 2.49 0 0 1 2.49 2.49c0 1.37-1.12 2.49-2.49 2.49Z"/><path stroke="#153385" stroke-miterlimit="10" d="M50.77 37.41H35.98V52.2h14.79V37.41Z"/><path fill="#0B64DD" d="m43.43 49.75-6.01-6.69 2.4-2.15 3.79 4.22 10.27-9.74 2.22 2.34-12.67 12.02Z"/><path stroke="#153385" stroke-miterlimit="10" d="M59.78 45.8h21.36m-21.36 6.44h32.65m-56.45 6.44h56.45m-56.45 6.63h56.45m-41.66 8.1H35.98V88.2h14.79V73.41Z"/><path fill="#0B64DD" d="m43.43 85.75-6.01-6.69 2.4-2.15 3.79 4.22 10.27-9.74 2.22 2.34-12.67 12.02Z"/><path stroke="#153385" stroke-miterlimit="10" d="M59.78 81.8h21.36m-21.36 6.44h32.65m-56.45 6.44h56.45m-56.45 6.63h56.45"/></svg>