<svg xmlns="http://www.w3.org/2000/svg" fill="none" viewBox="0 0 128 128"><path fill="#153385" stroke="#101C3F" stroke-miterlimit="10" d="m114.9 36.797-14.24 58.13a3.154 3.154 0 0 1-3.06 2.4H22.75c-2.06 0-3.57-1.95-3.05-3.94l14.75-56.5h-.03l-.03-5.77c0-1.74 1.4-3.16 3.15-3.16h22.53c1.48 0 2.76 1.03 3.07 2.47.32 1.44 1.6 2.47 3.07 2.47h45.62c2.04 0 3.66 1.52 3.17 3.5l-.1.4Z"/><path fill="#fff" stroke="#101C3F" stroke-miterlimit="10" d="m92.87 9.107-68.77 17.9a3.298 3.298 0 0 0-2.36 4.02l11.72 45.02a3.298 3.298 0 0 0 4.02 2.36l68.78-17.9a3.298 3.298 0 0 0 2.36-4.02l-11.73-45.02a3.298 3.298 0 0 0-4.02-2.36Z"/><path fill="#48EFCF" stroke="#101C3F" stroke-miterlimit="10" d="m91.81 17.157-70.54 8.63a3.29 3.29 0 0 0-2.87 3.67l5.65 46.18a3.29 3.29 0 0 0 3.67 2.87l70.54-8.62a3.29 3.29 0 0 0 2.87-3.67l-5.65-46.18a3.29 3.29 0 0 0-3.67-2.87v-.01Z"/><path fill="#0B64DD" stroke="#101C3F" stroke-miterlimit="10" d="m97.48 36.468-.03 57.31c0 1.72-1.4 3.12-3.12 3.12H19.08c-1.72 0-3.12-1.4-3.12-3.12l.02-56.48h-.03l-.03-5.68a3.12 3.12 0 0 1 3.12-3.13h22.63c1.46 0 2.72 1.01 3.04 2.44a3.123 3.123 0 0 0 3.04 2.44h46.61c1.72 0 3.12 1.4 3.12 3.12v-.02Z"/><path fill="#153385" stroke="#101C3F" stroke-linejoin="round" d="M21.62 92.607c.08-1.97 1.87-2.29 1.87-2.29l14.66 4.47 21.1 9.59-2.37 3.55 6.25 6.42 9.84-6.83-4.37 5.15-9.49 5.89-6.51-6.44c-3.57.21-12.63.02-20.84-6.03l-.45 2.3 13.14 5.91-3.77 4.73-12.87-6.57 1.78-7.77.17-.21c-.66-.58-1.31-1.18-1.94-1.85-1.87-1.97-3.22-3.62-4.17-5.01l-8.21-.65L12 84.507l3.79-5.12 2.98 12.93 2.85.29Zm57.03-.89-4.56 5.03-5.56.41 1.09-4.76 9.03-.68Zm-57.07-27.72 7.81 9.26-3.33 5.86-.35-.45-.42 1.83-3.18-.73-.22-1.05s.35-1.34 1.45-3.04l-5.69-7.19 3.93-4.5v.01Z"/><path fill="#101C3F" stroke="#101C3F" stroke-linejoin="round" d="M47.22 82.287c-8.71-4.65-13.13.23-13.13.23l1.87-13.85 25.65 10.81-3.05 16.54-5.68.09s3.04-9.17-5.66-13.83v.01Z"/><path fill="#48EFCF" stroke="#101C3F" stroke-linejoin="round" d="m38.74 64.137-7.34-6.99-9.82 6.86 5.74 7.63a22.46 22.46 0 0 0-3.45 6.88l-8.09.87 2.98 12.93 7.33.75c1.69 2.79 4 5.39 6.73 7.6l-1.52 7.73 13.14 5.91 3.87-6.92c2.7.29 5.23.11 7.57-.47l7.24 7.43 9.84-6.83-5.84-8.18c1.5-2.04 2.66-4.37 3.41-6.9l8.12-.71-3.02-13.04-7.3-.3c-1.79-3.02-4.32-5.84-7.3-8.2l1.62-7.06-12.85-6.09-3.36 6.75c-2.74-.35-5.32-.19-7.7.35Zm13.24 13.9c4.95 3.69 6.51 9.96 3.49 14-3.02 4.05-9.47 4.34-14.42.65-4.95-3.69-6.51-9.96-3.49-14 3.02-4.05 9.47-4.34 14.42-.65Z"/></svg>