<svg xmlns="http://www.w3.org/2000/svg" fill="none" viewBox="0 0 128 128"><path fill="#153385" stroke="#101C3F" stroke-miterlimit="10" d="m110.14 57.1-13.51 55.11a3.049 3.049 0 0 1-2.96 2.32H21.33c-1.99 0-3.45-1.88-2.95-3.81l14.26-54.61h-.03l-.02-5.58a3.05 3.05 0 0 1 3.04-3.06h21.78c1.43 0 2.66 1 2.97 2.39a3.057 3.057 0 0 0 2.97 2.39h44.09c1.97 0 3.43 1.85 2.96 3.77l-.25 1.07-.01.01Z"/><path fill="#fff" stroke="#101C3F" stroke-linecap="round" stroke-linejoin="round" d="M103.17 32.05 84.68 13.5H30.89v86.07h72.28V32.05Z"/><path fill="#48EFCF" stroke="#101C3F" stroke-linejoin="round" d="M84.66 13.5v18.86l18.51-.31L84.66 13.5Z"/><path fill="#101C3F" d="m84.66 32.7 18.51 5.46v-5.8l-18.51.34Z"/><path fill="#48EFCF" stroke="#101C3F" stroke-miterlimit="10" d="M54.06 23.98H38.27v15.79h15.79V23.98Z"/><path fill="#0B64DD" d="m45.91 37.92-6.28-6.98 2.51-2.25 3.96 4.41 10.73-10.17 2.31 2.44-13.23 12.55Z"/><path stroke="#101C3F" stroke-miterlimit="10" d="M62.35 33.48h14.94m-14.94-7.61h9.96m-9.96 15.22h30.82M62.35 48.7h30.82m-27.09 7.61h27.09m-23.3 7.61h23.3m-16.35 7.61h16.35m-15.41 7.62h15.41m-15.41 7.61h15.41"/><path fill="#0B64DD" stroke="#101C3F" stroke-miterlimit="10" d="m96.31 55.35-.02 56.08c0 1.68-1.37 3.05-3.05 3.05H19.59c-1.68 0-3.05-1.37-3.05-3.05l.02-55.27h-.03l-.02-5.56c0-1.69 1.36-3.06 3.05-3.06h22.15c1.43 0 2.67.99 2.98 2.39a3.06 3.06 0 0 0 2.98 2.39h45.61c1.68 0 3.05 1.37 3.05 3.05l-.02-.02Z"/></svg>