<svg xmlns="http://www.w3.org/2000/svg" fill="none" viewBox="0 0 128 128"><path fill="#fff" stroke="#101C3F" stroke-linecap="round" stroke-linejoin="round" d="M112.63 36.12 92.07 15.5h-59.8v95.68h80.36V36.12Z"/><path fill="#48EFCF" stroke="#101C3F" stroke-linejoin="round" d="M92.04 15.5v20.97l20.59-.35L92.04 15.5Z"/><path fill="#101C3F" d="m92.04 36.85 20.59 6.07v-6.45l-20.59.38Z"/><path fill="#48EFCF" stroke="#101C3F" stroke-miterlimit="10" d="M58.04 27.15H40.48v17.56h17.56V27.15Z"/><path fill="#0B64DD" d="m48.97 42.65-6.98-7.76 2.79-2.5 4.4 4.9 11.93-11.31 2.57 2.72-14.71 13.95Z"/><path stroke="#101C3F" stroke-miterlimit="10" d="M67.25 37.71h16.61m-16.61-8.46h11.06M67.25 46.17h34.26m-34.26 8.46h34.26m-30.12 8.46h30.12m-25.9 8.46h25.9m-18.17 8.46h18.17m-17.13 8.47h17.13m-17.13 8.46h17.13"/><path fill="#153385" stroke="#101C3F" stroke-linejoin="round" d="M17.56 91.32c.08-2.06 1.95-2.39 1.95-2.39l15.32 4.67 22.05 10.02-2.48 3.71 6.53 6.71 10.28-7.13-4.57 5.38-9.92 6.16-6.8-6.73c-3.73.22-13.2.02-21.78-6.3l-.47 2.41 13.73 6.18-3.94 4.94-13.45-6.86 1.86-8.12.18-.22c-.69-.6-1.36-1.24-2.03-1.93-1.96-2.06-3.36-3.78-4.35-5.24l-8.58-.68-3.6-13.02 3.96-5.35 3.12 13.51 2.98.3.01-.02Zm59.6-.92-4.77 5.25-5.81.43 1.14-4.98 9.44-.7ZM17.51 61.43l8.16 9.67-3.48 6.12-.37-.47-.44 1.92-3.33-.76-.23-1.1s.36-1.4 1.52-3.18l-5.95-7.51 4.11-4.7.01.01Z"/><path fill="#101C3F" stroke="#101C3F" stroke-linejoin="round" d="M44.31 80.54c-9.1-4.86-13.72.24-13.72.24l1.96-14.47 26.8 11.3-3.18 17.29-5.94.1s3.18-9.59-5.92-14.45v-.01Z"/><path fill="#0B64DD" stroke="#101C3F" stroke-linejoin="round" d="m35.45 61.57-7.67-7.31-10.26 7.17 6 7.97a23.34 23.34 0 0 0-3.6 7.19l-8.45.91 3.12 13.51 7.66.78c1.76 2.92 4.18 5.63 7.03 7.94l-1.59 8.08 13.73 6.18 4.04-7.23c2.82.3 5.47.11 7.91-.49l7.57 7.77 10.28-7.13-6.11-8.55c1.57-2.13 2.78-4.57 3.56-7.21l8.49-.74L74 76.78l-7.62-.31c-1.87-3.16-4.52-6.1-7.63-8.57l1.69-7.37-13.43-6.37-3.51 7.05c-2.87-.37-5.56-.2-8.04.37l-.01-.01Zm13.83 14.52c5.17 3.85 6.8 10.41 3.65 14.63-3.15 4.23-9.9 4.53-15.07.68s-6.8-10.41-3.65-14.63c3.15-4.23 9.9-4.53 15.07-.68Z"/></svg>