<svg xmlns="http://www.w3.org/2000/svg" fill="none" viewBox="0 0 128 128"><path stroke="#153385" stroke-miterlimit="10" d="M82.88 25.51H14.51v41.16h68.37V25.51ZM38.59 46.1l44.29 20.58"/><path stroke="#153385" stroke-miterlimit="10" d="M14.51 66.68 38.59 46.1 14.51 25.51M38.59 46.1l44.29-20.59"/><path fill="#153385" stroke="#153385" stroke-miterlimit="10" d="M14.51 32.52a7.01 7.01 0 1 0 0-14.02 7.01 7.01 0 0 0 0 14.02Zm68.37 0a7.01 7.01 0 1 0 0-14.02 7.01 7.01 0 0 0 0 14.02ZM14.51 73.69a7.01 7.01 0 1 0 0-14.02 7.01 7.01 0 0 0 0 14.02Z"/><path fill="#0B64DD" stroke="#153385" stroke-miterlimit="10" d="M82.88 73.69a7.01 7.01 0 1 0 0-14.02 7.01 7.01 0 0 0 0 14.02Z"/><path fill="#48EFCF" stroke="#153385" stroke-miterlimit="10" d="M38.59 53.11a7.01 7.01 0 1 0 0-14.02 7.01 7.01 0 0 0 0 14.02Z"/><path fill="#153385" stroke="#153385" stroke-miterlimit="10" d="M120.53 48.47v54.35c0 4.08-14.7 7.4-32.84 7.4-18.14 0-32.85-3.32-32.85-7.4V48.47c0-4.07 14.72-7.39 32.85-7.39 18.13 0 32.84 3.32 32.84 7.39Z"/><path fill="#0B64DD" stroke="#153385" stroke-miterlimit="10" d="M120.53 46.1c0 4.09-14.7 7.4-32.84 7.4-18.14 0-32.84-3.31-32.84-7.4s14.72-7.38 32.84-7.38c18.12 0 32.84 3.31 32.84 7.38Z"/><path fill="#fff" stroke="#153385" stroke-miterlimit="10" d="M120.53 46.1v18.2c0 4.09-14.7 7.4-32.84 7.4-18.14 0-32.84-3.31-32.84-7.4V46.1c0 4.09 14.72 7.4 32.84 7.4 18.12 0 32.84-3.31 32.84-7.4Z"/><path fill="#fff" stroke="#153385" stroke-miterlimit="10" d="M120.53 64.3v18.2c0 4.09-14.7 7.4-32.84 7.4-18.14 0-32.84-3.31-32.84-7.4V64.3c0 4.09 14.72 7.4 32.84 7.4 18.12 0 32.84-3.31 32.84-7.4Z"/><path fill="#fff" stroke="#153385" stroke-miterlimit="10" d="M120.53 82.24v18.2c0 4.09-14.7 7.4-32.84 7.4-18.14 0-32.84-3.31-32.84-7.4v-18.2c0 4.09 14.72 7.4 32.84 7.4 18.12 0 32.84-3.31 32.84-7.4Z"/><path fill="#0B64DD" d="M61.33 61.05a1.9 1.9 0 1 0 0-3.8 1.9 1.9 0 0 0 0 3.8Zm7.56 1.47a1.9 1.9 0 1 0 0-3.8 1.9 1.9 0 0 0 0 3.8Zm-7.56 16.89a1.9 1.9 0 1 0 0-3.8 1.9 1.9 0 0 0 0 3.8Zm7.56 1.47a1.9 1.9 0 1 0 0-3.8 1.9 1.9 0 0 0 0 3.8Zm-7.56 16.48a1.9 1.9 0 1 0 0-3.8 1.9 1.9 0 0 0 0 3.8Zm7.56 1.48a1.9 1.9 0 1 0 0-3.8 1.9 1.9 0 0 0 0 3.8Z"/></svg>