<svg xmlns="http://www.w3.org/2000/svg" fill="none" viewBox="0 0 128 128"><mask id="illustration-ransomware-file-lock.dark__a" width="104" height="90" x="14" y="11" maskUnits="userSpaceOnUse" style="mask-type:luminance"><path fill="#fff" d="M117.96 11H14v89.18h103.96V11Z"/></mask><g stroke="#153385" stroke-miterlimit="10" mask="url(#illustration-ransomware-file-lock.dark__a)"><path fill="#153385" d="M113.1 41.7 98.95 97.06a3.154 3.154 0 0 1-3.06 2.4H21.05c-2.06 0-3.1-1.48-2.58-3.48l14.75-56.5h-.03l-.03-5.77c0-1.74 1.4-3.16 3.15-3.16h22.53c1.48 0 2.76 1.03 3.07 2.47.32 1.44 1.6 2.47 3.07 2.47h45.62c2.04 0 3.55 1.92 3.06 3.9l-.55 2.31h-.01Z"/><path fill="#fff" d="m91.63 11.71-68.78 17.9a3.298 3.298 0 0 0-2.36 4.02l11.72 45.02a3.298 3.298 0 0 0 4.02 2.36l68.78-17.9a3.298 3.298 0 0 0 2.36-4.02L95.65 14.07a3.298 3.298 0 0 0-4.02-2.36Z"/><path fill="#0B64DD" d="m90.57 19.76-70.55 8.63a3.29 3.29 0 0 0-2.87 3.67l5.65 46.18a3.29 3.29 0 0 0 3.67 2.87l70.54-8.62a3.29 3.29 0 0 0 2.87-3.67l-5.65-46.18c-.22-1.81-1.743-3.1-3.553-2.88h-.107Z"/><path fill="#F5F7FA" d="m96.24 39.07-.03 57.31c0 1.72-1.4 3.12-3.12 3.12H17.84c-1.72 0-3.12-1.4-3.12-3.12l.02-56.48h-.03l-.03-5.68a3.12 3.12 0 0 1 3.12-3.13h22.63c1.46 0 2.72 1.01 3.04 2.44a3.123 3.123 0 0 0 3.04 2.44h46.61c1.72 0 3.12 1.4 3.12 3.12v-.02Z"/></g><path fill="#153385" stroke="#153385" stroke-miterlimit="10" d="m39.64 75.09-2.13-12.94c-.76-3.7-.08-7.46 1.9-10.59 1.99-3.13 5.02-5.22 8.54-5.88 6.99-1.31 13.65 3.41 15.16 10.74v.05l2.21 14.56-6.33 1.32-2.19-14.53c-.78-3.7-4.14-6.08-7.68-5.42-1.78.33-3.32 1.39-4.33 2.98-1.01 1.59-1.35 3.49-.96 5.37l2.13 12.94-6.32 1.41v-.01Z"/><path fill="#48EFCF" stroke="#153385" stroke-miterlimit="10" d="M41.61 73.46 39.4 60.52c-.79-3.7-.07-7.46 2.04-10.6 2.1-3.14 5.31-5.24 9.03-5.91a13.772 13.772 0 0 1 15.97 10.7v.05l2.29 14.55-6.69 1.34-2.27-14.53a6.98 6.98 0 0 0-8.09-5.4c-1.88.34-3.51 1.4-4.58 2.99a6.94 6.94 0 0 0-1.03 5.37l2.21 12.94-6.67 1.43v.01Z"/><path fill="#153385" stroke="#153385" stroke-miterlimit="10" d="m43.44 71.03-6.71 1.12c-1.19.2-2.33.7-3.16 1.57-.12.13-.24.26-.35.4-.62.78-1.16 1.87-1.16 3.28 0 3.3 4.86 34.53 4.86 34.53s.86 5.07 3.93 5.07c3.07 0 9.53-1.2 9.53-1.2l-6.94-44.77Z"/><path fill="#fff" stroke="#153385" stroke-miterlimit="10" d="m78.36 111.96-30.66 4.27c-2.37.33-4.56-1.28-4.88-3.6l-5.68-36.84c-.32-2.32 1.34-4.47 3.71-4.8l30.63-2.08c2.37-.33 4.56 1.28 4.88 3.6l5.71 34.65c.32 2.32-1.34 4.47-3.71 4.8Z"/><path fill="#153385" d="m67.61 102.12-4.46-12c1.21-.86 2-2.27 2-3.87 0-2.62-2.13-4.75-4.75-4.75s-4.75 2.13-4.75 4.75c0 1.86 1.07 3.46 2.62 4.24l-.55 13.12 9.88-1.5.01.01Z"/></svg>