<svg xmlns="http://www.w3.org/2000/svg" fill="none" viewBox="0 0 128 128"><path fill="#153385" stroke="#153385" stroke-miterlimit="10" d="M102.75 19.5H20.12a5.62 5.62 0 0 0-5.62 5.62v25.37a5.62 5.62 0 0 0 5.62 5.62h82.63a5.62 5.62 0 0 0 5.62-5.62V25.12a5.62 5.62 0 0 0-5.62-5.62Zm0 53.16H20.12a5.62 5.62 0 0 0-5.62 5.62v25.37a5.62 5.62 0 0 0 5.62 5.62h82.63a5.62 5.62 0 0 0 5.62-5.62V78.28a5.62 5.62 0 0 0-5.62-5.62Z"/><path fill="#F5F7FA" stroke="#153385" stroke-miterlimit="10" d="M101.42 19.5h-81.3a5.62 5.62 0 0 0-5.62 5.62v23.03a5.62 5.62 0 0 0 5.62 5.62h81.3a5.62 5.62 0 0 0 5.62-5.62V25.12a5.62 5.62 0 0 0-5.62-5.62Z"/><path fill="#0B64DD" d="M29.68 28.15 21.93 41.3h15.5l-7.75-13.15Z"/><path fill="#F5F7FA" stroke="#153385" stroke-miterlimit="10" d="M101.42 72.23h-81.3a5.62 5.62 0 0 0-5.62 5.62v23.03a5.62 5.62 0 0 0 5.62 5.62h81.3a5.62 5.62 0 0 0 5.62-5.62V77.85a5.62 5.62 0 0 0-5.62-5.62Z"/><path fill="#0B64DD" d="M36.25 82.8H23.11v13.14h13.14V82.8Z"/><path fill="#153385" stroke="#153385" stroke-miterlimit="10" d="M115.52 44.91H32.89a5.62 5.62 0 0 0-5.62 5.62V75.9a5.62 5.62 0 0 0 5.62 5.62h82.63a5.62 5.62 0 0 0 5.62-5.62V50.53a5.62 5.62 0 0 0-5.62-5.62Z"/><path fill="#48EFCF" stroke="#153385" stroke-miterlimit="10" d="M113.3 44.91H32a5.62 5.62 0 0 0-5.62 5.62v23.03A5.62 5.62 0 0 0 32 79.18h81.3a5.62 5.62 0 0 0 5.62-5.62V50.53a5.62 5.62 0 0 0-5.62-5.62Z"/><path fill="#fff" stroke="#153385" stroke-miterlimit="10" d="M117.64 109.61s-8.32-10.54-8.72-12.32c-.4-1.78-4.68-15.94-5.33-17.51-.77-1.87-2.76-4.73-6.1-9.26-.62-.84-2.07-.96-2.07-.96l-1.72-2.01s-1.15-1.81-3.7-1.28c0 0-1.15-1.43-2.47-1.31-1.9.16-3.24.92-3.24.92s-6.14-6.28-7.53-7.65c-1.38-1.37-2.26-2.04-3.25-1.12-.99.92-.86 3.33.67 5.12s5.19 7.95 5.19 7.95-1.91 4.23-2.21 5.09c-.3.86 1.11 1.94 2.82 1.5 0 0 .82 2.14 3.33 1.3 0 0 1.63 4.71 1.61 6.93-.02 2.21-1.54 3.17-3.43 1.33-1.89-1.84-5.41-5.8-9.61-6.96-4.2-1.16-4.39 2.18-3.16 3.35 1.23 1.17 3.94 4.26 5.52 5.91 1.58 1.66 7.82 8.49 11.11 11.85 3.29 3.36 7.45 5.4 9.13 6.86 3.08 2.7 8.36 11.64 8.36 11.64 1.51 3.48 17.29-5.48 14.77-9.37h.03Z"/><path stroke="#153385" stroke-linecap="round" stroke-linejoin="round" d="M79.39 70.17s2.05 3.61 3.95 7.89"/><path stroke="#153385" stroke-linecap="round" stroke-linejoin="round" d="M80.01 76.75s1.05-.5 1.58-2.32m2.71-8.56s.46.43 1.21 1.42c.55.73 3.98 7.55 4.59 8.4.6.86 2.08 1.22 2.08 1.22M90 66.26l6.22 8.36m-.79-5.07 4.03 5.84"/><path fill="#0B64DD" d="M44 69.8a7.75 7.75 0 1 0 0-15.5 7.75 7.75 0 0 0 0 15.5Z"/></svg>