<svg xmlns="http://www.w3.org/2000/svg" fill="none" viewBox="0 0 128 128"><path fill="#0B64DD" d="M26.53 107.01s-.2 4.94 14.43 4.94c16.11 0 16.79-4.9 16.79-4.9v-3.31H26.53v3.27Z"/><mask id="illustration-restaurant.dark__a" width="32" height="9" x="26" y="103" maskUnits="userSpaceOnUse" style="mask-type:luminance"><path fill="#fff" d="M26.53 107.01s-.2 4.94 14.43 4.94c16.11 0 16.79-4.9 16.79-4.9v-3.31H26.53v3.27Z"/></mask><g mask="url(#illustration-restaurant.dark__a)"><path fill="#153385" stroke="#153385" stroke-miterlimit="10" d="M36.87 104.84c0 6.72 15.81 12.18 35.31 12.18s35.31-5.45 35.31-12.18v-6.15H36.87v6.15Z"/></g><path stroke="#153385" stroke-miterlimit="10" d="M26.53 107.01s-.2 4.94 14.43 4.94c16.11 0 16.79-4.9 16.79-4.9v-3.31H26.53v3.27Z"/><path fill="#F5F7FA" d="m59.67 106.48 8.66-58.63H16.72l7.75 58.63s18.18 5.47 35.2 0Z"/><mask id="illustration-restaurant.dark__b" width="53" height="62" x="16" y="47" maskUnits="userSpaceOnUse" style="mask-type:luminance"><path fill="#fff" d="m59.67 106.48 8.66-58.63H16.72l7.75 58.63s18.18 5.47 35.2 0Z"/></mask><g stroke="#153385" stroke-miterlimit="10" mask="url(#illustration-restaurant.dark__b)"><path fill="#153385" d="M36.87 104.46c0 6.72 15.81 12.18 35.31 12.18s35.31-5.45 35.31-12.18v-6.15H36.87v6.15Z"/><path fill="#153385" d="M72.18 108.72c19.501 0 35.31-4.5 35.31-10.05 0-5.55-15.809-10.05-35.31-10.05-19.501 0-35.31 4.5-35.31 10.05 0 5.55 15.809 10.05 35.31 10.05Z"/><path fill="#153385" d="M39.12 96.55c0 4.91 14.96 8.89 33.41 8.89 18.45 0 33.41-3.98 33.41-8.89v-4.14H39.12v4.14Z"/><path fill="#153385" d="M72.53 101.3c18.452 0 33.41-3.98 33.41-8.89s-14.958-8.89-33.41-8.89c-18.452 0-33.41 3.98-33.41 8.89s14.958 8.89 33.41 8.89Z"/><path fill="#153385" d="m46.98 92.41 29.55 13.89L95.77 94l-48.79-1.59Z"/><path fill="#153385" d="M38.25 88.4c-.93-.79-1.43-1.86-1.38-2.96.26-5.95 3.5-26.6 35.61-26.6 28.8 0 34.03 20.5 34.96 26.84.19 1.29-.36 2.56-1.48 3.45-3.38 2.67-12.56 7.74-33.48 7.74-20.92 0-31.04-5.75-34.23-8.46v-.01Z"/><path d="M64 66.29h4.58m-1.35 5.83 7.43-2.5m-12.68 0-3.69-1.54"/></g><path stroke="#153385" stroke-miterlimit="10" d="m59.67 106.48 8.66-58.63H16.72l7.75 58.63s18.18 5.47 35.2 0Z"/><path fill="#153385" stroke="#153385" stroke-miterlimit="10" d="M15.5 45.7c0 3.43 12.2 6.21 27.26 6.21 15.06 0 27.26-2.78 27.26-6.21v-1.9H15.5v1.9Z"/><path fill="#0B64DD" stroke="#153385" stroke-miterlimit="10" d="M42.76 50.01c15.055 0 27.26-2.78 27.26-6.21s-12.205-6.21-27.26-6.21c-15.055 0-27.26 2.78-27.26 6.21s12.205 6.21 27.26 6.21Z"/><path stroke="#153385" stroke-miterlimit="10" d="M42.64 46.56c9.4 0 17.02-1.49 17.02-3.33s-7.62-3.33-17.02-3.33c-9.4 0-17.02 1.49-17.02 3.33s7.62 3.33 17.02 3.33Z"/><path fill="#fff" stroke="#153385" stroke-miterlimit="10" d="M39.08 42.12s3.01 1.43 4.43 0V22.01l11.19-6.88s.06-.07.06-.11v-4.39c0-.1-.11-.17-.2-.11l-15.18 9.89-.3 21.72v-.01Z"/><path fill="#153385" stroke="#153385" stroke-miterlimit="10" d="M54.87 15.1c.425 0 .77-1.03.77-2.3 0-1.27-.345-2.3-.77-2.3-.425 0-.77 1.03-.77 2.3 0 1.27.345 2.3.77 2.3Z"/><path fill="#fff" stroke="#153385" stroke-miterlimit="10" d="M42.76 104.18c0 6.72 15.81 12.18 35.31 12.18s35.31-5.45 35.31-12.18v-6.15H42.76v6.15Z"/><path fill="#48EFCF" stroke="#153385" stroke-miterlimit="10" d="M78.07 108.44c19.501 0 35.31-4.5 35.31-10.05 0-5.55-15.809-10.05-35.31-10.05-19.501 0-35.31 4.5-35.31 10.05 0 5.55 15.809 10.05 35.31 10.05Z"/><path fill="#153385" stroke="#153385" stroke-miterlimit="10" d="M45.01 96.27c0 4.91 14.96 8.89 33.41 8.89 18.45 0 33.41-3.98 33.41-8.89v-4.14H45.01v4.14Z"/><path fill="#0B64DD" stroke="#153385" stroke-miterlimit="10" d="M78.42 101.02c18.452 0 33.41-3.98 33.41-8.89s-14.958-8.89-33.41-8.89c-18.452 0-33.41 3.98-33.41 8.89s14.958 8.89 33.41 8.89Z"/><path fill="#fff" stroke="#153385" stroke-miterlimit="10" d="m52.87 92.13 29.55 13.89 19.23-12.3-48.78-1.59Z"/><path fill="#fff" stroke="#153385" stroke-miterlimit="10" d="M44.14 88.12c-.93-.79-1.43-1.86-1.38-2.96.26-5.95 3.5-26.6 35.61-26.6 28.8 0 34.03 20.5 34.96 26.84.19 1.29-.36 2.56-1.48 3.45-3.38 2.67-12.56 7.74-33.48 7.74-20.92 0-31.04-5.75-34.23-8.46v-.01Z"/><path stroke="#153385" stroke-miterlimit="10" d="M69.89 66.01h4.57m-1.34 5.83 7.43-2.49m.77-4.37 5.72 1.03m-.79 3.34h4m-22.38 0-3.69-1.54"/></svg>