<svg xmlns="http://www.w3.org/2000/svg" fill="none" viewBox="0 0 128 128"><path fill="#101C3F" d="M106.69 18.06H17.54a3.27 3.27 0 0 0-3.27 3.27v23.72a3.27 3.27 0 0 0 3.27 3.27h89.15a3.27 3.27 0 0 0 3.27-3.27V21.33a3.27 3.27 0 0 0-3.27-3.27Z"/><mask id="illustration-results.light__a" width="96" height="31" x="14" y="18" maskUnits="userSpaceOnUse" style="mask-type:luminance"><path fill="#fff" d="M106.69 18.06H17.54a3.27 3.27 0 0 0-3.27 3.27v23.72a3.27 3.27 0 0 0 3.27 3.27h89.15a3.27 3.27 0 0 0 3.27-3.27V21.33a3.27 3.27 0 0 0-3.27-3.27Z"/></mask><g mask="url(#illustration-results.light__a)"><path fill="#101C3F" d="M48.44 11.65H7.07v41.37h41.37V11.65Z"/></g><path stroke="#101C3F" stroke-miterlimit="10" stroke-width="1.19" d="M106.69 18.06H17.54a3.27 3.27 0 0 0-3.27 3.27v23.72a3.27 3.27 0 0 0 3.27 3.27h89.15a3.27 3.27 0 0 0 3.27-3.27V21.33a3.27 3.27 0 0 0-3.27-3.27Z"/><path fill="#101C3F" d="M106.69 58.9H17.54a3.27 3.27 0 0 0-3.27 3.27v23.72a3.27 3.27 0 0 0 3.27 3.27h89.15a3.27 3.27 0 0 0 3.27-3.27V62.17a3.27 3.27 0 0 0-3.27-3.27Z"/><mask id="illustration-results.light__b" width="96" height="32" x="14" y="58" maskUnits="userSpaceOnUse" style="mask-type:luminance"><path fill="#fff" d="M106.69 58.9H17.54a3.27 3.27 0 0 0-3.27 3.27v23.72a3.27 3.27 0 0 0 3.27 3.27h89.15a3.27 3.27 0 0 0 3.27-3.27V62.17a3.27 3.27 0 0 0-3.27-3.27Z"/></mask><g mask="url(#illustration-results.light__b)"><path fill="#101C3F" d="M48.44 52.49H7.07v41.37h41.37V52.49Z"/></g><path stroke="#101C3F" stroke-miterlimit="10" stroke-width="1.19" d="M106.69 58.9H17.54a3.27 3.27 0 0 0-3.27 3.27v23.72a3.27 3.27 0 0 0 3.27 3.27h89.15a3.27 3.27 0 0 0 3.27-3.27V62.17a3.27 3.27 0 0 0-3.27-3.27Z"/><path fill="#fff" d="M105.62 58.19H16.47a3.27 3.27 0 0 0-3.27 3.27v23.72a3.27 3.27 0 0 0 3.27 3.27h89.15a3.27 3.27 0 0 0 3.27-3.27V61.46a3.27 3.27 0 0 0-3.27-3.27Z"/><mask id="illustration-results.light__c" width="96" height="31" x="13" y="58" maskUnits="userSpaceOnUse" style="mask-type:luminance"><path fill="#fff" d="M105.62 58.19H16.47a3.27 3.27 0 0 0-3.27 3.27v23.72a3.27 3.27 0 0 0 3.27 3.27h89.15a3.27 3.27 0 0 0 3.27-3.27V61.46a3.27 3.27 0 0 0-3.27-3.27Z"/></mask><g mask="url(#illustration-results.light__c)"><path fill="#0B64DD" d="M47.37 51.78H6v41.37h41.37V51.78Z"/></g><path stroke="#101C3F" stroke-miterlimit="10" stroke-width="1.19" d="M105.62 58.19H16.47a3.27 3.27 0 0 0-3.27 3.27v23.72a3.27 3.27 0 0 0 3.27 3.27h89.15a3.27 3.27 0 0 0 3.27-3.27V61.46a3.27 3.27 0 0 0-3.27-3.27Z"/><path stroke="#101C3F" stroke-linecap="round" stroke-linejoin="round" stroke-width=".9" d="M54.45 65.36h42.01m-42.01 7.96h36.03m-36.03 8.25h23.59"/><path fill="#fff" d="M105.62 17.41H16.47a3.27 3.27 0 0 0-3.27 3.27V44.4a3.27 3.27 0 0 0 3.27 3.27h89.15a3.27 3.27 0 0 0 3.27-3.27V20.68a3.27 3.27 0 0 0-3.27-3.27Z"/><mask id="illustration-results.light__d" width="96" height="31" x="13" y="17" maskUnits="userSpaceOnUse" style="mask-type:luminance"><path fill="#fff" d="M105.62 17.41H16.47a3.27 3.27 0 0 0-3.27 3.27V44.4a3.27 3.27 0 0 0 3.27 3.27h89.15a3.27 3.27 0 0 0 3.27-3.27V20.68a3.27 3.27 0 0 0-3.27-3.27Z"/></mask><g mask="url(#illustration-results.light__d)"><path fill="#0B64DD" d="M47.37 11H6v41.37h41.37V11Z"/></g><path stroke="#101C3F" stroke-miterlimit="10" stroke-width="1.19" d="M105.62 17.41H16.47a3.27 3.27 0 0 0-3.27 3.27V44.4a3.27 3.27 0 0 0 3.27 3.27h89.15a3.27 3.27 0 0 0 3.27-3.27V20.68a3.27 3.27 0 0 0-3.27-3.27Z"/><path fill="#48EFCF" stroke="#101C3F" stroke-linecap="round" stroke-linejoin="round" stroke-width=".9" d="M94.68 92.86c12.01 0 21.74-9.75 21.74-21.77s-9.73-21.77-21.74-21.77c-12.01 0-21.74 9.75-21.74 21.77s9.73 21.77 21.74 21.77Z"/><path stroke="#101C3F" stroke-miterlimit="10" stroke-width="5.41" d="m83.36 72.19 9.35 7.34 15.28-20.57"/><path fill="#101C3F" stroke="#101C3F" stroke-miterlimit="10" stroke-width=".71" d="M105.68 53.98c-8.38-5.28-17.58-3.51-23.52 1.89 16.09-8.26 34.66 9.49 28.9 26.18-.94 2.72-2.47 5.08-4.39 6.99 3.74-2.01 6.8-5.45 8.41-10.53 2.9-9.18-1.36-19.45-9.39-24.52l-.01-.01Z"/><path fill="#0B64DD" stroke="#101C3F" stroke-miterlimit="10" stroke-width=".71" d="M85.92 45.37c-24.56 8.37-19.72 42.65 1.95 51 13.15 5.06 28.56-1.17 33.28-14.78 7.15-20.8-13.97-43.46-35.23-36.21v-.01Zm28.99 33.62c-3.08 8.91-12.41 13.92-21.57 12.13-17.35-3.38-24.8-28.74-7.97-38.07 16.25-9.01 35.38 9.02 29.54 25.93v.01Z"/><path fill="#153385" stroke="#101C3F" stroke-miterlimit="10" stroke-width=".71" d="M87.87 96.36c-16.85-6.49-23.52-28.63-14.13-42.11-6.86 6.15-10.48 15.91-6.95 26.8 6.29 19.43 32.78 26.66 45.52 12.31-6.85 4.88-16.1 6.22-24.44 3.01v-.01Z"/><path fill="#153385" stroke="#101C3F" stroke-miterlimit="10" stroke-width=".71" d="m76.635 90.067-.49-.58a4.7 4.7 0 0 0-6.625-.548L47.233 107.82a4.7 4.7 0 0 0-.549 6.624l.492.58a4.7 4.7 0 0 0 6.624.548l22.287-18.881a4.7 4.7 0 0 0 .548-6.624Z"/><path fill="#0B64DD" stroke="#101C3F" stroke-miterlimit="10" stroke-width=".71" d="m75.49 88.71-.491-.58a4.7 4.7 0 0 0-6.625-.548l-22.287 18.881a4.7 4.7 0 0 0-.548 6.624l.491.58a4.7 4.7 0 0 0 6.624.548l22.288-18.88a4.7 4.7 0 0 0 .548-6.625Z"/><path fill="#48EFCF" d="M34.94 24.59H25l-4.97 8.6L25 41.8h9.94l4.96-8.61-4.96-8.6Z"/><path stroke="#101C3F" stroke-linecap="round" stroke-linejoin="round" stroke-width=".9" d="M54.45 24.59h42.01m-42.01 7.95h36.03M54.45 40.8h23.59"/><path fill="#48EFCF" d="M29.97 82.7a8.67 8.67 0 1 0 0-17.34 8.67 8.67 0 0 0 0 17.34Z"/></svg>