<svg xmlns="http://www.w3.org/2000/svg" fill="none" viewBox="0 0 128 128"><path fill="#153385" stroke="#153385" stroke-linejoin="round" d="M91.72 99.54 80.56 41.37l-70.15-.92c-2.38 0-4.21 1.87-3.88 3.97l8.68 55.13h76.5l.01-.01Z"/><path fill="#F5F7FA" stroke="#153385" stroke-linejoin="round" d="m93.75 99.54-10.78-56.2c-.32-1.67-1.95-2.9-3.86-2.9H12.44c-2.38 0-4.21 1.87-3.88 3.97l8.68 55.13h76.51Z"/><path fill="#fff" d="M89.9 99.54 79.78 46.18a2.348 2.348 0 0 0-2.31-1.91h-62.7c-1.45 0-2.56 1.31-2.31 2.74l8.99 52.52h68.46l-.01.01Z"/><path fill="#153385" stroke="#153385" stroke-linejoin="round" d="M89.9 108.99H21.13c-3.26 0-5.9-2.64-5.9-5.9v-3.54H89.9v9.44Z"/><path fill="#48EFCF" stroke="#153385" stroke-linejoin="round" d="M115.77 108.99H51.88c-3.26 0-5.9-2.64-5.9-5.9v-3.54h75.7v3.54c0 3.26-2.64 5.9-5.9 5.9h-.01Z"/><path stroke="#fff" stroke-linejoin="round" d="M35.87 101.16v5.94m-4.86-5.94v5.94"/><path fill="#153385" d="M91.91 102.3H78.29c-.6 0-1.08-.48-1.08-1.08v-1.68H93v1.68c0 .6-.48 1.08-1.08 1.08h-.01Z"/><path stroke="#153385" stroke-miterlimit="10" d="m72.52 56.31 34.84-33.07M34.34 72.83h18.8m2.37 0 16.93-16.44"/><path fill="#0B64DD" stroke="#153385" stroke-miterlimit="10" d="M36.1 77.57a4.74 4.74 0 1 0 0-9.48 4.74 4.74 0 0 0 0 9.48Zm19.41 0a4.74 4.74 0 1 0 0-9.48 4.74 4.74 0 0 0 0 9.48Z"/><path stroke="#153385" stroke-miterlimit="10" d="m108.25 92.24-35.3-35.02"/><path fill="#0B64DD" stroke="#153385" stroke-miterlimit="10" d="M72.44 61.13a4.74 4.74 0 1 0 0-9.48 4.74 4.74 0 0 0 0 9.48Zm17.84 18.13a4.74 4.74 0 1 0 0-9.48 4.74 4.74 0 0 0 0 9.48Zm16.6 14.89a4.74 4.74 0 1 0 0-9.48 4.74 4.74 0 0 0 0 9.48Z"/><path stroke="#153385" stroke-miterlimit="10" d="M108.25 57.22 90.42 39.51"/><path fill="#0B64DD" stroke="#153385" stroke-miterlimit="10" d="M90.28 44.42a4.74 4.74 0 1 0 0-9.48 4.74 4.74 0 0 0 0 9.48Zm16.6-16.44a4.74 4.74 0 1 0 0-9.48 4.74 4.74 0 0 0 0 9.48Zm0 33.98a4.74 4.74 0 1 0 0-9.48 4.74 4.74 0 0 0 0 9.48Z"/></svg>