<svg xmlns="http://www.w3.org/2000/svg" fill="none" viewBox="0 0 128 128"><path fill="#153385" stroke="#153385" stroke-miterlimit="10" d="M103.86 19.56H22.83a5.57 5.57 0 0 0-5.57 5.57v74.94a5.57 5.57 0 0 0 5.57 5.57h81.03a5.57 5.57 0 0 0 5.57-5.57V25.13a5.57 5.57 0 0 0-5.57-5.57Z"/><path fill="#F5F7FA" d="M106.54 19.5H25.51a5.57 5.57 0 0 0-5.57 5.57v74.94a5.57 5.57 0 0 0 5.57 5.57h81.03a5.57 5.57 0 0 0 5.57-5.57V25.07a5.57 5.57 0 0 0-5.57-5.57Z"/><path stroke="#153385" stroke-miterlimit="10" d="M106.54 19.5H25.51a5.57 5.57 0 0 0-5.57 5.57v74.94a5.57 5.57 0 0 0 5.57 5.57h81.03a5.57 5.57 0 0 0 5.57-5.57V25.07a5.57 5.57 0 0 0-5.57-5.57ZM20.01 34.96h91.92"/><path fill="#153385" d="M40.37 25.93H29.69a1.95 1.95 0 0 0-1.95 1.95v.29a1.95 1.95 0 0 0 1.95 1.95h10.68a1.95 1.95 0 0 0 1.95-1.95v-.29a1.95 1.95 0 0 0-1.95-1.95Z"/><path fill="#153385" stroke="#153385" stroke-miterlimit="10" d="M115.99 52.04H12.86A7.36 7.36 0 0 0 5.5 59.4v15.8a7.36 7.36 0 0 0 7.36 7.36h103.13a7.36 7.36 0 0 0 7.36-7.36V59.4a7.36 7.36 0 0 0-7.36-7.36Z"/><path fill="#fff" stroke="#153385" stroke-miterlimit="10" d="M115.99 48.82H12.86a7.36 7.36 0 0 0-7.36 7.36v15.8a7.36 7.36 0 0 0 7.36 7.36h103.13a7.36 7.36 0 0 0 7.36-7.36v-15.8a7.36 7.36 0 0 0-7.36-7.36Z"/><path stroke="#153385" stroke-miterlimit="10" d="M16.105 53.98v20.44"/><path fill="#153385" d="M58.67 102.59h14.29v12.64c0 3.03-2.46 5.49-5.49 5.49h-3.31c-3.03 0-5.49-2.46-5.49-5.49v-12.64Z"/><path stroke="#153385" stroke-miterlimit="10" stroke-width="1.27" d="M58.67 102.59h14.29v12.64c0 3.03-2.46 5.49-5.49 5.49h-3.31c-3.03 0-5.49-2.46-5.49-5.49v-12.64Z"/><path fill="#153385" stroke="#153385" stroke-miterlimit="10" stroke-width="1.27" d="M88.17 85.03c0-12.35-10.01-22.36-22.36-22.36S43.45 72.68 43.45 85.03c0 8.76 5.04 16.35 12.38 20.01v4.76a2.86 2.86 0 0 0 2.86 2.86h14.23a2.86 2.86 0 0 0 2.86-2.86v-4.76c7.34-3.66 12.39-11.25 12.39-20.02v.01Z"/><path fill="#153385" d="M69.27 111.08c0-8.44 7.21-17.28 7.21-17.28-7.32 0-8.83-8.43-4.83-8.43 4.26 0 2.17 8.1-5.98 8.1s-10.14-8.1-5.87-8.1c4 0 2.49 8.43-4.83 8.43 0 0 7.21 8.84 7.21 17.28"/><path stroke="#153385" stroke-linejoin="round" stroke-width="1.3" d="M69.27 111.08c0-8.44 7.21-17.28 7.21-17.28-7.32 0-8.83-8.43-4.83-8.43 4.26 0 2.17 8.1-5.98 8.1s-10.14-8.1-5.87-8.1c4 0 2.49 8.43-4.83 8.43 0 0 7.21 8.84 7.21 17.28"/><path fill="#0B64DD" d="M60.41 102.53H74.7v12.64c0 3.03-2.46 5.49-5.49 5.49H65.9c-3.03 0-5.49-2.46-5.49-5.49v-12.64Z"/><path stroke="#153385" stroke-miterlimit="10" d="M60.41 102.53H74.7v12.64c0 3.03-2.46 5.49-5.49 5.49H65.9c-3.03 0-5.49-2.46-5.49-5.49v-12.64Z"/><path fill="#48EFCF" stroke="#153385" stroke-miterlimit="10" d="M89.91 84.96c0-12.35-10.01-22.36-22.36-22.36S45.19 72.61 45.19 84.96c0 8.76 5.04 16.35 12.38 20.01v4.76a2.86 2.86 0 0 0 2.86 2.86h14.23a2.86 2.86 0 0 0 2.86-2.86v-4.76c7.34-3.66 12.39-11.25 12.39-20.02v.01Z"/><path stroke="#153385" stroke-linejoin="round" d="M71.01 111.02c0-8.44 7.21-17.28 7.21-17.28-7.32 0-8.83-8.43-4.83-8.43 4.26 0 2.17 8.1-5.98 8.1s-10.14-8.1-5.87-8.1c4 0 2.49 8.43-4.83 8.43 0 0 7.21 8.84 7.21 17.28"/></svg>