<svg xmlns="http://www.w3.org/2000/svg" fill="none" viewBox="0 0 128 128"><path fill="#153385" stroke="#101C3F" stroke-miterlimit="10" d="M123.96 79.79c-22.75 0-19.15 17.38-41.89 17.38-22.74 0-22.74-27.2-45.49-27.2-6.78 0-11.54 2.42-15.48 5.81-6.88 5.92-10.58 14.73-10.58 23.8v10.27l113.44 5.06V79.79Z"/><path fill="#fff" stroke="#101C3F" stroke-miterlimit="10" d="M122.54 79.79c-22.75 0-22.75 17.38-45.49 17.38-22.74 0-22.74-27.2-45.49-27.2-6.78 0-11.54 2.42-15.48 5.81C9.2 81.7 5.5 90.51 5.5 99.58v10.27h117.04V79.79Z"/><path fill="#153385" stroke="#101C3F" stroke-miterlimit="10" d="M103.084 96.87a5.32 5.32 0 0 0 8.419-6.507l-18.218-23.57a5.32 5.32 0 0 0-8.418 6.506l18.217 23.571Z"/><path fill="#101C3F" stroke="#101C3F" stroke-miterlimit="10" d="M63.64 22.8c9.73-3.58 18.77.24 23.67 7.07-14.68-11.96-37.57 2.16-35.3 20.5.37 2.99 1.42 5.74 2.97 8.11-3.39-2.87-5.78-7.07-6.31-12.62-.97-10.03 5.63-19.62 14.97-23.06Z"/><path fill="#48EFCF" stroke="#101C3F" stroke-miterlimit="10" d="M41.78 47.69c1.86 14.97 16.28 24.71 30.85 22.4 24.02-3.82 36.45-37.86 13.13-51.79C65.57 6.24 39 24.84 41.78 47.7v-.01Zm42.86-21.41c15.19 13.22 2.03 37.56-16.47 37.24-9.76-.17-18.23-7.34-19.44-17.13-2.29-18.59 21.23-32.88 35.91-20.11Z"/><path fill="#153385" stroke="#101C3F" stroke-miterlimit="10" d="M72.63 70.09c18.67-2.97 30.33-24.19 23.65-40.04 5.68 7.8 7.26 18.58 1.27 28.96-10.69 18.52-39.39 20.15-49.3 2.67 5.95 6.49 15.13 9.88 24.37 8.41h.01Z"/><path fill="#48EFCF" stroke="#101C3F" stroke-miterlimit="10" d="M104.55 95.737a5.32 5.32 0 0 0 8.419-6.506L94.751 65.66a5.32 5.32 0 1 0-8.418 6.506l18.217 23.57Z"/><path fill="#153385" stroke="#101C3F" stroke-linecap="round" stroke-linejoin="round" d="M53.96 37.09c-7.07-2.19-14.22-8.16-16.17-15.98-.1-.42-.49-.6-.84-.55h-3.31l.08 6.13c-3.16 5.1-8.01 9.17-13.26 10.66-.72.2-.73 1.23-.01 1.45 5.16 1.57 10.34 5.11 13.56 9.91l.08 6.39h3.38c.28-.03.56-.2.66-.53 2.16-6.82 8.1-13.96 15.8-16.02.73-.2.75-1.23.03-1.45v-.01Z"/><path fill="#153385" stroke="#101C3F" stroke-miterlimit="10" d="M53.93 38.55c.73-.2.75-1.23.03-1.45h-4.67v1.45h4.64Z"/><path fill="#0B64DD" stroke="#101C3F" stroke-linecap="round" stroke-linejoin="round" d="M17.12 38.8c7.07 2.15 14.18 7.99 16.23 15.73.2.73 1.22.76 1.45.03 2.16-6.82 8.1-13.96 15.8-16.02.73-.2.75-1.23.03-1.45-7.07-2.19-14.22-8.16-16.17-15.98-.18-.73-1.22-.76-1.45-.04-2.46 7.59-8.8 14.28-15.88 16.28-.72.2-.73 1.23-.01 1.45Z"/><path fill="#0B64DD" stroke="#101C3F" stroke-miterlimit="10" d="M122.54 105.73c-1.74-1.74-6.78-7.67-16.25-7.67-21.14 0-21.14 9.18-42.27 9.18-21.13 0-23.31-21.49-45.74-18.57-5.24.68-10.95 5.1-12.78 10.24v16h117.04v-9.18Z"/></svg>