<svg xmlns="http://www.w3.org/2000/svg" fill="none" viewBox="0 0 128 128"><path fill="#153385" stroke="#153385" stroke-miterlimit="10" d="M94.91 32.84H20.07a5.57 5.57 0 0 0-5.57 5.57v69.15a5.57 5.57 0 0 0 5.57 5.57h74.84a5.57 5.57 0 0 0 5.57-5.57V38.41a5.57 5.57 0 0 0-5.57-5.57Z"/><path fill="#F5F7FA" d="M97.41 32.78H22.57A5.57 5.57 0 0 0 17 38.35v69.15a5.57 5.57 0 0 0 5.57 5.57h74.84a5.57 5.57 0 0 0 5.57-5.57V38.35a5.57 5.57 0 0 0-5.57-5.57Z"/><path fill="#F5F7FA" stroke="#153385" stroke-miterlimit="10" d="M97.41 32.78H22.57A5.57 5.57 0 0 0 17 38.35v69.15a5.57 5.57 0 0 0 5.57 5.57h74.84a5.57 5.57 0 0 0 5.57-5.57V38.35a5.57 5.57 0 0 0-5.57-5.57Z"/><path stroke="#153385" stroke-miterlimit="10" d="M17.07 47.2h86.73"/><path fill="#153385" d="M105.21 14.49H54.06a6.46 6.46 0 0 0-6.46 6.46v35.13a6.46 6.46 0 0 0 6.46 6.46h51.15a6.46 6.46 0 0 0 6.46-6.46V20.95a6.46 6.46 0 0 0-6.46-6.46Z"/><path stroke="#153385" stroke-miterlimit="10" stroke-width=".99" d="M105.21 14.49H54.06a6.46 6.46 0 0 0-6.46 6.46v35.13a6.46 6.46 0 0 0 6.46 6.46h51.15a6.46 6.46 0 0 0 6.46-6.46V20.95a6.46 6.46 0 0 0-6.46-6.46Z"/><path fill="#fff" d="M105.4 14.68H54.92a6.27 6.27 0 0 0-6.27 6.27v33.48a6.27 6.27 0 0 0 6.27 6.27h50.48a6.27 6.27 0 0 0 6.27-6.27V20.95a6.27 6.27 0 0 0-6.27-6.27Z"/><mask id="illustration-search-analytics-dataviz.dark__a" width="64" height="47" x="48" y="14" maskUnits="userSpaceOnUse" style="mask-type:luminance"><path fill="#fff" d="M105.4 14.68H54.92a6.27 6.27 0 0 0-6.27 6.27v33.48a6.27 6.27 0 0 0 6.27 6.27h50.48a6.27 6.27 0 0 0 6.27-6.27V20.95a6.27 6.27 0 0 0-6.27-6.27Z"/></mask><g mask="url(#illustration-search-analytics-dataviz.dark__a)"><path fill="#48EFCF" stroke="#153385" stroke-miterlimit="10" d="M34.46 29.69c7.62 0 7.62 17.38 15.23 17.38s7.61-27.2 15.23-27.2 7.62 27.2 15.23 27.2 7.62-17.38 15.23-17.38 7.62 17.38 15.24 17.38 7.62-17.38 15.24-17.38V65.5H34.95l-.49-35.81Z"/></g><path stroke="#153385" stroke-miterlimit="10" d="M105.4 14.68H54.92a6.27 6.27 0 0 0-6.27 6.27v33.48a6.27 6.27 0 0 0 6.27 6.27h50.48a6.27 6.27 0 0 0 6.27-6.27V20.95a6.27 6.27 0 0 0-6.27-6.27Z"/><path fill="#0B64DD" d="M41.77 103.77h11.64V85.84H41.77v17.93Zm-15.1 0h11.64v-45.1H26.67v45.1Zm31.05 0h11.64V71.79H57.72v31.98Z"/><path stroke="#153385" stroke-miterlimit="10" d="M24.28 103.77h74.2"/><path fill="#153385" d="M35.93 38.78h-9.7a1.95 1.95 0 0 0-1.95 1.95v.01a1.95 1.95 0 0 0 1.95 1.95h9.7a1.95 1.95 0 0 0 1.95-1.95v-.01a1.95 1.95 0 0 0-1.95-1.95Z"/><path stroke="#153385" stroke-miterlimit="10" d="M83.75 79.5h12.6m-21.27 6.34h21.27m-21.27 6.34h21.27"/><path fill="#153385" d="m107.662 20.35-1.57-1.57-5.106 5.105 1.57 1.57 5.106-5.105Z"/><path fill="#153385" d="m102.55 18.788-1.57 1.57 5.105 5.105 1.57-1.57-5.105-5.105Z"/></svg>