<svg xmlns="http://www.w3.org/2000/svg" fill="none" viewBox="0 0 128 128"><path fill="#153385" stroke="#101C3F" stroke-miterlimit="10" d="M18.98 82.74h75.07a3.48 3.48 0 0 0 3.48-3.48v-60.8a3.48 3.48 0 0 0-3.48-3.48H18.98a3.48 3.48 0 0 0-3.48 3.48v60.8a3.48 3.48 0 0 0 3.48 3.48Z"/><path fill="#0B64DD" d="M96.79 14.98H21.72a3.48 3.48 0 0 0-3.48 3.48v60.8a3.48 3.48 0 0 0 3.48 3.48h75.07a3.48 3.48 0 0 0 3.48-3.48v-60.8a3.48 3.48 0 0 0-3.48-3.48Z"/><mask id="illustration-search-analytics.light__a" width="83" height="69" x="18" y="14" maskUnits="userSpaceOnUse" style="mask-type:luminance"><path fill="#fff" d="M96.79 14.98H21.72a3.48 3.48 0 0 0-3.48 3.48v60.8a3.48 3.48 0 0 0 3.48 3.48h75.07a3.48 3.48 0 0 0 3.48-3.48v-60.8a3.48 3.48 0 0 0-3.48-3.48Z"/></mask><g mask="url(#illustration-search-analytics.light__a)"><path stroke="#101C3F" stroke-miterlimit="10" d="M101.04 14.5h-83.4v11.87h83.4V14.5Z"/></g><path stroke="#101C3F" stroke-miterlimit="10" d="M96.79 14.98H21.72a3.48 3.48 0 0 0-3.48 3.48v60.8a3.48 3.48 0 0 0 3.48 3.48h75.07a3.48 3.48 0 0 0 3.48-3.48v-60.8a3.48 3.48 0 0 0-3.48-3.48ZM37.43 26.34v56.4M21.8 32.92h10.93M21.8 37.65h10.93M21.8 42.38h10.93M21.8 47.12h7.31m-7.31 4.73h7.31m-7.31 4.73h7.31"/><path fill="#153385" stroke="#101C3F" stroke-miterlimit="10" d="M109.22 70.49H55.75a3.48 3.48 0 0 0-3.48 3.48v38.18a3.48 3.48 0 0 0 3.48 3.48h53.47a3.48 3.48 0 0 0 3.48-3.48V73.97a3.48 3.48 0 0 0-3.48-3.48Z"/><path fill="#fff" stroke="#101C3F" stroke-miterlimit="10" d="M112.1 70.49H58.63a3.48 3.48 0 0 0-3.48 3.48v38.18a3.48 3.48 0 0 0 3.48 3.48h53.47a3.48 3.48 0 0 0 3.48-3.48V73.97a3.48 3.48 0 0 0-3.48-3.48Z"/><path fill="#48EFCF" stroke="#101C3F" stroke-miterlimit="10" d="M76.69 109.22h6.97V98.49h-6.97v10.73Zm-10.69.01h6.97v-27H66v27Zm21.39 0h6.97V90.09h-6.97v19.14Zm10.7 0h6.97V84.1h-6.97v25.13Z"/><path stroke="#101C3F" stroke-miterlimit="10" d="M63.16 109.23h44.41"/><path fill="#fff" d="M25.46 22.94a2.29 2.29 0 1 0 0-4.58 2.29 2.29 0 0 0 0 4.58Z"/><path stroke="#fff" stroke-miterlimit="10" d="M79.88 20.65h9m2.29 0h3.73"/><mask id="illustration-search-analytics.light__b" width="86" height="61" x="37" y="26" maskUnits="userSpaceOnUse" style="mask-type:luminance"><path fill="#fff" d="M118.56 26.34H41.4a3.48 3.48 0 0 0-3.48 3.48v52.76a3.48 3.48 0 0 0 3.48 3.48h77.16a3.48 3.48 0 0 0 3.48-3.48V29.82a3.48 3.48 0 0 0-3.48-3.48Z"/></mask><g mask="url(#illustration-search-analytics.light__b)"><path fill="#101C3F" d="m109.69 36.07-13.17-1.73 4.04 5.25-24.47 15.49-3.46-5.8-19.82 12.67-5.36-7.42-17.16 9.62 2.78 4.96 12.74-7.14 5.53 7.67 19.41-12.41 3.44 5.78 29.84-18.89 3.56 4.63 2.1-12.68Z"/><path fill="#101C3F" d="m109.69 36.07-.38-2.43-5.55.5.5 5.28 5.43-3.35Z"/><path fill="#48EFCF" stroke="#101C3F" stroke-miterlimit="10" d="m108.77 34.07-13.16-1.74 4.03 5.26-24.47 15.49-3.46-5.8-19.82 12.67-5.35-7.42-17.16 9.61 2.77 4.96 12.74-7.13 5.54 7.67 19.4-12.41 3.45 5.78 29.84-18.89 3.55 4.63 2.1-12.68Z"/></g></svg>