<svg xmlns="http://www.w3.org/2000/svg" fill="none" viewBox="0 0 128 128"><path fill="#153385" stroke="#101C3F" stroke-miterlimit="10" d="M114.69 35.14H12.86A7.36 7.36 0 0 0 5.5 42.5v19.65a7.36 7.36 0 0 0 7.36 7.36h101.83a7.36 7.36 0 0 0 7.36-7.36V42.5a7.36 7.36 0 0 0-7.36-7.36Z"/><path fill="#fff" stroke="#101C3F" stroke-miterlimit="10" d="M114.69 31.51H12.86a7.36 7.36 0 0 0-7.36 7.36v19.65a7.36 7.36 0 0 0 7.36 7.36h101.83a7.36 7.36 0 0 0 7.36-7.36V38.87a7.36 7.36 0 0 0-7.36-7.36Z"/><path fill="#101C3F" stroke="#101C3F" stroke-miterlimit="10" d="M70.67 65.88h15.44V8.5H70.67v57.38Z"/><path fill="#0B64DD" stroke="#101C3F" stroke-miterlimit="10" d="M67.88 65.88h15.44V8.5H67.88v57.38Z"/><path fill="#101C3F" stroke="#101C3F" stroke-miterlimit="10" d="M92.46 65.89h15.44V23.74H92.46v42.15Z"/><path fill="#0B64DD" stroke="#101C3F" stroke-miterlimit="10" d="M89.68 65.89h15.44V23.74H89.68v42.15Z"/><path fill="#101C3F" stroke="#101C3F" stroke-miterlimit="10" d="M48.86 65.89H64.3V37.2H48.86v28.69Z"/><path fill="#0B64DD" stroke="#101C3F" stroke-miterlimit="10" d="M46.09 65.89h15.44V37.2H46.09v28.69Z"/><path fill="#101C3F" stroke="#101C3F" stroke-miterlimit="10" d="M33.89 49.78c8.91-3.28 17.18.22 21.67 6.47-13.44-10.95-34.39 1.97-32.32 18.76.34 2.74 1.3 5.25 2.72 7.43-3.1-2.63-5.29-6.47-5.78-11.55-.89-9.18 5.16-17.96 13.7-21.11h.01Z"/><path fill="#48EFCF" stroke="#101C3F" stroke-miterlimit="10" d="M13.88 72.56c1.7 13.7 14.91 22.62 28.24 20.5 21.99-3.49 33.37-34.66 12.02-47.41-18.48-11.04-42.81 5.99-40.26 26.91Zm39.23-19.59c13.91 12.11 1.86 34.39-15.08 34.09-8.93-.16-16.69-6.72-17.79-15.68-2.1-17.02 19.43-30.11 32.87-18.41Z"/><path fill="#153385" stroke="#101C3F" stroke-miterlimit="10" d="M42.12 93.06c17.09-2.72 27.76-22.14 21.65-36.65 5.2 7.14 6.65 17.01 1.16 26.51-9.78 16.96-36.05 18.44-45.13 2.44 5.45 5.94 13.85 9.04 22.31 7.7h.01Z"/><path fill="#153385" stroke="#101C3F" stroke-miterlimit="10" d="M70 117.587a4.87 4.87 0 0 0 7.707-5.956L61.03 90.054a4.87 4.87 0 1 0-7.707 5.956L70 117.587Z"/><path fill="#48EFCF" stroke="#101C3F" stroke-miterlimit="10" d="M71.346 116.539a4.87 4.87 0 1 0 7.707-5.956L62.376 89.007a4.87 4.87 0 1 0-7.706 5.956l16.676 21.576Z"/></svg>