<svg xmlns="http://www.w3.org/2000/svg" fill="none" viewBox="0 0 128 128"><path fill="#153385" stroke="#101C3F" stroke-miterlimit="10" d="M99.98 19.55H16.07a5.57 5.57 0 0 0-5.57 5.57V89.3a5.57 5.57 0 0 0 5.57 5.57h83.91a5.57 5.57 0 0 0 5.57-5.57V25.12a5.57 5.57 0 0 0-5.57-5.57Z"/><path fill="#0B64DD" d="M102.75 19.5H18.84a5.57 5.57 0 0 0-5.57 5.57v64.18a5.57 5.57 0 0 0 5.57 5.57h83.91a5.57 5.57 0 0 0 5.57-5.57V25.07a5.57 5.57 0 0 0-5.57-5.57Z"/><path stroke="#101C3F" stroke-miterlimit="10" d="M102.75 19.5H18.84a5.57 5.57 0 0 0-5.57 5.57v64.18a5.57 5.57 0 0 0 5.57 5.57h83.91a5.57 5.57 0 0 0 5.57-5.57V25.07a5.57 5.57 0 0 0-5.57-5.57ZM13.34 35.44h94.78"/><path fill="#fff" d="M34.4 26.13H23.26a1.95 1.95 0 0 0-1.95 1.95v.42a1.95 1.95 0 0 0 1.95 1.95H34.4a1.95 1.95 0 0 0 1.95-1.95v-.42a1.95 1.95 0 0 0-1.95-1.95Z"/><path fill="#101C3F" stroke="#101C3F" stroke-miterlimit="10" d="M98.9 50.43H22.68a4.42 4.42 0 0 0-4.42 4.42v13.19a4.42 4.42 0 0 0 4.42 4.42H98.9a4.42 4.42 0 0 0 4.42-4.42V54.85a4.42 4.42 0 0 0-4.42-4.42Z"/><path fill="#fff" d="M98.9 48.1H22.68a4.42 4.42 0 0 0-4.42 4.42v13.19a4.42 4.42 0 0 0 4.42 4.42H98.9a4.42 4.42 0 0 0 4.42-4.42V52.52a4.42 4.42 0 0 0-4.42-4.42Z"/><mask id="illustration-search-experiences-video.light__a" width="86" height="23" x="18" y="48" maskUnits="userSpaceOnUse" style="mask-type:luminance"><path fill="#fff" d="M98.9 48.1H22.68a4.42 4.42 0 0 0-4.42 4.42v13.19a4.42 4.42 0 0 0 4.42 4.42H98.9a4.42 4.42 0 0 0 4.42-4.42V52.52a4.42 4.42 0 0 0-4.42-4.42Z"/></mask><g mask="url(#illustration-search-experiences-video.light__a)"><path fill="#48EFCF" stroke="#fff" stroke-miterlimit="10" d="M112.89 44.14H79.33v30.23h33.56V44.14Z"/></g><path stroke="#101C3F" stroke-miterlimit="10" d="M98.9 48.1H22.68a4.42 4.42 0 0 0-4.42 4.42v13.19a4.42 4.42 0 0 0 4.42 4.42H98.9a4.42 4.42 0 0 0 4.42-4.42V52.52a4.42 4.42 0 0 0-4.42-4.42Z"/><path stroke="#101C3F" stroke-linecap="round" stroke-linejoin="round" d="M26.36 52.56v13.03"/><path fill="#153385" stroke="#101C3F" stroke-miterlimit="10" d="M89.29 116.74c-14.94 0-27.06-12.13-27.06-27.09 0-14.96 12.12-27.09 27.06-27.09s27.06 12.13 27.06 27.09c0 14.96-12.12 27.09-27.06 27.09Z"/><path fill="#fff" stroke="#101C3F" stroke-linecap="round" stroke-linejoin="round" d="M91.83 116.74c-14.94 0-27.06-12.13-27.06-27.09 0-14.96 12.12-27.09 27.06-27.09s27.06 12.13 27.06 27.09c0 14.96-12.12 27.09-27.06 27.09Z"/><path fill="#0B64DD" d="M107.04 87.84 84.77 74.52c-1.47-.88-3.41.09-3.41 1.69v26.88c0 1.61 1.96 2.58 3.43 1.68l22.27-13.56c1.32-.8 1.31-2.58-.02-3.37Z"/></svg>