<svg xmlns="http://www.w3.org/2000/svg" fill="none" viewBox="0 0 128 128"><path fill="#153385" stroke="#101C3F" stroke-miterlimit="10" d="M102.86 20.56H21.83a5.57 5.57 0 0 0-5.57 5.57v74.94a5.57 5.57 0 0 0 5.57 5.57h81.03a5.57 5.57 0 0 0 5.57-5.57V26.13a5.57 5.57 0 0 0-5.57-5.57Z"/><path fill="#0B64DD" d="M105.54 20.5H24.51a5.57 5.57 0 0 0-5.57 5.57v74.94a5.57 5.57 0 0 0 5.57 5.57h81.03a5.57 5.57 0 0 0 5.57-5.57V26.07a5.57 5.57 0 0 0-5.57-5.57Z"/><path stroke="#101C3F" stroke-miterlimit="10" d="M105.54 20.5H24.51a5.57 5.57 0 0 0-5.57 5.57v74.94a5.57 5.57 0 0 0 5.57 5.57h81.03a5.57 5.57 0 0 0 5.57-5.57V26.07a5.57 5.57 0 0 0-5.57-5.57ZM19.01 35.96h91.92"/><path fill="#fff" d="M39.37 26.93H28.69a1.95 1.95 0 0 0-1.95 1.95v.29a1.95 1.95 0 0 0 1.95 1.95h10.68a1.95 1.95 0 0 0 1.95-1.95v-.29a1.95 1.95 0 0 0-1.95-1.95Z"/><path fill="#153385" stroke="#101C3F" stroke-miterlimit="10" d="M114.99 53.04H11.86A7.36 7.36 0 0 0 4.5 60.4v15.8a7.36 7.36 0 0 0 7.36 7.36h103.13a7.36 7.36 0 0 0 7.36-7.36V60.4a7.36 7.36 0 0 0-7.36-7.36Z"/><path fill="#fff" stroke="#101C3F" stroke-miterlimit="10" d="M114.99 49.82H11.86a7.36 7.36 0 0 0-7.36 7.36v15.8a7.36 7.36 0 0 0 7.36 7.36h103.13a7.36 7.36 0 0 0 7.36-7.36v-15.8a7.36 7.36 0 0 0-7.36-7.36Z"/><path fill="#101C3F" stroke="#101C3F" stroke-miterlimit="10" d="M57.29 59.28c7.96-2.93 15.35.2 19.36 5.78-12-9.78-30.72 1.76-28.87 16.76a15.5 15.5 0 0 0 2.43 6.63c-2.77-2.35-4.72-5.78-5.16-10.32-.79-8.2 4.61-16.05 12.24-18.86v.01Z"/><path fill="#48EFCF" stroke="#101C3F" stroke-miterlimit="10" d="M39.41 79.63c1.52 12.24 13.32 20.21 25.23 18.31 19.64-3.12 29.81-30.96 10.73-42.35-16.51-9.86-38.24 5.35-35.96 24.04Zm35.05-17.5c12.42 10.81 1.66 30.72-13.47 30.45-7.98-.14-14.91-6-15.89-14.01-1.87-15.21 17.36-26.89 29.36-16.45v.01Z"/><path fill="#153385" stroke="#101C3F" stroke-miterlimit="10" d="M64.64 97.94c15.27-2.43 24.8-19.78 19.34-32.74 4.65 6.38 5.94 15.19 1.04 23.68-8.74 15.15-32.21 16.47-40.31 2.18 4.87 5.31 12.37 8.08 19.93 6.88Z"/><path fill="#153385" stroke="#101C3F" stroke-miterlimit="10" d="m95.418 120.801.458-.355a4.06 4.06 0 0 0 .73-5.695L81.355 95.018a4.06 4.06 0 0 0-5.696-.73l-.459.355a4.06 4.06 0 0 0-.73 5.695l15.252 19.733a4.06 4.06 0 0 0 5.696.73Z"/><path fill="#48EFCF" stroke="#101C3F" stroke-miterlimit="10" d="m96.627 119.87.459-.354a4.061 4.061 0 0 0 .73-5.696L82.563 94.087a4.06 4.06 0 0 0-5.695-.73l-.46.356a4.06 4.06 0 0 0-.729 5.695l15.251 19.733a4.06 4.06 0 0 0 5.696.729Z"/><path stroke="#101C3F" stroke-miterlimit="10" d="M16.26 54.98v20.44"/></svg>