<svg xmlns="http://www.w3.org/2000/svg" fill="none" viewBox="0 0 128 128"><path fill="#153385" stroke="#153385" stroke-miterlimit="10" d="m16.47 41.55-2.52-15.32c-.9-4.38-.1-8.83 2.25-12.54 2.35-3.71 5.94-6.18 10.11-6.96 8.27-1.55 16.16 4.03 17.95 12.71v.06l2.61 17.23-7.5 1.57-2.6-17.2c-.92-4.38-4.9-7.2-9.09-6.42-2.11.4-3.93 1.65-5.12 3.53a8.554 8.554 0 0 0-1.14 6.35l2.52 15.32-7.48 1.67h.01Z"/><path fill="#48EFCF" stroke="#153385" stroke-miterlimit="10" d="M18.81 39.62 16.19 24.3c-.94-4.37-.08-8.83 2.41-12.54 2.49-3.72 6.29-6.2 10.69-6.99A16.308 16.308 0 0 1 48.2 17.43v.06l2.71 17.23-7.92 1.59-2.69-17.2a8.254 8.254 0 0 0-9.57-6.39 8.25 8.25 0 0 0-5.42 3.54 8.217 8.217 0 0 0-1.22 6.36l2.62 15.32-7.9 1.69v-.01Z"/><path fill="#153385" stroke="#153385" stroke-miterlimit="10" d="m20.97 36.74-7.94 1.32c-1.4.23-2.75.83-3.74 1.86-.15.15-.29.31-.42.48-.73.93-1.37 2.21-1.37 3.89 0 3.9 5.75 40.88 5.75 40.88s1.02 6 4.65 6c3.63 0 11.28-1.42 11.28-1.42l-8.22-53 .01-.01Z"/><path fill="#F5F7FA" stroke="#153385" stroke-miterlimit="10" d="m62.31 85.19-36.3 5.06c-2.81.39-5.39-1.52-5.78-4.26l-6.72-43.62c-.38-2.75 1.58-5.29 4.39-5.68l36.27-2.47c2.81-.39 5.39 1.52 5.78 4.26l6.76 41.02c.38 2.75-1.58 5.29-4.39 5.68l-.01.01Z"/><path fill="#153385" d="M49.58 73.55 44.3 59.34a5.611 5.611 0 0 0 2.36-4.58c0-3.1-2.52-5.62-5.62-5.62s-5.62 2.52-5.62 5.62c0 2.2 1.27 4.1 3.11 5.02l-.65 15.53 11.7-1.77v.01Z"/><path fill="#153385" stroke="#153385" stroke-miterlimit="10" d="M87.31 123.92c19.83-8.04 34.22-25.07 34.22-41.1V62L87.31 49.74h-.1L55.98 61.08v21.74c0 16.03 11.41 33.05 31.23 41.1h.1Z"/><path fill="#fff" stroke="#153385" stroke-miterlimit="10" d="M87.31 123.92c18.92-8.04 31.23-25.07 31.23-41.1V61.08L87.31 49.74h-.09L55.99 61.08v21.74c0 16.03 12.31 33.05 31.23 41.1h.09Z"/><path fill="#153385" stroke="#153385" stroke-miterlimit="10" d="M84.12 101.38 72.71 88.69l4.55-4.09 7.21 8.02 19.5-18.5 4.21 4.44-24.06 22.82Z"/><path fill="#0B64DD" stroke="#153385" stroke-miterlimit="10" d="M82.35 99.83 70.94 87.14l4.55-4.09 7.21 8.02 19.5-18.5 4.21 4.43-24.06 22.83Z"/></svg>