<svg xmlns="http://www.w3.org/2000/svg" fill="none" viewBox="0 0 128 128"><path fill="#153385" stroke="#101C3F" stroke-miterlimit="10" d="M46.14 97.92c23.5-9.53 40.56-29.71 40.56-48.71V23.44L46.14 10h-.12L9 23.44v25.77c0 19 13.52 39.18 37.02 48.71h.12Z"/><path fill="#0B64DD" stroke="#101C3F" stroke-miterlimit="10" d="M46.13 97.92c22.43-9.53 37.02-29.71 37.02-48.71V23.44L46.13 10h-.11L9 23.44v25.77c0 19 14.59 39.18 37.02 48.71h.11Z"/><path fill="#101C3F" stroke="#101C3F" stroke-miterlimit="10" d="M42.35 71.2 28.83 56.16l5.39-4.85 8.54 9.51 23.12-21.93 4.99 5.26L42.35 71.2Z"/><path fill="#48EFCF" stroke="#101C3F" stroke-miterlimit="10" d="M40.25 69.36 26.73 54.32l5.39-4.85 8.54 9.51 23.12-21.93 4.99 5.26-28.52 27.05Z"/><path fill="#153385" stroke="#101C3F" stroke-miterlimit="10" d="M89.57 118.1c-14.94 0-27.06-12.13-27.06-27.09 0-14.96 12.12-27.09 27.06-27.09s27.06 12.13 27.06 27.09c0 14.96-12.12 27.09-27.06 27.09Z"/><path fill="#fff" stroke="#101C3F" stroke-linecap="round" stroke-linejoin="round" d="M92.1 118.1c-14.94 0-27.06-12.13-27.06-27.09 0-14.96 12.12-27.09 27.06-27.09s27.06 12.13 27.06 27.09c0 14.96-12.12 27.09-27.06 27.09Z"/><path fill="#0B64DD" d="M107.32 89.19 85.05 75.87c-1.47-.88-3.41.09-3.41 1.69v26.88c0 1.61 1.96 2.58 3.43 1.68l22.27-13.56c1.32-.8 1.31-2.58-.02-3.37Z"/></svg>