<svg xmlns="http://www.w3.org/2000/svg" fill="none" viewBox="0 0 128 128"><path fill="#48EFCF" d="M110.72 66.41h-3.51v13.08h3.51V66.41Z"/><path fill="#153385" stroke="#101C3F" stroke-linejoin="round" d="m44.67 81.84-6.43 8.14 76.41-.09-6.65-7.92c-.91-1.08-2.69-1.76-4.63-1.76h-54.2c-1.85 0-3.57.62-4.51 1.63h.01Z"/><path fill="#0B64DD" stroke="#101C3F" stroke-miterlimit="10" d="M110.8 87.75H42.26a4.47 4.47 0 0 0-4.47 4.47v17.09a4.47 4.47 0 0 0 4.47 4.47h68.54a4.47 4.47 0 0 0 4.47-4.47V92.22a4.47 4.47 0 0 0-4.47-4.47Z"/><path fill="#153385" stroke="#101C3F" stroke-linejoin="round" d="m44.67 51.57-6.27 8.14 76.25-.09L108 51.7c-.91-1.08-2.69-1.76-4.63-1.76h-54.2c-1.85 0-3.57.62-4.51 1.63h.01Z"/><path fill="#0B64DD" stroke="#101C3F" stroke-miterlimit="10" d="M110.8 57.48H42.26a4.47 4.47 0 0 0-4.47 4.47v17.09a4.47 4.47 0 0 0 4.47 4.47h68.54a4.47 4.47 0 0 0 4.47-4.47V61.95a4.47 4.47 0 0 0-4.47-4.47Z"/><path fill="#153385" stroke="#101C3F" stroke-miterlimit="10" d="M70.14 22.98c-1.14 0-2.25.08-3.35.24-3.54-5.26-9.54-8.72-16.36-8.72-8.61 0-15.93 5.53-18.61 13.22-1.24-.3-2.53-.46-3.86-.46-9.09 0-16.46 7.37-16.46 16.46 0 1.85.31 3.63.88 5.29h81.17c.09-.82.13-1.66.13-2.51 0-13-10.54-23.54-23.54-23.54v.02Z"/><path fill="#fff" stroke="#101C3F" stroke-miterlimit="10" d="M70.14 26.71c-1.14 0-2.25.08-3.35.24-3.54-5.26-9.54-8.71-16.36-8.71-8.61 0-15.93 5.53-18.61 13.22-1.24-.3-2.53-.46-3.86-.46-9.09 0-16.46 7.37-16.46 16.46 0 1.85.31 3.63.88 5.29h81.17c.09-.82.13-1.66.13-2.51 0-13-10.54-23.54-23.54-23.54v.01Z"/><path fill="#48EFCF" d="M51.05 76.13a5 5 0 1 0 0-10 5 5 0 0 0 0 10Zm48.89-11.35h-3.51v13.08h3.51V64.78Zm-6.77 0h-3.51v13.08h3.51V64.78Zm-42.12 42.18a5 5 0 1 0 0-10 5 5 0 0 0 0 10Zm48.89-11.35h-3.51v13.08h3.51V95.61Zm-6.77 0h-3.51v13.08h3.51V95.61Z"/></svg>