<svg xmlns="http://www.w3.org/2000/svg" fill="none" viewBox="0 0 128 128"><path fill="#153385" stroke="#101C3F" stroke-miterlimit="10" d="M86.29 22.46c-1.47 0-2.91.11-4.33.31-4.57-6.8-12.33-11.27-21.14-11.27-11.13 0-20.59 7.14-24.05 17.09-1.6-.39-3.27-.59-4.99-.59-11.75 0-21.28 9.52-21.28 21.27 0 2.39.4 4.69 1.13 6.84h104.91c.11-1.06.17-2.15.17-3.24 0-16.8-13.62-30.42-30.42-30.42v.01Z"/><path fill="#fff" stroke="#101C3F" stroke-miterlimit="10" d="M86.29 27.28c-1.47 0-2.91.11-4.33.31-4.57-6.79-12.34-11.26-21.14-11.26-11.13 0-20.59 7.14-24.05 17.09-1.6-.39-3.27-.59-4.99-.59-11.75-.01-21.28 9.52-21.28 21.27 0 2.39.4 4.69 1.13 6.84h104.91c.11-1.06.17-2.15.17-3.24 0-16.8-13.62-30.42-30.42-30.42Z"/><path fill="#48EFCF" d="M96.67 62.4h-3.51v13.08h3.51V62.4Z"/><path fill="#153385" stroke="#101C3F" stroke-linejoin="round" d="m31.74 77.83-6.43 8.14 76.41-.09-6.65-7.92c-.91-1.08-2.69-1.76-4.63-1.76H36.26c-1.85 0-3.57.62-4.51 1.63h-.01Z"/><path fill="#0B64DD" stroke="#101C3F" stroke-miterlimit="10" d="M97.87 83.75H29.33a4.47 4.47 0 0 0-4.47 4.47v17.09a4.47 4.47 0 0 0 4.47 4.47h68.54a4.47 4.47 0 0 0 4.47-4.47V88.22a4.47 4.47 0 0 0-4.47-4.47Z"/><path fill="#153385" stroke="#101C3F" stroke-linejoin="round" d="m31.75 47.56-6.27 8.14 76.25-.09-6.65-7.92c-.91-1.08-2.69-1.76-4.63-1.76H36.26c-1.85 0-3.57.62-4.51 1.63Z"/><path fill="#0B64DD" stroke="#101C3F" stroke-miterlimit="10" d="M97.88 53.48H29.34a4.47 4.47 0 0 0-4.47 4.47v17.09a4.47 4.47 0 0 0 4.47 4.47h68.54a4.47 4.47 0 0 0 4.47-4.47V57.95a4.47 4.47 0 0 0-4.47-4.47Z"/><path fill="#48EFCF" d="M38.13 72.12a5 5 0 1 0 0-10 5 5 0 0 0 0 10Zm48.89-11.34h-3.51v13.08h3.51V60.78Zm-6.77 0h-3.51v13.08h3.51V60.78Zm-42.12 42.17a5 5 0 1 0 0-10 5 5 0 0 0 0 10Zm48.89-11.34h-3.51v13.08h3.51V91.61Zm-6.77 0h-3.51v13.08h3.51V91.61Z"/><path fill="#153385" stroke="#101C3F" stroke-miterlimit="10" d="m104.812 45.435-5.805-5.805-75.279 75.278 5.806 5.806 75.278-75.279Z"/><path fill="#fff" stroke="#101C3F" stroke-miterlimit="10" d="m103.499 44.115-5.805-5.805-75.279 75.279 5.806 5.805 75.278-75.279Z"/></svg>