<svg xmlns="http://www.w3.org/2000/svg" fill="none" viewBox="0 0 128 128"><path fill="#153385" stroke="#101C3F" stroke-miterlimit="10" d="M40.17 106.25 22.63 29.96H4.38a2.88 2.88 0 0 1 0-5.76h22.83l18.57 80.75-5.61 1.29v.01Z"/><path fill="#101C3F" stroke="#101C3F" stroke-miterlimit="10" d="M41.54 112.25a6.65 6.65 0 1 0 0-13.3 6.65 6.65 0 0 0 0 13.3Z"/><path fill="#101C3F" d="M41.65 98.52h2.76l-.68 14.14-1.79.01-.29-14.15Z"/><path fill="#0B64DD" stroke="#101C3F" stroke-miterlimit="10" d="M44.41 112.25a6.65 6.65 0 1 0 0-13.3 6.65 6.65 0 0 0 0 13.3Z"/><path fill="#153385" d="M94.05 108.48H45.86a2.88 2.88 0 0 1 0-5.76h48.19v5.76Z"/><path fill="#101C3F" stroke="#101C3F" stroke-miterlimit="10" d="M89.39 112.25a6.65 6.65 0 1 0 0-13.3 6.65 6.65 0 0 0 0 13.3Z"/><path fill="#101C3F" d="M89.5 98.52h2.76l-.67 14.14-1.79.01-.3-14.15Z"/><path fill="#0B64DD" stroke="#101C3F" stroke-miterlimit="10" d="M92.26 112.25a6.65 6.65 0 1 0 0-13.3 6.65 6.65 0 0 0 0 13.3Z"/><path fill="#101C3F" stroke="#101C3F" stroke-miterlimit="10" d="M101.27 112.26a6.65 6.65 0 1 0 0-13.3 6.65 6.65 0 1 0 0 13.3Z"/><path fill="#101C3F" d="M101.37 98.52h2.77l-.68 14.14-1.79.02-.3-14.16Z"/><path fill="#48EFCF" stroke="#101C3F" stroke-miterlimit="10" d="M104.14 112.26a6.65 6.65 0 1 0 0-13.3 6.65 6.65 0 1 0 0 13.3Z"/><path fill="#101C3F" stroke="#101C3F" stroke-miterlimit="10" d="M50.41 42.77H28.53l11.28 49.06 18.95-1.08-8.35-47.98Z"/><path fill="#0B64DD" stroke="#101C3F" stroke-miterlimit="10" d="M44.21 42.77h73.86c1.82 0 3.19 1.67 2.83 3.45l-8.44 42.21a2.882 2.882 0 0 1-2.83 2.32H53.5l-9.29-47.98Z"/><path fill="#0B64DD" stroke="#101C3F" stroke-miterlimit="10" d="M54.72 106.25 37.18 29.96H18.93a2.88 2.88 0 0 1 0-5.76h20.1c1.6 0 2.99 1.1 3.34 2.66l17.96 78.09-5.61 1.29v.01Z"/><path fill="#101C3F" stroke="#101C3F" stroke-miterlimit="10" d="M57.52 112.25a6.65 6.65 0 1 0 0-13.3 6.65 6.65 0 0 0 0 13.3Z"/><path fill="#101C3F" d="M57.63 98.52h2.77l-.68 14.14-1.79.01-.3-14.15Z"/><path fill="#48EFCF" stroke="#101C3F" stroke-miterlimit="10" d="M60.4 112.25a6.65 6.65 0 1 0 0-13.3 6.65 6.65 0 0 0 0 13.3Z"/><path fill="#101C3F" stroke="#101C3F" stroke-miterlimit="10" d="M83.77 70.6c13.398 0 24.26-10.991 24.26-24.55 0-13.559-10.862-24.55-24.26-24.55-13.398 0-24.26 10.991-24.26 24.55 0 13.559 10.862 24.55 24.26 24.55Z"/><path fill="#48EFCF" stroke="#101C3F" stroke-miterlimit="10" d="M86.08 70.31c13.398 0 24.26-10.861 24.26-24.26 0-13.398-10.862-24.26-24.26-24.26-13.398 0-24.26 10.862-24.26 24.26 0 13.399 10.862 24.26 24.26 24.26Z"/><path fill="#101C3F" d="M86.08 65.18c10.565 0 19.13-8.565 19.13-19.13s-8.565-19.13-19.13-19.13-19.13 8.565-19.13 19.13 8.565 19.13 19.13 19.13Z"/><mask id="illustration-shopping-cart.light__a" width="40" height="40" x="66" y="26" maskUnits="userSpaceOnUse" style="mask-type:luminance"><path fill="#fff" d="M86.08 65.18c10.565 0 19.13-8.565 19.13-19.13s-8.565-19.13-19.13-19.13-19.13 8.565-19.13 19.13 8.565 19.13 19.13 19.13Z"/></mask><g mask="url(#illustration-shopping-cart.light__a)"><path fill="#0B64DD" stroke="#101C3F" stroke-miterlimit="10" d="M83.53 65.76c10.565 0 19.13-8.565 19.13-19.13S94.095 27.5 83.53 27.5 64.4 36.065 64.4 46.63s8.565 19.13 19.13 19.13Z"/></g><path stroke="#101C3F" stroke-miterlimit="10" d="M86.08 65.18c10.565 0 19.13-8.565 19.13-19.13s-8.565-19.13-19.13-19.13-19.13 8.565-19.13 19.13 8.565 19.13 19.13 19.13Z"/><path fill="#48EFCF" d="M87.32 38.58h-2.47v14.94h2.47V38.58Z"/><path fill="#48EFCF" d="M93.55 47.28v-2.47H78.61v2.47h14.94Z"/></svg>