<svg xmlns="http://www.w3.org/2000/svg" fill="none" viewBox="0 0 128 128"><g clip-path="url(#illustration-simplify.light__a)"><path stroke="#153385" stroke-miterlimit="10" stroke-width=".96" d="M16.25 45.56h27.24M14 71.58h23.25M19.95 84.6h19.84m-19.84 22.45h19.84M17.9 58.57h27.37M17.9 24.55h27.37"/><path fill="#153385" stroke="#101C3F" stroke-miterlimit="10" stroke-width=".96" d="M67.08 116.32H37v-98.4h30.08l49.2 48.09-49.2 50.32v-.01Z"/><path fill="#48EFCF" stroke="#101C3F" stroke-miterlimit="10" stroke-width=".96" d="M67.03 111.88H36.95v-98.4h30.08l49.2 48.09-49.2 50.32v-.01Z"/><path fill="#153385" d="M58.82 101.69a.476.476 0 0 0-.48-.48H21.66v-7.82h37.05c.26 0 .48-.21.48-.48v-6.39l8.22 8.85c.09.1.22.15.35.15h1.23v1.26l-10.2 11.8.03-6.89Z"/><path fill="#101C3F" d="m59.67 87.73 7.39 7.96c.18.2.44.31.7.31h.75v.6l-9.23 10.68.02-5.59a.952.952 0 0 0-.96-.96h-36.2v-6.86h36.57c.53 0 .96-.43.96-.96v-5.18Zm-.96-2.43v7.61H21.18v8.78h37.16l-.02 6.91c0 .29.23.47.47.47.13 0 .25-.05.35-.16l10.32-11.95v-1.92h-1.71L58.7 85.3h.01Z"/><path fill="#0B64DD" stroke="#101C3F" stroke-linecap="round" stroke-linejoin="round" stroke-width=".96" d="M58.71 99.77H21.58v-8.78h37.13v-7.61l10.25 11.66-10.25 12.01v-7.28Z"/><path fill="#153385" d="M58.71 47.84s-.09-.03-.1-.04l.1-6.87a.476.476 0 0 0-.48-.48l-36.56.02v-7.82h37.05c.26 0 .48-.21.48-.48v-6.39l8.22 8.85c.09.1.22.15.35.15H69v1.26L58.73 47.85l-.02-.01Z"/><path fill="#101C3F" d="m59.67 26.99 7.39 7.96c.18.2.44.31.7.31h.75v.6l-9.4 10.81.08-5.73c0-.26-.1-.5-.28-.69a.97.97 0 0 0-.68-.28l-36.08.02v-6.86h36.57c.53 0 .96-.43.96-.96v-5.18m-.97-2.44v7.61H21.18v8.78l37.04-.02-.09 6.91c0 .29.29.49.57.49.14 0 .28-.05.37-.16l10.39-11.95v-1.92h-1.71l-9.05-9.74h.01Z"/><path fill="#0B64DD" stroke="#101C3F" stroke-linecap="round" stroke-linejoin="round" stroke-width=".96" d="M58.71 39.02H21.58v-8.78h37.13v-7.61L68.96 34.3l-10.25 12v-7.28Z"/><mask id="illustration-simplify.light__b" width="101" height="99" x="36" y="13" maskUnits="userSpaceOnUse" style="mask-type:luminance"><path fill="#fff" d="M92.99 111.88H36.95v-98.4h59.32l40.59 46.62-43.87 51.78Z"/></mask><g mask="url(#illustration-simplify.light__b)"><path fill="#153385" d="M94.75 78.52H35.78V58.89h59.83V41.78l20.54 22.11h3.72v3.84L94.7 96.88l.05-18.36Z"/><path fill="#101C3F" d="m96.09 43 19.56 21.06.28.31h3.46v3.18L95.17 95.59 95.22 79v-.96H36.26V59.37h59.83V43Zm-.96-2.44v17.85H35.31v20.58h58.97l-.06 19.17L120 67.9v-4.49h-3.64L95.14 40.56h-.01Z"/><path fill="#0B64DD" stroke="#101C3F" stroke-miterlimit="10" stroke-width=".96" d="M95.13 74.5h-58.9V53.92h58.9V36.07L119.5 63.5 95.13 91.56V74.5Z"/></g></g><defs><clipPath id="illustration-simplify.light__a"><path fill="#fff" d="M0 0h128v128H0z"/></clipPath></defs></svg>