<svg xmlns="http://www.w3.org/2000/svg" fill="none" viewBox="0 0 128 128"><path fill="#153385" d="M101.18 20.9H26.39c-5.468 0-9.9 4.43-9.9 9.895s4.432 9.895 9.9 9.895h74.79c5.468 0 9.9-4.43 9.9-9.895s-4.432-9.895-9.9-9.895Z"/><mask id="illustration-smart-filtering.light__a" width="96" height="21" x="16" y="20" maskUnits="userSpaceOnUse" style="mask-type:luminance"><path fill="#fff" d="M101.18 20.9H26.39c-5.468 0-9.9 4.43-9.9 9.895s4.432 9.895 9.9 9.895h74.79c5.468 0 9.9-4.43 9.9-9.895s-4.432-9.895-9.9-9.895Z"/></mask><g mask="url(#illustration-smart-filtering.light__a)"><path fill="#0B64DD" stroke="#101C3F" stroke-miterlimit="10" stroke-width=".98" d="M102.39 18.61H27.6c-5.468 0-9.9 4.43-9.9 9.895s4.432 9.895 9.9 9.895h74.79c5.468 0 9.9-4.43 9.9-9.895s-4.432-9.895-9.9-9.895Z"/></g><path stroke="#101C3F" stroke-miterlimit="10" stroke-width=".98" d="M101.18 20.9H26.39c-5.468 0-9.9 4.43-9.9 9.895s4.432 9.895 9.9 9.895h74.79c5.468 0 9.9-4.43 9.9-9.895s-4.432-9.895-9.9-9.895Z"/><path fill="#153385" d="M101.18 54.52H26.39c-5.468 0-9.9 4.43-9.9 9.895s4.432 9.895 9.9 9.895h74.79c5.468 0 9.9-4.43 9.9-9.895s-4.432-9.895-9.9-9.895Z"/><mask id="illustration-smart-filtering.light__b" width="96" height="21" x="16" y="54" maskUnits="userSpaceOnUse" style="mask-type:luminance"><path fill="#fff" d="M101.18 54.52H26.39c-5.468 0-9.9 4.43-9.9 9.895s4.432 9.895 9.9 9.895h74.79c5.468 0 9.9-4.43 9.9-9.895s-4.432-9.895-9.9-9.895Z"/></mask><g mask="url(#illustration-smart-filtering.light__b)"><path fill="#0B64DD" stroke="#101C3F" stroke-miterlimit="10" stroke-width=".98" d="M102.39 52.23H27.6c-5.468 0-9.9 4.43-9.9 9.895s4.432 9.895 9.9 9.895h74.79c5.468 0 9.9-4.43 9.9-9.895s-4.432-9.895-9.9-9.895Z"/></g><path stroke="#101C3F" stroke-miterlimit="10" stroke-width=".98" d="M101.18 54.52H26.39c-5.468 0-9.9 4.43-9.9 9.895s4.432 9.895 9.9 9.895h74.79c5.468 0 9.9-4.43 9.9-9.895s-4.432-9.895-9.9-9.895Z"/><path fill="#153385" d="M101.18 88.25H26.39c-5.468 0-9.9 4.43-9.9 9.895s4.432 9.895 9.9 9.895h74.79c5.468 0 9.9-4.43 9.9-9.895s-4.432-9.895-9.9-9.895Z"/><mask id="illustration-smart-filtering.light__c" width="96" height="21" x="16" y="88" maskUnits="userSpaceOnUse" style="mask-type:luminance"><path fill="#fff" d="M101.18 88.25H26.39c-5.468 0-9.9 4.43-9.9 9.895s4.432 9.895 9.9 9.895h74.79c5.468 0 9.9-4.43 9.9-9.895s-4.432-9.895-9.9-9.895Z"/></mask><g mask="url(#illustration-smart-filtering.light__c)"><path fill="#0B64DD" stroke="#101C3F" stroke-miterlimit="10" stroke-width=".98" d="M102.39 85.97H27.6c-5.468 0-9.9 4.43-9.9 9.895s4.432 9.895 9.9 9.895h74.79c5.468 0 9.9-4.43 9.9-9.895s-4.432-9.895-9.9-9.895Z"/></g><path stroke="#101C3F" stroke-miterlimit="10" stroke-width=".98" d="M101.18 88.25H26.39c-5.468 0-9.9 4.43-9.9 9.895s4.432 9.895 9.9 9.895h74.79c5.468 0 9.9-4.43 9.9-9.895s-4.432-9.895-9.9-9.895Z"/><path fill="#101C3F" stroke="#101C3F" stroke-miterlimit="10" stroke-width=".98" d="M40.76 111.14c7.18 0 13-5.82 13-13s-5.82-13-13-13-13 5.82-13 13 5.82 13 13 13Z"/><path fill="#48EFCF" stroke="#101C3F" stroke-miterlimit="10" stroke-width=".98" d="M41.76 111.14c7.18 0 13-5.82 13-13s-5.82-13-13-13-13 5.82-13 13 5.82 13 13 13Z"/><path fill="#101C3F" stroke="#101C3F" stroke-miterlimit="10" stroke-width=".98" d="M66.78 76.33c7.18 0 13-5.82 13-13s-5.82-13-13-13-13 5.82-13 13 5.82 13 13 13Z"/><path fill="#48EFCF" stroke="#101C3F" stroke-miterlimit="10" stroke-width=".98" d="M67.77 76.33c7.18 0 13-5.82 13-13s-5.82-13-13-13-13 5.82-13 13 5.82 13 13 13Z"/><path fill="#101C3F" stroke="#101C3F" stroke-miterlimit="10" stroke-width=".98" d="M43.2 42.49c7.18 0 13-5.82 13-13s-5.82-13-13-13-13 5.82-13 13 5.82 13 13 13Z"/><path fill="#48EFCF" stroke="#101C3F" stroke-miterlimit="10" stroke-width=".98" d="M44.19 42.49c7.18 0 13-5.82 13-13s-5.82-13-13-13-13 5.82-13 13 5.82 13 13 13Z"/><path fill="#153385" d="m98.94 80.78 1.83-1.08 4.51-2.56-.52-2.23-6.53 2.21-27.18-7.91 7.26 28.06-.65 4.79 1.91 1.29 3.08-6.09 3.6-6.86 9.63 10.18 7.45-7.45-10.16-9.25 5.77-3.1Z"/><path stroke="#101C3F" stroke-miterlimit="10" d="m77.91 101.58 1.9 1.29 2.84-5.61 3.6-6.86 9.63 10.18 7.45-7.45-10.16-9.25 5.77-3.1 1.83-1.08 4.51-2.56-.95-2.08"/><path fill="#fff" stroke="#101C3F" stroke-miterlimit="10" d="m103.33 75.03-34.66-9.11 9.11 34.66 5.56-12.54 12.54 12.54 7.45-7.45-12.54-12.54 12.54-5.56Z"/></svg>