<svg xmlns="http://www.w3.org/2000/svg" fill="none" viewBox="0 0 128 128"><path stroke="#153385" stroke-miterlimit="10" d="M18.15 35.62h28.43M9.35 49.2h28.43M7 76.38h24.27"/><path fill="#153385" stroke="#153385" stroke-miterlimit="10" d="M101.276 71.51c.691-25.374-17.546-46.456-40.733-47.087-23.188-.631-42.545 19.426-43.236 44.8-.69 25.373 17.546 46.454 40.733 47.086 23.188.631 42.545-19.426 43.236-44.8Z"/><path fill="#153385" d="m54.56 24.26 10.37-1.59-2.67 9.64-12.67-1.21 4.97-6.84Zm4.73 92.61h13.83l3.89-11.71-23.47 3.2 5.75 8.51Z"/><path fill="#fff" stroke="#153385" stroke-miterlimit="10" d="M71.34 11.52c6.66-.17 12.08.72 12.12 2.01l-.32 4.21-24.11.63.32-4.21c-.03-1.28 5.34-2.47 11.99-2.64Z"/><path fill="#153385" d="M71.122 20.7c6.94-.182 12.538-1.368 12.505-2.648-.034-1.281-5.687-2.172-12.626-1.99-6.94.181-12.539 1.367-12.506 2.648.034 1.28 5.687 2.171 12.627 1.99Z"/><path fill="#F5F7FA" stroke="#153385" stroke-miterlimit="10" d="m77 19.36-.18 2.3-11.51 1.39.26-3.42c.04-.49.34-.93.79-1.13 1.48-.68 5.09-1.91 9.65-.55.62.18 1.03.77.98 1.41H77Z"/><path fill="#48EFCF" stroke="#153385" stroke-miterlimit="10" d="M120.409 70.44c.71-26.07-18.939-47.753-43.887-48.433-24.949-.68-45.75 19.903-46.46 45.973-.71 26.069 18.94 47.753 43.889 48.432 24.948.68 45.748-19.903 46.458-45.972Z"/><path fill="#153385" d="M115.4 68.774c.64-23.47-16.847-42.985-39.057-43.59-22.21-.605-40.734 17.93-41.373 41.4-.639 23.468 16.848 42.984 39.058 43.589 22.21.605 40.733-17.93 41.372-41.4Z"/><mask id="illustration-speed.dark__a" width="82" height="86" x="34" y="25" maskUnits="userSpaceOnUse" style="mask-type:luminance"><path fill="#fff" d="M115.4 68.774c.64-23.47-16.847-42.985-39.057-43.59-22.21-.605-40.734 17.93-41.373 41.4-.639 23.468 16.848 42.984 39.058 43.589 22.21.605 40.733-17.93 41.372-41.4Z"/></mask><g stroke="#153385" stroke-miterlimit="10" mask="url(#illustration-speed.dark__a)"><path d="M115.4 68.774c.64-23.47-16.847-42.985-39.057-43.59-22.21-.605-40.734 17.93-41.373 41.4-.639 23.468 16.848 42.984 39.058 43.589 22.21.605 40.733-17.93 41.372-41.4Z"/><path fill="#F5F7FA" d="M111.143 71.506c.64-23.469-16.847-42.984-39.057-43.59-22.21-.604-40.734 17.93-41.373 41.4-.639 23.469 16.848 42.984 39.058 43.589 22.21.605 40.733-17.93 41.372-41.399Z"/></g><path stroke="#153385" stroke-miterlimit="10" d="M115.4 68.774c.64-23.47-16.847-42.985-39.057-43.59-22.21-.605-40.734 17.93-41.373 41.4-.639 23.468 16.848 42.984 39.058 43.589 22.21.605 40.733-17.93 41.372-41.4Z"/><path fill="#F5F7FA" stroke="#153385" stroke-miterlimit="10" d="m37.67 27.35 3.19 3.19c.83.83.83 2.18 0 3l-4.49 4.49c-.83.83-2.18.83-3 0l-3.19-3.19 7.49-7.49Z"/><path fill="#0B64DD" stroke="#153385" stroke-miterlimit="10" d="m60.17 86.49-4.4-4.2 39.11-35.97 1.18 1.18-35.89 38.99Z"/><path fill="#153385" stroke="#153385" stroke-miterlimit="10" d="M73.35 64.64a3.34 3.34 0 1 0 2.36-.98 3.3 3.3 0 0 0-2.36.98Z"/><path fill="#153385" d="M75.12 63.35h1.66l-.14 7.27h-1.99l.47-7.27Z"/><path fill="#153385" stroke="#153385" stroke-miterlimit="10" d="M76.89 70.34c1.563 0 2.83-1.495 2.83-3.34 0-1.845-1.267-3.34-2.83-3.34-1.563 0-2.83 1.495-2.83 3.34 0 1.845 1.267 3.34 2.83 3.34Z"/><path fill="#fff" stroke="#153385" stroke-miterlimit="10" d="M35.141 32.32c2.07-2.069 3.2-4.295 2.525-4.97-.676-.676-2.901.454-4.971 2.524-2.07 2.07-3.2 4.296-2.525 4.971.676.676 2.901-.454 4.971-2.524Z"/><path stroke="#153385" stroke-miterlimit="10" d="M11.07 103.55H39.5M13.22 89.96h20.7M11.07 62.79H28.5m43.49-35.44V35m0 63.72v7.65M101.3 65.4h7.65m-70.89 0h5.65"/></svg>