<svg xmlns="http://www.w3.org/2000/svg" fill="none" viewBox="0 0 128 128"><path fill="#153385" stroke="#101C3F" stroke-miterlimit="10" d="M37.56 47.05s30.27-9.17 55.92 2.13l12.55-10.22V24.83l-12.61-7.39-45.21-4.57-23.04 5.87v15.87l12.39 12.44Z"/><path fill="#0B64DD" stroke="#101C3F" stroke-miterlimit="10" d="m88.3 57.17 14.59-22.51a9.013 9.013 0 0 0 .55-8.82 8.997 8.997 0 0 0-5.68-4.76c-10.67-3-40.93-10.01-66.35-1.52-2.38.79-3.97 3.03-3.97 5.53 0 1.58.64 3.09 1.78 4.19L57.4 56.55 43.34 83.58 25.18 63.39a26.08 26.08 0 0 1-6.68-17.43V24.89c0-3.76 2.25-7.17 5.73-8.6 10.58-4.38 35.67-11.03 74.2 1.2 1.41.45 2.75 1.12 3.94 1.99a13.46 13.46 0 0 1 5.42 9.43l2.05 19.38a49.53 49.53 0 0 1-2.94 22.78l-4.75 12.52-13.86-26.43.01.01Z"/><path fill="#48EFCF" stroke="#101C3F" stroke-miterlimit="10" d="M80.675 116.52c16.602-3.998 26.677-21.29 22.503-38.622-4.174-17.332-21.016-28.142-37.618-24.144-16.602 3.998-26.677 21.29-22.503 38.622 4.174 17.332 21.016 28.142 37.618 24.144Z"/><path fill="#48EFCF" stroke="#101C3F" stroke-miterlimit="10" d="M83.898 114.069c15.147-3.648 24.147-20.225 20.101-37.025-4.046-16.801-19.605-27.464-34.752-23.816-15.147 3.648-24.146 20.224-20.1 37.025 4.046 16.801 19.605 27.463 34.752 23.816Z"/><path fill="#101C3F" d="M82.969 109.277c12.671-3.052 20.175-17.021 16.76-31.202-3.415-14.18-16.455-23.202-29.127-20.15-12.672 3.051-20.176 17.02-16.76 31.2 3.414 14.181 16.455 23.203 29.127 20.152Z"/><mask id="illustration-standard-medal.light__a" width="48" height="53" x="53" y="57" maskUnits="userSpaceOnUse" style="mask-type:luminance"><path fill="#fff" d="M82.969 109.277c12.671-3.052 20.175-17.021 16.76-31.202-3.415-14.18-16.455-23.202-29.127-20.15-12.672 3.051-20.176 17.02-16.76 31.2 3.414 14.181 16.455 23.203 29.127 20.152Z"/></mask><g mask="url(#illustration-standard-medal.light__a)"><path fill="#fff" stroke="#101C3F" stroke-miterlimit="10" d="M80.69 111.401c12.672-3.051 20.176-17.02 16.761-31.201-3.414-14.18-16.455-23.202-29.127-20.15-12.672 3.05-20.176 17.02-16.76 31.2 3.414 14.181 16.455 23.203 29.127 20.151Z"/></g><path stroke="#101C3F" stroke-miterlimit="10" d="M82.969 109.277c12.671-3.052 20.175-17.021 16.76-31.202-3.415-14.18-16.455-23.202-29.127-20.15-12.672 3.051-20.176 17.02-16.76 31.2 3.414 14.181 16.455 23.203 29.127 20.152Z"/><path fill="#0B64DD" d="m76.99 63.71 3.72 13.66c.17.63.74 1.06 1.39 1.06h12.06c.4 0 .59.5.29.77l-10.03 8.7c-.42.36-.59.93-.45 1.47l3.81 14.02c.11.42-.38.73-.71.44l-9.56-8.3c-.54-.47-1.35-.47-1.89 0l-9.56 8.3c-.33.28-.82-.03-.71-.44l3.81-14.02c.15-.53-.03-1.11-.45-1.47l-10.03-8.7c-.31-.26-.12-.77.29-.77h12.06c.65 0 1.22-.44 1.39-1.06l3.72-13.66c.12-.43.73-.43.84 0h.01Z"/></svg>