<svg xmlns="http://www.w3.org/2000/svg" fill="none" viewBox="0 0 128 128"><path fill="#153385" stroke="#153385" stroke-linejoin="round" d="M91.72 97.91 80.39 38.82H10.42c-2.38 0-4.21 1.87-3.88 3.97l8.68 55.13h76.5v-.01Z"/><path fill="#fff" stroke="#153385" stroke-linejoin="round" d="m93.75 97.91-10.78-56.2c-.32-1.67-1.95-2.9-3.86-2.9H12.44c-2.38 0-4.21 1.87-3.88 3.97l8.68 55.13h76.51Z"/><path fill="#F5F7FA" stroke="#153385" d="M14.77 43.14h62.7c.89 0 1.654.63 1.819 1.503L89.295 97.4H21.872l-8.919-52.105-.025-.21a1.846 1.846 0 0 1 1.842-1.945Z"/><path fill="#153385" stroke="#153385" stroke-linejoin="round" d="M89.9 107.35H21.13c-3.26 0-5.9-2.64-5.9-5.9v-3.54H89.9v9.44Z"/><path fill="#48EFCF" stroke="#153385" stroke-linejoin="round" d="M115.77 107.35H51.88c-3.26 0-5.9-2.64-5.9-5.9v-3.54h75.7v3.54c0 3.26-2.64 5.9-5.9 5.9h-.01Z"/><path stroke="#fff" stroke-linejoin="round" d="M35.87 99.53v5.93m-4.86-5.93v5.93"/><path fill="#153385" d="M91.76 100.963H78.14c-.6 0-1.08-.48-1.08-1.08v-1.68h15.79v1.68c0 .6-.48 1.08-1.08 1.08h-.01Z"/><path fill="#153385" stroke="#153385" stroke-miterlimit="10" d="M92.57 20.5H68.51c-10.72 0-19.4 8.69-19.4 19.4 0 8.34 5.27 15.43 12.66 18.17v13.08l15.6-11.85h15.21c10.72 0 19.4-8.69 19.4-19.4 0-10.71-8.69-19.4-19.41-19.4Z"/><path fill="#153385" d="M61.28 72.17h4.12l.5-5.62-4.62 5.62Z"/><path fill="#fff" stroke="#153385" stroke-miterlimit="10" d="M96.71 20.5H72.65c-10.72 0-19.4 8.69-19.4 19.4 0 8.34 5.27 15.43 12.66 18.17v13.08l15.6-11.85h15.21c10.72 0 19.4-8.69 19.4-19.4 0-10.71-8.7-19.4-19.41-19.4Z"/><path fill="#0B64DD" d="M81.36 44.96v-.71c0-5.82 5.96-5.75 5.96-9.59 0-1.56-1.28-2.8-3.3-2.8-2.45 0-3.87 1.88-4.01 4.54l-4.44-.32c.43-5.15 3.48-8.45 8.48-8.45s8.02 2.98 8.02 6.85c0 6.36-6.18 6.07-6.18 10.19v.28h-4.54l.01.01Zm-.21 2.8h4.9v5.25h-4.9v-5.25Z"/></svg>