<svg xmlns="http://www.w3.org/2000/svg" fill="none" viewBox="0 0 128 128"><path fill="#48EFCF" stroke="#153385" stroke-linejoin="round" d="m34.14 43.89-2.82-12.13-18.46-6.83 3.37 15.12-9.89 11.52 17.45 6.16 9.42-8.48.93-5.36Z"/><path fill="#153385" stroke="#153385" stroke-linecap="round" stroke-linejoin="round" d="m12.86 24.93-1.72.88 2.55 14.3L4.5 50.88l1.84.69 9.89-11.52-3.37-15.12Z"/><path fill="#153385" stroke="#153385" stroke-miterlimit="10" d="M69.28 114.48c21.35 5.57 44.51-12.36 51.74-40.05 7.23-27.69-4.79-53.8-26.1-60.18l-7.55-2.3-23.54 100.84 5.45 1.69Z"/><path fill="#F5F7FA" stroke="#153385" stroke-miterlimit="10" d="M115.557 72.731c7.224-27.692-4.227-54.656-25.577-60.226-21.349-5.569-44.512 12.366-51.736 40.059-7.224 27.693 4.227 54.657 25.577 60.226 21.35 5.569 44.512-12.366 51.736-40.059Z"/><path fill="#fff" stroke="#153385" stroke-miterlimit="10" d="M104.266 69.782c5.36-20.547-3.14-40.555-18.985-44.688-15.845-4.134-33.035 9.173-38.395 29.72-5.36 20.549 3.14 40.557 18.985 44.69 15.845 4.133 33.035-9.174 38.395-29.722Z"/><path fill="#0B64DD" stroke="#153385" stroke-miterlimit="10" d="M93.789 66.668c3.522-13.504-2.066-26.654-12.481-29.371-10.416-2.717-21.715 6.028-25.237 19.532-3.523 13.505 2.065 26.655 12.48 29.372 10.416 2.717 21.715-6.028 25.238-19.533Z"/><path fill="#fff" stroke="#153385" stroke-miterlimit="10" d="M83.232 63.868c1.801-6.904-1.054-13.627-6.376-15.015-5.323-1.389-11.098 3.083-12.9 9.987-1.8 6.905 1.055 13.628 6.377 15.016 5.323 1.389 11.098-3.083 12.899-9.988Z"/><path fill="#153385" stroke="#153385" stroke-miterlimit="10" d="m27.663 41.705 45.688 15.42a2.57 2.57 0 0 1 1.614 3.257l-.077.227a2.57 2.57 0 0 1-3.257 1.613l-45.688-15.42 1.72-5.097Z"/><path fill="#153385" stroke="#153385" stroke-miterlimit="10" d="M27.342 44.443c.476-1.413.502-2.68.058-2.83-.445-.15-1.192.873-1.67 2.286-.476 1.413-.502 2.68-.057 2.83.445.15 1.192-.873 1.669-2.286Z"/></svg>