<svg xmlns="http://www.w3.org/2000/svg" fill="none" viewBox="0 0 128 128"><path fill="#153385" stroke="#101C3F" stroke-miterlimit="10" d="M93.33 15.55H21.07a5.57 5.57 0 0 0-5.57 5.57v54.94a5.57 5.57 0 0 0 5.57 5.57h72.26a5.57 5.57 0 0 0 5.57-5.57V21.12a5.57 5.57 0 0 0-5.57-5.57Z"/><path fill="#0B64DD" d="M95.76 15.5H23.5a5.57 5.57 0 0 0-5.57 5.57v54.94a5.57 5.57 0 0 0 5.57 5.57h72.26a5.57 5.57 0 0 0 5.57-5.57V21.07a5.57 5.57 0 0 0-5.57-5.57Z"/><path stroke="#101C3F" stroke-miterlimit="10" d="M95.76 15.5H23.5a5.57 5.57 0 0 0-5.57 5.57v54.94a5.57 5.57 0 0 0 5.57 5.57h72.26a5.57 5.57 0 0 0 5.57-5.57V21.07a5.57 5.57 0 0 0-5.57-5.57ZM17.99 29.49h83.16"/><path fill="#fff" d="M36.37 21.32h-9.59a1.8 1.8 0 0 0-1.8 1.8v.19a1.8 1.8 0 0 0 1.8 1.8h9.59a1.8 1.8 0 0 0 1.8-1.8v-.19a1.8 1.8 0 0 0-1.8-1.8Z"/><path stroke="#101C3F" stroke-miterlimit="10" d="M15.5 46.7v18.49"/><path stroke="#fff" stroke-linecap="round" stroke-miterlimit="10" d="M29.35 41.99H66.6M29.35 53.87h36.67M29.35 65.75h35.23"/><path fill="#153385" stroke="#101C3F" stroke-miterlimit="10" d="M101.6 36.82 89.36 24.58 73.79 40.16h-.41V62.4h18.18V46.86l10.04-10.04Z"/><path fill="#153385" stroke="#101C3F" stroke-miterlimit="10" d="m62.88 121.58-10.46-6.04a8.898 8.898 0 0 1-3.28-3.28 8.925 8.925 0 0 1-1.2-4.48V81.05c0-1.57.41-3.12 1.2-4.48a9.049 9.049 0 0 1 3.28-3.28l23.16-13.37a8.99 8.99 0 0 1 4.47-1.2c1.57 0 3.11.41 4.47 1.2l23.15 13.37c1.36.78 2.49 1.91 3.28 3.28.79 1.37 1.2 2.91 1.2 4.48v26.73c0 1.58-.42 3.14-1.21 4.51-.8 1.37-1.95 2.5-3.32 3.28l-10.27 5.82L87.14 104l7.87-4.3-.78-13.48-14.19-8.2-14.18 8.2v13.9l7.16 4.13-10.14 17.32v.01Z"/><path fill="#48EFCF" stroke="#101C3F" stroke-miterlimit="10" d="M100.36 35.43 88.12 23.19 72.55 38.77h-.41v22.24h18.18V45.47l10.04-10.04Z"/><path fill="#153385" stroke="#101C3F" stroke-miterlimit="10" d="M81.28 54.32c5.54 0 10.03-4.49 10.03-10.03 0-5.54-4.49-10.03-10.03-10.03-5.54 0-10.03 4.49-10.03 10.03 0 5.54 4.49 10.03 10.03 10.03Z"/><path fill="#48EFCF" stroke="#101C3F" stroke-miterlimit="10" d="m62.88 119.1-10.46-6.04a8.898 8.898 0 0 1-3.28-3.28 8.925 8.925 0 0 1-1.2-4.48V78.57c0-1.57.41-3.12 1.2-4.48a9.049 9.049 0 0 1 3.28-3.28l23.16-13.37a8.99 8.99 0 0 1 4.47-1.2c1.57 0 3.11.41 4.47 1.2l23.15 13.37c1.36.78 2.49 1.91 3.28 3.28.79 1.37 1.2 2.91 1.2 4.48v26.73c0 1.58-.42 3.14-1.21 4.51-.8 1.37-1.95 2.5-3.32 3.28l-10.27 5.82-8.84-15.58 5.73-3.26V83.74l-14.19-8.2-14.18 8.2v16.38l5.96 3.45-8.94 15.52-.01.01Z"/><path fill="#153385" stroke="#101C3F" stroke-miterlimit="10" d="M56.57 90.16c5.54 0 10.03-4.49 10.03-10.03 0-5.54-4.49-10.03-10.03-10.03-5.54 0-10.03 4.49-10.03 10.03 0 5.54 4.49 10.03 10.03 10.03Z"/><path fill="#48EFCF" stroke="#101C3F" stroke-miterlimit="10" d="M107.63 71.09 84.48 57.73a9.068 9.068 0 0 0-4.66-1.19v19.39l.18-.1 14.19 8.19v16.34l-5.73 3.26 8.84 15.58 10.26-5.81a8.93 8.93 0 0 0 3.32-3.28c.8-1.37 1.22-2.92 1.22-4.51V78.87c0-1.58-.4-3.13-1.19-4.49a9 9 0 0 0-3.28-3.29Z"/><path fill="#153385" stroke="#101C3F" stroke-miterlimit="10" d="M79.45 78.17c5.54 0 10.03-4.49 10.03-10.03 0-5.54-4.49-10.03-10.03-10.03-5.54 0-10.03 4.49-10.03 10.03 0 5.54 4.49 10.03 10.03 10.03Zm23.18 12.14c5.54 0 10.03-4.49 10.03-10.03 0-5.54-4.49-10.03-10.03-10.03-5.54 0-10.03 4.49-10.03 10.03 0 5.54 4.49 10.03 10.03 10.03Z"/><path fill="#48EFCF" stroke="#101C3F" stroke-miterlimit="10" d="M56.57 88.25c5.54 0 10.03-4.49 10.03-10.03 0-5.54-4.49-10.03-10.03-10.03-5.54 0-10.03 4.49-10.03 10.03 0 5.54 4.49 10.03 10.03 10.03Zm22.88-12.44c5.54 0 10.03-4.49 10.03-10.03 0-5.54-4.49-10.03-10.03-10.03-5.54 0-10.03 4.49-10.03 10.03 0 5.54 4.49 10.03 10.03 10.03Zm1.83-23.18c5.54 0 10.03-4.49 10.03-10.03 0-5.54-4.49-10.03-10.03-10.03-5.54 0-10.03 4.49-10.03 10.03 0 5.54 4.49 10.03 10.03 10.03Z"/><path fill="#101C3F" stroke="#101C3F" stroke-miterlimit="10" d="M79.6 69.25c1.82 0 3.3-1.48 3.3-3.3 0-1.82-1.48-3.3-3.3-3.3-1.82 0-3.3 1.48-3.3 3.3 0 1.82 1.48 3.3 3.3 3.3Zm1.68-23.86c1.82 0 3.3-1.48 3.3-3.3 0-1.82-1.48-3.3-3.3-3.3-1.82 0-3.3 1.48-3.3 3.3 0 1.82 1.48 3.3 3.3 3.3ZM56.57 81.52c1.82 0 3.3-1.48 3.3-3.3 0-1.82-1.48-3.3-3.3-3.3-1.82 0-3.3 1.48-3.3 3.3 0 1.82 1.48 3.3 3.3 3.3Z"/><path fill="#48EFCF" stroke="#101C3F" stroke-miterlimit="10" d="M102.63 88.08c5.54 0 10.03-4.49 10.03-10.03 0-5.54-4.49-10.03-10.03-10.03-5.54 0-10.03 4.49-10.03 10.03 0 5.54 4.49 10.03 10.03 10.03Z"/><path fill="#101C3F" stroke="#101C3F" stroke-miterlimit="10" d="M102.63 81.52c1.82 0 3.3-1.48 3.3-3.3 0-1.82-1.48-3.3-3.3-3.3-1.82 0-3.3 1.48-3.3 3.3 0 1.82 1.48 3.3 3.3 3.3Z"/></svg>