<svg xmlns="http://www.w3.org/2000/svg" fill="none" viewBox="0 0 128 128"><path fill="#153385" stroke="#153385" stroke-miterlimit="10" stroke-width="1.03" d="m37.45 93.07-7.41 21.1c-.66 1.87.73 3.83 2.71 3.83h14.4c1.94 0 7.61 0 5.78-7.7l-8.95-24.77-6.78 3.53.25 4.01Z"/><path fill="#F5F7FA" stroke="#153385" stroke-miterlimit="10" stroke-width="1.03" d="m33.3 93.07-7.41 21.1c-.66 1.87.73 3.83 2.71 3.83h17.44c1.94 0 3.32-1.88 2.75-3.73l-8.95-28.74-6.78 3.53.25 4.01h-.01Z"/><path fill="#fff" stroke="#153385" stroke-miterlimit="10" stroke-width="1.03" d="m23.97 79.755 15.564-10.53 9.105 13.46-15.563 10.529a7.861 7.861 0 0 1-10.914-2.106l-.291-.43a7.861 7.861 0 0 1 2.105-10.915l-.005-.008Z"/><path fill="#fff" stroke="#153385" stroke-miterlimit="10" stroke-width="1.03" d="M95.33 106.59C72.97 115.27 45.79 99 34.64 70.26c-6.37-16.42-8.76-39.23 6.24-53.49a1.64 1.64 0 0 1 2.55.37l51.9 89.45Z"/><path fill="#153385" stroke="#153385" stroke-miterlimit="10" stroke-width="1.03" d="M96.088 106.379c7.663-4.639 1.629-28.63-13.479-53.585C67.502 27.839 49.043 11.37 41.38 16.009c-7.663 4.639-1.628 28.63 13.48 53.585 15.107 24.955 33.566 41.424 41.23 36.785Z"/><mask id="illustration-telecom.dark__a" width="70" height="94" x="38" y="13" maskUnits="userSpaceOnUse" style="mask-type:luminance"><path fill="#fff" d="M97.12 105.75c-8.23 4.98-27.15-11.21-42.26-36.16-15.1-24.95-20.68-49.22-12.44-54.2 8.23-4.98 42.1-2.92 57.21 22.03 15.11 24.95 5.73 63.35-2.5 68.33h-.01Z"/></mask><g stroke="#153385" stroke-miterlimit="10" stroke-width="1.03" mask="url(#illustration-telecom.dark__a)"><path fill="#48EFCF" d="m71.061 57.655.619-4.579-48.689-6.574-.618 4.579 48.688 6.574Z"/><path fill="#48EFCF" d="m71.178 56.805-4.578-.618-6.575 48.688 4.579.618 6.574-48.688Z"/><path fill="#48EFCF" d="m86.73 45.081-3.346-4.39-36.117 27.524 3.345 4.39L86.73 45.082Z"/><path fill="#0B64DD" d="M84.39 48.23a4.91 4.91 0 1 0 0-9.82 4.91 4.91 0 0 0 0 9.82Z"/></g><mask id="illustration-telecom.dark__b" width="67" height="52" x="74" y="0" maskUnits="userSpaceOnUse" style="mask-type:luminance"><path fill="#fff" d="M98.19 0 74.35 51.33l60.26-17.12 6.33-25.23L98.19 0Z"/></mask><g stroke="#153385" stroke-miterlimit="10" stroke-width="1.03" mask="url(#illustration-telecom.dark__b)"><path d="M62.93 99.18C37.29 93.79 20.81 68.55 26.2 42.9 31.59 17.26 56.83.78 82.47 6.17c25.64 5.39 42.12 30.63 36.73 56.28-5.39 25.64-30.63 42.12-56.28 36.74l.01-.01Z"/><path d="M64.61 91.21c-21.25-4.46-34.9-25.38-30.44-46.63 4.46-21.25 25.38-34.9 46.63-30.44 21.25 4.46 34.9 25.38 30.44 46.63-4.46 21.25-25.38 34.9-46.63 30.44Z"/><path d="M72.7 83.9c17.248 0 31.23-13.982 31.23-31.23S89.948 21.44 72.7 21.44 41.47 35.422 41.47 52.67 55.452 83.9 72.7 83.9Z"/></g></svg>