<svg xmlns="http://www.w3.org/2000/svg" fill="none" viewBox="0 0 128 128"><mask id="illustration-threat.light__a" width="114" height="113" x="7" y="8" maskUnits="userSpaceOnUse" style="mask-type:luminance"><path fill="#fff" d="M120.21 8H7v112.13h113.21V8Z"/></mask><g mask="url(#illustration-threat.light__a)"><path fill="#153385" stroke="#101C3F" stroke-miterlimit="10" d="M68.46 13.81c-27.89 0-50.5 22.61-50.5 50.5s22.61 50.5 50.5 50.5 50.5-22.61 50.5-50.5-22.61-50.5-50.5-50.5Zm0 85.8c-19.5 0-35.31-15.81-35.31-35.31s15.81-35.31 35.31-35.31 35.31 15.81 35.31 35.31-15.81 35.31-35.31 35.31Z"/><path fill="#153385" stroke="#101C3F" stroke-miterlimit="10" d="M66.44 82.56c10.08 0 18.25-8.17 18.25-18.25s-8.17-18.25-18.25-18.25-18.25 8.17-18.25 18.25 8.17 18.25 18.25 18.25Z"/><path fill="#0B64DD" stroke="#101C3F" stroke-miterlimit="10" d="M63.9 13.81c-27.89 0-50.5 22.61-50.5 50.49 0 27.88 22.61 50.5 50.5 50.5s50.5-22.61 50.5-50.5-22.61-50.49-50.5-50.49Zm0 85.8c-19.5 0-35.31-15.81-35.31-35.31S44.4 28.99 63.9 28.99 99.21 44.8 99.21 64.3 83.4 99.61 63.9 99.61Z"/><path fill="#48EFCF" stroke="#101C3F" stroke-miterlimit="10" d="M63.9 82.56c10.08 0 18.25-8.17 18.25-18.25S73.98 46.06 63.9 46.06s-18.25 8.17-18.25 18.25 8.17 18.25 18.25 18.25Z"/><path stroke="#153385" stroke-miterlimit="10" d="M63.9 8v27.34m0 57.44v27.34m56.31-56.26H92.87m-58.53 0H7"/><path fill="#fff" d="M50.94 64.4s11.48-16.4 25.92 0c0 0-11.15 15.42-25.92 0Z"/><path fill="#101C3F" d="M63.61 70.69a6.4 6.4 0 1 0 0-12.8c-3.54 0-6.4 2.86-6.4 6.4 0 3.54 2.86 6.4 6.4 6.4Z"/></g></svg>