<svg xmlns="http://www.w3.org/2000/svg" fill="none" viewBox="0 0 128 128"><path fill="#153385" stroke="#101C3F" stroke-miterlimit="10" d="M29.99 81.47h-3.92v30.98h3.92V81.47Zm68.76 0h-3.92v30.98h3.92V81.47Z"/><path fill="#0B64DD" stroke="#101C3F" stroke-miterlimit="10" d="M28.03 81.47h-3.92v30.98h3.92V81.47Zm72.69 0H96.8v30.98h3.92V81.47Z"/><path fill="#0B64DD" stroke="#101C3F" stroke-miterlimit="10" d="M112.65 79.89H12.5v3.23h100.15v-3.23Z"/><path fill="#101C3F" d="m112.98 79.53-7.06-6.47H19.36l-7.22 6.49 100.84-.02Z"/><path fill="#0B64DD" stroke="#101C3F" stroke-miterlimit="10" d="M111.09 18.65H14.08v59.8h97.01v-59.8Z"/><path fill="#fff" stroke="#101C3F" stroke-miterlimit="10" d="M108.1 21.37H16.96v57.08h91.14V21.37Z"/><path stroke="#101C3F" stroke-miterlimit="10" d="M43.51 54.67h27.65"/><path fill="#101C3F" d="M33.52 40.61a4.12 4.12 0 1 0 0-8.24 4.12 4.12 0 0 0 0 8.24Z"/><path stroke="#101C3F" stroke-miterlimit="10" d="M43.51 36.49H94.8"/><path fill="#101C3F" d="M33.52 58.79a4.12 4.12 0 1 0 0-8.24 4.12 4.12 0 0 0 0 8.24Z"/><path fill="#153385" stroke="#101C3F" stroke-miterlimit="10" d="M31.4 112.45h-8.86v3.38h8.86v-3.38Zm70.71 0h-8.86v3.38h8.86v-3.38ZM96.8 95.26H29.99v2.54H96.8v-2.54Z"/><path fill="#153385" stroke="#101C3F" stroke-miterlimit="10" d="M89.94 100.56c15.17 0 27.46-12.31 27.46-27.49 0-15.18-12.3-27.49-27.46-27.49S62.48 57.89 62.48 73.07c0 15.18 12.3 27.49 27.46 27.49Z"/><path fill="#48EFCF" stroke="#101C3F" stroke-linecap="round" stroke-linejoin="round" d="M84.8 100.56c15.17 0 27.46-12.31 27.46-27.49 0-15.18-12.3-27.49-27.46-27.49S57.34 57.89 57.34 73.07c0 15.18 12.3 27.49 27.46 27.49Z"/><path fill="#0B64DD" d="M98.24 84.17c0 7.43-26.89 7.43-26.89 0 0-4.87 2.59-9.13 6.47-11.49a9.705 9.705 0 0 1-2.56-6.56c0-5.38 4.36-9.73 9.73-9.73s9.73 4.36 9.73 9.73c0 2.61-1.03 4.99-2.71 6.72 3.74 2.39 6.21 6.56 6.21 11.32l.02.01Z"/><path fill="#0B64DD" stroke="#101C3F" stroke-miterlimit="10" d="M73.62 16.5H51.56v6.94h22.06V16.5Z"/></svg>