<svg xmlns="http://www.w3.org/2000/svg" fill="none" viewBox="0 0 128 128"><mask id="illustration-use-case-dataviz.light__a" width="110" height="110" x="9" y="9" maskUnits="userSpaceOnUse" style="mask-type:luminance"><path fill="#fff" d="M118.74 9H9v109.92h109.74V9Z"/></mask><g mask="url(#illustration-use-case-dataviz.light__a)"><path fill="#fff" d="M60.15 9.14c-.11.1-.2.61-.06.73s.67 0 .71-.13c.04-.13.12-.61 0-.69-.11-.04-.22-.05-.34-.04a.71.71 0 0 0-.31.13Zm31.47 1.8c.11 0 .21 0 .31-.06.1-.04.19-.1.26-.18.05-.08.07-.17.07-.26s-.02-.18-.07-.26c-.23-.35-.57-.32-.94-.09.01.34-.07.73.37.85Z"/><path fill="#0B64DD" stroke="#101C3F" stroke-linejoin="round" d="m54.25 40.12.09.18 2.11-6.5c-3.63-7.9-16.13-10.69-21.68-3.24l-2.08 6.51c5.48-7.36 17.86-4.72 21.56 3.05Zm.09.19 17.01-5.12 2.13-6.51-17.02 5.12-2.12 6.51ZM17.99 25.92c4.9 3.72 9.8 7.43 14.7 11.15l2.08-6.51L20.04 19.4l-2.06 6.52h.01Z"/><path fill="#fff" stroke="#101C3F" stroke-linejoin="round" d="m20.05 19.4 14.73 11.16c5.55-7.44 18.05-4.66 21.68 3.24l17.03-5.13C65.85 12.4 43.96 4.98 27.98 13.21c-3 1.55-5.72 3.63-7.93 6.19Z"/><path fill="#48EFCF" stroke="#101C3F" stroke-linejoin="round" d="M11.93 54.91 29 49.76l2.08-6.5-17.09 5.15-2.06 6.5Z"/><path fill="#153385" stroke="#101C3F" stroke-linejoin="round" d="m11.84 54.72.09.18 2.06-6.5c-3.2-6.73-2.16-13.74 1.18-20.48.94-1.9.75-4.52 2.16-6.11-5.03 4.23-8.96 19.5-7.53 26.74.42 2.13 1.12 4.2 2.04 6.17Z"/><path fill="#48EFCF" stroke="#101C3F" stroke-linejoin="round" d="m13.9 48.22.09.19 17.09-5.15c-1.65-3.34-1.39-7.35.96-10.29L17.33 21.82a23.592 23.592 0 0 0-5.48 20.23c.42 2.13 1.13 4.21 2.05 6.18v-.01Z"/><path fill="#153385" stroke="#101C3F" stroke-linejoin="round" d="M16.18 57.21c5.28 11.37 17.55 18.47 29.89 18.89 12.34.42 24.03-5.71 27.96-17.37 2.06-6.11 1.36-12.76-1.4-18.53l2.14-6.5c5 10.45 2.43 22.82-6.83 29.96-10.05 7.75-24.48 7.56-35.39 1.77-6.16-3.27-11.35-8.35-14.3-14.71l-2.06 6.5h-.01v-.01Z"/><path fill="#0B64DD" stroke="#101C3F" stroke-linejoin="round" d="M18.24 50.71c5.29 11.38 17.58 18.49 29.94 18.91 11.79.4 24.07-5.7 27.99-17.38 2.06-6.12 1.36-12.78-1.41-18.55l-17.03 5.13c5.22 10.64-8.15 17.22-16.68 12.68-2.48-1.32-4.54-3.37-5.72-5.93l-17.09 5.15v-.01Z"/><path fill="#101C3F" d="M114.97 83.96H25.82c-1.81 0-3.27 1.46-3.27 3.27v23.72c0 1.81 1.46 3.27 3.27 3.27h89.15c1.81 0 3.27-1.46 3.27-3.27V87.23c0-1.81-1.46-3.27-3.27-3.27Z"/><path stroke="#101C3F" stroke-miterlimit="10" d="M114.97 83.96H25.82c-1.81 0-3.27 1.46-3.27 3.27v23.72c0 1.81 1.46 3.27 3.27 3.27h89.15c1.81 0 3.27-1.46 3.27-3.27V87.23c0-1.81-1.46-3.27-3.27-3.27Z"/><path fill="#fff" d="M113.9 83.3H24.75c-1.81 0-3.27 1.46-3.27 3.27v23.72c0 1.81 1.46 3.27 3.27 3.27h89.15c1.81 0 3.27-1.46 3.27-3.27V86.57c0-1.81-1.46-3.27-3.27-3.27Z"/><path stroke="#101C3F" stroke-miterlimit="10" d="M113.9 83.3H55.65v30.26h58.25c1.81 0 3.27-1.46 3.27-3.27V86.57c0-1.81-1.46-3.27-3.27-3.27Z"/><path fill="#0B64DD" stroke="#101C3F" stroke-miterlimit="10" d="M24.75 83.3c-1.81 0-3.27 1.46-3.27 3.27v23.72c0 1.81 1.46 3.27 3.27 3.27h30.9V83.3h-30.9Z"/><path fill="#48EFCF" d="M43.22 90.48h-9.94l-4.96 8.61 4.96 8.6h9.94l4.97-8.6-4.97-8.61Z"/><path stroke="#101C3F" stroke-linecap="round" stroke-linejoin="round" d="M62.74 90.48h42m-42 7.96h36.02m-36.02 8.25h23.58"/><path fill="#153385" d="M92.88 65.7v-.9l.91.04v1.58l3.98.09-.04-.55c-.44-6.51-2.59-11.02-6.75-14.18C89.43 50.6 87.03 50 83.85 50c-5.54 0-12.3 1.85-15.54 3.22l-2.99-6.55c2.9-1.37 9.8-4.22 17.31-4.22 4.59 0 8.66 1.07 12.09 3.19 6.25 3.86 9.71 10.84 10.26 20.75l.03.5 5.33-.35-7.82 9.78-9.63-10.61h-.01v-.01Z"/><path fill="#101C3F" d="M82.62 41.95v1c4.5 0 8.48 1.05 11.83 3.11 6.11 3.77 9.48 10.61 10.02 20.35l.06 1.01 1.01-.07 3.69-.24-6.75 8.43-7.8-8.6 2.53.05 1.09.02-.07-1.09c-.46-6.66-2.66-11.29-6.94-14.55-1.64-1.25-4.14-1.88-7.43-1.88-5.36 0-11.86 1.71-15.29 3.07l-2.59-5.66c3.08-1.42 9.61-3.96 16.65-3.96v-1m0 .01c-9.21 0-17.42 4.22-17.97 4.48l3.4 7.45c2.93-1.34 10-3.37 15.79-3.37 2.76 0 5.23.46 6.83 1.68 3.65 2.78 6.08 6.84 6.55 13.82l-2.94-.06v-1.57l-1.91-.09v1.62l10.15 11.19 8.9-11.12-5.95.39c-.56-10.08-4.09-17.19-10.5-21.15-3.92-2.42-8.23-3.26-12.35-3.26v-.01Z"/><path fill="#48EFCF" stroke="#101C3F" stroke-miterlimit="10" d="M107.25 64.79c-.56-10.08-4.09-17.19-10.5-21.15-12.69-7.83-31.56.63-32.35.99l3.4 7.45c4.32-1.97 17.18-6.09 24.66-1.47 3.91 2.41 6.1 7.2 6.58 14.18h-5.29l9.63 10.48 9.31-10.48h-5.44Z"/></g></svg>