<svg xmlns="http://www.w3.org/2000/svg" fill="none" viewBox="0 0 128 128"><path fill="#153385" stroke="#153385" stroke-miterlimit="10" d="M106.88 17.56H21.07a5.57 5.57 0 0 0-5.57 5.57v68.06a5.57 5.57 0 0 0 5.57 5.57h85.81a5.57 5.57 0 0 0 5.57-5.57V23.13a5.57 5.57 0 0 0-5.57-5.57Z"/><path fill="#F5F7FA" d="M106.87 17.5H23.81a5.57 5.57 0 0 0-5.57 5.57v63.38a5.57 5.57 0 0 0 5.57 5.57h83.06a5.57 5.57 0 0 0 5.57-5.57V23.07a5.57 5.57 0 0 0-5.57-5.57Z"/><path fill="#F5F7FA" stroke="#153385" stroke-miterlimit="10" d="M106.87 17.5H23.81a5.57 5.57 0 0 0-5.57 5.57v63.38a5.57 5.57 0 0 0 5.57 5.57h83.06a5.57 5.57 0 0 0 5.57-5.57V23.07a5.57 5.57 0 0 0-5.57-5.57Z"/><path stroke="#153385" stroke-miterlimit="10" d="M18.32 33.3h94.13"/><path fill="#153385" d="M39.16 24.07h-11a1.95 1.95 0 0 0-1.95 1.95v.38a1.95 1.95 0 0 0 1.95 1.95h11a1.95 1.95 0 0 0 1.95-1.95v-.38a1.95 1.95 0 0 0-1.95-1.95Z"/><path fill="#153385" stroke="#153385" stroke-miterlimit="10" d="M62.98 119.43c21.517 0 38.96-17.443 38.96-38.96S84.497 41.51 62.98 41.51 24.02 58.953 24.02 80.47s17.443 38.96 38.96 38.96Z"/><path fill="#48EFCF" stroke="#153385" stroke-miterlimit="10" d="M66.33 119.43c21.517 0 38.96-17.443 38.96-38.96S87.847 41.51 66.33 41.51 27.37 58.953 27.37 80.47s17.443 38.96 38.96 38.96Z"/><path fill="#153385" d="M66.23 102.15c-11.19-.12-21.87-5.96-25.02-18.38h.03c-.41-2.49 2.05-3.94 4.23-3.01 7.56 2.08 13.94 2.69 20.86 2.69 5.62 0 20.86-2.69 20.86-2.69 2.18-.93 4.64.52 4.23 3.01h.03c-3.15 12.42-13.83 18.27-25.02 18.38M52.72 72.59c1.933 0 3.5-2.695 3.5-6.02 0-3.325-1.567-6.02-3.5-6.02s-3.5 2.695-3.5 6.02c0 3.325 1.567 6.02 3.5 6.02Zm26.1 0c1.933 0 3.5-2.695 3.5-6.02 0-3.325-1.567-6.02-3.5-6.02s-3.5 2.695-3.5 6.02c0 3.325 1.567 6.02 3.5 6.02Z"/></svg>