<svg xmlns="http://www.w3.org/2000/svg" fill="none" viewBox="0 0 128 128"><path fill="#0B64DD" stroke="#101C3F" stroke-miterlimit="10" stroke-width="1.03" d="M64.38 91.37h-3.15v13.49h3.15V91.37Z"/><path fill="#0B64DD" stroke="#101C3F" stroke-miterlimit="10" stroke-width="1.03" d="M62.8 116.28c-3.5 0-6.35-2.85-6.35-6.35 0-3.5 2.85-6.35 6.35-6.35 3.5 0 6.35 2.85 6.35 6.35 0 3.5-2.85 6.35-6.35 6.35Zm0-10.14c-2.09 0-3.79 1.7-3.79 3.79s1.7 3.79 3.79 3.79 3.79-1.7 3.79-3.79-1.7-3.79-3.79-3.79Z"/><path fill="#153385" stroke="#101C3F" stroke-miterlimit="10" stroke-width="1.03" d="M104.37 16.57H18.08a5.57 5.57 0 0 0-5.57 5.57V88.2a5.57 5.57 0 0 0 5.57 5.57h86.29a5.57 5.57 0 0 0 5.57-5.57V22.14a5.57 5.57 0 0 0-5.57-5.57Z"/><path fill="#0B64DD" d="M107.21 16.51H20.92a5.57 5.57 0 0 0-5.57 5.57v66.06a5.57 5.57 0 0 0 5.57 5.57h86.29a5.57 5.57 0 0 0 5.57-5.57V22.08a5.57 5.57 0 0 0-5.57-5.57Z"/><path stroke="#101C3F" stroke-miterlimit="10" stroke-width="1.03" d="M107.21 16.51H20.92a5.57 5.57 0 0 0-5.57 5.57v66.06a5.57 5.57 0 0 0 5.57 5.57h86.29a5.57 5.57 0 0 0 5.57-5.57V22.08a5.57 5.57 0 0 0-5.57-5.57ZM15.42 32.86h97.16"/><path fill="#fff" d="M37.06 23.31H25.54a1.95 1.95 0 0 0-1.95 1.95v.53a1.95 1.95 0 0 0 1.95 1.95h11.52a1.95 1.95 0 0 0 1.95-1.95v-.53a1.95 1.95 0 0 0-1.95-1.95Z"/><path stroke="#101C3F" stroke-miterlimit="10" stroke-width="1.03" d="M12.51 52.96v21.6"/><path fill="#153385" stroke="#101C3F" stroke-miterlimit="10" stroke-width="1.03" d="M99.51 114.38c-11.48 0-20.79-9.32-20.79-20.81 0-11.5 9.31-20.81 20.79-20.81 11.48 0 20.79 9.32 20.79 20.81 0 11.5-9.31 20.81-20.79 20.81Z"/><path fill="#48EFCF" stroke="#101C3F" stroke-linecap="round" stroke-linejoin="round" stroke-width="1.03" d="M101.46 114.38c-11.48 0-20.79-9.32-20.79-20.81 0-11.5 9.31-20.81 20.79-20.81 11.48 0 20.79 9.32 20.79 20.81 0 11.5-9.31 20.81-20.79 20.81Z"/><path fill="#0B64DD" d="M111.65 101.78c0 5.46-19.75 5.46-19.75 0 0-3.58 1.9-6.7 4.75-8.44a7.13 7.13 0 0 1-1.88-4.82c0-3.95 3.2-7.15 7.15-7.15s7.15 3.2 7.15 7.15c0 1.92-.75 3.66-1.99 4.94a9.865 9.865 0 0 1 4.57 8.32Z"/><path fill="#48EFCF" d="M57.17 72.35h11.26v8.79c0 3.03-2.46 5.49-5.49 5.49h-.28c-3.03 0-5.49-2.46-5.49-5.49v-8.79Z"/><path fill="#fff" d="M80.42 58.51c0-9.73-7.89-17.62-17.62-17.62s-17.62 7.89-17.62 17.62c0 6.9 3.97 12.88 9.76 15.77v3.75c0 1.24 1.01 2.25 2.25 2.25h11.22c1.24 0 2.25-1.01 2.25-2.25v-3.75c5.79-2.89 9.76-8.86 9.76-15.77Z"/><path stroke="#101C3F" stroke-linejoin="round" stroke-width="1.03" d="M65.53 79.04c0-6.65 5.68-13.62 5.68-13.62-5.77 0-6.96-6.64-3.81-6.64 3.36 0 1.71 6.38-4.72 6.38s-7.99-6.38-4.63-6.38c3.15 0 1.97 6.64-3.81 6.64 0 0 5.68 6.97 5.68 13.62"/></svg>