<svg xmlns="http://www.w3.org/2000/svg" fill="none" viewBox="0 0 128 128"><path fill="#153385" stroke="#101C3F" stroke-miterlimit="10" d="M66.66 113.82c27.7 0 50.16-22.46 50.16-50.16 0-27.7-22.46-50.16-50.16-50.16-27.7 0-50.16 22.46-50.16 50.16 0 27.7 22.46 50.16 50.16 50.16Z"/><path fill="#0B64DD" stroke="#101C3F" stroke-miterlimit="10" d="M61.66 113.82c27.7 0 50.16-22.46 50.16-50.16 0-27.7-22.46-50.16-50.16-50.16-27.7 0-50.16 22.46-50.16 50.16 0 27.7 22.46 50.16 50.16 50.16Z"/><path fill="#48EFCF" stroke="#101C3F" stroke-miterlimit="10" d="M11.51 63.66h50.15V13.5c-6.59 0-13.11 1.3-19.19 3.82A50.227 50.227 0 0 0 26.2 28.19a50.174 50.174 0 0 0-10.87 16.27 49.995 49.995 0 0 0-3.81 19.19l-.01.01Zm100.31 0H61.66v50.16c13.3 0 26.06-5.28 35.47-14.69a50.16 50.16 0 0 0 14.69-35.47Z"/><path fill="#153385" d="M29.36 37.94h13.43v3H29.36v-3Z"/><path fill="#fff" d="m90.49 46.55-3.58-5.11-3.61 5.11h-3.5l5.17-7.21-4.91-7h3.6l3.43 4.86 3.42-4.86h3.48l-5 6.88 5.19 7.31-3.69.02ZM28.35 85.96h6.59v-6.93h3.33v6.93h6.59v3.28h-6.59v6.93h-3.28v-6.93H28.4l-.05-3.28Z"/><path fill="#153385" d="M80.37 83.5H93.2v2.76H80.37V83.5Zm0 6.79H93.2v2.74H80.37v-2.74Z"/><path fill="#101C3F" d="M62.8 87.94c13.255 0 24-10.87 24-24.28 0-13.41-10.745-24.28-24-24.28s-24 10.87-24 24.28c0 13.41 10.745 24.28 24 24.28Z"/><path fill="#0B64DD" stroke="#101C3F" stroke-miterlimit="10" d="M60.52 87.66c13.255 0 24-10.745 24-24s-10.745-24-24-24-24 10.745-24 24 10.745 24 24 24Z"/><path fill="#101C3F" d="M60.52 82.59c10.455 0 18.93-8.475 18.93-18.93s-8.475-18.93-18.93-18.93-18.93 8.475-18.93 18.93 8.475 18.93 18.93 18.93Z"/><mask id="illustration-value-calculator.light__a" width="39" height="39" x="41" y="44" maskUnits="userSpaceOnUse" style="mask-type:luminance"><path fill="#fff" d="M60.52 82.59c10.455 0 18.93-8.475 18.93-18.93s-8.475-18.93-18.93-18.93-18.93 8.475-18.93 18.93 8.475 18.93 18.93 18.93Z"/></mask><g mask="url(#illustration-value-calculator.light__a)"><path fill="#fff" d="M63.04 83.17c10.455 0 18.93-8.475 18.93-18.93s-8.475-18.93-18.93-18.93-18.93 8.475-18.93 18.93 8.475 18.93 18.93 18.93Z"/></g><path fill="#0B64DD" d="M60.04 76.29v-3a5.813 5.813 0 0 1-3.29-1.43c-.92-.82-1.55-1.9-1.81-3.11l3.26-.84c.2 1.54 1.78 2.51 3.65 2.51 1.87 0 2.87-.94 2.87-2.51 0-4.12-9.5-1.14-9.5-8.33-.02-1.36.45-2.68 1.34-3.7a5.492 5.492 0 0 1 3.48-1.85v-3h2.93v2.9c1.19.09 2.32.54 3.24 1.31.92.76 1.57 1.8 1.86 2.95l-3.35 1c-.17-.69-.58-1.31-1.15-1.73-.58-.42-1.29-.62-2-.56-1.64 0-2.65.78-2.65 2.26 0 4.12 9.46 1.17 9.46 8.36 0 3.07-2.18 5.33-5.41 5.8v2.9l-2.93.07Z"/></svg>