<svg xmlns="http://www.w3.org/2000/svg" fill="none" viewBox="0 0 128 128"><path fill="#153385" stroke="#153385" stroke-miterlimit="10" d="M102.76 20.55H18.85a5.57 5.57 0 0 0-5.57 5.57V90.3a5.57 5.57 0 0 0 5.57 5.57h83.91a5.57 5.57 0 0 0 5.57-5.57V26.12a5.57 5.57 0 0 0-5.57-5.57Z"/><path fill="#F5F7FA" d="M105.53 20.5H21.62a5.57 5.57 0 0 0-5.57 5.57v64.18a5.57 5.57 0 0 0 5.57 5.57h83.91a5.57 5.57 0 0 0 5.57-5.57V26.07a5.57 5.57 0 0 0-5.57-5.57Z"/><path stroke="#153385" stroke-miterlimit="10" d="M105.53 20.5H21.62a5.57 5.57 0 0 0-5.57 5.57v64.18a5.57 5.57 0 0 0 5.57 5.57h83.91a5.57 5.57 0 0 0 5.57-5.57V26.07a5.57 5.57 0 0 0-5.57-5.57ZM16.12 36.44h94.78"/><path fill="#153385" d="M37.17 27.13H26.03a1.95 1.95 0 0 0-1.95 1.95v.42a1.95 1.95 0 0 0 1.95 1.95h11.14a1.95 1.95 0 0 0 1.95-1.95v-.42a1.95 1.95 0 0 0-1.95-1.95Z"/><path stroke="#153385" stroke-miterlimit="10" d="M13.28 56.06v21.07"/><path fill="#153385" stroke="#153385" stroke-miterlimit="10" d="M92.07 117.74c-14.94 0-27.06-12.13-27.06-27.09 0-14.96 12.12-27.09 27.06-27.09s27.06 12.13 27.06 27.09c0 14.96-12.12 27.09-27.06 27.09Z"/><path fill="#fff" stroke="#153385" stroke-linecap="round" stroke-linejoin="round" d="M94.6 117.74c-14.94 0-27.06-12.13-27.06-27.09 0-14.96 12.12-27.09 27.06-27.09s27.06 12.13 27.06 27.09c0 14.96-12.12 27.09-27.06 27.09Z"/><path fill="#0B64DD" d="M109.82 88.84 87.55 75.52c-1.47-.88-3.41.09-3.41 1.69v26.88c0 1.61 1.96 2.58 3.43 1.68l22.27-13.56c1.32-.8 1.31-2.58-.02-3.37Z"/><mask id="illustration-video-analytics.dark__a" width="107" height="76" x="16" y="23" maskUnits="userSpaceOnUse" style="mask-type:luminance"><path fill="#fff" d="M118.55 23.53H19.89a3.48 3.48 0 0 0-3.48 3.48v68.02a3.48 3.48 0 0 0 3.48 3.48h98.66a3.48 3.48 0 0 0 3.48-3.48V27.01a3.48 3.48 0 0 0-3.48-3.48Z"/></mask><g mask="url(#illustration-video-analytics.dark__a)"><path fill="#153385" d="m106.51 35.74-16.52-2.17 5.06 6.59-30.72 19.45-4.35-7.28L35.1 68.24l-6.72-9.32L6.83 70.99l3.49 6.23 15.99-8.96 6.95 9.63 24.36-15.58 4.33 7.26 37.46-23.72 4.46 5.81 2.64-15.92Z"/><path fill="#153385" d="m106.51 35.74-.47-3.05-6.97.62.63 6.63 6.81-4.2Z"/><path fill="#48EFCF" stroke="#153385" stroke-miterlimit="10" d="m105.36 33.23-16.52-2.18 5.06 6.6L63.18 57.1l-4.35-7.28-24.88 15.9-6.72-9.31L5.68 68.48l3.49 6.23 15.99-8.96 6.95 9.62L56.47 59.8l4.33 7.25 37.47-23.71 4.46 5.81 2.63-15.92Z"/></g><path stroke="#153385" stroke-miterlimit="10" d="M24.08 88.83H52.5m-28.42-5.49h12.01"/></svg>