<svg xmlns="http://www.w3.org/2000/svg" fill="none" viewBox="0 0 128 128"><path fill="#153385" stroke="#153385" stroke-miterlimit="10" d="M104.05 21.56H21.07a5.57 5.57 0 0 0-5.57 5.57v76.75a5.57 5.57 0 0 0 5.57 5.57h82.98a5.57 5.57 0 0 0 5.57-5.57V27.13a5.57 5.57 0 0 0-5.57-5.57Z"/><path fill="#F5F7FA" d="M106.79 21.5H23.81a5.57 5.57 0 0 0-5.57 5.57v76.75a5.57 5.57 0 0 0 5.57 5.57h82.98a5.57 5.57 0 0 0 5.57-5.57V27.07a5.57 5.57 0 0 0-5.57-5.57Z"/><path stroke="#153385" stroke-miterlimit="10" d="M106.79 21.5H23.81a5.57 5.57 0 0 0-5.57 5.57v76.75a5.57 5.57 0 0 0 5.57 5.57h82.98a5.57 5.57 0 0 0 5.57-5.57V27.07a5.57 5.57 0 0 0-5.57-5.57ZM18.31 37.29h93.86"/><path fill="#153385" d="M39.14 28.06H28.15a1.95 1.95 0 0 0-1.95 1.95v.38a1.95 1.95 0 0 0 1.95 1.95h10.99a1.95 1.95 0 0 0 1.95-1.95v-.38a1.95 1.95 0 0 0-1.95-1.95Z"/><path fill="#153385" stroke="#153385" stroke-miterlimit="10" d="M64.23 100.52c-14.9 0-26.98-12.09-26.98-27.01 0-14.92 12.08-27.01 26.98-27.01s26.98 12.09 26.98 27.01c0 14.92-12.08 27.01-26.98 27.01Z"/><path fill="#fff" stroke="#153385" stroke-linecap="round" stroke-linejoin="round" d="M66.76 100.52c-14.9 0-26.98-12.09-26.98-27.01 0-14.92 12.08-27.01 26.98-27.01s26.98 12.09 26.98 27.01c0 14.92-12.08 27.01-26.98 27.01Z"/><path fill="#0B64DD" d="M81.93 71.71 59.72 58.43c-1.46-.88-3.4.09-3.4 1.69v26.8c0 1.61 1.96 2.57 3.42 1.68l22.21-13.52c1.32-.8 1.31-2.57-.02-3.36v-.01Z"/><path fill="#153385" d="m113.28 100.26 1.83-1.08 4.51-2.56-.52-2.23-6.53 2.21-27.18-7.91 7.26 28.06-.65 4.79 1.91 1.29 3.08-6.09 3.6-6.86 9.63 10.18 7.45-7.45-10.16-9.25 5.77-3.1Z"/><path stroke="#153385" stroke-miterlimit="10" d="m92.25 121.06 1.9 1.3 2.84-5.62 3.6-6.86 9.63 10.18 7.45-7.45-10.16-9.25 5.77-3.1 1.83-1.08 4.51-2.56-.95-2.08"/><path fill="#48EFCF" stroke="#153385" stroke-miterlimit="10" d="m117.67 94.51-34.66-9.1 9.11 34.65 5.56-12.54 12.54 12.54 7.45-7.45-12.54-12.54 12.54-5.56Z"/></svg>